<svg width="24" height="24" viewBox="0 0 24 24" fill="none" xmlns="http://www.w3.org/2000/svg">
<path opacity="0.3" d="M13.341 22H11.341C10.741 22 10.341 21.6 10.341 21V18C10.341 17.4 10.741 17 11.341 17H13.341C13.941 17 14.341 17.4 14.341 18V21C14.341 21.6 13.941 22 13.341 22ZM18.5409 10.7L21.141 9.19997C21.641 8.89997 21.7409 8.29997 21.5409 7.79997L20.5409 6.09997C20.2409 5.59997 19.641 5.49997 19.141 5.69997L16.5409 7.19997C16.0409 7.49997 15.941 8.09997 16.141 8.59997L17.141 10.3C17.441 10.8 18.0409 11 18.5409 10.7ZM8.14096 7.29997L5.54095 5.79997C5.04095 5.49997 4.44096 5.69997 4.14096 6.19997L3.14096 7.89997C2.84096 8.39997 3.04095 8.99997 3.54095 9.29997L6.14096 10.8C6.64096 11.1 7.24095 10.9 7.54095 10.4L8.54095 8.69997C8.74095 8.19997 8.64096 7.49997 8.14096 7.29997Z" fill="currentColor"/>
<path d="M13.341 7H11.341C10.741 7 10.341 6.6 10.341 6V3C10.341 2.4 10.741 2 11.341 2H13.341C13.941 2 14.341 2.4 14.341 3V6C14.341 6.6 13.941 7 13.341 7ZM5.541 18.2L8.14101 16.7C8.64101 16.4 8.741 15.8 8.541 15.3L7.541 13.6C7.241 13.1 6.64101 13 6.14101 13.2L3.541 14.7C3.041 15 2.94101 15.6 3.14101 16.1L4.14101 17.8C4.44101 18.3 5.041 18.5 5.541 18.2ZM21.141 14.8L18.541 13.3C18.041 13 17.441 13.2 17.141 13.7L16.141 15.4C15.841 15.9 16.041 16.5 16.541 16.8L19.141 18.3C19.641 18.6 20.241 18.4 20.541 17.9L21.541 16.2C21.741 15.7 21.641 15 21.141 14.8Z" fill="currentColor"/>
</svg>
