<svg width="24" height="24" viewBox="0 0 24 24" fill="none" xmlns="http://www.w3.org/2000/svg">
<path d="M15.6 5.59998L20.9 10.9C21.3 11.3 21.3 11.9 20.9 12.3L17.6 15.6L11.6 9.59998L15.6 5.59998ZM2.3 12.3L7.59999 17.6L11.6 13.6L5.59999 7.59998L2.3 10.9C1.9 11.3 1.9 11.9 2.3 12.3Z" fill="currentColor"/>
<path opacity="0.3" d="M17.6001 15.6L12.3001 20.9C11.9001 21.3 11.3001 21.3 10.9001 20.9L7.6001 17.6L13.6001 11.6L17.6001 15.6ZM10.9001 2.3L5.6001 7.6L9.6001 11.6L15.6001 5.6L12.3001 2.3C11.9001 1.9 11.3001 1.9 10.9001 2.3Z" fill="currentColor"/>
</svg>
