<svg width="24" height="24" viewBox="0 0 24 24" fill="none" xmlns="http://www.w3.org/2000/svg">
<path d="M16.925 3.90078V8.00077L12.025 10.8008V5.10078L15.525 3.10078C16.125 2.80078 16.925 3.20078 16.925 3.90078ZM2.525 13.5008L6.025 15.5008L10.925 12.7008L6.025 9.90078L2.525 11.9008C1.825 12.3008 1.825 13.2008 2.525 13.5008ZM18.025 19.7008V15.6008L13.125 12.8008V18.5008L16.625 20.5008C17.225 20.8008 18.025 20.4008 18.025 19.7008Z" fill="currentColor"/>
<path opacity="0.3" d="M8.5249 3.10078L12.0249 5.10078V10.8008L7.12491 8.00077V3.90078C7.12491 3.20078 7.9249 2.80078 8.5249 3.10078ZM7.4249 20.5008L10.9249 18.5008V12.8008L6.0249 15.6008V19.7008C6.0249 20.4008 6.8249 20.8008 7.4249 20.5008ZM21.5249 11.9008L18.0249 9.90078L13.1249 12.7008L18.0249 15.5008L21.5249 13.5008C22.2249 13.2008 22.2249 12.3008 21.5249 11.9008Z" fill="currentColor"/>
</svg>
