<svg width="24" height="24" viewBox="0 0 24 24" fill="none" xmlns="http://www.w3.org/2000/svg">
<path d="M10.6 10.7C13.3 8 16.9 6.3 20.9 6C21.5 6 21.9 5.5 21.9 4.9V3C21.9 2.4 21.4 2 20.9 2C15.8 2.3 11.2 4.4 7.79999 7.8C4.39999 11.2 2.2 15.8 2 20.9C2 21.5 2.4 21.9 3 21.9H4.89999C5.49999 21.9 6 21.5 6 20.9C6.2 17 7.90001 13.4 10.6 10.7Z" fill="currentColor"/>
<path opacity="0.3" d="M14.7999 14.9C16.3999 13.3 18.4999 12.2 20.8999 12C21.4999 11.9 21.8999 11.5 21.8999 10.9V9C21.8999 8.4 21.3999 8 20.7999 8C17.3999 8.3 14.2999 9.8 11.9999 12.1C9.69991 14.4 8.1999 17.5 7.8999 20.9C7.8999 21.5 8.2999 22 8.8999 22H10.7999C11.3999 22 11.7999 21.6 11.8999 21C12.1999 18.6 13.1999 16.5 14.7999 14.9ZM16.1999 16.3C17.3999 15.1 18.9999 14.3 20.6999 14C21.2999 13.9 21.7999 14.4 21.7999 15V17C21.7999 17.5 21.3999 18 20.8999 18.1C20.0999 18.3 19.4999 18.6 18.9999 19.2C18.4999 19.8 18.0999 20.4 17.8999 21.1C17.7999 21.6 17.3999 22 16.7999 22H14.7999C14.1999 22 13.6999 21.5 13.7999 20.9C14.1999 19.1 14.9999 17.5 16.1999 16.3Z" fill="currentColor"/>
</svg>
