<svg width="24" height="24" viewBox="0 0 24 24" fill="none" xmlns="http://www.w3.org/2000/svg">
<path opacity="0.3" d="M12.3028 2C2.20275 8.5 0.302747 19.4 12.3028 22C24.3028 19.4 22.4028 8.5 12.3028 2Z" fill="currentColor"/>
<path d="M12.3029 22L20.603 13.7C20.703 17.5 18.2029 20.7 12.3029 22ZM19.603 9.7C19.103 8.7 18.5029 7.7 17.603 6.7L12.3029 12V17L19.603 9.7ZM9.40292 4.10001C8.50292 4.90001 7.60292 5.80001 6.90292 6.60001L12.2029 11.9V6.89999L9.40292 4.10001ZM12.3029 2V7L15.2029 4.10001C14.3029 3.40001 13.3029 2.7 12.3029 2ZM4.00293 13.7L12.3029 22V17L5.00293 9.7C4.40293 11.1 4.00293 12.4 4.00293 13.7Z" fill="currentColor"/>
</svg>
