<svg width="24" height="24" viewBox="0 0 24 24" fill="none" xmlns="http://www.w3.org/2000/svg">
<path opacity="0.3" d="M21.9998 12C21.9998 13.8 21.4998 15.5 20.6998 17L14.8998 7H20.6998C21.4998 8.5 21.9998 10.2 21.9998 12ZM3.2998 7L6.1998 12L11.9998 2C8.2998 2 5.0998 4 3.2998 7ZM3.2998 17C4.9998 20 8.2998 22 11.9998 22L14.8998 17H3.2998Z" fill="currentColor"/>
<path d="M20.7 7H9.2L12.1 2C15.7 2 18.9 4 20.7 7ZM3.3 7C2.4 8.5 2 10.2 2 12C2 13.8 2.5 15.5 3.3 17H9.10001L3.3 7ZM17.8 12L12 22C15.7 22 18.9 20 20.7 17L17.8 12Z" fill="currentColor"/>
</svg>
