<svg width="24" height="24" viewBox="0 0 24 24" fill="none" xmlns="http://www.w3.org/2000/svg">
<path opacity="0.3" d="M6.7 19.4L5.3 18C4.9 17.6 4.9 17 5.3 16.6L16.6 5.3C17 4.9 17.6 4.9 18 5.3L19.4 6.7C19.8 7.1 19.8 7.7 19.4 8.1L8.1 19.4C7.8 19.8 7.1 19.8 6.7 19.4Z" fill="currentColor"/>
<path d="M19.5001 18L18.1001 19.4C17.7001 19.8 17.1001 19.8 16.7001 19.4L5.4001 8.1C5.0001 7.7 5.0001 7.1 5.4001 6.7L6.8001 5.3C7.2001 4.9 7.8001 4.9 8.2001 5.3L19.5001 16.6C19.9001 16.9 19.9001 17.6 19.5001 18Z" fill="currentColor"/>
</svg>
