<svg width="24" height="24" viewBox="0 0 24 24" fill="none" xmlns="http://www.w3.org/2000/svg">
<path opacity="0.3" d="M11.4251 7.325C12.9251 5.825 15.2251 5.825 16.7251 7.325C18.2251 8.825 18.2251 11.125 16.7251 12.625C15.2251 14.125 12.9251 14.125 11.4251 12.625C9.9251 11.225 9.9251 8.825 11.4251 7.325ZM8.4251 4.325C5.3251 7.425 5.3251 12.525 8.4251 15.625C11.5251 18.725 16.6251 18.725 19.7251 15.625C22.8251 12.525 22.8251 7.425 19.7251 4.325C16.5251 1.225 11.5251 1.225 8.4251 4.325Z" fill="currentColor"/>
<path d="M11.325 17.525C10.025 18.025 8.425 17.725 7.325 16.725C5.825 15.225 5.825 12.925 7.325 11.425C8.825 9.92498 11.125 9.92498 12.625 11.425C13.225 12.025 13.625 12.925 13.725 13.725C14.825 13.825 15.925 13.525 16.725 12.625C17.125 12.225 17.425 11.825 17.525 11.325C17.125 10.225 16.525 9.22498 15.625 8.42498C12.525 5.32498 7.425 5.32498 4.325 8.42498C1.225 11.525 1.225 16.625 4.325 19.725C7.425 22.825 12.525 22.825 15.625 19.725C16.325 19.025 16.925 18.225 17.225 17.325C15.425 18.125 13.225 18.225 11.325 17.525Z" fill="currentColor"/>
</svg>
