<svg width="24" height="24" viewBox="0 0 24 24" fill="none" xmlns="http://www.w3.org/2000/svg">
<path opacity="0.3" d="M11.8499 21.9766L10.0499 21.1766C9.54988 20.9766 9.34988 20.3766 9.54988 19.8766L9.9499 18.9766C10.8499 16.8766 10.8499 14.8766 9.9499 12.7766C8.5499 9.67664 8.5499 6.57664 9.9499 3.47664L10.3499 2.57664C10.5499 2.07664 11.1499 1.87664 11.6499 2.07664L13.4499 2.87664C13.9499 3.07664 14.1499 3.67664 13.9499 4.17664L13.5499 5.07664C12.6499 7.17664 12.6499 9.17664 13.5499 11.2766C14.9499 14.3766 14.9499 17.4766 13.5499 20.5766L13.1499 21.4766C12.9499 21.9766 12.3499 22.1766 11.8499 21.9766ZM20.0499 21.4766L20.4499 20.5766C21.8499 17.4766 21.8499 14.3766 20.4499 11.2766C19.5499 9.17664 19.5499 7.17664 20.4499 5.07664L20.8499 4.17664C21.0499 3.67664 20.8499 3.07664 20.3499 2.87664L18.5499 2.07664C18.0499 1.87664 17.4499 2.07664 17.2499 2.57664L16.8499 3.47664C15.4499 6.57664 15.4499 9.67664 16.8499 12.7766C17.7499 14.8766 17.7499 16.8766 16.8499 18.9766L16.4499 19.8766C16.2499 20.3766 16.4499 20.9766 16.9499 21.1766L18.7499 21.9766C19.2499 22.1766 19.8499 21.9766 20.0499 21.4766Z" fill="currentColor"/>
<path d="M4.95002 21.9766L3.15001 21.1766C2.65001 20.9766 2.45001 20.3766 2.65001 19.8766L3.05 18.9766C3.95 16.8766 3.95 14.8766 3.05 12.7766C1.65 9.67664 1.65 6.57664 3.05 3.47664L3.45002 2.57664C3.65002 2.07664 4.25001 1.87664 4.75001 2.07664L6.55 2.87664C7.05 3.07664 7.25 3.67664 7.05 4.17664L6.65001 5.07664C5.75001 7.17664 5.75001 9.17664 6.65001 11.2766C8.05001 14.3766 8.05001 17.4766 6.65001 20.5766L6.25001 21.4766C6.05001 21.9766 5.45002 22.1766 4.95002 21.9766Z" fill="currentColor"/>
</svg>
