<svg width="24" height="24" viewBox="0 0 24 24" fill="none" xmlns="http://www.w3.org/2000/svg">
<path d="M18 21.6C16.6 20.4 9.1 20.3 6.3 21.2C5.7 21.4 5.1 21.2 4.7 20.8L2 18C4.2 15.8 10.8 15.1 15.8 15.8C16.2 18.3 17 20.5 18 21.6ZM18.8 2.8C18.4 2.4 17.8 2.20001 17.2 2.40001C14.4 3.30001 6.9 3.2 5.5 2C6.8 3.3 7.4 5.5 7.7 7.7C9 7.9 10.3 8 11.7 8C15.8 8 19.8 7.2 21.5 5.5L18.8 2.8Z" fill="currentColor"/>
<path opacity="0.3" d="M21.2001 17.3C21.4001 17.9 21.2001 18.5 20.8001 18.9L18.0001 21.6C15.8001 19.4 15.1001 12.8 15.8001 7.8C18.3001 7.4 20.4001 6.70001 21.5001 5.60001C20.4001 7.00001 20.2001 14.5 21.2001 17.3ZM8.00009 11.7C8.00009 9 7.70009 4.2 5.50009 2L2.80009 4.8C2.40009 5.2 2.20009 5.80001 2.40009 6.40001C2.70009 7.40001 3.0001 9.2 3.1001 11.7C3.1001 15.5 2.4001 17.6 2.1001 18C3.2001 16.9 5.30009 16.2 7.80009 15.8C8.00009 14.2 8.00009 12.7 8.00009 11.7Z" fill="currentColor"/>
</svg>
