<svg width="24" height="24" viewBox="0 0 24 24" fill="none" xmlns="http://www.w3.org/2000/svg">
<path opacity="0.3" d="M14.0999 15.013C14.5999 16.313 14.4999 17.813 13.6999 19.113C12.2999 21.513 9.2999 22.313 6.8999 20.913C5.2999 20.013 4.3999 18.313 4.3999 16.613C5.0999 17.013 5.9999 17.313 6.8999 17.313C8.3999 17.313 9.69989 16.613 10.6999 15.613C11.0999 15.713 11.4999 15.813 11.8999 15.813C12.6999 15.813 13.4999 15.513 14.0999 15.013ZM8.49991 12.913C8.49991 12.713 8.3999 12.513 8.3999 12.313C8.3999 11.213 8.89989 10.213 9.69989 9.613C9.19989 8.313 9.29992 6.813 10.0999 5.513C10.5999 4.713 11.1999 4.11299 11.8999 3.71299C10.3999 2.81299 8.4999 2.71299 6.8999 3.71299C4.4999 5.11299 3.69992 8.113 5.09992 10.513C5.79992 11.813 7.09991 12.613 8.49991 12.913ZM16.8999 7.313C15.3999 7.313 14.0999 8.013 13.0999 9.013C14.2999 9.413 15.0999 10.513 15.2999 11.713C16.6999 12.013 17.8999 12.813 18.6999 14.113C19.1999 14.913 19.2999 15.713 19.2999 16.613C20.7999 15.713 21.7999 14.113 21.7999 12.313C21.8999 9.513 19.6999 7.313 16.8999 7.313Z" fill="currentColor"/>
<path d="M9.69998 9.61307C9.19998 8.31307 9.30001 6.81306 10.1 5.51306C11.5 3.11306 14.5 2.31306 16.9 3.71306C18.5 4.61306 19.4 6.31306 19.4 8.01306C18.7 7.61306 17.8 7.31306 16.9 7.31306C15.4 7.31306 14.1 8.01306 13.1 9.01306C12.7 8.91306 12.3 8.81306 11.9 8.81306C11.1 8.81306 10.3 9.11307 9.69998 9.61307ZM8.5 12.9131C7.1 12.6131 5.90001 11.8131 5.10001 10.5131C4.60001 9.71306 4.5 8.91306 4.5 8.01306C3 8.91306 2 10.5131 2 12.3131C2 15.1131 4.2 17.3131 7 17.3131C8.5 17.3131 9.79999 16.6131 10.8 15.6131C9.49999 15.1131 8.7 14.1131 8.5 12.9131ZM18.7 14.1131C17.9 12.8131 16.7 12.0131 15.3 11.7131C15.3 11.9131 15.4 12.1131 15.4 12.3131C15.4 13.4131 14.9 14.4131 14.1 15.0131C14.6 16.3131 14.5 17.8131 13.7 19.1131C13.2 19.9131 12.6 20.5131 11.9 20.9131C13.4 21.8131 15.3 21.9131 16.9 20.9131C19.3 19.6131 20.1 16.5131 18.7 14.1131Z" fill="currentColor"/>
</svg>
