<svg width="24" height="24" viewBox="0 0 24 24" fill="none" xmlns="http://www.w3.org/2000/svg">
<path fill-rule="evenodd" clip-rule="evenodd" d="M13.0799 14.7839L15.284 12.5799C15.8927 11.9712 16.0436 11.0412 15.6586 10.2713L15.5337 10.0215C15.1487 9.25153 15.2996 8.32159 15.9084 7.71287L18.6412 4.98006C18.8364 4.7848 19.153 4.7848 19.3483 4.98006C19.3863 5.01807 19.4179 5.06194 19.4419 5.11001L20.5459 7.31796C21.3905 9.00707 21.0594 11.0471 19.7241 12.3825L13.7252 18.3813C12.2717 19.8348 10.1217 20.3424 8.17154 19.6923L5.75706 18.8875C5.49509 18.8002 5.35351 18.517 5.44083 18.255C5.46538 18.1814 5.50673 18.1145 5.56162 18.0596L8.21289 15.4083C8.82161 14.7996 9.75156 14.6487 10.5215 15.0337L10.7713 15.1586C11.5413 15.5436 12.4712 15.3927 13.0799 14.7839Z" fill="currentColor"/>
<path opacity="0.3" d="M14.148 6.00712L13.9567 7.99794C12.4781 7.85581 11.0097 8.36893 9.9393 9.43931C8.87243 10.5062 8.35908 11.9685 8.49661 13.4426L6.50525 13.6284C6.31301 11.5678 7.0328 9.51738 8.52509 8.0251C10.0223 6.5279 12.0812 5.80844 14.148 6.00712ZM14.4981 2.02227L14.313 4.01369C11.6618 3.76734 9.02997 4.69179 7.11088 6.61088C5.19444 8.52732 4.26982 11.1546 4.51271 13.8024L2.52107 13.9851C2.22447 10.7517 3.35559 7.53774 5.69666 5.19667C8.04098 2.85235 11.2606 1.72144 14.4981 2.02227Z" fill="currentColor"/>
</svg>
