<svg width="24" height="24" viewBox="0 0 24 24" fill="none" xmlns="http://www.w3.org/2000/svg">
<path d="M8.97852 18.8007C8.80029 20.0396 7.53473 21 6 21C4.34315 21 3 19.8807 3 18.5C3 17.1193 4.34315 16 6 16C6.35064 16 6.68722 16.0501 7 16.1423V5.93171C7 5.41894 7.31978 4.96567 7.78944 4.81272L13.5394 3.05418C14.2639 2.81827 15 3.38226 15 4.17317C15 4.95475 15 5.54093 15 5.93171C15 6.51789 14.4512 6.89226 14 7C13.3509 7.15502 11.6842 7.48836 9 8V18.5512C9 18.641 8.99272 18.7241 8.97852 18.8007Z" fill="currentColor"/>
<path opacity="0.3" fill-rule="evenodd" clip-rule="evenodd" d="M16 13V11C16 10.4477 16.4477 10 17 10C17.5523 10 18 10.4477 18 11V13H20C20.5523 13 21 13.4477 21 14C21 14.5523 20.5523 15 20 15H18V17C18 17.5523 17.5523 18 17 18C16.4477 18 16 17.5523 16 17V15H14C13.4477 15 13 14.5523 13 14C13 13.4477 13.4477 13 14 13H16Z" fill="currentColor"/>
</svg>
