<svg width="24" height="24" viewBox="0 0 24 24" fill="none" xmlns="http://www.w3.org/2000/svg">
<path opacity="0.3" fill-rule="evenodd" clip-rule="evenodd" d="M17 2H19C20.6569 2 22 3.34315 22 5V19C22 20.6569 20.6569 22 19 22H17V2Z" fill="currentColor"/>
<path fill-rule="evenodd" clip-rule="evenodd" d="M4 2H16C17.6569 2 19 3.34315 19 5V19C19 20.6569 17.6569 22 16 22H4C3.44772 22 3 21.5523 3 21V3C3 2.44772 3.44772 2 4 2ZM11.1176 13.7096C10.6725 14.1547 9.99252 14.2651 9.42948 13.9835C8.86645 13.702 8.18644 13.8124 7.74132 14.2575L6.23031 15.7685C6.17542 15.8234 6.13407 15.8903 6.10952 15.9639C6.0222 16.2259 6.16378 16.5091 6.42575 16.5964L7.77957 17.0477C9.07965 17.481 10.513 17.1427 11.482 16.1736L15.4812 12.1744C16.3715 11.2842 16.5922 9.92416 16.0291 8.79809L15.3966 7.53294C15.3725 7.48488 15.3409 7.441 15.3029 7.403C15.1077 7.20774 14.7911 7.20774 14.5958 7.403L13.0033 8.99554C12.5581 9.44066 12.4478 10.1207 12.7293 10.6837C13.0108 11.2467 12.9005 11.9268 12.4554 12.3719L11.1176 13.7096Z" fill="currentColor"/>
</svg>
