<svg width="24" height="24" viewBox="0 0 24 24" fill="none" xmlns="http://www.w3.org/2000/svg">
<path d="M10.1574 15.7102C10.732 15.8715 11.3375 15.9576 11.9628 15.9576C12.5881 15.9576 13.1935 15.8715 13.7682 15.7102L14.2785 17.0885C14.2963 17.1364 14.3054 17.1872 14.3054 17.2384C14.3054 17.4742 14.1166 17.6653 13.8838 17.6653L12.8059 17.6381C12.8618 18.8259 13.2943 19.5085 14.417 19.8875C14.8588 20.0366 15.0975 20.5202 14.9503 20.9675C14.803 21.4149 14.3255 21.6567 13.8838 21.5075C12.0724 20.8961 11.1785 19.5883 11.1217 17.6653H10.0418C9.99123 17.6653 9.9411 17.6561 9.89377 17.6381C9.67577 17.5553 9.56532 17.3093 9.64707 17.0885L10.1574 15.7102Z" fill="currentColor"/>
<path opacity="0.3" fill-rule="evenodd" clip-rule="evenodd" d="M12 16C8.13401 16 5 12.866 5 9C5 5.13401 8.13401 2 12 2C15.866 2 19 5.13401 19 9C19 12.866 15.866 16 12 16ZM8.81596 8.80077C8.79068 8.43922 8.47708 8.16662 8.11553 8.1919C7.75398 8.21718 7.48137 8.53078 7.50665 8.89233C7.62279 10.5532 8.39667 11.8635 9.79502 12.7671C10.0994 12.9638 10.5057 12.8765 10.7024 12.5721C10.8991 12.2677 10.8118 11.8615 10.5074 11.6648C9.45599 10.9854 8.90328 10.0495 8.81596 8.80077Z" fill="currentColor"/>
</svg>
