<svg width="24" height="24" viewBox="0 0 24 24" fill="none" xmlns="http://www.w3.org/2000/svg">
<path fill-rule="evenodd" clip-rule="evenodd" d="M3 3H21C21.5523 3 22 3.44772 22 4V11C22 11.5523 21.5523 12 21 12H3C2.44772 12 2 11.5523 2 11V4C2 3.44772 2.44772 3 3 3ZM5 8C4.44772 8 4 8.44772 4 9C4 9.55228 4.44772 10 5 10H19C19.5523 10 20 9.55228 20 9C20 8.44772 19.5523 8 19 8H5Z" fill="currentColor"/>
<path opacity="0.3" d="M17.2914 14.2943L18.7085 15.7056C17.6611 16.7573 17.6647 18.459 18.7164 19.5064C18.8065 19.5961 18.9028 19.6792 19.0046 19.7553L19.5984 20.1988L18.4016 21.8011L17.8078 21.3577C17.6302 21.225 17.4622 21.0799 17.3051 20.9235C15.4707 19.0967 15.4646 16.1287 17.2914 14.2943ZM11.2914 15.2943L12.7085 16.7056C11.6611 17.7573 11.6647 19.459 12.7164 20.5064C12.8065 20.5961 12.9028 20.6792 13.0046 20.7553L13.5984 21.1988L12.4016 22.8011L11.8078 22.3577C11.6302 22.225 11.4622 22.0799 11.3051 21.9235C9.47073 20.0967 9.46458 17.1287 11.2914 15.2943ZM5.29138 14.2943L6.70852 15.7056C5.66115 16.7573 5.66467 18.459 6.71641 19.5064C6.80647 19.5961 6.90278 19.6792 7.00462 19.7553L7.59835 20.1988L6.40155 21.8011L5.80782 21.3577C5.6302 21.225 5.46221 21.0799 5.30513 20.9235C3.47073 19.0967 3.46457 16.1287 5.29138 14.2943Z" fill="currentColor"/>
</svg>
