<svg width="24" height="24" viewBox="0 0 24 24" fill="none" xmlns="http://www.w3.org/2000/svg">
<path opacity="0.3" fill-rule="evenodd" clip-rule="evenodd" d="M4.58545 12.7816L9.41508 11.4875L11.3384 18.6655C11.6958 19.9992 10.9043 21.3701 9.57067 21.7274C8.237 22.0848 6.86616 21.2933 6.5088 19.9596L4.58545 12.7816ZM12.3827 14.4116C13.0496 14.2329 13.735 14.6286 13.9137 15.2955L14.0431 15.7784C14.2217 16.4453 13.826 17.1307 13.1592 17.3093C12.4924 17.488 11.8069 17.0923 11.6283 16.4255L11.4988 15.9425C11.3202 15.2757 11.7159 14.5903 12.3827 14.4116ZM18.0001 6L21.0001 5V12L18.0001 11V6Z" fill="currentColor"/>
<path fill-rule="evenodd" clip-rule="evenodd" d="M8.44472 4.7778L17 5.99998V11L8.28838 13.489C6.0853 14.1185 3.78908 12.8428 3.15962 10.6397C3.05372 10.2691 3 9.88546 3 9.49998C3 6.86552 5.13566 4.72986 7.77012 4.72986C7.99584 4.72986 8.22127 4.74588 8.44472 4.7778ZM7 11C8.10457 11 9 10.1046 9 8.99998C9 7.89541 8.10457 6.99998 7 6.99998C5.89543 6.99998 5 7.89541 5 8.99998C5 10.1046 5.89543 11 7 11Z" fill="currentColor"/>
</svg>
