<svg width="24" height="24" viewBox="0 0 24 24" fill="none" xmlns="http://www.w3.org/2000/svg">
<path opacity="0.3" fill-rule="evenodd" clip-rule="evenodd" d="M8 21H16L12 16L8 21Z" fill="currentColor"/>
<path d="M17.403 14.5491L15.86 15.8215C14.915 14.6755 13.5138 14 12.0001 14C10.4913 14 9.09425 14.671 8.14917 15.8106L6.6097 14.5339C7.93081 12.9409 9.88966 12 12.0001 12C14.1174 12 16.082 12.9471 17.403 14.5491ZM20.4682 11.9789L18.9292 13.2562C17.2287 11.2073 14.7141 10 12.0001 10C9.28981 10 6.77828 11.2039 5.07773 13.248L3.54025 11.9689C5.61683 9.47282 8.68929 8 12.0001 8C15.3154 8 18.3917 9.47693 20.4682 11.9789ZM23.2905 9.72049L21.6786 10.9044C19.4304 7.84339 15.8699 6 12.0001 6C8.07676 6 4.4729 7.89509 2.23266 11.0271L0.605957 9.86351C3.21779 6.21203 7.42437 4 12.0001 4C16.5133 4 20.6694 6.15176 23.2905 9.72049Z" fill="currentColor"/>
</svg>
