<svg width="24" height="24" viewBox="0 0 24 24" fill="none" xmlns="http://www.w3.org/2000/svg">
<path opacity="0.3" fill-rule="evenodd" clip-rule="evenodd" d="M17 12.917V20.5C17 21.3284 16.3284 22 15.5 22C14.6716 22 14 21.3284 14 20.5V11.4722C14.8262 12.2116 15.8584 12.7255 17 12.917Z" fill="currentColor"/>
<path opacity="0.3" fill-rule="evenodd" clip-rule="evenodd" d="M10 11.4722V20.5C10 21.3284 9.32843 22 8.5 22C7.67157 22 7 21.3284 7 20.5V12.917C8.14157 12.7255 9.17384 12.2116 10 11.4722Z" fill="currentColor"/>
<path fill-rule="evenodd" clip-rule="evenodd" d="M18 12C15.2386 12 13 9.76142 13 7C13 4.23858 15.2386 2 18 2C20.7614 2 23 4.23858 23 7C23 9.76142 20.7614 12 18 12ZM14.75 6.5C14.3358 6.5 14 6.83579 14 7.25C14 7.66421 14.3358 8 14.75 8H15.25C15.6642 8 16 7.66421 16 7.25C16 6.83579 15.6642 6.5 15.25 6.5H14.75ZM21 5C20.4477 5 20 5.44772 20 6V8C20 8.55228 20.4477 9 21 9C21.5523 9 22 8.55228 22 8V6C22 5.44772 21.5523 5 21 5Z" fill="currentColor"/>
<path fill-rule="evenodd" clip-rule="evenodd" d="M6 12C3.23858 12 1 9.76142 1 7C1 4.23858 3.23858 2 6 2C8.76142 2 11 4.23858 11 7C11 9.76142 8.76142 12 6 12ZM8.75 6.5C8.33579 6.5 8 6.83579 8 7.25C8 7.66421 8.33579 8 8.75 8H9.25C9.66421 8 10 7.66421 10 7.25C10 6.83579 9.66421 6.5 9.25 6.5H8.75ZM3 5C2.44772 5 2 5.44772 2 6V8C2 8.55228 2.44772 9 3 9C3.55228 9 4 8.55228 4 8V6C4 5.44772 3.55228 5 3 5Z" fill="currentColor"/>
</svg>
