<svg width="24" height="24" viewBox="0 0 24 24" fill="none" xmlns="http://www.w3.org/2000/svg">
<path fill-rule="evenodd" clip-rule="evenodd" d="M7.14322 19.3576C7.67124 19.7616 8.25106 20.1013 8.871 20.365L7.89207 22.0606C7.61593 22.5389 7.00434 22.7027 6.52605 22.4266C6.04775 22.1505 5.88388 21.5389 6.16002 21.0606L7.14322 19.3576ZM15.1367 20.3618C15.7564 20.0974 16.3358 19.7571 16.8635 19.3525L17.8321 21.0302C18.1082 21.5085 17.9443 22.1201 17.466 22.3962C16.9878 22.6724 16.3762 22.5085 16.1 22.0302L15.1367 20.3618Z" fill="currentColor"/>
<path opacity="0.3" fill-rule="evenodd" clip-rule="evenodd" d="M11.9998 20.9999C7.58155 20.9999 3.99982 17.4182 3.99982 12.9999C3.99982 8.58161 7.58155 4.99989 11.9998 4.99989C16.4181 4.99989 19.9998 8.58161 19.9998 12.9999C19.9998 17.4182 16.4181 20.9999 11.9998 20.9999ZM19.0686 3.25396L20.818 5.00329C21.4037 5.58907 21.4037 6.53882 20.818 7.12461C20.2322 7.71039 19.2824 7.71039 18.6966 7.12461L16.9473 5.37529C16.3615 4.7895 16.3615 3.83975 16.9473 3.25396C17.5331 2.66818 18.4828 2.66818 19.0686 3.25396ZM5.29845 2.88197C5.88424 2.29618 6.83399 2.29618 7.41977 2.88197C8.00556 3.46775 8.00556 4.4175 7.41977 5.00329L5.29845 7.12461C4.71267 7.71039 3.76292 7.71039 3.17713 7.12461C2.59135 6.53882 2.59135 5.58907 3.17713 5.00329L5.29845 2.88197Z" fill="currentColor"/>
<path fill-rule="evenodd" clip-rule="evenodd" d="M11.9631 7.5H12.0476C12.3044 7.5 12.5195 7.69465 12.5451 7.95025L13.0001 12.5L16.2481 14.356C16.4039 14.4451 16.5001 14.6107 16.5001 14.7902V15C16.5001 15.2109 16.3291 15.3819 16.1182 15.3819C16.0842 15.3819 16.0504 15.3774 16.0177 15.3684L11.3987 14.1087C11.1674 14.0456 11.0134 13.8271 11.0318 13.588L11.4646 7.96165C11.4846 7.70115 11.7018 7.5 11.9631 7.5Z" fill="currentColor"/>
</svg>
