<svg width="24" height="24" viewBox="0 0 24 24" fill="none" xmlns="http://www.w3.org/2000/svg">
<path opacity="0.3" fill-rule="evenodd" clip-rule="evenodd" d="M9.61765 5L8.73529 7H3C2.44772 7 2 6.55228 2 6C2 5.44772 2.44772 5 3 5H9.61765ZM14.3824 5H21C21.5523 5 22 5.44772 22 6C22 6.55228 21.5523 7 21 7H15.2647L14.3824 5ZM6.08824 13L5.20588 15H3C2.44772 15 2 14.5523 2 14C2 13.4477 2.44772 13 3 13H6.08824ZM17.9118 13H21C21.5523 13 22 13.4477 22 14C22 14.5523 21.5523 15 21 15H18.7941L17.9118 13ZM7.85294 9L6.97059 11H3C2.44772 11 2 10.5523 2 10C2 9.44772 2.44772 9 3 9H7.85294ZM16.1471 9H21C21.5523 9 22 9.44772 22 10C22 10.5523 21.5523 11 21 11H17.0294L16.1471 9ZM4.32353 17L3.44118 19H3C2.44772 19 2 18.5523 2 18C2 17.4477 2.44772 17 3 17H4.32353ZM19.6765 17H21C21.5523 17 22 17.4477 22 18C22 18.5523 21.5523 19 21 19H20.5588L19.6765 17Z" fill="currentColor"/>
<path fill-rule="evenodd" clip-rule="evenodd" d="M11.044 5.2561H13.006L18.5 19.0001H16L14.716 15.0841H9.19L7.5 19.0001H5L11.044 5.2561ZM13.924 13.1401L11.962 7.9561L9.964 13.1401H13.924Z" fill="currentColor"/>
</svg>
