<svg width="24" height="24" viewBox="0 0 24 24" fill="none" xmlns="http://www.w3.org/2000/svg">
<path opacity="0.3" d="M19 8C20.6569 8 22 6.65685 22 5C22 3.34315 20.6569 2 19 2C17.3431 2 16 3.34315 16 5C16 6.65685 17.3431 8 19 8Z" fill="currentColor"/>
<path fill-rule="evenodd" clip-rule="evenodd" d="M11 11V18C11 18.5523 10.5523 19 10 19C9.44772 19 9 18.5523 9 18V11H7C6.44772 11 6 10.5523 6 10C6 9.44772 6.44772 9 7 9H13C13.5523 9 14 9.44772 14 10C14 10.5523 13.5523 11 13 11H11Z" fill="currentColor"/>
</svg>
