<svg width="24" height="24" viewBox="0 0 24 24" fill="none" xmlns="http://www.w3.org/2000/svg">
<path opacity="0.3" fill-rule="evenodd" clip-rule="evenodd" d="M18.7781 12.4999C16.6302 14.6478 13.1478 14.6478 10.9999 12.4999C8.85204 10.352 8.85204 6.86964 10.9999 4.72175C13.1478 2.57387 16.6302 2.57387 18.7781 4.72175C20.926 6.86964 20.926 10.352 18.7781 12.4999ZM16.3032 10.0251C17.0843 9.244 17.0843 7.97767 16.3032 7.19663C15.5222 6.41558 14.2558 6.41558 13.4748 7.19663C12.6938 7.97767 12.6938 9.244 13.4748 10.0251C14.2558 10.8061 15.5222 10.8061 16.3032 10.0251ZM15.5961 9.31795C15.9866 8.92742 15.9866 8.29426 15.5961 7.90373C15.2056 7.51321 14.5724 7.51321 14.1819 7.90373C13.7914 8.29426 13.7914 8.92742 14.1819 9.31795C14.5724 9.70847 15.2056 9.70847 15.5961 9.31795Z" fill="currentColor"/>
<path opacity="0.3" d="M10.6465 9.31811L3.57542 16.3892C2.40385 17.5608 2.40385 19.4602 3.57542 20.6318C4.74699 21.8034 6.64649 21.8034 7.81806 20.6318L14.8891 13.5608C16.0607 12.3892 16.0607 10.4897 14.8891 9.31811C13.7176 8.14654 11.8181 8.14654 10.6465 9.31811Z" fill="currentColor"/>
<path fill-rule="evenodd" clip-rule="evenodd" d="M20.4399 13.4547C17.1244 15.7875 12.8586 15.7729 10.2929 13.2072C7.72723 10.6415 7.71269 6.37576 10.0455 3.06026L20.4399 13.4547Z" fill="currentColor"/>
</svg>
