<svg width="24" height="24" viewBox="0 0 24 24" fill="none" xmlns="http://www.w3.org/2000/svg">
<path d="M11.7071 6.70711C12.0976 6.31658 12.0976 5.68342 11.7071 5.29289C11.3166 4.90237 10.6834 4.90237 10.2929 5.29289L4.29289 11.2929C3.91431 11.6715 3.90107 12.2811 4.26285 12.6757L9.76285 18.6757C10.136 19.0828 10.7686 19.1103 11.1757 18.7372C11.5828 18.364 11.6103 17.7314 11.2372 17.3243L6.38414 12.0301L11.7071 6.70711Z" fill="currentColor"/>
<path opacity="0.3" d="M18.7071 6.70711C19.0976 6.31658 19.0976 5.68342 18.7071 5.29289C18.3166 4.90237 17.6834 4.90237 17.2929 5.29289L11.2929 11.2929C10.9143 11.6715 10.9011 12.2811 11.2628 12.6757L16.7628 18.6757C17.136 19.0828 17.7686 19.1103 18.1757 18.7372C18.5828 18.364 18.6103 17.7314 18.2372 17.3243L13.3841 12.0301L18.7071 6.70711Z" fill="currentColor"/>
</svg>
