<svg width="24" height="24" viewBox="0 0 24 24" fill="none" xmlns="http://www.w3.org/2000/svg">
<path opacity="0.3" d="M16.4505 4.17581C16.9303 4.44927 17.0976 5.05993 16.8242 5.53977C16.5507 6.0196 15.9401 6.1869 15.4602 5.91344C14.4148 5.31765 13.2317 5 12 5C8.13401 5 5 8.13401 5 12C5 15.866 8.13401 19 12 19C13.2193 19 14.3911 18.6887 15.429 18.1042C15.9103 17.8332 16.5201 18.0037 16.7911 18.4849C17.0621 18.9661 16.8916 19.5759 16.4104 19.8469C15.0748 20.599 13.5654 21 12 21C7.02944 21 3 16.9706 3 12C3 7.02944 7.02944 3 12 3C13.5813 3 15.1053 3.40919 16.4505 4.17581Z" fill="currentColor"/>
<path fill-rule="evenodd" clip-rule="evenodd" d="M18.5 6C19.8807 6 21 7.11929 21 8.5V15.5C21 16.8807 19.8807 18 18.5 18C17.1193 18 16 16.8807 16 15.5V8.5C16 7.11929 17.1193 6 18.5 6ZM18.5 12C19.3284 12 20 11.3284 20 10.5C20 9.67157 19.3284 9 18.5 9C17.6716 9 17 9.67157 17 10.5C17 11.3284 17.6716 12 18.5 12Z" fill="currentColor"/>
</svg>
