<svg width="24" height="24" viewBox="0 0 24 24" fill="none" xmlns="http://www.w3.org/2000/svg">
<path fill-rule="evenodd" clip-rule="evenodd" d="M18 2H6C5.44772 2 5 2.44772 5 3V13.5035C7.13474 12.5377 9.50458 12 12 12C14.4954 12 16.8653 12.5377 19 13.5035V3C19 2.44772 18.5523 2 18 2ZM7 5.5C7 5.22386 7.22386 5 7.5 5H13.5C13.7761 5 14 5.22386 14 5.5C14 5.77614 13.7761 6 13.5 6H7.5C7.22386 6 7 5.77614 7 5.5ZM7 7.5C7 7.22386 7.22386 7 7.5 7H10.5C10.7761 7 11 7.22386 11 7.5C11 7.77614 10.7761 8 10.5 8H7.5C7.22386 8 7 7.77614 7 7.5Z" fill="currentColor"/>
<g opacity="0.3">
<path fill-rule="evenodd" clip-rule="evenodd" d="M10.5714 14.9286C10.7309 14.9286 10.871 15.0343 10.9148 15.1876L11.3021 16.5429C11.4716 17.1362 11.9353 17.5999 12.5285 17.7694L13.8838 18.1566C14.0372 18.2004 14.1429 18.3405 14.1429 18.5C14.1429 18.6595 14.0372 18.7996 13.8838 18.8434L12.5285 19.2306C11.9353 19.4001 11.4716 19.8638 11.3021 20.4571L10.9148 21.8124C10.871 21.9657 10.7309 22.0714 10.5714 22.0714C10.412 22.0714 10.2718 21.9657 10.228 21.8124L9.84079 20.4571C9.6713 19.8638 9.20758 19.4001 8.61436 19.2306L7.25903 18.8434C7.10571 18.7996 7 18.6595 7 18.5C7 18.3405 7.10571 18.2004 7.25903 18.1566L8.61436 17.7694C9.20759 17.5999 9.6713 17.1362 9.84079 16.5429L10.228 15.1876C10.2718 15.0343 10.412 14.9286 10.5714 14.9286Z" fill="currentColor"/>
<path fill-rule="evenodd" clip-rule="evenodd" d="M14.8571 13.5C15.021 13.5 15.1639 13.6115 15.2036 13.7705L15.3269 14.2636C15.4389 14.7115 15.7885 15.0611 16.2364 15.1731L16.7295 15.2964C16.8885 15.3361 17 15.479 17 15.6429C17 15.8067 16.8885 15.9496 16.7295 15.9893L16.2364 16.1126C15.7885 16.2246 15.4389 16.5743 15.3269 17.0221L15.2036 17.5152C15.1639 17.6742 15.021 17.7857 14.8571 17.7857C14.6933 17.7857 14.5504 17.6742 14.5107 17.5152L14.3874 17.0221C14.2754 16.5743 13.9257 16.2246 13.4779 16.1126L12.9848 15.9893C12.8258 15.9496 12.7143 15.8067 12.7143 15.6429C12.7143 15.479 12.8258 15.3361 12.9848 15.2964L13.4779 15.1731C13.9257 15.0611 14.2754 14.7115 14.3874 14.2636L14.5107 13.7705C14.5504 13.6115 14.6933 13.5 14.8571 13.5Z" fill="currentColor"/>
<path fill-rule="evenodd" clip-rule="evenodd" d="M14.1429 19.9286C14.2966 19.9286 14.4331 20.0269 14.4817 20.1728L14.6694 20.736C14.7405 20.9493 14.9079 21.1166 15.1212 21.1877L15.6844 21.3755C15.8302 21.4241 15.9286 21.5606 15.9286 21.7143C15.9286 21.868 15.8302 22.0045 15.6844 22.0531L15.1212 22.2408C14.9079 22.3119 14.7405 22.4793 14.6694 22.6926L14.4817 23.2558C14.4331 23.4016 14.2966 23.5 14.1429 23.5C13.9891 23.5 13.8527 23.4016 13.804 23.2558L13.6163 22.6926C13.5452 22.4793 13.3778 22.3119 13.1646 22.2408L12.6013 22.0531C12.4555 22.0045 12.3571 21.868 12.3571 21.7143C12.3571 21.5606 12.4555 21.4241 12.6013 21.3755L13.1646 21.1877C13.3778 21.1166 13.5452 20.9493 13.6163 20.736L13.804 20.1728C13.8527 20.0269 13.9891 19.9286 14.1429 19.9286Z" fill="currentColor"/>
</g>
</svg>
