<svg width="24" height="24" viewBox="0 0 24 24" fill="none" xmlns="http://www.w3.org/2000/svg">
<path fill-rule="evenodd" clip-rule="evenodd" d="M18 2H6C5.44772 2 5 2.44772 5 3V13.5035C7.13474 12.5377 9.50458 12 12 12C14.4954 12 16.8653 12.5377 19 13.5035V3C19 2.44772 18.5523 2 18 2ZM7 5.5C7 5.22386 7.22386 5 7.5 5H13.5C13.7761 5 14 5.22386 14 5.5C14 5.77614 13.7761 6 13.5 6H7.5C7.22386 6 7 5.77614 7 5.5ZM7 7.5C7 7.22386 7.22386 7 7.5 7H10.5C10.7761 7 11 7.22386 11 7.5C11 7.77614 10.7761 8 10.5 8H7.5C7.22386 8 7 7.77614 7 7.5Z" fill="currentColor"/>
<path opacity="0.3" d="M9.00001 19.4923L10.9565 19.4923L10.9565 21.5C10.9565 21.7761 11.1803 22 11.4565 22L12.4798 22C12.7559 22 12.9798 21.7761 12.9798 21.5L12.9798 19.4923L14.9363 19.4923C15.2124 19.4923 15.4363 19.2685 15.4363 18.9923C15.4363 18.874 15.3943 18.7595 15.3179 18.6692L12.3497 15.1636C12.1713 14.9528 11.8558 14.9266 11.645 15.1051C11.624 15.1229 11.6044 15.1425 11.5865 15.1636L8.61841 18.6692C8.43998 18.88 8.46618 19.1955 8.67693 19.3739C8.76722 19.4504 8.8817 19.4923 9.00001 19.4923Z" fill="currentColor"/>
</svg>
