<svg width="24" height="24" viewBox="0 0 24 24" fill="none" xmlns="http://www.w3.org/2000/svg">
<path fill-rule="evenodd" clip-rule="evenodd" d="M18 2H6C5.44772 2 5 2.44772 5 3V13.5035C7.13474 12.5377 9.50458 12 12 12C14.4954 12 16.8653 12.5377 19 13.5035V3C19 2.44772 18.5523 2 18 2ZM7 5.5C7 5.22386 7.22386 5 7.5 5H13.5C13.7761 5 14 5.22386 14 5.5C14 5.77614 13.7761 6 13.5 6H7.5C7.22386 6 7 5.77614 7 5.5ZM7 7.5C7 7.22386 7.22386 7 7.5 7H10.5C10.7761 7 11 7.22386 11 7.5C11 7.77614 10.7761 8 10.5 8H7.5C7.22386 8 7 7.77614 7 7.5Z" fill="currentColor"/>
<path opacity="0.3" d="M19.4365 18.3662H17.48V16.3585C17.48 16.0824 17.2562 15.8585 16.98 15.8585H15.9567C15.6806 15.8585 15.4567 16.0824 15.4567 16.3585V18.3662H13.5003C13.2241 18.3662 13.0003 18.59 13.0003 18.8662C13.0003 18.9845 13.0422 19.099 13.1187 19.1893L16.0868 22.6949C16.2652 22.9057 16.5807 22.9319 16.7915 22.7535C16.8126 22.7356 16.8321 22.716 16.85 22.6949L19.8181 19.1893C19.9965 18.9785 19.9703 18.663 19.7596 18.4846C19.6693 18.4081 19.5548 18.3662 19.4365 18.3662Z" fill="currentColor"/>
<path opacity="0.3" d="M4.50001 19.3642L6.45648 19.3642L6.45648 21.3718C6.45648 21.648 6.68034 21.8718 6.95648 21.8718L7.97978 21.8718C8.25593 21.8718 8.47978 21.648 8.47978 21.3718L8.47978 19.3642L10.4363 19.3642C10.7124 19.3642 10.9363 19.1403 10.9363 18.8642C10.9363 18.7458 10.8943 18.6314 10.8179 18.5411L7.84973 15.0354C7.6713 14.8247 7.3558 14.7985 7.14505 14.9769C7.12396 14.9948 7.10439 15.0143 7.08654 15.0354L4.11841 18.5411C3.93998 18.7518 3.96618 19.0673 4.17693 19.2458C4.26722 19.3222 4.3817 19.3642 4.50001 19.3642Z" fill="currentColor"/>
</svg>
