<svg width="24" height="24" viewBox="0 0 24 24" fill="none" xmlns="http://www.w3.org/2000/svg">
<path opacity="0.3" fill-rule="evenodd" clip-rule="evenodd" d="M20 8H18.1739C17.0693 8 16.1739 8.89543 16.1739 10V12C16.1739 12.5523 15.7262 13 15.1739 13H8.86957C8.31728 13 7.86957 12.5523 7.86957 12V10C7.86957 8.89543 6.97413 8 5.86957 8H4V6C4 4.34315 5.34315 3 7 3H17C18.6569 3 20 4.34315 20 6V8Z" fill="currentColor"/>
<path opacity="0.3" fill-rule="evenodd" clip-rule="evenodd" d="M6.16002 21.0605L8.16002 17.5964C8.43616 17.1181 9.04775 16.9543 9.52605 17.2304C10.0043 17.5066 10.1682 18.1181 9.89207 18.5964L7.89207 22.0605C7.61593 22.5388 7.00434 22.7027 6.52605 22.4266C6.04775 22.1504 5.88388 21.5388 6.16002 21.0605ZM17.8321 21.0302C18.1082 21.5085 17.9443 22.1201 17.466 22.3962C16.9878 22.6724 16.3762 22.5085 16.1 22.0302L14.1 18.5661C13.8239 18.0878 13.9878 17.4762 14.466 17.2001C14.9443 16.9239 15.5559 17.0878 15.8321 17.5661L17.8321 21.0302Z" fill="currentColor"/>
<path fill-rule="evenodd" clip-rule="evenodd" d="M20 10V15C20 16.6569 18.6569 18 17 18H7C5.34315 18 4 16.6569 4 15V10H5.86957V12C5.86957 13.6569 7.21271 15 8.86957 15H15.1739C16.8308 15 18.1739 13.6569 18.1739 12V10H20Z" fill="currentColor"/>
</svg>
