<svg width="24" height="24" viewBox="0 0 24 24" fill="none" xmlns="http://www.w3.org/2000/svg">
<path d="M6.79991 15.8C7.29991 15.7 7.89991 16 7.99991 16.5C8.19991 17.4 8.9999 18 9.8999 18H17.8999C18.9999 18 19.8999 17.1 19.8999 16V8C19.8999 6.9 18.9999 6 17.8999 6H9.8999C8.7999 6 7.8999 6.9 7.8999 8V9.4H5.8999V8C5.8999 5.8 7.6999 4 9.8999 4H17.8999C20.0999 4 21.8999 5.8 21.8999 8V16C21.8999 18.2 20.0999 20 17.8999 20H9.8999C8.0999 20 6.49991 18.8 5.99991 17.1C5.99991 16.5 6.29991 16 6.79991 15.8Z" fill="currentColor"/>
<path opacity="0.3" d="M12 9.39999H2L6.3 13.7C6.7 14.1 7.3 14.1 7.7 13.7L12 9.39999Z" fill="currentColor"/>
</svg>
