<svg width="24" height="24" viewBox="0 0 24 24" fill="none" xmlns="http://www.w3.org/2000/svg">
<path opacity="0.3" d="M13 8C13 7.44772 12.5523 7 12 7C11.4477 7 11 7.44772 11 8V20C11 20.5523 11.4477 21 12 21C12.5523 21 13 20.5523 13 20V8Z" fill="currentColor"/>
<path d="M6.70711 13.2929C6.31658 12.9024 5.68342 12.9024 5.29289 13.2929C4.90237 13.6834 4.90237 14.3166 5.29289 14.7071L11.2929 20.7071C11.6715 21.0857 12.2811 21.0989 12.6757 20.7372L18.6757 15.2372C19.0828 14.864 19.1103 14.2314 18.7372 13.8243C18.364 13.4172 17.7314 13.3897 17.3243 13.7628L12.0301 18.6159L6.70711 13.2929Z" fill="currentColor"/>
<path opacity="0.3" d="M20 3H4C3.44772 3 3 3.44772 3 4C3 4.55228 3.44772 5 4 5H20C20.5523 5 21 4.55228 21 4C21 3.44772 20.5523 3 20 3Z" fill="currentColor"/>
</svg>
