<svg width="24" height="24" viewBox="0 0 24 24" fill="none" xmlns="http://www.w3.org/2000/svg">
<path opacity="0.3" d="M6 19.7C5.7 19.7 5.5 19.6 5.3 19.4C4.9 19 4.9 18.4 5.3 18L18 5.3C18.4 4.9 19 4.9 19.4 5.3C19.8 5.7 19.8 6.29999 19.4 6.69999L6.7 19.4C6.5 19.6 6.3 19.7 6 19.7Z" fill="currentColor"/>
<path d="M18.8001 19.7C18.5001 19.7 18.3001 19.6 18.1001 19.4L5.4001 6.69999C5.0001 6.29999 5.0001 5.7 5.4001 5.3C5.8001 4.9 6.4001 4.9 6.8001 5.3L19.5001 18C19.9001 18.4 19.9001 19 19.5001 19.4C19.3001 19.6 19.0001 19.7 18.8001 19.7Z" fill="currentColor"/>
</svg>
