<svg width="24" height="24" viewBox="0 0 24 24" fill="none" xmlns="http://www.w3.org/2000/svg">
<path opacity="0.3" d="M20 11C20.5523 11 21 11.4477 21 12C21 12.5523 20.5523 13 20 13H8C7.44771 13 7 12.5523 7 12C7 11.4477 7.44771 11 8 11H20Z" fill="currentColor"/>
<path opacity="0.3" d="M5 4C5 3.44772 4.55228 3 4 3C3.44772 3 3 3.44772 3 4V20C3 20.5523 3.44772 21 4 21C4.55228 21 5 20.5523 5 20V4Z" fill="currentColor"/>
<path d="M14.7071 17.2929C15.0976 17.6834 15.0976 18.3166 14.7071 18.7071C14.3166 19.0976 13.6834 19.0976 13.2929 18.7071L7.29289 12.7071C6.91432 12.3285 6.90107 11.7189 7.26285 11.3243L12.7628 5.32428C13.136 4.91716 13.7686 4.88965 14.1757 5.26285C14.5828 5.63604 14.6103 6.26861 14.2372 6.67573L9.38414 11.9699L14.7071 17.2929Z" fill="currentColor"/>
</svg>
