<svg width="24" height="24" viewBox="0 0 24 24" fill="none" xmlns="http://www.w3.org/2000/svg">
<path opacity="0.3" d="M4 11C3.44772 11 3 11.4477 3 12C3 12.5523 3.44772 13 4 13H16C16.5523 13 17 12.5523 17 12C17 11.4477 16.5523 11 16 11H4Z" fill="currentColor"/>
<path opacity="0.3" d="M21 4C21 3.44772 20.5523 3 20 3C19.4477 3 19 3.44772 19 4V20C19 20.5523 19.4477 21 20 21C20.5523 21 21 20.5523 21 20V4Z" fill="currentColor"/>
<path d="M9.29289 17.2929C8.90237 17.6834 8.90237 18.3166 9.29289 18.7071C9.68342 19.0976 10.3166 19.0976 10.7071 18.7071L16.7071 12.7071C17.0857 12.3285 17.0989 11.7189 16.7372 11.3243L11.2372 5.32428C10.864 4.91716 10.2314 4.88965 9.82427 5.26285C9.41716 5.63604 9.38965 6.26861 9.76284 6.67572L14.6159 11.9699L9.29289 17.2929Z" fill="currentColor"/>
</svg>
