<svg width="24" height="24" viewBox="0 0 24 24" fill="none" xmlns="http://www.w3.org/2000/svg">
<path d="M14.5002 20.7259C14.6002 21.2259 14.2002 21.826 13.7002 21.926C13.2002 22.026 12.6002 22.0259 12.1002 22.0259C9.50021 22.0259 6.90021 21.0259 5.00021 19.1259C1.40021 15.5259 1.10019 9.72592 4.30019 5.82592L5.70022 7.22595C3.30022 10.3259 3.6002 14.8259 6.4002 17.7259C8.2002 19.5259 10.8002 20.426 13.4002 19.926C13.9002 19.826 14.4002 20.2259 14.5002 20.7259ZM18.4002 16.8259L19.8002 18.2259C22.9002 14.3259 22.7002 8.52593 19.0002 4.92593C16.7002 2.62593 13.5002 1.62594 10.3002 2.12594C9.80019 2.22594 9.40021 2.72595 9.50021 3.22595C9.60021 3.72595 10.1002 4.12594 10.6002 4.02594C13.1002 3.62594 15.7002 4.42595 17.6002 6.22595C20.5002 9.22595 20.7002 13.7259 18.4002 16.8259Z" fill="currentColor"/>
<path opacity="0.3" d="M2 3.62592H7C7.6 3.62592 8 4.02592 8 4.62592V9.62589L2 3.62592ZM16 14.4259V19.4259C16 20.0259 16.4 20.4259 17 20.4259H22L16 14.4259Z" fill="currentColor"/>
</svg>
