<svg width="24" height="24" viewBox="0 0 24 24" fill="none" xmlns="http://www.w3.org/2000/svg">
<path opacity="0.3" fill-rule="evenodd" clip-rule="evenodd" d="M11 11L11 3.75739C11 3.2051 11.4477 2.75739 12 2.75739C12.5522 2.75739 13 3.2051 13 3.75739L13 11L21.7573 11C22.3096 11 22.7573 11.4477 22.7573 12C22.7573 12.5523 22.3096 13 21.7573 13L13 13L13 21.7574C13 22.3097 12.5522 22.7574 12 22.7574C11.4477 22.7574 11 22.3097 11 21.7574L11 13L3.75732 13C3.20504 13 2.75733 12.5523 2.75732 12C2.75732 11.4477 3.20504 11 3.75732 11L11 11Z" fill="currentColor"/>
<path d="M3.51495 12L5.63627 14.1213C6.02679 14.6736 6.02679 15.145 5.63627 15.5355C5.24575 15.926 4.77434 15.926 4.22206 15.5355L0.686523 12L4.22206 8.46445C4.69346 7.99305 5.16487 7.99305 5.63627 8.46445C6.10768 8.93586 6.10768 9.40726 5.63627 9.87867L3.51495 12ZM12.0002 20.4853L14.1216 18.3639C14.6738 17.9734 15.1452 17.9734 15.5358 18.3639C15.9263 18.7545 15.9263 19.2259 15.5358 19.7782L12.0002 23.3137L8.4647 19.7782C7.99329 19.3068 7.99329 18.8354 8.4647 18.3639C8.9361 17.8925 9.40751 17.8925 9.87891 18.3639L12.0002 20.4853ZM20.4855 12L18.3642 9.87867C17.9737 9.32638 17.9737 8.85498 18.3642 8.46445C18.7547 8.07393 19.2261 8.07393 19.7784 8.46445L23.3139 12L19.7784 15.5355C19.307 16.0069 18.8356 16.0069 18.3642 15.5355C17.8928 15.0641 17.8928 14.5927 18.3642 14.1213L20.4855 12ZM12.0002 3.51471L9.87891 5.63603C9.32663 6.02655 8.85522 6.02655 8.4647 5.63603C8.07417 5.2455 8.07417 4.7741 8.4647 4.22181L12.0002 0.686279L15.5358 4.22181C16.0072 4.69322 16.0072 5.16462 15.5358 5.63603C15.0644 6.10743 14.593 6.10743 14.1216 5.63603L12.0002 3.51471Z" fill="currentColor"/>
</svg>
