<svg width="24" height="24" viewBox="0 0 24 24" fill="none" xmlns="http://www.w3.org/2000/svg">
<path opacity="0.3" d="M13 4C13 3.44772 12.5523 3 12 3C11.4477 3 11 3.44772 11 4V16C11 16.5523 11.4477 17 12 17C12.5523 17 13 16.5523 13 16V4Z" fill="currentColor"/>
<path d="M6.70711 9.29289C6.31658 8.90237 5.68342 8.90237 5.29289 9.29289C4.90237 9.68342 4.90237 10.3166 5.29289 10.7071L11.2929 16.7071C11.6715 17.0857 12.2811 17.0989 12.6757 16.7372L18.6757 11.2372C19.0828 10.864 19.1103 10.2314 18.7372 9.82428C18.364 9.41716 17.7314 9.38965 17.3243 9.76285L12.0301 14.6159L6.70711 9.29289Z" fill="currentColor"/>
<path opacity="0.3" d="M20 19H4C3.44772 19 3 19.4477 3 20C3 20.5523 3.44772 21 4 21H20C20.5523 21 21 20.5523 21 20C21 19.4477 20.5523 19 20 19Z" fill="currentColor"/>
</svg>
