<svg width="24" height="24" viewBox="0 0 24 24" fill="none" xmlns="http://www.w3.org/2000/svg">
<path opacity="0.3" d="M11 8V16C11 16.5523 11.4477 17 12 17C12.5523 17 13 16.5523 13 16V8C13 7.44771 12.5523 7 12 7C11.4477 7 11 7.44771 11 8Z" fill="currentColor"/>
<path d="M6.70711 8.70711C6.31658 9.09763 5.68342 9.09763 5.29289 8.70711C4.90237 8.31658 4.90237 7.68342 5.29289 7.29289L11.2929 1.29289C11.6715 0.914316 12.2811 0.90107 12.6757 1.26285L18.6757 6.76285C19.0828 7.13604 19.1103 7.76861 18.7372 8.17573C18.364 8.58285 17.7314 8.61035 17.3243 8.23716L12.0301 3.38414L6.70711 8.70711Z" fill="currentColor"/>
<path d="M17.2929 15.2929C17.6834 14.9024 18.3166 14.9024 18.7071 15.2929C19.0976 15.6834 19.0976 16.3166 18.7071 16.7071L12.7071 22.7071C12.3285 23.0857 11.7189 23.0989 11.3243 22.7372L5.32428 17.2372C4.91716 16.864 4.88965 16.2314 5.26285 15.8243C5.63604 15.4172 6.26861 15.3897 6.67572 15.7628L11.9699 20.6159L17.2929 15.2929Z" fill="currentColor"/>
</svg>
