<svg width="24" height="24" viewBox="0 0 24 24" fill="none" xmlns="http://www.w3.org/2000/svg">
<path opacity="0.3" d="M16 11C16.5523 11 17 11.4477 17 12C17 12.5523 16.5523 13 16 13H4C3.44771 13 3 12.5523 3 12C3 11.4477 3.44771 11 4 11H16Z" fill="currentColor"/>
<path opacity="0.3" d="M21 4C21 3.44772 20.5523 3 20 3C19.4477 3 19 3.44772 19 4V20C19 20.5523 19.4477 21 20 21C20.5523 21 21 20.5523 21 20V4Z" fill="currentColor"/>
<path d="M10.7071 17.2929C11.0976 17.6834 11.0976 18.3166 10.7071 18.7071C10.3166 19.0976 9.68342 19.0976 9.29289 18.7071L3.29289 12.7071C2.91432 12.3285 2.90107 11.7189 3.26285 11.3243L8.76285 5.32428C9.13604 4.91716 9.76861 4.88965 10.1757 5.26285C10.5828 5.63604 10.6103 6.26861 10.2372 6.67572L5.38414 11.9699L10.7071 17.2929Z" fill="currentColor"/>
</svg>
