<svg width="24" height="24" viewBox="0 0 24 24" fill="none" xmlns="http://www.w3.org/2000/svg">
<path opacity="0.3" d="M13 4C13 3.44772 12.5523 3 12 3C11.4477 3 11 3.44772 11 4V16C11 16.5523 11.4477 17 12 17C12.5523 17 13 16.5523 13 16V4Z" fill="currentColor"/>
<path d="M6.70711 10.7071C6.31658 11.0976 5.68342 11.0976 5.29289 10.7071C4.90237 10.3166 4.90237 9.68342 5.29289 9.29289L11.2929 3.29289C11.6715 2.91432 12.2811 2.90107 12.6757 3.26285L18.6757 8.76285C19.0828 9.13604 19.1103 9.76861 18.7372 10.1757C18.364 10.5828 17.7314 10.6103 17.3243 10.2372L12.0301 5.38414L6.70711 10.7071Z" fill="currentColor"/>
<path opacity="0.3" d="M20 19H4C3.44772 19 3 19.4477 3 20C3 20.5523 3.44772 21 4 21H20C20.5523 21 21 20.5523 21 20C21 19.4477 20.5523 19 20 19Z" fill="currentColor"/>
</svg>
