<svg width="24" height="24" viewBox="0 0 24 24" fill="none" xmlns="http://www.w3.org/2000/svg">
<path opacity="0.3" d="M8 11C7.44772 11 7 11.4477 7 12C7 12.5523 7.44772 13 8 13H20C20.5523 13 21 12.5523 21 12C21 11.4477 20.5523 11 20 11H8Z" fill="currentColor"/>
<path opacity="0.3" d="M5 4C5 3.44772 4.55228 3 4 3C3.44772 3 3 3.44772 3 4V20C3 20.5523 3.44772 21 4 21C4.55228 21 5 20.5523 5 20V4Z" fill="currentColor"/>
<path d="M13.2929 17.2929C12.9024 17.6834 12.9024 18.3166 13.2929 18.7071C13.6834 19.0976 14.3166 19.0976 14.7071 18.7071L20.7071 12.7071C21.0857 12.3285 21.0989 11.7189 20.7372 11.3243L15.2372 5.32428C14.864 4.91716 14.2314 4.88965 13.8243 5.26285C13.4172 5.63604 13.3897 6.26861 13.7628 6.67572L18.6159 11.9699L13.2929 17.2929Z" fill="currentColor"/>
</svg>
