<svg width="24" height="24" viewBox="0 0 24 24" fill="none" xmlns="http://www.w3.org/2000/svg">
<path opacity="0.3" d="M21.4 8.35303L19.241 10.511L13.485 4.755L15.643 2.59595C16.0248 2.21423 16.5426 1.99988 17.0825 1.99988C17.6224 1.99988 18.1402 2.21423 18.522 2.59595L21.4 5.474C21.7817 5.85581 21.9962 6.37355 21.9962 6.91345C21.9962 7.45335 21.7817 7.97122 21.4 8.35303ZM3.68696 21.932L9.88696 19.865L4.13096 14.109L2.06396 20.309C1.98812 20.5354 1.977 20.7787 2.03186 21.0111C2.08671 21.2436 2.20537 21.4561 2.37446 21.6248C2.54356 21.7934 2.75638 21.9115 2.98897 21.9658C3.22155 22.0201 3.46467 22.0084 3.69096 21.932H3.68696Z" fill="currentColor"/>
<path d="M5.57389 21.3L3.69189 21.928C3.4658 22.0032 3.22323 22.0141 2.99133 21.9594C2.75943 21.9046 2.54733 21.7864 2.37879 21.6179C2.21025 21.4495 2.09191 21.2375 2.037 21.0056C1.98209 20.7737 1.99278 20.5312 2.06788 20.3051L2.69589 18.422L5.57389 21.3ZM4.13488 14.105L9.89089 19.861L19.2449 10.507L13.4889 4.75098L4.13488 14.105Z" fill="currentColor"/>
</svg>
