<svg width="24" height="24" viewBox="0 0 24 24" fill="none" xmlns="http://www.w3.org/2000/svg">
<path opacity="0.3" d="M6.45801 14.775L9.22501 17.542C11.1559 16.3304 12.9585 14.9255 14.605 13.349L10.651 9.39502C9.07452 11.0415 7.66962 12.8441 6.45801 14.775Z" fill="currentColor"/>
<path d="M9.19307 17.51C9.03407 19.936 6.76707 21.196 3.55707 21.935C3.34705 21.9838 3.12808 21.9782 2.9208 21.9189C2.71352 21.8596 2.52477 21.7484 2.37237 21.5959C2.21996 21.4434 2.10892 21.2545 2.04973 21.0472C1.99054 20.8399 1.98515 20.6209 2.03406 20.411C2.77206 17.201 4.03407 14.934 6.45807 14.775L9.19307 17.51ZM21.7681 4.43697C21.9477 4.13006 22.0205 3.77232 21.9752 3.41963C21.9298 3.06694 21.7688 2.73919 21.5173 2.48775C21.2659 2.2363 20.9382 2.07524 20.5855 2.02986C20.2328 1.98449 19.875 2.0574 19.5681 2.23701C16.2818 4.20292 13.2828 6.61333 10.6561 9.39998L14.6101 13.354C17.3951 10.7252 19.8038 7.72455 21.7681 4.43697Z" fill="currentColor"/>
</svg>
