<svg width="24" height="24" viewBox="0 0 24 24" fill="none" xmlns="http://www.w3.org/2000/svg">
<path opacity="0.3" d="M8.37988 22H20.9999C21.2651 22 21.5195 21.8947 21.707 21.7072C21.8945 21.5196 21.9999 21.2652 21.9999 21C21.9999 20.7348 21.8945 20.4804 21.707 20.2928C21.5195 20.1053 21.2651 20 20.9999 20H9.99988L8.37988 22Z" fill="currentColor"/>
<path d="M15.622 15.6219L9.85503 21.3879C9.6612 21.582 9.43104 21.7359 9.17769 21.8409C8.92434 21.946 8.65278 22 8.37852 22C8.10427 22 7.83271 21.946 7.57936 21.8409C7.32601 21.7359 7.09585 21.582 6.90202 21.3879L2.61203 17.098C2.418 16.9042 2.26407 16.674 2.15906 16.4207C2.05404 16.1673 2 15.8957 2 15.6215C2 15.3472 2.05404 15.0757 2.15906 14.8224C2.26407 14.569 2.418 14.3388 2.61203 14.145L8.37804 8.37805L15.622 15.6219Z" fill="currentColor"/>
<path opacity="0.3" d="M8.37793 8.37805L14.1449 2.61206C14.3387 2.41803 14.5689 2.26408 14.8222 2.15906C15.0756 2.05404 15.3472 2 15.6214 2C15.8957 2 16.1672 2.05404 16.4206 2.15906C16.6739 2.26408 16.9041 2.41803 17.0979 2.61206L21.3879 6.90198C21.5819 7.0958 21.7359 7.326 21.8409 7.57935C21.9459 7.83269 21.9999 8.10429 21.9999 8.37854C21.9999 8.65279 21.9459 8.92426 21.8409 9.17761C21.7359 9.43096 21.5819 9.66116 21.3879 9.85498L15.6219 15.6219L8.37793 8.37805Z" fill="currentColor"/>
</svg>
