<svg width="24" height="24" viewBox="0 0 24 24" fill="none" xmlns="http://www.w3.org/2000/svg">
<path opacity="0.3" d="M16.1632 17.55C17.0517 16.6633 17.6787 15.5488 17.9752 14.329C18.2391 13.1884 18.8121 12.1425 19.6312 11.306L12.6942 4.36902C11.8576 5.18796 10.8117 5.76088 9.67123 6.02502C8.15641 6.3947 6.81301 7.27001 5.86285 8.50635C4.91269 9.74268 4.41262 11.266 4.44525 12.825C4.4622 13.6211 4.31793 14.4125 4.02114 15.1515C3.72436 15.8905 3.28116 16.5617 2.71823 17.125L2.28723 17.556C2.1033 17.7402 2 17.9897 2 18.25C2 18.5103 2.1033 18.7598 2.28723 18.944L5.06225 21.719C5.24638 21.9029 5.49599 22.0062 5.75625 22.0062C6.01651 22.0062 6.26612 21.9029 6.45025 21.719L6.88125 21.288C7.44451 20.725 8.1158 20.2819 8.85476 19.9851C9.59373 19.6883 10.385 19.5441 11.1812 19.561C12.1044 19.58 13.0219 19.4114 13.8782 19.0658C14.7345 18.7201 15.5118 18.2046 16.1632 17.55Z" fill="currentColor"/>
<path d="M19.631 11.306L12.694 4.36902L14.775 2.28699C14.9591 2.10306 15.2087 1.99976 15.469 1.99976C15.7293 1.99976 15.9789 2.10306 16.163 2.28699L21.713 7.83704C21.8969 8.02117 22.0002 8.27075 22.0002 8.53101C22.0002 8.79126 21.8969 9.04085 21.713 9.22498L19.631 11.306ZM13.041 10.959C12.6427 10.5604 12.1194 10.3112 11.5589 10.2532C10.9985 10.1952 10.4352 10.332 9.96372 10.6405C9.49227 10.949 9.14145 11.4105 8.97031 11.9473C8.79916 12.4841 8.8181 13.0635 9.02396 13.588L2.98096 19.631L4.36896 21.019L10.412 14.975C10.9364 15.1816 11.5161 15.2011 12.0533 15.0303C12.5904 14.8594 13.0523 14.5086 13.361 14.037C13.6697 13.5654 13.8065 13.0018 13.7482 12.4412C13.6899 11.8805 13.4401 11.357 13.041 10.959Z" fill="currentColor"/>
</svg>
