<svg width="24" height="24" viewBox="0 0 24 24" fill="none" xmlns="http://www.w3.org/2000/svg">
<path opacity="0.3" fill-rule="evenodd" clip-rule="evenodd" d="M10.5858 12.0001L8.46447 14.1214C8.07395 14.512 8.07395 15.1451 8.46447 15.5356C8.855 15.9262 9.48816 15.9262 9.87868 15.5356L12 13.4143L12.7071 14.1214C13.4882 14.9025 13.4882 16.1688 12.7071 16.9499L9.87868 19.7783C9.09764 20.5593 7.83131 20.5593 7.05026 19.7783L4.22183 16.9499C3.44078 16.1688 3.44078 14.9025 4.22183 14.1214L7.05026 11.293C7.83131 10.512 9.09764 10.512 9.87868 11.293L10.5858 12.0001Z" fill="currentColor"/>
<path fill-rule="evenodd" clip-rule="evenodd" d="M13.4144 11.9999L15.5358 9.87857C15.9263 9.48804 15.9263 8.85488 15.5358 8.46436C15.1452 8.07383 14.5121 8.07383 14.1215 8.46436L12.0002 10.5857L11.2931 9.87857C10.5121 9.09752 10.5121 7.83119 11.2931 7.05014L14.1215 4.22171C14.9026 3.44067 16.1689 3.44067 16.95 4.22171L19.7784 7.05014C20.5594 7.83119 20.5594 9.09752 19.7784 9.87857L16.95 12.707C16.1689 13.488 14.9026 13.488 14.1215 12.707L13.4144 11.9999Z" fill="currentColor"/>
</svg>
