<svg width="24" height="24" viewBox="0 0 24 24" fill="none" xmlns="http://www.w3.org/2000/svg">
<path opacity="0.3" fill-rule="evenodd" clip-rule="evenodd" d="M9.87876 12.7071L7.75744 14.8285C7.36692 15.219 7.36692 15.8522 7.75744 16.2427C8.14797 16.6332 8.78113 16.6332 9.17165 16.2427L11.293 14.1214L12.0001 14.8285C12.7811 15.6095 12.7811 16.8758 12.0001 17.6569L9.17165 20.4853C8.39061 21.2664 7.12428 21.2664 6.34323 20.4853L3.5148 17.6569C2.73375 16.8758 2.73375 15.6095 3.5148 14.8285L6.34323 12C7.12428 11.219 8.39061 11.219 9.17165 12L9.87876 12.7071Z" fill="currentColor"/>
<path fill-rule="evenodd" clip-rule="evenodd" d="M14.1215 11.2929L16.2428 9.17154C16.6333 8.78101 16.6333 8.14785 16.2428 7.75732C15.8523 7.3668 15.2191 7.3668 14.8286 7.75732L12.7073 9.87864L12.0002 9.17154C11.2191 8.39049 11.2191 7.12416 12.0002 6.34311L14.8286 3.51468C15.6096 2.73363 16.876 2.73363 17.657 3.51468L20.4854 6.34311C21.2665 7.12416 21.2665 8.39049 20.4854 9.17154L17.657 12C16.876 12.781 15.6096 12.781 14.8286 12L14.1215 11.2929Z" fill="currentColor"/>
<path opacity="0.3" fill-rule="evenodd" clip-rule="evenodd" d="M4.22172 4.22188C4.61224 3.83136 5.24541 3.83136 5.63593 4.22188L7.05015 5.6361C7.44067 6.02662 7.44067 6.65979 7.05015 7.05031C6.65962 7.44083 6.02646 7.44083 5.63593 7.05031L4.22172 5.6361C3.8312 5.24557 3.8312 4.61241 4.22172 4.22188ZM9.34304 1.51478C9.89532 1.51478 10.343 1.96249 10.343 2.51478L10.343 4.51478C10.343 5.06706 9.89532 5.51478 9.34304 5.51478C8.79076 5.51478 8.34304 5.06706 8.34304 4.51478L8.34304 2.51478C8.34304 1.96249 8.79076 1.51478 9.34304 1.51478ZM1.68619 9.17163C1.68619 8.61935 2.1339 8.17163 2.68619 8.17163L4.68619 8.17163C5.23847 8.17163 5.68619 8.61935 5.68619 9.17163C5.68619 9.72392 5.23847 10.1716 4.68619 10.1716L2.68619 10.1716C2.1339 10.1716 1.68619 9.72392 1.68619 9.17163Z" fill="currentColor"/>
<path opacity="0.3" fill-rule="evenodd" clip-rule="evenodd" d="M19.6568 19.6569C20.0473 19.2664 20.0473 18.6333 19.6568 18.2427L18.2426 16.8285C17.852 16.438 17.2189 16.438 16.8284 16.8285C16.4378 17.219 16.4378 17.8522 16.8284 18.2427L18.2426 19.6569C18.6331 20.0475 19.2663 20.0475 19.6568 19.6569ZM22.3639 14.5356C22.3639 13.9833 21.9162 13.5356 21.3639 13.5356H19.3639C18.8116 13.5356 18.3639 13.9833 18.3639 14.5356C18.3639 15.0879 18.8116 15.5356 19.3639 15.5356H21.3639C21.9162 15.5356 22.3639 15.0879 22.3639 14.5356ZM14.707 22.1925C15.2593 22.1925 15.707 21.7448 15.707 21.1925V19.1925C15.707 18.6402 15.2593 18.1925 14.707 18.1925C14.1547 18.1925 13.707 18.6402 13.707 19.1925V21.1925C13.707 21.7448 14.1547 22.1925 14.707 22.1925Z" fill="currentColor"/>
</svg>
