<svg width="24" height="24" viewBox="0 0 24 24" fill="none" xmlns="http://www.w3.org/2000/svg">
<path opacity="0.3" fill-rule="evenodd" clip-rule="evenodd" d="M15.2426 15.8284L21.6065 9.4644L23.0207 10.8786L16.6568 17.2426L15.2426 15.8284ZM1.80754 16.5355L11.707 6.63597C12.0976 6.24544 12.7307 6.24544 13.1213 6.63597L14.5355 8.05018C14.926 8.44071 14.926 9.07387 14.5355 9.4644L4.63597 19.3639C4.24544 19.7544 3.61228 19.7544 3.22176 19.3639L1.80754 17.9497C1.41702 17.5592 1.41702 16.926 1.80754 16.5355ZM15.9497 3.80754L17.3639 5.22176C17.7544 5.61228 17.7544 6.24544 17.3639 6.63597L16.6568 7.34308C16.2663 7.7336 15.6331 7.7336 15.2426 7.34308L13.8284 5.92886C13.4378 5.53834 13.4378 4.90517 13.8284 4.51465L14.5355 3.80754C14.926 3.41702 15.5592 3.41702 15.9497 3.80754Z" fill="currentColor"/>
<path fill-rule="evenodd" clip-rule="evenodd" d="M20.8993 8.75742C18.3065 8.05032 16.6566 7.34321 15.9495 6.6361C15.2424 5.929 13.8282 4.51478 11.7069 2.39346L8.17135 5.929C10.057 7.81461 11.4712 9.22883 12.414 10.1716C13.3568 11.1144 14.0639 12.7644 14.5353 15.1214L20.8993 8.75742Z" fill="currentColor"/>
</svg>
