<svg width="24" height="24" viewBox="0 0 24 24" fill="none" xmlns="http://www.w3.org/2000/svg">
<path fill-rule="evenodd" clip-rule="evenodd" d="M17.1713 18.2773L10.4306 12.3977C10.2225 12.2162 10.201 11.9003 10.3825 11.6922C10.3971 11.6755 10.4128 11.6598 10.4295 11.6451L17.1702 5.72848C17.3777 5.54631 17.6936 5.56688 17.8758 5.77442C17.9558 5.86564 18 5.98288 18 6.10425V17.9005C18 18.1766 17.7761 18.4005 17.5 18.4005C17.3792 18.4005 17.2624 18.3567 17.1713 18.2773Z" fill="currentColor"/>
<path opacity="0.3" d="M8 6H7C6.44772 6 6 6.44772 6 7V17C6 17.5523 6.44772 18 7 18H8C8.55228 18 9 17.5523 9 17V7C9 6.44772 8.55228 6 8 6Z" fill="currentColor"/>
</svg>
