<svg width="24" height="24" viewBox="0 0 24 24" fill="none" xmlns="http://www.w3.org/2000/svg">
<path opacity="0.3" fill-rule="evenodd" clip-rule="evenodd" d="M8.42011 20H20.9998C22.1043 20 22.9998 19.1046 22.9998 18V6C22.9998 4.89543 22.1043 4 20.9998 4H8.42011C8.15645 4 7.90346 4.10413 7.71619 4.28972L0.653011 11.2897C0.260736 11.6785 0.257891 12.3116 0.646657 12.7039C0.648766 12.7061 0.650883 12.7082 0.653011 12.7103L7.71619 19.7103C7.90346 19.8959 8.15645 20 8.42011 20Z" fill="currentColor"/>
<path fill-rule="evenodd" clip-rule="evenodd" d="M12.586 12L11.1718 10.5858C10.7813 10.1952 10.7813 9.56208 11.1718 9.17156C11.5623 8.78103 12.1955 8.78103 12.586 9.17156L14.0002 10.5858L15.4144 9.17156C15.805 8.78103 16.4381 8.78103 16.8287 9.17156C17.2192 9.56208 17.2192 10.1952 16.8287 10.5858L15.4144 12L16.8287 13.4142C17.2192 13.8047 17.2192 14.4379 16.8287 14.8284C16.4381 15.2189 15.805 15.2189 15.4144 14.8284L14.0002 13.4142L12.586 14.8284C12.1955 15.2189 11.5623 15.2189 11.1718 14.8284C10.7813 14.4379 10.7813 13.8047 11.1718 13.4142L12.586 12Z" fill="currentColor"/>
</svg>
