<svg width="24" height="24" viewBox="0 0 24 24" fill="none" xmlns="http://www.w3.org/2000/svg">
<path opacity="0.3" fill-rule="evenodd" clip-rule="evenodd" d="M12 2C14.2982 2 16.3992 3.29849 17.427 5.3541L20.75 12C22.4567 15.4133 21.0731 19.5639 17.6598 21.2705C16.7004 21.7502 15.6424 22 14.5697 22H9.43034C5.61414 22 2.52051 18.9064 2.52051 15.0902C2.52051 14.0175 2.77026 12.9595 3.25 12L6.57295 5.3541C7.60075 3.29849 9.70175 2 12 2Z" fill="currentColor"/>
<path opacity="0.3" fill-rule="evenodd" clip-rule="evenodd" d="M6.4375 16.5L7.5625 15C9.07542 16.1347 10.5496 16.6875 12 16.6875C13.4504 16.6875 14.9246 16.1347 16.4375 15L17.5625 16.5C15.7421 17.8653 13.8829 18.5625 12 18.5625C10.1171 18.5625 8.25792 17.8653 6.4375 16.5Z" fill="currentColor"/>
</svg>
