<svg width="24" height="24" viewBox="0 0 24 24" fill="none" xmlns="http://www.w3.org/2000/svg">
<path opacity="0.3" d="M14 9V8C14 6.89543 13.1046 6 12 6C10.8954 6 10 6.89543 10 8V9H8V8C8 5.79086 9.79086 4 12 4C14.2091 4 16 5.79086 16 8V9H14ZM14 9V8C14 6.89543 13.1046 6 12 6C10.8954 6 10 6.89543 10 8V9H8V8C8 5.79086 9.79086 4 12 4C14.2091 4 16 5.79086 16 8V9H14Z" fill="currentColor"/>
<path fill-rule="evenodd" clip-rule="evenodd" d="M6.84705 9H17.1528C17.6416 9 18.0588 9.35341 18.1392 9.8356L19.6118 18.6712C19.7934 19.7607 19.0573 20.7912 17.9678 20.9728C17.8591 20.9909 17.7492 21 17.639 21H6.36084C5.25627 21 4.36084 20.1046 4.36084 19C4.36084 18.8898 4.36994 18.7799 4.38805 18.6712L5.86065 9.8356C5.94102 9.35341 6.35821 9 6.84705 9Z" fill="currentColor"/>
</svg>
