<svg width="24" height="24" viewBox="0 0 24 24" fill="none" xmlns="http://www.w3.org/2000/svg">
<path opacity="0.3" fill-rule="evenodd" clip-rule="evenodd" d="M5.94289 4H18.0571C18.5866 4 19.0243 4.41272 19.0554 4.94128L19.8754 18.8826C19.9403 19.9852 19.099 20.9317 17.9963 20.9965C17.9572 20.9988 17.9181 21 17.8789 21H6.12109C5.01652 21 4.12109 20.1046 4.12109 19C4.12109 18.9608 4.12224 18.9217 4.12455 18.8826L4.94462 4.94128C4.97571 4.41272 5.41342 4 5.94289 4Z" fill="currentColor"/>
<path fill-rule="evenodd" clip-rule="evenodd" d="M7 7H9C9 8.65685 10.3431 10 12 10C13.6569 10 15 8.65685 15 7H17C17 9.76142 14.7614 12 12 12C9.23858 12 7 9.76142 7 7Z" fill="currentColor"/>
</svg>
