<svg width="24" height="24" viewBox="0 0 24 24" fill="none" xmlns="http://www.w3.org/2000/svg">
<path fill-rule="evenodd" clip-rule="evenodd" d="M7.03592 17.2664L2.541 14.2345C1.62527 13.6169 1.38364 12.3738 2.00131 11.4581C2.61897 10.5423 3.86204 10.3007 4.77777 10.9184L7.00005 12.4173V8C7.00005 4.68629 9.68634 2 13 2C16.3138 2 19 4.68629 19 8V17C19 17.5523 18.5523 18 18 18H8.00005C7.54002 18 7.15254 17.6894 7.03592 17.2664Z" fill="currentColor"/>
<path opacity="0.3" d="M19 20H7C6.44772 20 6 20.4477 6 21C6 21.5523 6.44772 22 7 22H19C19.5523 22 20 21.5523 20 21C20 20.4477 19.5523 20 19 20Z" fill="currentColor"/>
</svg>
