<svg width="24" height="24" viewBox="0 0 24 24" fill="none" xmlns="http://www.w3.org/2000/svg">
<path fill-rule="evenodd" clip-rule="evenodd" d="M15 9H13V5H15V9ZM15 15V20H13V15H15ZM5 9H2V6C2 5.44772 2.44772 5 3 5H5V9ZM5 15V20H3C2.44772 20 2 19.5523 2 19V15H5ZM18 9H16V5H18V9ZM18 15V20H16V15H18ZM22 9H20V5H21C21.5523 5 22 5.44772 22 6V9ZM22 15V19C22 19.5523 21.5523 20 21 20H20V15H22Z" fill="currentColor"/>
<path opacity="0.3" fill-rule="evenodd" clip-rule="evenodd" d="M9 9H7V5H9V9ZM9 15V20H7V15H9Z" fill="currentColor"/>
<path opacity="0.3" d="M23 11H1C0.447715 11 0 11.4477 0 12C0 12.5523 0.447715 13 1 13H23C23.5523 13 24 12.5523 24 12C24 11.4477 23.5523 11 23 11Z" fill="currentColor"/>
</svg>
