<svg width="24" height="24" viewBox="0 0 24 24" fill="none" xmlns="http://www.w3.org/2000/svg">
<path opacity="0.3" d="M16 7V9H19C19.5523 9 20 9.44772 20 10V13C20 13.5523 19.5523 14 19 14H16V16H19C20.6569 16 22 14.6569 22 13V10C22 8.34315 20.6569 7 19 7H16Z" fill="currentColor"/>
<path opacity="0.3" fill-rule="evenodd" clip-rule="evenodd" d="M4.75781 5C5.56507 3.79401 6.93983 3 8.50004 3C10.0602 3 11.435 3.79401 12.2423 5H4.75781Z" fill="currentColor"/>
<path opacity="0.3" fill-rule="evenodd" clip-rule="evenodd" d="M7 5C7 2.79086 8.79086 1 11 1C13.2091 1 15 2.79086 15 5H7Z" fill="currentColor"/>
<path opacity="0.3" fill-rule="evenodd" clip-rule="evenodd" d="M12.0498 5C12.2814 3.85888 13.2903 3 14.4998 3C15.7093 3 16.7182 3.85888 16.9498 5H12.0498Z" fill="currentColor"/>
<path fill-rule="evenodd" clip-rule="evenodd" d="M8.00003 8C8.55231 8 9.00003 8.44772 9.00003 9V18C9.00003 18.5523 8.55231 19 8.00003 19C7.44774 19 7.00003 18.5523 7.00003 18V9C7.00003 8.44772 7.44774 8 8.00003 8ZM13 8C13.5523 8 14 8.44772 14 9V18C14 18.5523 13.5523 19 13 19C12.4477 19 12 18.5523 12 18V9C12 8.44772 12.4477 8 13 8ZM4.06058 5H16.9395C17.4918 5 17.9395 5.44772 17.9395 6C17.9395 6.01959 17.9389 6.03917 17.9377 6.05872L17.1108 20.1174C17.0486 21.1746 16.1732 22 15.1142 22H5.88584C4.82688 22 3.95147 21.1746 3.88929 20.1174L3.0623 6.05872C3.02987 5.50739 3.45052 5.03416 4.00186 5.00173C4.02141 5.00058 4.04099 5 4.06058 5Z" fill="currentColor"/>
</svg>
