<svg width="24" height="24" viewBox="0 0 24 24" fill="none" xmlns="http://www.w3.org/2000/svg">
<path opacity="0.3" d="M4.95312 14.3026L3.04688 13.6974C4.65101 8.6444 7.67318 6 12 6C16.3268 6 19.349 8.6444 20.9531 13.6974L19.0469 14.3026C17.688 10.0223 15.3769 8 12 8C8.62312 8 6.31195 10.0223 4.95312 14.3026ZM12 8C12.5523 8 13 7.55228 13 7C13 6.44772 12.5523 6 12 6C11.4477 6 11 6.44772 11 7C11 7.55228 11.4477 8 12 8Z" fill="currentColor"/>
<path fill-rule="evenodd" clip-rule="evenodd" d="M5.73244 6H9.17071C9.58254 4.83481 10.6938 4 12 4C13.3062 4 14.4175 4.83481 14.8293 6H18.2676C18.6134 5.4022 19.2597 5 20 5C21.1046 5 22 5.89543 22 7C22 8.10457 21.1046 9 20 9C19.2597 9 18.6134 8.5978 18.2676 8H14.8293C14.4175 9.16519 13.3062 10 12 10C10.6938 10 9.58254 9.16519 9.17071 8H5.73244C5.38663 8.5978 4.74028 9 4 9C2.89543 9 2 8.10457 2 7C2 5.89543 2.89543 5 4 5C4.74028 5 5.38663 5.4022 5.73244 6ZM12 8C12.5523 8 13 7.55228 13 7C13 6.44772 12.5523 6 12 6C11.4477 6 11 6.44772 11 7C11 7.55228 11.4477 8 12 8ZM4 19C2.34315 19 1 17.6569 1 16C1 14.3431 2.34315 13 4 13C5.65685 13 7 14.3431 7 16C7 17.6569 5.65685 19 4 19ZM4 17C4.55228 17 5 16.5523 5 16C5 15.4477 4.55228 15 4 15C3.44772 15 3 15.4477 3 16C3 16.5523 3.44772 17 4 17ZM20 19C18.3431 19 17 17.6569 17 16C17 14.3431 18.3431 13 20 13C21.6569 13 23 14.3431 23 16C23 17.6569 21.6569 19 20 19ZM20 17C20.5523 17 21 16.5523 21 16C21 15.4477 20.5523 15 20 15C19.4477 15 19 15.4477 19 16C19 16.5523 19.4477 17 20 17Z" fill="currentColor"/>
</svg>
