<svg width="24" height="24" viewBox="0 0 24 24" fill="none" xmlns="http://www.w3.org/2000/svg">
<path fill-rule="evenodd" clip-rule="evenodd" d="M12.8433 16H11.1563L10.985 16.6393C10.3351 19.0649 7.84182 20.5044 5.41617 19.8545C2.99052 19.2045 1.55103 16.7112 2.20098 14.2856L3.92068 7.86759C4.57064 5.44194 7.0639 4.00245 9.48955 4.6524C10.542 4.9344 11.4088 5.56341 11.9998 6.38334C12.5909 5.56341 13.4576 4.9344 14.5101 4.6524C16.9357 4.00245 19.429 5.44194 20.0789 7.86759L21.7987 14.2856C22.4486 16.7112 21.0091 19.2045 18.5835 19.8545C16.1578 20.5044 13.6646 19.0649 13.0146 16.6393L12.8433 16ZM17.4562 18.1051C18.9629 18.1051 20.1843 16.8378 20.1843 15.2744C20.1843 13.7109 18.9629 12.4436 17.4562 12.4436C15.9494 12.4436 14.728 13.7109 14.728 15.2744C14.728 16.8378 15.9494 18.1051 17.4562 18.1051ZM6.54347 18.1051C8.0502 18.1051 9.27164 16.8378 9.27164 15.2744C9.27164 13.7109 8.0502 12.4436 6.54347 12.4436C5.03674 12.4436 3.81529 13.7109 3.81529 15.2744C3.81529 16.8378 5.03674 18.1051 6.54347 18.1051Z" fill="currentColor"/>
</svg>
