<svg width="24" height="24" viewBox="0 0 24 24" fill="none" xmlns="http://www.w3.org/2000/svg">
<path opacity="0.3" d="M13 3C13 2.44772 12.5523 2 12 2C11.4477 2 11 2.44772 11 3V6C11 6.55228 11.4477 7 12 7C12.5523 7 13 6.55228 13 6V3Z" fill="currentColor"/>
<path opacity="0.3" d="M13 17C13 16.4477 12.5523 16 12 16C11.4477 16 11 16.4477 11 17V20C11 20.5523 11.4477 21 12 21C12.5523 21 13 20.5523 13 20V17Z" fill="currentColor"/>
<path fill-rule="evenodd" clip-rule="evenodd" d="M17.875 14.0861C17.875 14.8208 17.7293 15.4383 17.438 15.9386C17.1467 16.4389 16.7603 16.8411 16.279 17.1451C15.7977 17.4491 15.2498 17.6676 14.6355 17.8006C14.0212 17.9336 13.391 18.0001 12.745 18.0001H7V4.5481H12.745C13.2643 4.5481 13.7963 4.60193 14.341 4.7096C14.8857 4.81726 15.3797 5.00093 15.823 5.2606C16.2663 5.52026 16.6273 5.87176 16.906 6.3151C17.1847 6.75843 17.324 7.32209 17.324 8.0061C17.324 8.75343 17.1213 9.37093 16.716 9.8586C16.3107 10.3463 15.7787 10.6978 15.12 10.9131C15.5 11.0144 15.8578 11.1316 16.1935 11.3026C16.5292 11.4736 16.8205 11.6921 17.0675 11.9581C17.3145 12.2241 17.5108 12.5344 17.6565 12.8891C17.8022 13.2438 17.875 13.6428 17.875 14.0861ZM14.189 8.4431C14.189 7.98709 14.0148 7.6546 13.6665 7.4456C13.3182 7.23659 12.802 7.1321 12.118 7.1321H10.522V9.9061H12.27C12.878 9.9061 13.3498 9.7826 13.6855 9.5356C14.0212 9.28859 14.189 8.92443 14.189 8.4431ZM14.626 13.7821C14.626 13.2248 14.417 12.8384 13.999 12.6231C13.581 12.4078 13.0237 12.3001 12.327 12.3001H10.522V15.3781H12.346C12.5993 15.3781 12.8622 15.3559 13.1345 15.3116C13.4068 15.2673 13.6538 15.1881 13.8755 15.0741C14.0972 14.9601 14.2777 14.7986 14.417 14.5896C14.5563 14.3806 14.626 14.1114 14.626 13.7821Z" fill="currentColor"/>
</svg>
