<svg width="24" height="24" viewBox="0 0 24 24" fill="none" xmlns="http://www.w3.org/2000/svg">
<path fill-rule="evenodd" clip-rule="evenodd" d="M17.2024 13H15C14.4477 13 14 13.4477 14 14C14 14.5523 14.4477 15 15 15H16.6419L16.0012 17.2863C15.8802 17.718 15.4866 18.0164 15.0383 18.0164L7.9687 18.0164C7.3229 18.0164 6.65623 16.5788 5.9687 13.7035C4.82174 12.9484 3 10.9112 3 8.51641C3 5.47885 4.32212 3.01642 5.95304 3.01642C5.97701 3.01642 6.0009 3.01695 6.02473 3.018C6.10057 2.99517 10.3205 2.99406 18.6846 3.01467C18.775 3.01489 18.865 3.02737 18.952 3.05177C19.4838 3.20081 19.7941 3.75273 19.645 4.28452L19.4445 5H15C14.4477 5 14 5.44772 14 6C14 6.55228 14.4477 7 15 7H18.884L18.3235 9H15C14.4477 9 14 9.44772 14 10C14 10.5523 14.4477 11 15 11H17.763L17.2024 13ZM6.44522 11.0164V5.01642C5.46087 5.51642 4.9687 6.14853 4.9687 8.01641C4.9687 10.0962 6.2234 11.0164 6.44522 11.0164Z" fill="currentColor"/>
<path opacity="0.3" fill-rule="evenodd" clip-rule="evenodd" d="M6 19H16C17.1046 19 18 19.8954 18 21V22.5C18 22.7761 17.7761 23 17.5 23H4.5C4.22386 23 4 22.7761 4 22.5V21C4 19.8954 4.89543 19 6 19ZM11 22C11.5523 22 12 21.5523 12 21C12 20.4477 11.5523 20 11 20C10.4477 20 10 20.4477 10 21C10 21.5523 10.4477 22 11 22Z" fill="currentColor"/>
</svg>
