<svg width="24" height="24" viewBox="0 0 24 24" fill="none" xmlns="http://www.w3.org/2000/svg">
<path opacity="0.3" d="M12 13.8454V18.759L15.3125 16.8267L12 13.8454ZM10 12.0454L6.33104 8.7433C5.92053 8.37384 5.88726 7.74155 6.25671 7.33104C6.62617 6.92053 7.25846 6.88726 7.66897 7.25671L17.669 16.2567C18.1726 16.71 18.0892 17.5224 17.5039 17.8638L11.5039 21.3638C10.8372 21.7527 10 21.2718 10 20.5V12.0454Z" fill="currentColor"/>
<path d="M12 10.4375L15.3985 7.54884L12 4.99998V10.4375ZM10 2.99998C10 2.17594 10.9408 1.70556 11.6 2.19998L17.6 6.69998C18.1132 7.08485 18.1364 7.84649 17.6477 8.26192L7.64767 16.7619C7.22686 17.1196 6.59577 17.0684 6.23808 16.6476C5.88039 16.2268 5.93156 15.5957 6.35237 15.238L10 12.1375V2.99998Z" fill="currentColor"/>
</svg>
