<svg width="24" height="24" viewBox="0 0 24 24" fill="none" xmlns="http://www.w3.org/2000/svg">
<path fill-rule="evenodd" clip-rule="evenodd" d="M7.33984 19V4.80005H12.6798C14.9998 4.80005 16.8998 6.70005 16.8998 9.02005C16.8998 10.02 16.5198 10.84 15.8998 11.46C17.0998 12.1 17.8998 13.26 17.8998 14.78C17.8998 17.12 15.9998 19 13.5998 19H7.33984ZM10.5398 16.06H13.2998C14.1598 16.06 14.7798 15.44 14.7798 14.66C14.7798 13.88 14.1598 13.24 13.2998 13.24H10.5398V16.06ZM10.5398 10.54H12.3198C13.1798 10.54 13.7998 9.92005 13.7998 9.14005C13.7998 8.36005 13.1798 7.72005 12.3198 7.72005H10.5398V10.54Z" fill="currentColor"/>
</svg>
