<svg width="24" height="24" viewBox="0 0 24 24" fill="none" xmlns="http://www.w3.org/2000/svg">
<path fill-rule="evenodd" clip-rule="evenodd" d="M13.6855 18.7082C15.9114 17.819 18.6829 17.2496 22 17C22 16.9325 22 13.1013 22 5.50632H22C22 5.23019 21.7761 5.00635 21.5 5.00635C21.4958 5.00635 21.4916 5.0064 21.4874 5.00651C18.6582 5.07813 15.8291 5.74263 13 7.00002C13 7.04452 13 10.7925 13 18.2439H13C13 18.5201 13.2239 18.7439 13.5 18.7439C13.5636 18.7439 13.6265 18.7318 13.6855 18.7082Z" fill="currentColor"/>
<path opacity="0.3" fill-rule="evenodd" clip-rule="evenodd" d="M10.3145 18.7082C8.08861 17.819 5.31712 17.2496 2 17C2 16.9325 2 13.1013 2 5.50632H2.00002C2.00002 5.23019 2.22387 5.00635 2.5 5.00635C2.50422 5.00635 2.50844 5.0064 2.51265 5.00651C5.34177 5.07813 8.17088 5.74263 11 7.00002C11 7.04452 11 10.7925 11 18.2439H11C11 18.5201 10.7762 18.7439 10.5 18.7439C10.4365 18.7439 10.3735 18.7318 10.3145 18.7082Z" fill="currentColor"/>
</svg>
