<svg width="24" height="24" viewBox="0 0 24 24" fill="none" xmlns="http://www.w3.org/2000/svg">
<path fill-rule="evenodd" clip-rule="evenodd" d="M8 18V22C8 22.5523 8.44772 23 9 23H15C15.5523 23 16 22.5523 16 22V10.4142C16 10.149 15.8946 9.89464 15.7071 9.70711L14.2929 8.29289C14.1054 8.10536 14 7.851 14 7.58579V5C14 4.44772 13.5523 4 13 4H11C10.4477 4 10 4.44772 10 5V7.58579C10 7.851 9.89464 8.10536 9.70711 8.29289L8.29289 9.70711C8.10536 9.89464 8 10.149 8 10.4142V13H12V18H8Z" fill="currentColor"/>
<path opacity="0.3" d="M13 1H11C10.4477 1 10 1.44772 10 2C10 2.55228 10.4477 3 11 3H13C13.5523 3 14 2.55228 14 2C14 1.44772 13.5523 1 13 1Z" fill="currentColor"/>
</svg>
