<svg width="24" height="24" viewBox="0 0 24 24" fill="none" xmlns="http://www.w3.org/2000/svg">
<path fill-rule="evenodd" clip-rule="evenodd" d="M6.2 9.73333L8.7 6.4C8.88885 6.14819 9.18524 6 9.5 6H14.5C14.8148 6 15.1111 6.14819 15.3 6.4L17.8 9.73333C17.9298 9.90643 18 10.117 18 10.3333V21C18 22.1046 17.1046 23 16 23H8C6.89543 23 6 22.1046 6 21V10.3333C6 10.117 6.07018 9.90643 6.2 9.73333ZM9 12C8.44772 12 8 12.4477 8 13V20C8 20.5523 8.44772 21 9 21H10C10.5523 21 11 20.5523 11 20V13C11 12.4477 10.5523 12 10 12H9Z" fill="currentColor"/>
<path opacity="0.3" d="M14 1H10C9.44772 1 9 1.44772 9 2V3C9 3.55228 9.44772 4 10 4H14C14.5523 4 15 3.55228 15 3V2C15 1.44772 14.5523 1 14 1Z" fill="currentColor"/>
</svg>
