<svg width="24" height="24" viewBox="0 0 24 24" fill="none" xmlns="http://www.w3.org/2000/svg">
<path fill-rule="evenodd" clip-rule="evenodd" d="M4 7H20V19.5C20 20.3284 19.3284 21 18.5 21H5.5C4.67157 21 4 20.3284 4 19.5V7ZM10 10C9.44772 10 9 10.4477 9 11C9 11.5523 9.44772 12 10 12H14C14.5523 12 15 11.5523 15 11C15 10.4477 14.5523 10 14 10H10Z" fill="currentColor"/>
<path opacity="0.3" d="M21 3H3C2.44772 3 2 3.44772 2 4V6C2 6.55228 2.44772 7 3 7H21C21.5523 7 22 6.55228 22 6V4C22 3.44772 21.5523 3 21 3Z" fill="currentColor"/>
</svg>
