<svg width="24" height="24" viewBox="0 0 24 24" fill="none" xmlns="http://www.w3.org/2000/svg">
<path opacity="0.3" fill-rule="evenodd" clip-rule="evenodd" d="M6 3H18L20 6.5H4L6 3Z" fill="currentColor"/>
<path fill-rule="evenodd" clip-rule="evenodd" d="M6 5H18C19.1046 5 20 5.89543 20 7V19C20 20.1046 19.1046 21 18 21H6C4.89543 21 4 20.1046 4 19V7C4 5.89543 4.89543 5 6 5ZM9 9C8.44772 9 8 9.44772 8 10C8 10.5523 8.44772 11 9 11H15C15.5523 11 16 10.5523 16 10C16 9.44772 15.5523 9 15 9H9Z" fill="currentColor"/>
</svg>
