<svg width="24" height="24" viewBox="0 0 24 24" fill="none" xmlns="http://www.w3.org/2000/svg">
<path fill-rule="evenodd" clip-rule="evenodd" d="M4 9.67469L10.8803 13.647C10.9543 13.6898 11.032 13.7207 11.1111 13.7403V21.4444L4.4907 17.5264C4.18655 17.3464 4 17.0193 4 16.6659V9.67469ZM20 9.56909V16.6659C20 17.0193 19.8134 17.3464 19.5093 17.5264L12.8889 21.4444V13.6728C12.905 13.6647 12.921 13.6562 12.9368 13.647L20 9.56909Z" fill="currentColor"/>
<path opacity="0.3" fill-rule="evenodd" clip-rule="evenodd" d="M4.21631 7.74659C4.30035 7.64046 4.40642 7.55077 4.53009 7.4849L11.5301 3.75655C11.8239 3.60003 12.1764 3.60003 12.4703 3.75655L19.4703 7.4849C19.5656 7.53567 19.6505 7.60061 19.7229 7.67631L12.0481 12.1073C11.9977 12.1365 11.9511 12.1698 11.9087 12.2066C11.8663 12.1698 11.8198 12.1365 11.7693 12.1073L4.21631 7.74659Z" fill="currentColor"/>
</svg>
