<svg width="24" height="24" viewBox="0 0 24 24" fill="none" xmlns="http://www.w3.org/2000/svg">
<path opacity="0.3" fill-rule="evenodd" clip-rule="evenodd" d="M21 10.6632V19C21 20.1046 20.1046 21 19 21H9C7.89543 21 7 20.1046 7 19V10.6632C5.81753 10.1015 5 8.8962 5 7.5C5 5.567 6.567 4 8.5 4H19.5C21.433 4 23 5.567 23 7.5C23 8.8962 22.1825 10.1015 21 10.6632Z" fill="currentColor"/>
<path fill-rule="evenodd" clip-rule="evenodd" d="M17 10.6632V19C17 20.1046 16.1046 21 15 21H5C3.89543 21 3 20.1046 3 19V10.6632C1.81753 10.1015 1 8.8962 1 7.5C1 5.567 2.567 4 4.5 4H15.5C17.433 4 19 5.567 19 7.5C19 8.8962 18.1825 10.1015 17 10.6632Z" fill="currentColor"/>
</svg>
