<svg width="24" height="24" viewBox="0 0 24 24" fill="none" xmlns="http://www.w3.org/2000/svg">
<path fill-rule="evenodd" clip-rule="evenodd" d="M5.84049 8H18.16C19.2001 8 20.0667 8.79732 20.1531 9.83391L20.8197 17.8339C20.9115 18.9347 20.0935 19.9014 18.9927 19.9931C18.9375 19.9977 18.8821 20 18.8266 20H5.17383C4.06926 20 3.17383 19.1046 3.17383 18C3.17383 17.9446 3.17613 17.8892 3.18074 17.8339L3.8474 9.83391C3.93379 8.79732 4.80032 8 5.84049 8ZM10.5002 10C10.2241 10 10.0002 10.2239 10.0002 10.5V11.5C10.0002 11.7761 10.2241 12 10.5002 12H13.5002C13.7764 12 14.0002 11.7761 14.0002 11.5V10.5C14.0002 10.2239 13.7764 10 13.5002 10H10.5002Z" fill="currentColor"/>
<path opacity="0.3" d="M10 8H8V7C8 5.34315 9.34315 4 11 4H13C14.6569 4 16 5.34315 16 7V8H14V7C14 6.44772 13.5523 6 13 6H11C10.4477 6 10 6.44772 10 7V8Z" fill="currentColor"/>
</svg>
