<svg width="24" height="24" viewBox="0 0 24 24" fill="none" xmlns="http://www.w3.org/2000/svg">
<path opacity="0.3" fill-rule="evenodd" clip-rule="evenodd" d="M10.5279 22.5278L8.79769 20.7976L9.9955 18.4464L7.35589 19.3558L5.04899 17.0489L8.15443 11.6366L2.7421 14.7421L1.30029 13.3002L9.26553 8.03126C11.3412 6.65819 14.1286 7.15099 15.6077 9.15253C17.1661 11.2614 17.122 14.152 15.4999 16.2123L10.5279 22.5278Z" fill="currentColor"/>
<path fill-rule="evenodd" clip-rule="evenodd" d="M14.9931 6.67875L19.0106 2.66125C19.7916 1.8802 21.058 1.8802 21.839 2.66125C22.6201 3.4423 22.6201 4.70863 21.839 5.48968L17.8148 9.51392C17.636 9.17431 17.4298 8.84493 17.1963 8.5289C16.5987 7.72022 15.8386 7.09896 14.9931 6.67875Z" fill="currentColor"/>
</svg>
