<svg width="24" height="24" viewBox="0 0 24 24" fill="none" xmlns="http://www.w3.org/2000/svg">
<path opacity="0.3" fill-rule="evenodd" clip-rule="evenodd" d="M16.0576 5.11554L18.1789 7.23686L15.7041 11.8331L20.3003 9.35818L22.068 11.1259C22.2633 11.3212 22.2633 11.6378 22.068 11.8331L16.7647 17.1364L6.86523 7.23686L12.1685 1.93356C12.3638 1.73829 12.6804 1.73829 12.8756 1.93356L14.6434 3.70132L13.9363 5.82264L16.0576 5.11554Z" fill="currentColor"/>
<path fill-rule="evenodd" clip-rule="evenodd" d="M10.16 16.1882L6.8684 20.8904C6.23497 21.7953 4.98791 22.0154 4.08301 21.382C3.98756 21.3151 3.89812 21.2401 3.81573 21.1577L2.85776 20.1997C2.07671 19.4187 2.07671 18.1524 2.85776 17.3713C2.94398 17.2851 3.0379 17.2069 3.13836 17.1378L7.86064 13.8889L4.74401 10.7723C4.35348 10.3818 4.35348 9.74859 4.74401 9.35806L6.15822 7.94385L16.0577 17.8433L14.6435 19.2576C14.253 19.6481 13.6198 19.6481 13.2293 19.2576L10.16 16.1882ZM4.74401 19.2576C5.13453 19.6481 5.7677 19.6481 6.15822 19.2576C6.54875 18.867 6.54875 18.2339 6.15822 17.8433C5.7677 17.4528 5.13453 17.4528 4.74401 17.8433C4.35348 18.2339 4.35348 18.867 4.74401 19.2576Z" fill="currentColor"/>
</svg>
