<svg width="24" height="24" viewBox="0 0 24 24" fill="none" xmlns="http://www.w3.org/2000/svg">
<path fill-rule="evenodd" clip-rule="evenodd" d="M13.4999 6C13.3373 8.28571 12.7799 9.78571 11.8275 10.5C11.8275 10.5 12.4999 4 10.5734 2C10.5734 2 10.5734 5.92857 8.78767 9.14286C7.95062 10.6496 7.00195 12.1418 7.00195 14.1429C7.00195 17 10.4696 18 12.0048 18C13.8024 18 16.9999 17 16.9999 13.5C16.9999 12.0608 15.8332 9.56082 13.4999 6Z" fill="currentColor"/>
<path opacity="0.3" fill-rule="evenodd" clip-rule="evenodd" d="M9.72076 20H14.2792C14.7097 20 15.0918 20.2754 15.2279 20.6838L16 23H8L8.77208 20.6838C8.90819 20.2754 9.29033 20 9.72076 20Z" fill="currentColor"/>
</svg>
