<svg width="24" height="24" viewBox="0 0 24 24" fill="none" xmlns="http://www.w3.org/2000/svg">
<path opacity="0.3" d="M16 1H8C7.44772 1 7 1.44772 7 2V3C7 3.55228 7.44772 4 8 4H16C16.5523 4 17 3.55228 17 3V2C17 1.44772 16.5523 1 16 1Z" fill="currentColor"/>
<path fill-rule="evenodd" clip-rule="evenodd" d="M9.32244 6H14.6779C17.4393 6 19.6779 8.23858 19.6779 11C19.6779 11.104 19.6747 11.2081 19.6682 11.3119L19.1174 20.1248C19.0515 21.1788 18.1774 22 17.1213 22H6.87908C5.82296 22 4.94886 21.1788 4.88298 20.1248L4.33217 11.3119C4.15992 8.55585 6.2545 6.18199 9.01054 6.00974C9.11438 6.00325 9.2184 6 9.32244 6ZM9.00018 9C7.89561 9 7.00018 9.89543 7.00018 11V12C7.00018 13.1046 7.89561 14 9.00018 14H15.0002C16.1047 14 17.0002 13.1046 17.0002 12V11C17.0002 9.89543 16.1047 9 15.0002 9H9.00018Z" fill="currentColor"/>
</svg>
