<svg width="24" height="24" viewBox="0 0 24 24" fill="none" xmlns="http://www.w3.org/2000/svg">
<path d="M10.707 3.22186L3.63596 10.2929C3.21533 10.7136 3.02123 11.2749 3.05366 11.8255C3.05742 11.8894 3.06175 11.9516 3.0673 12.0123C3.0673 12.0287 16.0424 12.0287 16.0424 12.0287C16.3665 11.7045 16.9451 11.1259 17.7781 10.2929L10.707 3.22186ZM12.1212 1.80765L19.1923 8.87871C19.9734 9.65976 19.9734 10.9261 19.1923 11.7071L12.1212 18.7782C10.5591 20.3403 8.02649 20.3403 6.46439 18.7782L2.22175 14.5356C0.659653 12.9735 0.659653 10.4408 2.22175 8.87871L9.29282 1.80765C10.0739 1.0266 11.3402 1.0266 12.1212 1.80765Z" fill="currentColor"/>
<path opacity="0.3" fill-rule="evenodd" clip-rule="evenodd" d="M20 22C21.6569 22 23 20.6569 23 19C23 17.8954 22 16.2288 20 14C18 16.2288 17 17.8954 17 19C17 20.6569 18.3431 22 20 22Z" fill="currentColor"/>
</svg>
