<svg width="24" height="24" viewBox="0 0 24 24" fill="none" xmlns="http://www.w3.org/2000/svg">
<path opacity="0.3" fill-rule="evenodd" clip-rule="evenodd" d="M5.11246 2.03826C7.06199 1.34609 9.35775 1 11.9997 1C14.6418 1 16.9377 1.34611 18.8875 2.03832L18.8875 2.03831C19.9284 2.40786 20.4726 3.55128 20.1031 4.5922C20.0678 4.69164 20.0247 4.78813 19.9741 4.88077L15 14H9L4.02584 4.88068C3.49691 3.91099 3.85423 2.69612 4.82392 2.1672C4.91655 2.11667 5.01303 2.07356 5.11246 2.03826Z" fill="currentColor"/>
<path opacity="0.3" fill-rule="evenodd" clip-rule="evenodd" d="M10 20H14C14 21.1046 13.1046 22 12 22C10.8954 22 10 21.1046 10 20Z" fill="currentColor"/>
<path opacity="0.3" fill-rule="evenodd" clip-rule="evenodd" d="M13 10V18C13 18.5523 12.5523 19 12 19C11.4477 19 11 18.5523 11 18V10H10.5C10.2239 10 10 9.77614 10 9.5C10 9.22386 10.2239 9 10.5 9H13.5C13.7761 9 14 9.22386 14 9.5C14 9.77614 13.7761 10 13.5 10H13Z" fill="currentColor"/>
<path fill-rule="evenodd" clip-rule="evenodd" d="M9 18C8.44772 18 8 17.5523 8 17C8 16.4477 8.44772 16 9 16C8.44772 16 8 15.5523 8 15C8 14.4477 8.44772 14 9 14H15C15.5523 14 16 14.4477 16 15C16 15.5523 15.5523 16 15 16C15.5523 16 16 16.4477 16 17C16 17.5523 15.5523 18 15 18C15.5523 18 16 18.4477 16 19C16 19.5523 15.5523 20 15 20H9C8.44772 20 8 19.5523 8 19C8 18.4477 8.44772 18 9 18Z" fill="currentColor"/>
</svg>
