<svg width="24" height="24" viewBox="0 0 24 24" fill="none" xmlns="http://www.w3.org/2000/svg">
<path fill-rule="evenodd" clip-rule="evenodd" d="M10.5 5H19.5C20.3284 5 21 5.67157 21 6.5C21 7.32843 20.3284 8 19.5 8H10.5C9.67157 8 9 7.32843 9 6.5C9 5.67157 9.67157 5 10.5 5ZM10.5 10H19.5C20.3284 10 21 10.6716 21 11.5C21 12.3284 20.3284 13 19.5 13H10.5C9.67157 13 9 12.3284 9 11.5C9 10.6716 9.67157 10 10.5 10ZM10.5 15H19.5C20.3284 15 21 15.6716 21 16.5C21 17.3284 20.3284 18 19.5 18H10.5C9.67157 18 9 17.3284 9 16.5C9 15.6716 9.67157 15 10.5 15Z" fill="currentColor"/>
<path opacity="0.3" fill-rule="evenodd" clip-rule="evenodd" d="M5.5 8C4.67157 8 4 7.32843 4 6.5C4 5.67157 4.67157 5 5.5 5C6.32843 5 7 5.67157 7 6.5C7 7.32843 6.32843 8 5.5 8ZM5.5 13C4.67157 13 4 12.3284 4 11.5C4 10.6716 4.67157 10 5.5 10C6.32843 10 7 10.6716 7 11.5C7 12.3284 6.32843 13 5.5 13ZM5.5 18C4.67157 18 4 17.3284 4 16.5C4 15.6716 4.67157 15 5.5 15C6.32843 15 7 15.6716 7 16.5C7 17.3284 6.32843 18 5.5 18Z" fill="currentColor"/>
</svg>
