<svg width="24" height="24" viewBox="0 0 24 24" fill="none" xmlns="http://www.w3.org/2000/svg">
<path fill-rule="evenodd" clip-rule="evenodd" d="M13.0002 11H17.0002C19.076 11 20.7825 12.5813 20.9809 14.605L20.293 15.2929C19.1329 16.453 18.0389 17 17.0002 17C16.5222 17 16.1882 16.8518 15.565 16.402C15.5045 16.3583 15.4254 16.3005 15.2758 16.1913C14.1363 15.3625 13.3055 15 12.0002 15C10.7179 15 9.8791 15.3373 8.58021 16.1532C8.42748 16.2494 8.35093 16.2975 8.28153 16.3407C7.49933 16.8277 7.06545 17 6.50015 17C5.82736 17 5.18162 16.7171 4.58554 16.2274C4.21141 15.92 3.94737 15.6135 3.82552 15.4354C3.58538 15.1324 3.49787 15.022 3.03809 14.4469C3.30746 12.4995 4.97869 11 7.00015 11H11.0002V9H13.0002V11Z" fill="currentColor"/>
<path opacity="0.3" fill-rule="evenodd" clip-rule="evenodd" d="M12 7C13.1046 7 14 6.10457 14 5C14 4.26362 13.3333 3.26362 12 2C10.6667 3.26362 10 4.26362 10 5C10 6.10457 10.8954 7 12 7Z" fill="currentColor"/>
<path opacity="0.3" fill-rule="evenodd" clip-rule="evenodd" d="M21 17.357V21C21 21.5523 20.5523 22 20 22H4C3.44772 22 3 21.5523 3 21V17.4977C3.09815 17.5883 3.20352 17.6805 3.31568 17.7726C4.24089 18.5329 5.30738 19 6.5 19C7.52609 19 8.26628 18.706 9.33839 18.0386C9.41243 17.9925 9.49377 17.9413 9.64387 17.8468C10.6511 17.2141 11.1836 17 12 17C12.7988 17 13.2701 17.2056 14.0993 17.8087C14.2431 17.9138 14.3282 17.976 14.3943 18.0237C15.3273 18.6971 16.01 19 17 19C18.3749 19 19.7104 18.4391 21 17.357Z" fill="currentColor"/>
</svg>
