<svg width="24" height="24" viewBox="0 0 24 24" fill="none" xmlns="http://www.w3.org/2000/svg">
<path fill-rule="evenodd" clip-rule="evenodd" d="M12 22C6.47715 22 2 17.5228 2 12C2 6.47715 6.47715 2 12 2C17.5228 2 22 6.47715 22 12C22 17.5228 17.5228 22 12 22ZM11.6139 13.213C11.1688 13.6582 10.4888 13.7685 9.92576 13.487C9.36272 13.2055 8.68271 13.3158 8.23759 13.7609L6.72658 15.2719C6.67169 15.3268 6.63034 15.3937 6.60579 15.4674C6.51847 15.7294 6.66005 16.0125 6.92202 16.0998L8.27584 16.5511C9.57593 16.9845 11.0093 16.6461 11.9783 15.6771L15.9775 11.6779C16.8678 10.7876 17.0885 9.42761 16.5254 8.30154L15.8928 7.03639C15.8688 6.98833 15.8372 6.94445 15.7992 6.90645C15.6039 6.71118 15.2873 6.71118 15.0921 6.90645L13.4995 8.49899C13.0544 8.94411 12.9441 9.62412 13.2256 10.1872C13.5071 10.7502 13.3968 11.4302 12.9516 11.8753L11.6139 13.213Z" fill="currentColor"/>
</svg>
