<svg width="24" height="24" viewBox="0 0 24 24" fill="none" xmlns="http://www.w3.org/2000/svg">
<path fill-rule="evenodd" clip-rule="evenodd" d="M5 7H19C20.1046 7 21 7.89543 21 9V17C21 18.1046 20.1046 19 19 19H5C3.89543 19 3 18.1046 3 17V9C3 7.89543 3.89543 7 5 7ZM12 17C14.2091 17 16 15.2091 16 13C16 10.7909 14.2091 9 12 9C9.79086 9 8 10.7909 8 13C8 15.2091 9.79086 17 12 17Z" fill="currentColor"/>
<path opacity="0.3" d="M14 4H10C9.44772 4 9 4.44772 9 5C9 5.55228 9.44772 6 10 6H14C14.5523 6 15 5.55228 15 5C15 4.44772 14.5523 4 14 4Z" fill="currentColor"/>
<path opacity="0.3" d="M12 15C13.1046 15 14 14.1046 14 13C14 11.8954 13.1046 11 12 11C10.8954 11 10 11.8954 10 13C10 14.1046 10.8954 15 12 15Z" fill="currentColor"/>
</svg>
