<svg width="24" height="24" viewBox="0 0 24 24" fill="none" xmlns="http://www.w3.org/2000/svg">
<path opacity="0.3" d="M17 6.20001C17 5.37159 16.3284 4.70001 15.5 4.70001C14.6716 4.70001 14 5.37159 14 6.20001C14 7.02844 14.6716 7.70001 15.5 7.70001C16.3284 7.70001 17 7.02844 17 6.20001Z" fill="currentColor"/>
<path fill-rule="evenodd" clip-rule="evenodd" d="M6.82775 15C6.8214 14.8644 6.81818 14.728 6.81818 14.5909C6.81818 9.84628 10.6645 6 15.4091 6C18.9412 6 21.9754 8.13158 23.2956 11.1785C21.7652 11.6599 21 12.6004 21 14C21 14 21.9933 14 23.98 14C23.9933 14.1953 24 14.3923 24 14.5909C24 14.728 23.9968 14.8644 23.9904 15H24V16.5C24 16.7761 23.7761 17 23.5 17H1C0.447715 17 0 16.5523 0 16C0 15.4477 0.447715 15 1 15H6.82775Z" fill="currentColor"/>
</svg>
