<svg width="24" height="24" viewBox="0 0 24 24" fill="none" xmlns="http://www.w3.org/2000/svg">
<path opacity="0.3" fill-rule="evenodd" clip-rule="evenodd" d="M6 4H18L20 6.5H4L6 4Z" fill="currentColor"/>
<path fill-rule="evenodd" clip-rule="evenodd" d="M5 6H19C20.1046 6 21 6.89543 21 8L21 17C21 18.1046 20.1046 19 19 19C17.4805 19 16.4805 19 16 19C15 19 14.5 17 12 17C9.5 17 9.5 19 8 19C7.31386 19 6.31387 19 5.00002 19V19C3.89545 19 3.00001 18.1046 3 17C3 17 3 17 3 17V8C3 6.89543 3.89543 6 5 6ZM8 14C9.10457 14 10 13.1046 10 12C10 10.8954 9.10457 10 8 10C6.89543 10 6 10.8954 6 12C6 13.1046 6.89543 14 8 14ZM16 14C17.1046 14 18 13.1046 18 12C18 10.8954 17.1046 10 16 10C14.8954 10 14 10.8954 14 12C14 13.1046 14.8954 14 16 14Z" fill="currentColor"/>
</svg>
