<svg width="24" height="24" viewBox="0 0 24 24" fill="none" xmlns="http://www.w3.org/2000/svg">
<path opacity="0.3" fill-rule="evenodd" clip-rule="evenodd" d="M12.8867 11.4782C11.2852 5.64251 12.2748 1.94927 15.8555 0.398493C18.0603 3.49948 17.0707 7.19273 12.8867 11.4782Z" fill="currentColor"/>
<path opacity="0.3" fill-rule="evenodd" clip-rule="evenodd" d="M23.0598 7.66894C17.2241 6.06747 13.5308 7.05708 11.98 10.6377C15.081 12.8426 18.7743 11.853 23.0598 7.66894Z" fill="currentColor"/>
<path opacity="0.3" fill-rule="evenodd" clip-rule="evenodd" d="M20.0052 3.49491C14.1505 5.02586 11.4469 7.7295 11.8942 11.6058C15.6822 11.9648 18.3858 9.26113 20.0052 3.49491Z" fill="currentColor"/>
<path fill-rule="evenodd" clip-rule="evenodd" d="M2.57843 17.5134L2.86826 17.8032C3.25879 18.1937 3.89195 18.1937 4.28248 17.8032C4.673 17.4127 4.673 16.7795 4.28248 16.389L3.59131 15.6978L4.60419 13.8823L5.69669 14.9748C6.08721 15.3653 6.72038 15.3653 7.1109 14.9748C7.50143 14.5842 7.50143 13.9511 7.1109 13.5606L5.69669 12.1463C5.67019 12.1198 5.64258 12.0951 5.614 12.0722L6.62996 10.2512L8.52512 12.1463C8.91564 12.5369 9.54881 12.5369 9.93933 12.1463C10.3299 11.7558 10.3299 11.1227 9.93933 10.7321L7.81801 8.61081C7.75963 8.55243 7.69582 8.50277 7.62821 8.46185L7.87276 8.02352C8.4109 7.05891 9.62913 6.71319 10.5937 7.25134C10.755 7.3413 10.903 7.45315 11.0335 7.58371L15.9162 12.4664C16.6973 13.2474 16.6973 14.5138 15.9162 15.2948C15.7857 15.4254 15.6377 15.5372 15.4764 15.6272L3.46874 22.3262C2.81004 22.6937 1.98743 22.5792 1.45408 22.0459C0.920725 21.5125 0.806264 20.6899 1.17375 20.0312L2.57843 17.5134Z" fill="currentColor"/>
</svg>
