<svg width="24" height="24" viewBox="0 0 24 24" fill="none" xmlns="http://www.w3.org/2000/svg">
<path opacity="0.3" d="M12 4.56205L7.76825 9.64018C7.41468 10.0645 6.78412 10.1218 6.35984 9.76822C5.93556 9.41466 5.87824 8.78409 6.2318 8.35982L11.2318 2.35982C11.6316 1.88006 12.3685 1.88006 12.7682 2.35982L17.7682 8.35982C18.1218 8.78409 18.0645 9.41466 17.6402 9.76822C17.2159 10.1218 16.5854 10.0645 16.2318 9.64018L12 4.56205Z" fill="currentColor"/>
<path fill-rule="evenodd" clip-rule="evenodd" d="M3.49977 9H20.4998C21.0521 9 21.4998 9.44772 21.4998 10C21.4998 10.132 21.4736 10.2627 21.4228 10.3846L17.769 19.1538C17.3032 20.2718 16.2109 21 14.9998 21H8.99977C7.78867 21 6.69635 20.2718 6.23054 19.1538L2.5767 10.3846C2.36428 9.87481 2.60536 9.28934 3.11516 9.07692C3.23703 9.02614 3.36775 9 3.49977 9ZM11.9998 17C13.1043 17 13.9998 16.1046 13.9998 15C13.9998 13.8954 13.1043 13 11.9998 13C10.8952 13 9.99977 13.8954 9.99977 15C9.99977 16.1046 10.8952 17 11.9998 17Z" fill="currentColor"/>
</svg>
