<svg width="24" height="24" viewBox="0 0 24 24" fill="none" xmlns="http://www.w3.org/2000/svg">
<path opacity="0.3" d="M12 4.56205L7.76825 9.64018C7.41468 10.0645 6.78412 10.1218 6.35984 9.76822C5.93556 9.41466 5.87824 8.78409 6.2318 8.35982L11.2318 2.35982C11.6316 1.88006 12.3685 1.88006 12.7682 2.35982L17.7682 8.35982C18.1218 8.78409 18.0645 9.41466 17.6402 9.76822C17.2159 10.1218 16.5854 10.0645 16.2318 9.64018L12 4.56205Z" fill="currentColor"/>
<path fill-rule="evenodd" clip-rule="evenodd" d="M3.281 9H20.7194C21.2717 9 21.7194 9.44772 21.7194 10C21.7194 10.0818 21.7094 10.1632 21.6896 10.2425L19.5683 18.7276C19.2344 20.0631 18.0345 21 16.6579 21H7.34255C5.96595 21 4.766 20.0631 4.43212 18.7276L2.31086 10.2425C2.17691 9.70674 2.50267 9.16381 3.03846 9.02986C3.11778 9.01003 3.19924 9 3.281 9ZM12.0002 12C11.4479 12 11.0002 12.4477 11.0002 13V17C11.0002 17.5523 11.4479 18 12.0002 18C12.5525 18 13.0002 17.5523 13.0002 17V13C13.0002 12.4477 12.5525 12 12.0002 12ZM6.96495 12.1363C6.43148 12.2792 6.1149 12.8276 6.25784 13.361L7.29312 17.2247C7.43606 17.7582 7.98439 18.0748 8.51786 17.9319C9.05133 17.7889 9.36791 17.2406 9.22497 16.7071L8.18969 12.8434C8.04675 12.3099 7.49841 11.9934 6.96495 12.1363ZM17.0355 12.1363C16.502 11.9934 15.9537 12.3099 15.8108 12.8434L14.7755 16.7071C14.6325 17.2406 14.9491 17.7889 15.4826 17.9319C16.0161 18.0748 16.5644 17.7582 16.7073 17.2247L17.7426 13.361C17.8855 12.8276 17.569 12.2792 17.0355 12.1363Z" fill="currentColor"/>
</svg>
