<svg width="24" height="24" viewBox="0 0 24 24" fill="none" xmlns="http://www.w3.org/2000/svg">
<path opacity="0.3" d="M18 15H6C5.44772 15 5 15.4477 5 16C5 16.5523 5.44772 17 6 17H18C18.5523 17 19 16.5523 19 16C19 15.4477 18.5523 15 18 15Z" fill="currentColor"/>
<path d="M6.5 15C7.88071 15 9 13.8807 9 12.5C9 11.1193 7.88071 10 6.5 10C5.11929 10 4 11.1193 4 12.5C4 13.8807 5.11929 15 6.5 15ZM6.5 17C4.01472 17 2 14.9853 2 12.5C2 10.0147 4.01472 8 6.5 8C8.98528 8 11 10.0147 11 12.5C11 14.9853 8.98528 17 6.5 17Z" fill="currentColor"/>
<path d="M17.5 15C18.8807 15 20 13.8807 20 12.5C20 11.1193 18.8807 10 17.5 10C16.1193 10 15 11.1193 15 12.5C15 13.8807 16.1193 15 17.5 15ZM17.5 17C15.0147 17 13 14.9853 13 12.5C13 10.0147 15.0147 8 17.5 8C19.9853 8 22 10.0147 22 12.5C22 14.9853 19.9853 17 17.5 17Z" fill="currentColor"/>
</svg>
