<svg width="24" height="24" viewBox="0 0 24 24" fill="none" xmlns="http://www.w3.org/2000/svg">
<path fill-rule="evenodd" clip-rule="evenodd" d="M19.8022 9.24389C19.4662 8.78788 19.0282 8.45489 18.4882 8.24488C17.9482 8.03488 17.4202 7.92988 16.9042 7.92988C16.2442 7.92988 15.6442 8.04988 15.1042 8.28988C14.5642 8.52989 14.0992 8.85988 13.7092 9.27988C13.3192 9.69989 13.0192 10.1919 12.8092 10.7559C12.5992 11.3199 12.4942 11.9319 12.4942 12.5919C12.4942 13.2879 12.5962 13.9239 12.8002 14.4999C13.0042 15.0759 13.2952 15.5709 13.6732 15.9849C14.0512 16.3989 14.5042 16.7199 15.0322 16.9479C15.5602 17.1759 16.1542 17.2899 16.8142 17.2899C17.4982 17.2899 18.1042 17.1549 18.6322 16.8849C19.1602 16.6149 19.5862 16.2579 19.9102 15.8139L21.7282 17.0919C21.1642 17.7999 20.4742 18.3489 19.6582 18.7389C18.8422 19.1289 17.8882 19.3239 16.7962 19.3239C15.8002 19.3239 14.8852 19.1589 14.0512 18.8289C13.2172 18.4989 12.5002 18.0369 11.9002 17.4429C11.3002 16.8489 10.8322 16.1409 10.4962 15.3189C10.1602 14.4969 9.99219 13.5879 9.99219 12.5919C9.99219 11.5719 10.1692 10.6509 10.5232 9.82889C10.8772 9.00688 11.3632 8.30789 11.9812 7.73188C12.5992 7.15588 13.3282 6.71189 14.1682 6.39988C15.0082 6.08788 15.9202 5.93188 16.9042 5.93188C17.3122 5.93188 17.7382 5.97088 18.1822 6.04888C18.6262 6.12688 19.0522 6.24688 19.4602 6.40888C19.8682 6.57089 20.2522 6.77188 20.6122 7.01188C20.9722 7.25189 21.2782 7.53988 21.5302 7.87588L19.8022 9.24389Z" fill="currentColor"/>
<path opacity="0.3" fill-rule="evenodd" clip-rule="evenodd" d="M2.72021 8.92004C2.72021 8.52404 2.79521 8.15204 2.94521 7.80404C3.09522 7.45604 3.30221 7.15004 3.56621 6.88604C3.83022 6.62204 4.13621 6.41504 4.48422 6.26504C4.83222 6.11504 5.20421 6.04004 5.60021 6.04004C5.99622 6.04004 6.36821 6.11504 6.71621 6.26504C7.06422 6.41504 7.37021 6.62204 7.63421 6.88604C7.89822 7.15004 8.10521 7.45604 8.25521 7.80404C8.40522 8.15204 8.48021 8.52404 8.48021 8.92004C8.48021 9.31604 8.40522 9.68804 8.25521 10.036C8.10521 10.384 7.89822 10.69 7.63421 10.954C7.37021 11.218 7.06422 11.425 6.71621 11.575C6.36821 11.725 5.99622 11.8 5.60021 11.8C5.20421 11.8 4.83222 11.725 4.48422 11.575C4.13621 11.425 3.83022 11.218 3.56621 10.954C3.30221 10.69 3.09522 10.384 2.94521 10.036C2.79521 9.68804 2.72021 9.31604 2.72021 8.92004ZM4.12421 8.92004C4.12421 9.32804 4.26821 9.67604 4.55622 9.96404C4.84422 10.252 5.19221 10.396 5.60021 10.396C6.00822 10.396 6.35621 10.252 6.64421 9.96404C6.93222 9.67604 7.07621 9.32804 7.07621 8.92004C7.07621 8.51204 6.93222 8.16404 6.64421 7.87604C6.35621 7.58804 6.00822 7.44404 5.60021 7.44404C5.19221 7.44404 4.84422 7.58804 4.55622 7.87604C4.26821 8.16404 4.12421 8.51204 4.12421 8.92004Z" fill="currentColor"/>
</svg>
