<svg width="24" height="24" viewBox="0 0 24 24" fill="none" xmlns="http://www.w3.org/2000/svg">
<path opacity="0.3" fill-rule="evenodd" clip-rule="evenodd" d="M6.54262 21.5015L8.14078 15.5371C8.28372 15.0036 8.83206 14.687 9.36552 14.83C9.89899 14.9729 10.2156 15.5213 10.0726 16.0547L8.47447 22.0191C8.33153 22.5526 7.7832 22.8692 7.24973 22.7262C6.71626 22.5833 6.39968 22.035 6.54262 21.5015ZM17.4498 21.4711C17.5927 22.0046 17.2761 22.5529 16.7426 22.6959C16.2092 22.8388 15.6608 22.5222 15.5179 21.9888L14.215 17.1263C14.0721 16.5929 14.3887 16.0445 14.9221 15.9016C15.4556 15.7586 16.0039 16.0752 16.1469 16.6087L17.4498 21.4711Z" fill="currentColor"/>
<path fill-rule="evenodd" clip-rule="evenodd" d="M7.36092 1H16.6391C17.7436 1 18.6391 1.89543 18.6391 3C18.6391 3.11016 18.63 3.22014 18.6119 3.3288L17.0696 12.5822C17.0295 12.8233 16.8209 13 16.5764 13H7.42356C7.17914 13 6.97055 12.8233 6.93037 12.5822L5.38813 3.3288C5.20654 2.23926 5.94258 1.2088 7.03212 1.02721C7.14079 1.0091 7.25076 1 7.36092 1ZM5.5 14H18.5C19.3284 14 20 14.6716 20 15.5C20 16.3284 19.3284 17 18.5 17H5.5C4.67157 17 4 16.3284 4 15.5C4 14.6716 4.67157 14 5.5 14Z" fill="currentColor"/>
</svg>
