<svg width="24" height="24" viewBox="0 0 24 24" fill="none" xmlns="http://www.w3.org/2000/svg">
<path fill-rule="evenodd" clip-rule="evenodd" d="M12.0001 2C13.8387 2 15.5195 3.03879 16.3417 4.68328L19.0001 10C20.3654 12.7306 19.2586 16.0511 16.528 17.4164C15.7604 17.8002 14.914 18 14.0558 18H9.94437C6.89141 18 4.4165 15.5251 4.4165 12.4721C4.4165 11.614 4.61631 10.7676 5.0001 10L7.65845 4.68328C8.4807 3.03879 10.1615 2 12.0001 2ZM7.5501 13.6C9.00643 14.6923 10.4938 15.25 12.0001 15.25C13.5064 15.25 14.9938 14.6923 16.4501 13.6L15.5501 12.4C14.3398 13.3077 13.1604 13.75 12.0001 13.75C10.8398 13.75 9.66043 13.3077 8.4501 12.4L7.5501 13.6Z" fill="currentColor"/>
<path opacity="0.3" fill-rule="evenodd" clip-rule="evenodd" d="M6.16002 21.0605L8.16002 17.5964C8.43616 17.1181 9.04775 16.9543 9.52605 17.2304C10.0043 17.5066 10.1682 18.1181 9.89207 18.5964L7.89207 22.0605C7.61593 22.5388 7.00434 22.7027 6.52605 22.4266C6.04775 22.1504 5.88388 21.5388 6.16002 21.0605ZM17.8321 21.0302C18.1082 21.5085 17.9443 22.1201 17.466 22.3962C16.9878 22.6724 16.3762 22.5085 16.1 22.0302L14.1 18.5661C13.8239 18.0878 13.9878 17.4762 14.466 17.2001C14.9443 16.9239 15.5559 17.0878 15.8321 17.5661L17.8321 21.0302Z" fill="currentColor"/>
</svg>
