<svg width="24" height="24" viewBox="0 0 24 24" fill="none" xmlns="http://www.w3.org/2000/svg">
<path opacity="0.3" fill-rule="evenodd" clip-rule="evenodd" d="M5 15L3 21.5L9.5 19.5L5 15Z" fill="currentColor"/>
<path fill-rule="evenodd" clip-rule="evenodd" d="M13.5 21C8.25329 21 4 16.7467 4 11.5C4 6.25329 8.25329 2 13.5 2C18.7467 2 23 6.25329 23 11.5C23 16.7467 18.7467 21 13.5 21ZM9 8C8.44772 8 8 8.44772 8 9C8 9.55228 8.44772 10 9 10H18C18.5523 10 19 9.55228 19 9C19 8.44772 18.5523 8 18 8H9ZM9 12C8.44772 12 8 12.4477 8 13C8 13.5523 8.44772 14 9 14H14C14.5523 14 15 13.5523 15 13C15 12.4477 14.5523 12 14 12H9Z" fill="currentColor"/>
</svg>
