<svg width="24" height="24" viewBox="0 0 24 24" fill="none" xmlns="http://www.w3.org/2000/svg">
<path fill-rule="evenodd" clip-rule="evenodd" d="M2 11.865V6C2 4.34315 3.34315 3 5 3H19C20.6569 3 22 4.34315 22 6V15C22 15.0033 22 15.0065 22 15.0098L22.0249 15V19.5858C22.0249 20.1381 21.5772 20.5858 21.0249 20.5858C20.7597 20.5858 20.5054 20.4804 20.3178 20.2929L18.0249 18H12.9836C12.7263 14.091 9.47412 11 5.5 11C4.23591 11 3.04486 11.3127 2 11.865ZM6 7C5.44772 7 5 7.44772 5 8C5 8.55228 5.44772 9 6 9H15C15.5523 9 16 8.55228 16 8C16 7.44772 15.5523 7 15 7H6Z" fill="currentColor"/>
<path opacity="0.3" fill-rule="evenodd" clip-rule="evenodd" d="M6 14C6.55228 14 7 14.4477 7 15V17C7 17.5523 6.55228 18 6 18C5.44772 18 5 17.5523 5 17V15C5 14.4477 5.44772 14 6 14ZM6 21C5.44772 21 5 20.5523 5 20C5 19.4477 5.44772 19 6 19C6.55228 19 7 19.4477 7 20C7 20.5523 6.55228 21 6 21Z" fill="currentColor"/>
</svg>
