<svg width="24" height="24" viewBox="0 0 24 24" fill="none" xmlns="http://www.w3.org/2000/svg">
<path fill-rule="evenodd" clip-rule="evenodd" d="M22 13.9146V19C22 20.1046 21.1046 21 20 21H14C14 19.8954 13.1046 19 12 19C10.8954 19 10 19.8954 10 21H4C2.89543 21 2 20.1046 2 19V7H22V11.0854C21.8436 11.0301 21.6753 11 21.5 11C20.6716 11 20 11.6716 20 12.5C20 13.3284 20.6716 14 21.5 14C21.6753 14 21.8436 13.9699 22 13.9146ZM9 17C11.2091 17 13 15.2091 13 13C13 10.7909 11.2091 9 9 9C6.79086 9 5 10.7909 5 13C5 15.2091 6.79086 17 9 17ZM18 18C18.5523 18 19 17.5523 19 17C19 16.4477 18.5523 16 18 16C17.4477 16 17 16.4477 17 17C17 17.5523 17.4477 18 18 18ZM5 21C5.55228 21 6 20.5523 6 20C6 19.4477 5.55228 19 5 19C4.44772 19 4 19.4477 4 20C4 20.5523 4.44772 21 5 21Z" fill="currentColor"/>
<path opacity="0.3" fill-rule="evenodd" clip-rule="evenodd" d="M19.5955 5.8347L4.60884 4.07157C4.23525 4.02761 3.86861 4.19703 3.65995 4.51002L2 6.99994C15.3333 6.99994 22 6.99994 22 6.99994C21.3523 6.35223 20.5052 5.94173 19.5955 5.8347Z" fill="currentColor"/>
</svg>
