<svg width="24" height="24" viewBox="0 0 24 24" fill="none" xmlns="http://www.w3.org/2000/svg">
<path fill-rule="evenodd" clip-rule="evenodd" d="M20.1317 4.36823C22.4285 6.66511 22.4285 10.3891 20.1317 12.686C19.711 13.1067 19.2289 13.4611 18.7019 13.7371L13.5968 16.4112C12.0157 17.2394 10.08 16.944 8.81795 15.6819C7.55592 14.4199 7.2605 12.4841 8.08865 10.9031L10.7627 5.79803C12.27 2.9206 15.8244 1.80983 18.7019 3.31706C19.2289 3.59312 19.711 3.94754 20.1317 4.36823Z" fill="currentColor"/>
<path opacity="0.3" fill-rule="evenodd" clip-rule="evenodd" d="M4.86828 17.51L6.34285 16.0355L8.46417 18.1568L6.9896 19.6314C7.25595 20.1889 7.15822 20.877 6.6964 21.3388C6.11062 21.9246 5.16087 21.9246 4.57508 21.3388C4.30343 21.0671 4.15775 20.7172 4.13805 20.3616C3.78245 20.3419 3.43252 20.1962 3.16087 19.9246C2.57508 19.3388 2.57508 18.389 3.16087 17.8032C3.62269 17.3414 4.31072 17.2437 4.86828 17.51Z" fill="currentColor"/>
</svg>
