<svg width="24" height="24" viewBox="0 0 24 24" fill="none" xmlns="http://www.w3.org/2000/svg">
<path d="M16.2428 6.34311L6.34334 16.2426C5.95281 16.6331 5.95281 17.2663 6.34334 17.6568C6.73386 18.0473 7.36703 18.0473 7.75755 17.6568L17.657 7.75732C18.0476 7.36679 18.0476 6.73363 17.657 6.34311C17.2665 5.95258 16.6334 5.95258 16.2428 6.34311Z" fill="currentColor"/>
<path opacity="0.3" d="M17.6569 16.2426L7.7574 6.34309C7.36688 5.95257 6.73371 5.95257 6.34319 6.34309C5.95266 6.73362 5.95266 7.36678 6.34319 7.75731L16.2427 17.6568C16.6332 18.0473 17.2664 18.0473 17.6569 17.6568C18.0474 17.2663 18.0474 16.6331 17.6569 16.2426Z" fill="currentColor"/>
</svg>
