<svg width="24" height="24" viewBox="0 0 24 24" fill="none" xmlns="http://www.w3.org/2000/svg">
<path opacity="0.3" fill-rule="evenodd" clip-rule="evenodd" d="M7.74715 15.0426C6.0941 13.974 5 12.1148 5 10C5 6.68629 7.68629 4 11 4C13.7958 4 16.1449 5.91216 16.811 8.5H19.25C21.3211 8.5 23 10.1789 23 12.25C23 14.3211 21.3211 16 19.25 16H10.25C9.28818 16 8.41093 15.6379 7.74715 15.0426Z" fill="currentColor"/>
<path fill-rule="evenodd" clip-rule="evenodd" d="M3.74715 19.0426C2.0941 17.974 1 16.1148 1 14C1 10.6863 3.68629 8 7 8C9.79576 8 12.1449 9.91216 12.811 12.5H15.25C17.3211 12.5 19 14.1789 19 16.25C19 18.3211 17.3211 20 15.25 20H6.25C5.28818 20 4.41093 19.6379 3.74715 19.0426Z" fill="currentColor"/>
</svg>
