<svg width="24" height="24" viewBox="0 0 24 24" fill="none" xmlns="http://www.w3.org/2000/svg">
<path opacity="0.3" fill-rule="evenodd" clip-rule="evenodd" d="M16.2284 3.2046C16.0948 4.04358 16.1735 4.9279 16.4999 5.77805C17.4842 8.34242 20.351 9.63006 22.9186 8.66964C22.6472 10.3748 21.499 11.8927 19.7711 12.5559C17.1931 13.5455 14.301 12.2579 13.3114 9.67986C12.3218 7.10185 13.6094 4.20973 16.1874 3.22012C16.2011 3.21489 16.2147 3.20971 16.2284 3.2046Z" fill="currentColor"/>
<path fill-rule="evenodd" clip-rule="evenodd" d="M5.74715 18.0426C4.0941 16.974 3 15.1148 3 13C3 9.68629 5.68629 7 9 7C11.7958 7 14.1449 8.91216 14.811 11.5H17.25C19.3211 11.5 21 13.1789 21 15.25C21 17.3211 19.3211 19 17.25 19H8.25C7.28818 19 6.41093 18.6379 5.74715 18.0426Z" fill="currentColor"/>
</svg>
