<svg width="24" height="24" viewBox="0 0 24 24" fill="none" xmlns="http://www.w3.org/2000/svg">
<path opacity="0.3" d="M16 15C18.7614 15 21 12.7614 21 10C21 7.23858 18.7614 5 16 5C13.2386 5 11 7.23858 11 10C11 12.7614 13.2386 15 16 15Z" fill="currentColor"/>
<path fill-rule="evenodd" clip-rule="evenodd" d="M5.74715 18.0426C4.0941 16.974 3 15.1148 3 13C3 9.68629 5.68629 7 9 7C11.7958 7 14.1449 8.91216 14.811 11.5H17.25C19.3211 11.5 21 13.1789 21 15.25C21 17.3211 19.3211 19 17.25 19H8.25C7.28818 19 6.41093 18.6379 5.74715 18.0426Z" fill="currentColor"/>
</svg>
