<svg width="24" height="24" viewBox="0 0 24 24" fill="none" xmlns="http://www.w3.org/2000/svg">
<path opacity="0.3" fill-rule="evenodd" clip-rule="evenodd" d="M5.74715 13.0426C4.0941 11.974 3 10.1148 3 8C3 4.68629 5.68629 2 9 2C11.7958 2 14.1449 3.91216 14.811 6.5H17.25C19.3211 6.5 21 8.17893 21 10.25C21 12.3211 19.3211 14 17.25 14H8.25C7.28818 14 6.41093 13.6379 5.74715 13.0426Z" fill="currentColor"/>
<path d="M14.8877 17.8307H12.9312V15.823C12.9312 15.5469 12.7074 15.323 12.4312 15.323H11.4079C11.1318 15.323 10.9079 15.5469 10.9079 15.823V17.8307H8.95144C8.6753 17.8307 8.45144 18.0545 8.45144 18.3307C8.45144 18.449 8.49339 18.5635 8.56984 18.6538L11.538 22.1594C11.7164 22.3702 12.0319 22.3964 12.2426 22.2179C12.2637 22.2001 12.2833 22.1805 12.3012 22.1594L15.2693 18.6538C15.4477 18.443 15.4215 18.1275 15.2108 17.9491C15.1205 17.8726 15.006 17.8307 14.8877 17.8307Z" fill="currentColor"/>
</svg>
