<svg width="24" height="24" viewBox="0 0 24 24" fill="none" xmlns="http://www.w3.org/2000/svg">
<path opacity="0.3" d="M12.9998 16C10.7906 16 8.99977 14.2091 8.99977 12C8.99977 9.79086 10.7906 8 12.9998 8C15.2089 8 16.9998 9.79086 16.9998 12C16.9998 14.2091 15.2089 16 12.9998 16ZM20.4998 10.5H21.9998C22.8282 10.5 23.4998 11.1716 23.4998 12C23.4998 12.8284 22.8282 13.5 21.9998 13.5H20.4998C19.6713 13.5 18.9998 12.8284 18.9998 12C18.9998 11.1716 19.6713 10.5 20.4998 10.5ZM17.0604 5.87132L18.1211 4.81066C18.7069 4.22487 19.6566 4.22487 20.2424 4.81066C20.8282 5.39645 20.8282 6.34619 20.2424 6.93198L19.1818 7.99264C18.596 8.57843 17.6462 8.57843 17.0604 7.99264C16.4746 7.40685 16.4746 6.45711 17.0604 5.87132ZM12.9998 1.5C13.8282 1.5 14.4998 2.17157 14.4998 3V4.5C14.4998 5.32843 13.8282 6 12.9998 6C12.1713 6 11.4998 5.32843 11.4998 4.5V3C11.4998 2.17157 12.1713 1.5 12.9998 1.5ZM5.81043 4.81066C6.39622 4.22487 7.34597 4.22487 7.93175 4.81066L8.99241 5.87132C9.5782 6.45711 9.5782 7.40685 8.99241 7.99264C8.40663 8.57843 7.45688 8.57843 6.87109 7.99264L5.81043 6.93198C5.22465 6.34619 5.22465 5.39645 5.81043 4.81066Z" fill="currentColor"/>
<path fill-rule="evenodd" clip-rule="evenodd" d="M4.74715 20.0426C3.0941 18.974 2 17.1148 2 15C2 11.6863 4.68629 9 8 9C10.7958 9 13.1449 10.9122 13.811 13.5H16.25C18.3211 13.5 20 15.1789 20 17.25C20 19.3211 18.3211 21 16.25 21H7.25C6.28818 21 5.41093 20.6379 4.74715 20.0426Z" fill="currentColor"/>
</svg>
