<svg width="24" height="24" viewBox="0 0 24 24" fill="none" xmlns="http://www.w3.org/2000/svg">
<path d="M9 15H7.5C6.67157 15 6 15.6716 6 16.5C6 17.3284 6.67157 18 7.5 18C8.32843 18 9 17.3284 9 16.5V15ZM9 15V9H15V15H9ZM15 16.5C15 17.3284 15.6716 18 16.5 18C17.3284 18 18 17.3284 18 16.5C18 15.6716 17.3284 15 16.5 15H15V16.5ZM16.5 9C17.3284 9 18 8.32843 18 7.5C18 6.67157 17.3284 6 16.5 6C15.6716 6 15 6.67157 15 7.5V9H16.5ZM9 7.5C9 6.67157 8.32843 6 7.5 6C6.67157 6 6 6.67157 6 7.5C6 8.32843 6.67157 9 7.5 9H9V7.5ZM11 13H13V11H11V13ZM13 11V7.5C13 5.567 14.567 4 16.5 4C18.433 4 20 5.567 20 7.5C20 9.433 18.433 11 16.5 11H13ZM16.5 13C18.433 13 20 14.567 20 16.5C20 18.433 18.433 20 16.5 20C14.567 20 13 18.433 13 16.5V13H16.5ZM11 16.5C11 18.433 9.433 20 7.5 20C5.567 20 4 18.433 4 16.5C4 14.567 5.567 13 7.5 13H11V16.5ZM7.5 11C5.567 11 4 9.433 4 7.5C4 5.567 5.567 4 7.5 4C9.433 4 11 5.567 11 7.5C11 8.86684 11 9.63316 11 11H7.5Z" fill="currentColor"/>
</svg>
