<svg width="24" height="24" viewBox="0 0 24 24" fill="none" xmlns="http://www.w3.org/2000/svg">
<path d="M17.2718 8.68537C16.8933 8.2832 16.9125 7.65032 17.3146 7.27181C17.7168 6.89329 18.3497 6.91247 18.7282 7.31464L22.7282 11.5646C23.0906 11.9497 23.0906 12.5503 22.7282 12.9354L18.7282 17.1854C18.3497 17.5875 17.7168 17.6067 17.3146 17.2282C16.9125 16.8497 16.8933 16.2168 17.2718 15.8146L20.6268 12.25L17.2718 8.68537ZM6.7282 8.68537L3.37325 12.25L6.7282 15.8146C7.10672 16.2168 7.08754 16.8497 6.68536 17.2282C6.28319 17.6067 5.65032 17.5875 5.2718 17.1854L1.2718 12.9354C0.9094 12.5503 0.9094 11.9497 1.2718 11.5646L5.2718 7.31464C5.65032 6.91246 6.28319 6.89329 6.68536 7.2718C7.08754 7.65032 7.10672 8.28319 6.7282 8.68537Z" fill="currentColor"/>
<path opacity="0.3" d="M14.7775 5.49736C14.9205 4.96389 14.6039 4.41555 14.0704 4.27261C13.537 4.12967 12.9886 4.44625 12.8457 4.97972L9.22221 18.5027C9.07926 19.0361 9.39585 19.5845 9.92931 19.7274C10.4628 19.8704 11.0111 19.5538 11.1541 19.0203L14.7775 5.49736Z" fill="currentColor"/>
</svg>
