<svg width="24" height="24" viewBox="0 0 24 24" fill="none" xmlns="http://www.w3.org/2000/svg">
<path opacity="0.3" d="M18.3999 5.59998C18.7765 5.9772 18.988 6.48846 18.988 7.02148C18.988 7.55451 18.7765 8.06577 18.3999 8.44299L14.8429 12C14.4659 12.377 13.9546 12.5887 13.4214 12.5887C12.8882 12.5887 12.3769 12.377 11.9999 12C11.6229 11.623 11.4111 11.1117 11.4111 10.5785C11.4111 10.0453 11.6229 9.53399 11.9999 9.15698L15.5529 5.604C15.9301 5.22741 16.4414 5.01587 16.9744 5.01587C17.5074 5.01587 18.0187 5.22741 18.3959 5.604L18.3999 5.59998ZM20.5279 3.47205C20.0613 3.00535 19.5073 2.63503 18.8976 2.38245C18.2879 2.12987 17.6343 1.99988 16.9744 1.99988C16.3144 1.99988 15.6609 2.12987 15.0512 2.38245C14.4415 2.63503 13.8875 3.00535 13.4209 3.47205L9.86792 7.02502C9.40127 7.49168 9.03109 8.04568 8.77854 8.6554C8.52599 9.26511 8.396 9.91855 8.396 10.5785C8.396 11.2384 8.52599 11.8919 8.77854 12.5016C9.03109 13.1113 9.40127 13.6653 9.86792 14.132C10.3346 14.5986 10.8885 14.9688 11.4983 15.2213C12.108 15.4739 12.7615 15.6039 13.4214 15.6039C14.0814 15.6039 14.7348 15.4739 15.3445 15.2213C15.9542 14.9688 16.5083 14.5986 16.9749 14.132L20.5279 10.579C20.9946 10.1124 21.3648 9.55844 21.6174 8.94873C21.87 8.33902 22 7.68547 22 7.02551C22 6.36555 21.87 5.71201 21.6174 5.10229C21.3648 4.49258 20.9946 3.93867 20.5279 3.47205Z" fill="currentColor"/>
<path d="M14.1319 9.86804C13.642 9.37931 13.056 8.99749 12.4109 8.74695L11.9999 9.15698C11.6233 9.53421 11.4118 10.0455 11.4118 10.5785C11.4118 11.1115 11.6233 11.6228 11.9999 12C12.3765 12.3772 12.588 12.8885 12.588 13.4215C12.588 13.9545 12.3765 14.4658 11.9999 14.843L8.4469 18.396C8.0699 18.773 7.55859 18.9849 7.02542 18.9849C6.49226 18.9849 5.98092 18.773 5.60391 18.396C5.22691 18.019 5.01511 17.5077 5.01511 16.9745C5.01511 16.4413 5.22691 15.93 5.60391 15.553L8.74692 12.411C8.28696 11.233 8.28696 9.92498 8.74692 8.74695C8.1015 8.99737 7.51511 9.37919 7.0249 9.86804L3.47189 13.421C2.52945 14.3635 2 15.6417 2 16.9745C2 18.3073 2.52948 19.5855 3.47193 20.528C4.41437 21.4704 5.6926 21.9999 7.02542 21.9999C8.35824 21.9999 9.63647 21.4704 10.5789 20.528L14.1319 16.975C14.5986 16.5084 14.9688 15.9544 15.2214 15.3447C15.474 14.735 15.604 14.0815 15.604 13.4215C15.604 12.7615 15.474 12.108 15.2214 11.4983C14.9688 10.8886 14.5986 10.3347 14.1319 9.86804Z" fill="currentColor"/>
</svg>
