<svg width="24" height="24" viewBox="0 0 24 24" fill="none" xmlns="http://www.w3.org/2000/svg">
<path d="M16.95 18.9688C16.75 18.9688 16.55 18.8688 16.35 18.7688C15.85 18.4688 15.75 17.8688 16.05 17.3688L19.65 11.9688L16.05 6.56876C15.75 6.06876 15.85 5.46873 16.35 5.16873C16.85 4.86873 17.45 4.96878 17.75 5.46878L21.75 11.4688C21.95 11.7688 21.95 12.2688 21.75 12.5688L17.75 18.5688C17.55 18.7688 17.25 18.9688 16.95 18.9688ZM7.55001 18.7688C8.05001 18.4688 8.15 17.8688 7.85 17.3688L4.25001 11.9688L7.85 6.56876C8.15 6.06876 8.05001 5.46873 7.55001 5.16873C7.05001 4.86873 6.45 4.96878 6.15 5.46878L2.15 11.4688C1.95 11.7688 1.95 12.2688 2.15 12.5688L6.15 18.5688C6.35 18.8688 6.65 18.9688 6.95 18.9688C7.15 18.9688 7.35001 18.8688 7.55001 18.7688Z" fill="currentColor"/>
<path opacity="0.3" d="M10.4502 18.9687C10.3502 18.9687 10.2502 18.9687 10.2502 18.9687C9.75015 18.8687 9.35015 18.2688 9.55015 17.7688L12.5502 5.76878C12.6502 5.26878 13.2502 4.8687 13.7502 5.0687C14.2502 5.1687 14.6502 5.76878 14.4502 6.26878L11.4502 18.2688C11.3502 18.6688 10.8502 18.9687 10.4502 18.9687Z" fill="currentColor"/>
</svg>
