<svg width="24" height="24" viewBox="0 0 24 24" fill="none" xmlns="http://www.w3.org/2000/svg">
<path d="M12.6 7C12 7 11.6 6.6 11.6 6V3C11.6 2.4 12 2 12.6 2C13.2 2 13.6 2.4 13.6 3V6C13.6 6.6 13.2 7 12.6 7ZM10 7.59998C10.5 7.29998 10.6 6.69995 10.4 6.19995L9 3.80005C8.7 3.30005 8.10001 3.20002 7.60001 3.40002C7.10001 3.70002 7.00001 4.30005 7.20001 4.80005L8.60001 7.19995C8.80001 7.49995 9.1 7.69995 9.5 7.69995C9.7 7.69995 9.9 7.69998 10 7.59998ZM8 9.30005C8.3 8.80005 8.10001 8.20002 7.60001 7.90002L5.5 6.69995C5 6.39995 4.40001 6.59998 4.10001 7.09998C3.80001 7.59998 4 8.2 4.5 8.5L6.60001 9.69995C6.80001 9.79995 6.90001 9.80005 7.10001 9.80005C7.50001 9.80005 7.9 9.70005 8 9.30005ZM7.20001 12C7.20001 11.4 6.80001 11 6.20001 11H4C3.4 11 3 11.4 3 12C3 12.6 3.4 13 4 13H6.20001C6.70001 13 7.20001 12.6 7.20001 12Z" fill="currentColor"/>
<path opacity="0.3" d="M17.3998 5.5C17.3998 6.1 16.9998 6.5 16.3998 6.5C15.7998 6.5 15.3998 6.1 15.3998 5.5C15.3998 4.9 15.7998 4.5 16.3998 4.5C16.9998 4.5 17.3998 5 17.3998 5.5ZM5.7998 17.1L7.3998 16.1C7.8998 15.8 7.9998 15.2 7.7998 14.7C7.4998 14.2 6.8998 14.1 6.3998 14.3L4.7998 15.3C4.2998 15.6 4.1998 16.2 4.3998 16.7C4.5998 17 4.8998 17.2 5.2998 17.2C5.4998 17.3 5.5998 17.2 5.7998 17.1ZM8.3998 20.2C8.1998 20.2 8.0998 20.2 7.8998 20.1C7.3998 19.8 7.29979 19.2 7.49979 18.7L8.2998 17.3C8.5998 16.8 9.19981 16.7 9.69981 16.9C10.1998 17.2 10.2998 17.8 10.0998 18.3L9.2998 19.7C9.0998 20 8.6998 20.2 8.3998 20.2ZM12.5998 21.2C11.9998 21.2 11.5998 20.8 11.5998 20.2V18.8C11.5998 18.2 11.9998 17.8 12.5998 17.8C13.1998 17.8 13.5998 18.2 13.5998 18.8V20.2C13.5998 20.7 13.1998 21.2 12.5998 21.2ZM16.6998 19.9C16.3998 19.9 15.9998 19.7 15.7998 19.4L15.1998 18.5C14.8998 18 15.0998 17.4 15.5998 17.1C16.0998 16.8 16.6998 17 16.9998 17.5L17.5998 18.4C17.8998 18.9 17.6998 19.5 17.1998 19.8C16.9998 19.9 16.7998 19.9 16.6998 19.9ZM19.3998 17C19.1998 17 19.0998 17 18.8998 16.9L18.1998 16.5C17.6998 16.2 17.5998 15.6 17.7998 15.1C18.0998 14.6 18.6998 14.5 19.1998 14.7L19.8998 15.1C20.3998 15.4 20.4998 16 20.2998 16.5C20.0998 16.8 19.7998 17 19.3998 17ZM20.3998 13H19.8998C19.2998 13 18.8998 12.6 18.8998 12C18.8998 11.4 19.2998 11 19.8998 11H20.3998C20.9998 11 21.3998 11.4 21.3998 12C21.3998 12.6 20.8998 13 20.3998 13ZM18.8998 9.30005C18.5998 9.30005 18.1998 9.10005 17.9998 8.80005C17.6998 8.30005 17.8998 7.70002 18.3998 7.40002L18.5998 7.30005C19.0998 7.00005 19.6998 7.19995 19.9998 7.69995C20.2998 8.19995 20.0998 8.79998 19.5998 9.09998L19.3998 9.19995C19.2998 9.19995 19.0998 9.30005 18.8998 9.30005Z" fill="currentColor"/>
</svg>
