<svg width="24" height="24" viewBox="0 0 24 24" fill="none" xmlns="http://www.w3.org/2000/svg">
<path d="M11.2166 8.50002L10.5166 7.80007C10.1166 7.40007 10.1166 6.80005 10.5166 6.40005L13.4166 3.50002C15.5166 1.40002 18.9166 1.50005 20.8166 3.90005C22.5166 5.90005 22.2166 8.90007 20.3166 10.8001L17.5166 13.6C17.1166 14 16.5166 14 16.1166 13.6L15.4166 12.9C15.0166 12.5 15.0166 11.9 15.4166 11.5L18.3166 8.6C19.2166 7.7 19.1166 6.30002 18.0166 5.50002C17.2166 4.90002 16.0166 5.10007 15.3166 5.80007L12.4166 8.69997C12.2166 8.89997 11.6166 8.90002 11.2166 8.50002ZM11.2166 15.6L8.51659 18.3001C7.81659 19.0001 6.71658 19.2 5.81658 18.6C4.81658 17.9 4.71659 16.4 5.51659 15.5L8.31658 12.7C8.71658 12.3 8.71658 11.7001 8.31658 11.3001L7.6166 10.6C7.2166 10.2 6.6166 10.2 6.2166 10.6L3.6166 13.2C1.7166 15.1 1.4166 18.1 3.1166 20.1C5.0166 22.4 8.51659 22.5 10.5166 20.5L13.3166 17.7C13.7166 17.3 13.7166 16.7001 13.3166 16.3001L12.6166 15.6C12.3166 15.2 11.6166 15.2 11.2166 15.6Z" fill="currentColor"/>
<path opacity="0.3" d="M5.01682 9L2.81681 8.40002C2.31681 8.30002 2.01682 7.79995 2.11682 7.19995L2.31681 5.90002C2.41681 5.20002 3.21681 4.89995 3.81681 5.19995L6.01682 6.40002C6.41682 6.60002 6.61682 7.09998 6.51682 7.59998L6.31681 8.30005C6.11681 8.80005 5.51682 9.1 5.01682 9ZM8.41681 5.69995H8.61682C9.11682 5.69995 9.51682 5.30005 9.51682 4.80005L9.61682 3.09998C9.61682 2.49998 9.21682 2 8.51682 2H7.81681C7.21681 2 6.71681 2.59995 6.91681 3.19995L7.31681 4.90002C7.41681 5.40002 7.91681 5.69995 8.41681 5.69995ZM14.6168 18.2L15.1168 21.3C15.2168 21.8 15.7168 22.2 16.2168 22L17.6168 21.6C18.1168 21.4 18.4168 20.8 18.1168 20.3L16.7168 17.5C16.5168 17.1 16.1168 16.9 15.7168 17L15.2168 17.1C14.8168 17.3 14.5168 17.7 14.6168 18.2ZM18.4168 16.3L19.8168 17.2C20.2168 17.5 20.8168 17.3 21.0168 16.8L21.3168 15.9C21.5168 15.4 21.1168 14.8 20.5168 14.8H18.8168C18.0168 14.8 17.7168 15.9 18.4168 16.3Z" fill="currentColor"/>
</svg>
