<svg width="24" height="24" viewBox="0 0 24 24" fill="none" xmlns="http://www.w3.org/2000/svg">
<path opacity="0.3" fill-rule="evenodd" clip-rule="evenodd" d="M5.5 2H18.5C19.3284 2 20 2.67157 20 3.5V6.5C20 7.32843 19.3284 8 18.5 8H5.5C4.67157 8 4 7.32843 4 6.5V3.5C4 2.67157 4.67157 2 5.5 2ZM11 4C10.4477 4 10 4.44772 10 5C10 5.55228 10.4477 6 11 6H13C13.5523 6 14 5.55228 14 5C14 4.44772 13.5523 4 13 4H11Z" fill="currentColor"/>
<path fill-rule="evenodd" clip-rule="evenodd" d="M5.5 9H18.5C19.3284 9 20 9.67157 20 10.5V13.5C20 14.3284 19.3284 15 18.5 15H5.5C4.67157 15 4 14.3284 4 13.5V10.5C4 9.67157 4.67157 9 5.5 9ZM11 11C10.4477 11 10 11.4477 10 12C10 12.5523 10.4477 13 11 13H13C13.5523 13 14 12.5523 14 12C14 11.4477 13.5523 11 13 11H11ZM5.5 16H18.5C19.3284 16 20 16.6716 20 17.5V20.5C20 21.3284 19.3284 22 18.5 22H5.5C4.67157 22 4 21.3284 4 20.5V17.5C4 16.6716 4.67157 16 5.5 16ZM11 18C10.4477 18 10 18.4477 10 19C10 19.5523 10.4477 20 11 20H13C13.5523 20 14 19.5523 14 19C14 18.4477 13.5523 18 13 18H11Z" fill="currentColor"/>
</svg>
