<svg width="24" height="24" viewBox="0 0 24 24" fill="none" xmlns="http://www.w3.org/2000/svg">
<path opacity="0.3" d="M5.78016 21.115L3.28016 21.949C3.10912 22.0059 2.92563 22.0141 2.75019 21.9727C2.57476 21.9312 2.41431 21.8418 2.28684 21.7144C2.15938 21.5869 2.0699 21.4264 2.02845 21.251C1.987 21.0755 1.99522 20.892 2.05216 20.7209L2.88615 18.2209L7.22816 13.879L10.1282 16.774L5.78016 21.115Z" fill="currentColor"/>
<path d="M21.7002 8.08899L15.9112 2.30005C15.8163 2.2049 15.7035 2.12939 15.5794 2.07788C15.4552 2.02637 15.3221 1.99988 15.1877 1.99988C15.0533 1.99988 14.9202 2.02637 14.796 2.07788C14.6719 2.12939 14.5591 2.2049 14.4642 2.30005L13.7402 3.02295C13.5482 3.21498 13.4404 3.4754 13.4404 3.74695C13.4404 4.01849 13.5482 4.27892 13.7402 4.47095L14.4642 5.19397L11.3032 8.35498C10.1617 7.80702 8.8784 7.62639 7.63 7.83789C6.3816 8.04939 5.22945 8.64265 4.33215 9.53601C4.14041 9.72817 4.03271 9.98855 4.03271 10.26C4.03271 10.5315 4.14041 10.7918 4.33215 10.984L13.0162 19.667C13.2082 19.859 13.4686 19.9668 13.7402 19.9668C14.0117 19.9668 14.2722 19.859 14.4642 19.667C15.3577 18.77 15.9511 17.618 16.1626 16.3698C16.3742 15.1215 16.1934 13.8383 15.6452 12.697L18.8062 9.53601L19.5292 10.26C19.7212 10.452 19.9816 10.5598 20.2532 10.5598C20.5247 10.5598 20.7852 10.452 20.9772 10.26L21.7002 9.53601C21.7954 9.44108 21.8708 9.32825 21.9223 9.2041C21.9739 9.07995 22.0004 8.94691 22.0004 8.8125C22.0004 8.67809 21.9739 8.54505 21.9223 8.4209C21.8708 8.29675 21.7954 8.18392 21.7002 8.08899Z" fill="currentColor"/>
</svg>
