<svg width="24" height="24" viewBox="0 0 24 24" fill="none" xmlns="http://www.w3.org/2000/svg">
<path opacity="0.3" fill-rule="evenodd" clip-rule="evenodd" d="M20.5 11H22.5C23.3284 11 24 11.6716 24 12.5C24 13.3284 23.3284 14 22.5 14H20.5C19.6716 14 19 13.3284 19 12.5C19 11.6716 19.6716 11 20.5 11ZM1.5 11H3.5C4.32843 11 5 11.6716 5 12.5C5 13.3284 4.32843 14 3.5 14H1.5C0.671573 14 0 13.3284 0 12.5C0 11.6716 0.671573 11 1.5 11Z" fill="currentColor"/>
<path d="M12 16C13.6569 16 15 14.6569 15 13C15 11.3431 13.6569 10 12 10C10.3431 10 9 11.3431 9 13C9 14.6569 10.3431 16 12 16ZM12 18C9.23858 18 7 15.7614 7 13C7 10.2386 9.23858 8 12 8C14.7614 8 17 10.2386 17 13C17 15.7614 14.7614 18 12 18Z" fill="currentColor"/>
</svg>
