<svg width="24" height="24" viewBox="0 0 24 24" fill="none" xmlns="http://www.w3.org/2000/svg">
<path opacity="0.3" d="M22 12C22 17.5 17.5 22 12 22C6.5 22 2 17.5 2 12C2 6.5 6.5 2 12 2C17.5 2 22 6.5 22 12ZM12 7C10.3 7 9 8.3 9 10C9 11.7 10.3 13 12 13C13.7 13 15 11.7 15 10C15 8.3 13.7 7 12 7Z" fill="currentColor"/>
<path d="M11.9998 22C14.5998 22 16.9998 21 18.6998 19.4C17.8998 16.9 15.1998 15 11.9998 15C8.79981 15 6.0998 16.9 5.2998 19.4C6.9998 21 9.39981 22 11.9998 22Z" fill="currentColor"/>
</svg>
