<svg width="24" height="24" viewBox="0 0 24 24" fill="none" xmlns="http://www.w3.org/2000/svg">
<path opacity="0.3" d="M12 22C17.5228 22 22 17.5228 22 12C22 6.47715 17.5228 2 12 2C6.47715 2 2 6.47715 2 12C2 17.5228 6.47715 22 12 22Z" fill="currentColor"/>
<path d="M19.0002 10.4C19.0002 10.3 19.0002 10.2 19.0002 10C19.0002 8.9 18.1002 8 17.0002 8H16.9002C15.6002 6.2 14.6002 4.29995 13.9002 2.19995C13.3002 2.09995 12.6002 2 12.0002 2C11.9002 2 11.8002 2 11.7002 2C12.4002 4.6 13.5002 7.10005 15.1002 9.30005C15.0002 9.50005 15.0002 9.7 15.0002 10C15.0002 11.1 15.9002 12 17.0002 12C17.1002 12 17.3002 12 17.4002 11.9C18.6002 13 19.9002 14 21.4002 14.8C21.4002 14.8 21.5002 14.8 21.5002 14.9C21.7002 14.2 21.8002 13.5 21.9002 12.7C20.9002 12.1 19.9002 11.3 19.0002 10.4Z" fill="currentColor"/>
<path d="M12.0001 15C11.0001 13.1 10.2001 11.2 9.6001 9.19995C9.9001 8.89995 10.0001 8.4 10.0001 8C10.0001 7.1 9.4001 6.39998 8.7001 6.09998C8.4001 4.99998 8.2001 3.90005 8.0001 2.80005C7.3001 3.10005 6.7001 3.40002 6.2001 3.90002C6.4001 4.80002 6.5001 5.6 6.8001 6.5C6.4001 6.9 6.1001 7.4 6.1001 8C6.1001 9 6.8001 9.8 7.8001 10C8.3001 11.6 9.0001 13.2 9.7001 14.7C7.1001 13.2 4.7001 11.5 2.4001 9.5C2.2001 10.3 2.1001 11.1 2.1001 11.9C4.6001 13.9 7.3001 15.7 10.1001 17.2C10.2001 18.2 11.0001 19 12.0001 19C12.6001 20 13.2001 20.9 13.9001 21.8C14.6001 21.7 15.3001 21.5 15.9001 21.2C15.4001 20.5 14.9001 19.8 14.4001 19.1C15.5001 19.5 16.5001 19.9 17.6001 20.2C18.3001 19.8 18.9001 19.2 19.4001 18.6C17.6001 18.1 15.7001 17.5 14.0001 16.7C13.9001 15.8 13.1001 15 12.0001 15Z" fill="currentColor"/>
</svg>
