<svg width="24" height="24" viewBox="0 0 24 24" fill="none" xmlns="http://www.w3.org/2000/svg">
<path opacity="0.3" fill-rule="evenodd" clip-rule="evenodd" d="M3.5 21H20.5C21.3284 21 22 20.3284 22 19.5V8.5C22 7.67157 21.3284 7 20.5 7H10L7.43934 4.43934C7.15804 4.15804 6.7765 4 6.37868 4H3.5C2.67157 4 2 4.67157 2 5.5V19.5C2 20.3284 2.67157 21 3.5 21Z" fill="currentColor"/>
<path opacity="0.3" d="M8.45372 12.4351L7.29205 13.5967C6.99916 13.8896 6.99916 14.3645 7.29205 14.6574L8.45372 15.8191C8.74662 16.112 9.22149 16.112 9.51439 15.8191L10.6761 14.6574C10.969 14.3645 10.969 13.8896 10.6761 13.5967L9.51438 12.4351C9.22149 12.1422 8.74662 12.1422 8.45372 12.4351Z" fill="currentColor"/>
<path opacity="0.3" d="M14.7399 12.4351L13.5782 13.5967C13.2853 13.8896 13.2853 14.3645 13.5782 14.6574L14.7399 15.8191C15.0328 16.112 15.5076 16.112 15.8005 15.8191L16.9622 14.6574C17.2551 14.3645 17.2551 13.8896 16.9622 13.5967L15.8005 12.4351C15.5076 12.1422 15.0327 12.1422 14.7399 12.4351Z" fill="currentColor"/>
<path d="M11.5968 15.5779L10.4351 16.7396C10.1422 17.0325 10.1422 17.5073 10.4351 17.8002L11.5968 18.9619C11.8897 19.2548 12.3646 19.2548 12.6575 18.9619L13.8191 17.8002C14.112 17.5073 14.112 17.0325 13.8191 16.7396L12.6575 15.5779C12.3646 15.285 11.8897 15.285 11.5968 15.5779Z" fill="currentColor"/>
<path d="M11.5968 9.29225L10.4351 10.4539C10.1422 10.7468 10.1422 11.2217 10.4351 11.5146L11.5968 12.6763C11.8897 12.9692 12.3646 12.9692 12.6575 12.6763L13.8191 11.5146C14.112 11.2217 14.112 10.7468 13.8191 10.4539L12.6575 9.29225C12.3646 8.99935 11.8897 8.99935 11.5968 9.29225Z" fill="currentColor"/>
</svg>
