<svg width="24" height="24" viewBox="0 0 24 24" fill="none" xmlns="http://www.w3.org/2000/svg">
<path opacity="0.3" d="M5.85714 2H13.7364C14.0911 2 14.4343 2.12568 14.7051 2.35474L19.4687 6.38394C19.8057 6.66895 20 7.08788 20 7.5292V20.0833C20 21.8739 19.9796 22 18.1429 22H5.85714C4.02045 22 4 21.8739 4 20.0833V3.91667C4 2.12612 4.02045 2 5.85714 2Z" fill="currentColor"/>
<path opacity="0.3" d="M8.45372 10.4351L7.29205 11.5967C6.99916 11.8896 6.99916 12.3645 7.29205 12.6574L8.45372 13.8191C8.74662 14.112 9.22149 14.112 9.51439 13.8191L10.6761 12.6574C10.969 12.3645 10.969 11.8896 10.6761 11.5967L9.51438 10.4351C9.22149 10.1422 8.74662 10.1422 8.45372 10.4351Z" fill="currentColor"/>
<path opacity="0.3" d="M14.7399 10.4351L13.5782 11.5967C13.2853 11.8896 13.2853 12.3645 13.5782 12.6574L14.7399 13.8191C15.0328 14.112 15.5076 14.112 15.8005 13.8191L16.9622 12.6574C17.2551 12.3645 17.2551 11.8896 16.9622 11.5967L15.8005 10.4351C15.5076 10.1422 15.0327 10.1422 14.7399 10.4351Z" fill="currentColor"/>
<path d="M11.5968 13.5779L10.4351 14.7396C10.1422 15.0325 10.1422 15.5073 10.4351 15.8002L11.5968 16.9619C11.8897 17.2548 12.3646 17.2548 12.6575 16.9619L13.8191 15.8002C14.112 15.5073 14.112 15.0325 13.8191 14.7396L12.6575 13.5779C12.3646 13.285 11.8897 13.285 11.5968 13.5779Z" fill="currentColor"/>
<path d="M11.5968 7.29225L10.4351 8.45392C10.1422 8.74682 10.1422 9.22169 10.4351 9.51458L11.5968 10.6763C11.8897 10.9692 12.3646 10.9692 12.6575 10.6763L13.8191 9.51458C14.112 9.22169 14.112 8.74682 13.8191 8.45392L12.6575 7.29225C12.3646 6.99935 11.8897 6.99935 11.5968 7.29225Z" fill="currentColor"/>
</svg>
