<svg width="24" height="24" viewBox="0 0 24 24" fill="none" xmlns="http://www.w3.org/2000/svg">
<path opacity="0.3" fill-rule="evenodd" clip-rule="evenodd" d="M7.07745 12.304C7.72445 13.0716 8.54045 13.692 9.46809 14.108L5 23L4.5 18L7.07745 12.304ZM14.5866 14.2598C15.532 13.9019 16.3754 13.3366 17.0614 12.6194L19.5 18L19 23L14.5866 14.2598ZM12 0C12.8284 0 13.5 0.671573 13.5 1.5V4H10.5V1.5C10.5 0.671573 11.1716 0 12 0Z" fill="currentColor"/>
<path d="M12 10C13.1046 10 14 9.10457 14 8C14 6.89543 13.1046 6 12 6C10.8954 6 10 6.89543 10 8C10 9.10457 10.8954 10 12 10ZM12 13C9.23858 13 7 10.7614 7 8C7 5.23858 9.23858 3 12 3C14.7614 3 17 5.23858 17 8C17 10.7614 14.7614 13 12 13Z" fill="currentColor"/>
</svg>
