<svg width="24" height="24" viewBox="0 0 24 24" fill="none" xmlns="http://www.w3.org/2000/svg">
<path fill-rule="evenodd" clip-rule="evenodd" d="M12.7444 3.27881L19.2475 6.99489C19.7149 7.26195 20.0033 7.75897 20.0033 8.29725V15.7027C20.0033 16.241 19.7149 16.738 19.2475 17.0051L12.7444 20.7212C12.2833 20.9847 11.7171 20.9847 11.256 20.7212L4.75286 17.0051C4.2855 16.738 3.99707 16.241 3.99707 15.7027V8.29725C3.99707 7.75897 4.2855 7.26195 4.75286 6.99489L11.256 3.27881C11.7171 3.0153 12.2833 3.0153 12.7444 3.27881ZM12.0002 14.5C13.3809 14.5 14.5002 13.3807 14.5002 12C14.5002 10.6193 13.3809 9.49998 12.0002 9.49998C10.6195 9.49998 9.5002 10.6193 9.5002 12C9.5002 13.3807 10.6195 14.5 12.0002 14.5Z" fill="currentColor"/>
</svg>
