<svg width="24" height="24" viewBox="0 0 24 24" fill="none" xmlns="http://www.w3.org/2000/svg">
<mask id="mask0_1395_41293" style="mask-type:alpha" maskUnits="userSpaceOnUse" x="4" y="2" width="16" height="20">
<path d="M20 18H8C7.44772 18 7 18.4477 7 19C7 19.5523 7.44772 20 8 20H20V21C20 21.6269 19.6418 22 19 22H7C5.2536 22 4 20.6942 4 19V5C4 3.30584 5.2536 2 7 2H19C19.6418 2 20 2.3731 20 3V18Z" fill="currentColor"/>
</mask>
<g mask="url(#mask0_1395_41293)">
<path opacity="0.3" d="M20 18H8C7.44772 18 7 18.4477 7 19C7 19.5523 7.44772 20 8 20H20V21C20 21.6269 19.6418 22 19 22H7C5.2536 22 4 20.6942 4 19V5C4 3.30584 5.2536 2 7 2H19C19.6418 2 20 2.3731 20 3V18Z" fill="currentColor"/>
<path opacity="0.3" fill-rule="evenodd" clip-rule="evenodd" d="M9.35 11.5878C8.57365 11.3788 8 10.6418 8 9.76471C8 8.72511 8.80589 7.88235 9.8 7.88235C9.851 7.88235 9.9015 7.88457 9.95142 7.88892C10.3203 6.78884 11.3221 6 12.5 6C13.6779 6 14.6797 6.78884 15.0486 7.88892C15.0985 7.88457 15.149 7.88235 15.2 7.88235C16.1941 7.88235 17 8.72511 17 9.76471C17 10.6418 16.4264 11.3788 15.65 11.5878V13.5294C15.65 13.7893 15.4485 14 15.2 14H9.8C9.55147 14 9.35 13.7893 9.35 13.5294V11.5878Z" fill="currentColor"/>
</g>
</svg>
