<svg width="24" height="24" viewBox="0 0 24 24" fill="none" xmlns="http://www.w3.org/2000/svg">
<path opacity="0.3" fill-rule="evenodd" clip-rule="evenodd" d="M10 6V5C10 4.44772 10.4477 4 11 4H13C13.5523 4 14 4.44772 14 5V6H14.3838C16.2073 6 18.0148 6.3391 19.7143 7L19.8017 7.034C20.0591 7.13408 20.1866 7.42386 20.0865 7.68122C20.0117 7.87341 19.8267 8 19.6205 8H4.37951C4.10337 8 3.87951 7.77614 3.87951 7.5C3.87951 7.29379 4.00611 7.10874 4.19829 7.034L4.28571 7C5.98518 6.3391 7.79272 6 9.61617 6H10ZM20 11H22C22.5523 11 23 11.4477 23 12C23 12.5523 22.5523 13 22 13H20C19.4477 13 19 12.5523 19 12C19 11.4477 19.4477 11 20 11ZM2 11H4C4.55228 11 5 11.4477 5 12C5 12.5523 4.55228 13 4 13H2C1.44772 13 1 12.5523 1 12C1 11.4477 1.44772 11 2 11Z" fill="currentColor"/>
<path fill-rule="evenodd" clip-rule="evenodd" d="M5 9H19C19.5523 9 20 9.44772 20 10V17C20 19.2091 18.2091 21 16 21H8C5.79086 21 4 19.2091 4 17V10C4 9.44772 4.44772 9 5 9Z" fill="currentColor"/>
</svg>
