<svg width="24" height="24" viewBox="0 0 24 24" fill="none" xmlns="http://www.w3.org/2000/svg">
<path opacity="0.3" fill-rule="evenodd" clip-rule="evenodd" d="M12.0002 20.66L9.4646 20.6354L7.31825 19.2852L5.19844 17.8937L4.12279 15.5975L3.0918 13.2808L3.42835 10.7676L3.8135 8.26126L5.45541 6.32891L7.13442 4.42872L9.56039 3.6908L12.0002 3L14.44 3.6908L16.866 4.42872L18.545 6.32891L20.1869 8.26126L20.572 10.7676L20.9086 13.2808L19.8776 15.5975L18.8019 17.8937L16.6821 19.2852L14.5358 20.6354L12.0002 20.66Z" fill="currentColor"/>
<path opacity="0.3" d="M8.5 15C9.32843 15 10 14.3284 10 13.5C10 12.6716 9.32843 12 8.5 12C7.67157 12 7 12.6716 7 13.5C7 14.3284 7.67157 15 8.5 15Z" fill="currentColor"/>
<path opacity="0.3" d="M13.5 9C14.3284 9 15 8.32843 15 7.5C15 6.67157 14.3284 6 13.5 6C12.6716 6 12 6.67157 12 7.5C12 8.32843 12.6716 9 13.5 9Z" fill="currentColor"/>
<path opacity="0.3" d="M14.5 17C15.3284 17 16 16.3284 16 15.5C16 14.6716 15.3284 14 14.5 14C13.6716 14 13 14.6716 13 15.5C13 16.3284 13.6716 17 14.5 17Z" fill="currentColor"/>
</svg>
