<svg width="24" height="24" viewBox="0 0 24 24" fill="none" xmlns="http://www.w3.org/2000/svg">
<path opacity="0.3" d="M20 3H4C3.44772 3 3 3.44772 3 4V20C3 20.5523 3.44772 21 4 21H20C20.5523 21 21 20.5523 21 20V4C21 3.44772 20.5523 3 20 3Z" fill="currentColor"/>
<path opacity="0.3" d="M11 11V13H13V11H11ZM10 9H14C14.5523 9 15 9.44772 15 10V14C15 14.5523 14.5523 15 14 15H10C9.44772 15 9 14.5523 9 14V10C9 9.44772 9.44772 9 10 9Z" fill="currentColor"/>
<path opacity="0.3" d="M6.5 5H5.5C5.22386 5 5 5.22386 5 5.5V6.5C5 6.77614 5.22386 7 5.5 7H6.5C6.77614 7 7 6.77614 7 6.5V5.5C7 5.22386 6.77614 5 6.5 5Z" fill="currentColor"/>
<path opacity="0.3" d="M6.5 9H5.5C5.22386 9 5 9.22386 5 9.5V10.5C5 10.7761 5.22386 11 5.5 11H6.5C6.77614 11 7 10.7761 7 10.5V9.5C7 9.22386 6.77614 9 6.5 9Z" fill="currentColor"/>
<path opacity="0.3" d="M6.5 13H5.5C5.22386 13 5 13.2239 5 13.5V14.5C5 14.7761 5.22386 15 5.5 15H6.5C6.77614 15 7 14.7761 7 14.5V13.5C7 13.2239 6.77614 13 6.5 13Z" fill="currentColor"/>
<path opacity="0.3" d="M10.5 5H9.5C9.22386 5 9 5.22386 9 5.5V6.5C9 6.77614 9.22386 7 9.5 7H10.5C10.7761 7 11 6.77614 11 6.5V5.5C11 5.22386 10.7761 5 10.5 5Z" fill="currentColor"/>
<path opacity="0.3" d="M14.5 5H13.5C13.2239 5 13 5.22386 13 5.5V6.5C13 6.77614 13.2239 7 13.5 7H14.5C14.7761 7 15 6.77614 15 6.5V5.5C15 5.22386 14.7761 5 14.5 5Z" fill="currentColor"/>
<path opacity="0.3" d="M18.5 5H17.5C17.2239 5 17 5.22386 17 5.5V6.5C17 6.77614 17.2239 7 17.5 7H18.5C18.7761 7 19 6.77614 19 6.5V5.5C19 5.22386 18.7761 5 18.5 5Z" fill="currentColor"/>
<path opacity="0.3" d="M18.5 9H17.5C17.2239 9 17 9.22386 17 9.5V10.5C17 10.7761 17.2239 11 17.5 11H18.5C18.7761 11 19 10.7761 19 10.5V9.5C19 9.22386 18.7761 9 18.5 9Z" fill="currentColor"/>
<path opacity="0.3" d="M18.5 13H17.5C17.2239 13 17 13.2239 17 13.5V14.5C17 14.7761 17.2239 15 17.5 15H18.5C18.7761 15 19 14.7761 19 14.5V13.5C19 13.2239 18.7761 13 18.5 13Z" fill="currentColor"/>
<path opacity="0.3" d="M6.5 17H5.5C5.22386 17 5 17.2239 5 17.5V18.5C5 18.7761 5.22386 19 5.5 19H6.5C6.77614 19 7 18.7761 7 18.5V17.5C7 17.2239 6.77614 17 6.5 17Z" fill="currentColor"/>
<path opacity="0.3" d="M10.5 17H9.5C9.22386 17 9 17.2239 9 17.5V18.5C9 18.7761 9.22386 19 9.5 19H10.5C10.7761 19 11 18.7761 11 18.5V17.5C11 17.2239 10.7761 17 10.5 17Z" fill="currentColor"/>
<path opacity="0.3" d="M14.5 17H13.5C13.2239 17 13 17.2239 13 17.5V18.5C13 18.7761 13.2239 19 13.5 19H14.5C14.7761 19 15 18.7761 15 18.5V17.5C15 17.2239 14.7761 17 14.5 17Z" fill="currentColor"/>
<path opacity="0.3" d="M18.5 17H17.5C17.2239 17 17 17.2239 17 17.5V18.5C17 18.7761 17.2239 19 17.5 19H18.5C18.7761 19 19 18.7761 19 18.5V17.5C19 17.2239 18.7761 17 18.5 17Z" fill="currentColor"/>
</svg>
