<svg width="24" height="24" viewBox="0 0 24 24" fill="none" xmlns="http://www.w3.org/2000/svg">
<path opacity="0.3" d="M10 6H14.5C16.7091 6 18 7.29086 18 9.5V14H16V9.5C16 8.39543 15.6046 8 14.5 8H10V6ZM8 6V8H4C3.44772 8 3 7.55228 3 7C3 6.44772 3.44772 6 4 6H8ZM18 16V20C18 20.5523 17.5523 21 17 21C16.4477 21 16 20.5523 16 20V16H18Z" fill="currentColor"/>
<path d="M20 16C20.5523 16 21 16.4477 21 17C21 17.5523 20.5523 18 20 18H9.5C7.29086 18 6 16.7091 6 14.5L6 4C6 3.44772 6.44772 3 7 3C7.55228 3 8 3.44772 8 4L8 14.5C8 15.6046 8.39543 16 9.5 16L20 16Z" fill="currentColor"/>
</svg>
