<svg width="24" height="24" viewBox="0 0 24 24" fill="none" xmlns="http://www.w3.org/2000/svg">
<path opacity="0.3" fill-rule="evenodd" clip-rule="evenodd" d="M3 4C3 3.44772 3.44772 3 4 3H11V5C11 9.41828 7.41828 13 3 13V4ZM21 4V13C16.5817 13 13 9.41828 13 5V3H20C20.5523 3 21 3.44772 21 4Z" fill="currentColor"/>
<path fill-rule="evenodd" clip-rule="evenodd" d="M4 21C3.44772 21 3 20.5523 3 20V13C6.31371 13 9 15.6863 9 19V21H4ZM20 21H15V19C15 15.6863 17.6863 13 21 13V20C21 20.5523 20.5523 21 20 21Z" fill="currentColor"/>
</svg>
