<svg width="24" height="24" viewBox="0 0 24 24" fill="none" xmlns="http://www.w3.org/2000/svg">
<path opacity="0.3" fill-rule="evenodd" clip-rule="evenodd" d="M8.37883 15.1213C9.35514 16.0976 9.35514 17.6805 8.37883 18.6568L6.25751 20.7781C5.2812 21.7544 3.69829 21.7544 2.72198 20.7781C1.74567 19.8018 1.74567 18.2189 2.72198 17.2426L4.8433 15.1213C5.81961 14.145 7.40252 14.145 8.37883 15.1213ZM3.81799 19.7528C4.30615 20.241 5.09761 20.241 5.58576 19.7528C6.07392 19.2647 6.07392 18.4732 5.58576 17.9851C5.09761 17.4969 4.30615 17.4969 3.81799 17.9851C3.32984 18.4732 3.32984 19.2647 3.81799 19.7528Z" fill="currentColor"/>
<path fill-rule="evenodd" clip-rule="evenodd" d="M14.3893 1.33273L22.1675 9.11091C22.9485 9.89196 22.9485 11.1583 22.1675 11.9393L12.9751 21.1317C12.1941 21.9128 10.9277 21.9128 10.1467 21.1317L2.3685 13.3535C1.58745 12.5725 1.58745 11.3062 2.3685 10.5251L11.5609 1.33273C12.3419 0.551686 13.6083 0.551686 14.3893 1.33273Z" fill="currentColor"/>
</svg>
