<svg width="24" height="24" viewBox="0 0 24 24" fill="none" xmlns="http://www.w3.org/2000/svg">
<path opacity="0.3" fill-rule="evenodd" clip-rule="evenodd" d="M6.5 24C5.67157 24 5 23.3284 5 22.5C5 21.9477 5.5 21.1144 6.5 20C7.5 21.1144 8 21.9477 8 22.5C8 23.3284 7.32843 24 6.5 24ZM11.5 24C10.6716 24 10 23.3284 10 22.5C10 21.9477 10.5 21.1144 11.5 20C12.5 21.1144 13 21.9477 13 22.5C13 23.3284 12.3284 24 11.5 24ZM16.5 24C15.6716 24 15 23.3284 15 22.5C15 21.9477 15.5 21.1144 16.5 20C17.5 21.1144 18 21.9477 18 22.5C18 23.3284 17.3284 24 16.5 24ZM13.5 13C11.567 13 10 11.433 10 9.5C10 7.567 11.567 6 13.5 6C15.433 6 17 7.567 17 9.5C17 11.433 15.433 13 13.5 13ZM19.742 8.875H21.0545C21.7793 8.875 22.367 9.46263 22.367 10.1875C22.367 10.9124 21.7793 11.5 21.0545 11.5H19.742C19.0171 11.5 18.4295 10.9124 18.4295 10.1875C18.4295 9.46263 19.0171 8.875 19.742 8.875ZM16.7325 4.82491L17.6606 3.89683C18.1732 3.38426 19.0042 3.38426 19.5168 3.89683C20.0293 4.40939 20.0293 5.24042 19.5168 5.75298L18.5887 6.68106C18.0761 7.19362 17.2451 7.19362 16.7325 6.68106C16.22 6.1685 16.22 5.33747 16.7325 4.82491ZM13.1795 1C13.9043 1 14.492 1.58763 14.492 2.3125V3.625C14.492 4.34987 13.9043 4.9375 13.1795 4.9375C12.4546 4.9375 11.867 4.34987 11.867 3.625V2.3125C11.867 1.58763 12.4546 1 13.1795 1ZM6.88879 3.89683C7.40135 3.38426 8.23238 3.38426 8.74494 3.89683L9.67302 4.82491C10.1856 5.33747 10.1856 6.1685 9.67302 6.68106C9.16046 7.19362 8.32943 7.19362 7.81686 6.68106L6.88879 5.75298C6.37622 5.24042 6.37622 4.40939 6.88879 3.89683Z" fill="currentColor"/>
<path fill-rule="evenodd" clip-rule="evenodd" d="M4.74715 18.0426C3.0941 16.974 2 15.1148 2 13C2 9.68629 4.68629 7 8 7C10.7958 7 13.1449 8.91216 13.811 11.5H16.25C18.3211 11.5 20 13.1789 20 15.25C20 17.3211 18.3211 19 16.25 19H7.25C6.28818 19 5.41093 18.6379 4.74715 18.0426Z" fill="currentColor"/>
</svg>
