<svg width="24" height="24" viewBox="0 0 24 24" fill="none" xmlns="http://www.w3.org/2000/svg">
<path opacity="0.3" d="M21.9822 8.18904C21.931 8.45571 21.7722 8.70294 21.5147 8.85744L16.5147 11.8574C16.3593 11.9507 16.1814 11.9999 16.0002 11.9999H8.00019C7.81895 11.9999 7.64111 11.9507 7.4857 11.8574L2.4857 8.85744C2.22819 8.70294 2.06935 8.45571 2.01821 8.18904L1.01961 3.19606C0.9113 2.65451 1.26252 2.12768 1.80408 2.01937C2.34564 1.91106 2.87246 2.26227 2.98077 2.80383L3.61433 5.9716L6.29309 3.29284C6.68361 2.90232 7.31677 2.90232 7.7073 3.29284C8.09782 3.68337 8.09782 4.31653 7.7073 4.70706L4.61295 7.80141L8.27718 9.99995H15.7232L19.3874 7.80141L16.2931 4.70706C15.9026 4.31653 15.9026 3.68337 16.2931 3.29284C16.6836 2.90232 17.3168 2.90232 17.7073 3.29284L20.3861 5.9716L21.0196 2.80383C21.1279 2.26227 21.6547 1.91106 22.1963 2.01937C22.7379 2.12768 23.0891 2.65451 22.9808 3.19606L21.9822 8.18904ZM15.053 8.89438C14.559 8.64739 14.3588 8.04671 14.6058 7.55273C14.8528 7.05876 15.4534 6.85853 15.9474 7.10552L18.9474 8.60552C19.6532 8.95841 19.6913 9.95146 19.0147 10.3574L16.5147 11.8574C16.3593 11.9507 16.1814 11.9999 16.0002 11.9999H8.00019C7.81895 11.9999 7.64111 11.9507 7.4857 11.8574L4.9857 10.3574C4.33836 9.96904 4.33836 9.03086 4.9857 8.64246L7.4857 7.14246C7.95928 6.85831 8.57354 7.01187 8.85769 7.48545C9.14183 7.95903 8.98827 8.57329 8.51469 8.85744L7.44384 9.49995L8.27718 9.99995H15.7232L16.4236 9.5797L15.053 8.89438Z" fill="currentColor"/>
<path fill-rule="evenodd" clip-rule="evenodd" d="M9.85553 10H14.1447C15.2493 10 16.1447 10.8954 16.1447 12C16.1447 12.2331 16.104 12.4644 16.0243 12.6835L13.3419 20.0602C13.1367 20.6244 12.6005 21 12.0001 21C11.3998 21 10.8635 20.6244 10.6584 20.0602L7.97594 12.6835C7.59846 11.6454 8.13397 10.4979 9.17204 10.1204C9.39111 10.0408 9.62242 10 9.85553 10Z" fill="currentColor"/>
</svg>
