<svg width="24" height="24" viewBox="0 0 24 24" fill="none" xmlns="http://www.w3.org/2000/svg">
<path opacity="0.3" d="M5.85714 2H13.7364C14.0911 2 14.4343 2.12568 14.7051 2.35474L19.4687 6.38394C19.8057 6.66895 20 7.08788 20 7.5292V20.0833C20 21.8739 19.9796 22 18.1429 22H5.85714C4.02045 22 4 21.8739 4 20.0833V3.91667C4 2.12612 4.02045 2 5.85714 2Z" fill="currentColor"/>
<path fill-rule="evenodd" clip-rule="evenodd" d="M10.586 13L9.1718 11.5858C8.78128 11.1952 8.78128 10.5621 9.1718 10.1716C9.56232 9.78103 10.1955 9.78103 10.586 10.1716L12.0002 11.5858L13.4144 10.1716C13.805 9.78103 14.4381 9.78103 14.8287 10.1716C15.2192 10.5621 15.2192 11.1952 14.8287 11.5858L13.4144 13L14.8287 14.4142C15.2192 14.8047 15.2192 15.4379 14.8287 15.8284C14.4381 16.2189 13.805 16.2189 13.4144 15.8284L12.0002 14.4142L10.586 15.8284C10.1955 16.2189 9.56232 16.2189 9.1718 15.8284C8.78128 15.4379 8.78128 14.8047 9.1718 14.4142L10.586 13Z" fill="currentColor"/>
</svg>
