<svg width="24" height="24" viewBox="0 0 24 24" fill="none" xmlns="http://www.w3.org/2000/svg">
<path opacity="0.3" fill-rule="evenodd" clip-rule="evenodd" d="M3.5 21H20.5C21.3284 21 22 20.3284 22 19.5V8.5C22 7.67157 21.3284 7 20.5 7H10L7.43934 4.43934C7.15804 4.15804 6.7765 4 6.37868 4H3.5C2.67157 4 2 4.67157 2 5.5V19.5C2 20.3284 2.67157 21 3.5 21Z" fill="currentColor"/>
<path fill-rule="evenodd" clip-rule="evenodd" d="M10.586 14L9.1718 12.5858C8.78128 12.1952 8.78128 11.5621 9.1718 11.1716C9.56232 10.781 10.1955 10.781 10.586 11.1716L12.0002 12.5858L13.4144 11.1716C13.805 10.781 14.4381 10.781 14.8287 11.1716C15.2192 11.5621 15.2192 12.1952 14.8287 12.5858L13.4144 14L14.8287 15.4142C15.2192 15.8047 15.2192 16.4379 14.8287 16.8284C14.4381 17.2189 13.805 17.2189 13.4144 16.8284L12.0002 15.4142L10.586 16.8284C10.1955 17.2189 9.56232 17.2189 9.1718 16.8284C8.78128 16.4379 8.78128 15.8047 9.1718 15.4142L10.586 14Z" fill="currentColor"/>
</svg>
