<svg width="24" height="24" viewBox="0 0 24 24" fill="none" xmlns="http://www.w3.org/2000/svg">
<path opacity="0.3" fill-rule="evenodd" clip-rule="evenodd" d="M12 8C10.8954 8 10 7.10457 10 6C10 4.89543 10.8954 4 12 4C13.1046 4 14 4.89543 14 6C14 7.10457 13.1046 8 12 8ZM3 18H21C21.5523 18 22 18.4477 22 19C22 19.5523 21.5523 20 21 20H3C2.44772 20 2 19.5523 2 19C2 18.4477 2.44772 18 3 18Z" fill="currentColor"/>
<path fill-rule="evenodd" clip-rule="evenodd" d="M21 16C21 11.0294 16.9706 7 12 7C7.02944 7 3 11.0294 3 16H21Z" fill="currentColor"/>
</svg>
