<svg width="24" height="24" viewBox="0 0 24 24" fill="none" xmlns="http://www.w3.org/2000/svg">
<path opacity="0.3" fill-rule="evenodd" clip-rule="evenodd" d="M12.5 19C8.91015 19 6 16.0899 6 12.5C6 8.91015 8.91015 6 12.5 6C16.0899 6 19 8.91015 19 12.5C19 16.0899 16.0899 19 12.5 19ZM12.5 16.4C14.6539 16.4 16.4 14.6539 16.4 12.5C16.4 10.3461 14.6539 8.6 12.5 8.6C10.3461 8.6 8.6 10.3461 8.6 12.5C8.6 14.6539 10.3461 16.4 12.5 16.4ZM12.5 15.1C11.0641 15.1 9.9 13.9359 9.9 12.5C9.9 11.0641 11.0641 9.9 12.5 9.9C13.9359 9.9 15.1 11.0641 15.1 12.5C15.1 13.9359 13.9359 15.1 12.5 15.1Z" fill="currentColor"/>
<path opacity="0.3" fill-rule="evenodd" clip-rule="evenodd" d="M22 13.5C22.2865 13.5 22.5289 13.7116 22.5676 13.9954L23.098 17.8853C23.1713 18.4227 22.7951 18.9177 22.2577 18.991C22.2137 18.997 22.1694 19 22.125 19C21.5576 19 21.0977 18.54 21.0977 17.9726C21.0977 17.9416 21.0991 17.9105 21.1019 17.8796L21.4548 13.9979C21.4804 13.7159 21.7168 13.5 22 13.5Z" fill="currentColor"/>
<path fill-rule="evenodd" clip-rule="evenodd" d="M21 5V12H24V8C24 6.34315 22.6569 5 21 5Z" fill="currentColor"/>
<path fill-rule="evenodd" clip-rule="evenodd" d="M0.714286 5L1.03697 8.32873C1.05652 8.53038 1.22599 8.68421 1.42857 8.68421C1.63116 8.68421 1.80063 8.53038 1.82017 8.32873L2.14286 5H2.85714L3.17983 8.32873C3.19937 8.53038 3.36884 8.68421 3.57143 8.68421C3.77401 8.68421 3.94348 8.53038 3.96303 8.32873L4.28571 5H5V8.39474C5 9.77545 3.88071 10.8947 2.5 10.8947C1.11929 10.8947 0 9.77545 0 8.39474L0 5H0.714286Z" fill="currentColor"/>
<path opacity="0.3" fill-rule="evenodd" clip-rule="evenodd" d="M2.50014 12.3684C2.9007 12.3684 3.2313 12.6817 3.25284 13.0817L3.51395 17.9301C3.54411 18.49 3.11465 18.9684 2.55474 18.9985C2.53656 18.9995 2.51835 19 2.50014 19C1.93942 19 1.48486 18.5454 1.48486 17.9847C1.48486 17.9665 1.48535 17.9483 1.48633 17.9301L1.74744 13.0817C1.76899 12.6817 2.09959 12.3684 2.50014 12.3684Z" fill="currentColor"/>
</svg>
