<svg width="24" height="24" viewBox="0 0 24 24" fill="none" xmlns="http://www.w3.org/2000/svg">
<path fill-rule="evenodd" clip-rule="evenodd" d="M15 10V19L13.8474 19.3842C12.6238 19.7921 11.3425 20 10.0527 20H6.45941C5.02937 20 3.79812 18.9906 3.51767 17.5883L2.76847 13.8424C2.44354 12.2177 3.49719 10.6372 5.12187 10.3123C5.38108 10.2604 5.64601 10.2431 5.90977 10.2607L9.5 10.5L9.1358 6.49384C9.06731 5.74041 9.62256 5.07412 10.376 5.00563C10.4172 5.00188 10.4586 5 10.5 5C11.4306 5 12.293 5.48826 12.7717 6.28624L15 10Z" fill="currentColor"/>
<path opacity="0.3" d="M18 9H21C21.5523 9 22 9.44772 22 10V19C22 19.5523 21.5523 20 21 20H18C17.4477 20 17 19.5523 17 19V10C17 9.44772 17.4477 9 18 9Z" fill="currentColor"/>
</svg>
