<svg width="24" height="24" viewBox="0 0 24 24" fill="none" xmlns="http://www.w3.org/2000/svg">
<path opacity="0.3" fill-rule="evenodd" clip-rule="evenodd" d="M6 7V15H18V7H6Z" fill="currentColor"/>
<path opacity="0.3" fill-rule="evenodd" clip-rule="evenodd" d="M11 19V16C11 15.4477 11.4477 15 12 15C12.5523 15 13 15.4477 13 16V19H14.5C14.7761 19 15 19.2239 15 19.5C15 19.7761 14.7761 20 14.5 20H9.5C9.22386 20 9 19.7761 9 19.5C9 19.2239 9.22386 19 9.5 19H11Z" fill="currentColor"/>
<path d="M6 7V15H18V7H6ZM6 5H18C19.1046 5 20 5.89543 20 7V15C20 16.1046 19.1046 17 18 17H6C4.89543 17 4 16.1046 4 15V7C4 5.89543 4.89543 5 6 5Z" fill="currentColor"/>
</svg>
