<svg width="24" height="24" viewBox="0 0 24 24" fill="none" xmlns="http://www.w3.org/2000/svg">
<path opacity="0.3" fill-rule="evenodd" clip-rule="evenodd" d="M5 7V15H19V7H5Z" fill="currentColor"/>
<path opacity="0.3" fill-rule="evenodd" clip-rule="evenodd" d="M11 19V16C11 15.4477 11.4477 15 12 15C12.5523 15 13 15.4477 13 16V19H14.5C14.7761 19 15 19.2239 15 19.5C15 19.7761 14.7761 20 14.5 20H9.5C9.22386 20 9 19.7761 9 19.5C9 19.2239 9.22386 19 9.5 19H11Z" fill="currentColor"/>
<path d="M5 7V15H19V7H5ZM5.25 5H18.75C19.9926 5 21 5.89543 21 7V15C21 16.1046 19.9926 17 18.75 17H5.25C4.00736 17 3 16.1046 3 15V7C3 5.89543 4.00736 5 5.25 5Z" fill="currentColor"/>
</svg>
