<svg width="24" height="24" viewBox="0 0 24 24" fill="none" xmlns="http://www.w3.org/2000/svg">
<path opacity="0.3" d="M7 4.89474V21H5V3H11V4.89474H7Z" fill="currentColor"/>
<path fill-rule="evenodd" clip-rule="evenodd" d="M10.1783 2.24747L18.1783 3.69708C18.6541 3.78329 19 4.19755 19 4.68106V19.319C19 19.8026 18.6541 20.2168 18.1783 20.303L10.1783 21.7526C9.63486 21.8511 9.11449 21.4904 9.01602 20.947C9.00536 20.8881 9 20.8284 9 20.7687V3.23145C9 2.67916 9.44772 2.23145 10 2.23145C10.0598 2.23145 10.1195 2.23681 10.1783 2.24747ZM11.9167 12.9061C12.607 12.9061 13.1667 12.2976 13.1667 11.547C13.1667 10.7965 12.607 10.188 11.9167 10.188C11.2263 10.188 10.6667 10.7965 10.6667 11.547C10.6667 12.2976 11.2263 12.9061 11.9167 12.9061Z" fill="currentColor"/>
</svg>
