<svg width="24" height="24" viewBox="0 0 24 24" fill="none" xmlns="http://www.w3.org/2000/svg">
<path opacity="0.3" d="M13 5C13 4.44772 12.5523 4 12 4C11.4477 4 11 4.44772 11 5V13C11 13.5523 11.4477 14 12 14C12.5523 14 13 13.5523 13 13V5Z" fill="currentColor"/>
<path d="M6.70711 12.2929C6.31658 11.9024 5.68342 11.9024 5.29289 12.2929C4.90237 12.6834 4.90237 13.3166 5.29289 13.7071L11.2929 19.7071C11.6715 20.0857 12.2811 20.0989 12.6757 19.7372L18.6757 14.2372C19.0828 13.864 19.1103 13.2314 18.7372 12.8243C18.364 12.4172 17.7314 12.3897 17.3243 12.7628L12.0301 17.6159L6.70711 12.2929Z" fill="currentColor"/>
</svg>
