<svg width="24" height="24" viewBox="0 0 24 24" fill="none" xmlns="http://www.w3.org/2000/svg">
<path opacity="0.3" d="M7.40373 15.6819C7.01321 16.0724 7.01321 16.7056 7.40373 17.0961C7.79426 17.4866 8.42742 17.4866 8.81795 17.0961L17.3032 8.61083C17.6938 8.22031 17.6938 7.58715 17.3032 7.19662C16.9127 6.8061 16.2795 6.8061 15.889 7.19662L7.40373 15.6819Z" fill="currentColor"/>
<path d="M15.8891 16.0961C16.4414 16.0961 16.8891 16.5438 16.8891 17.0961C16.8891 17.6484 16.4414 18.0961 15.8891 18.0961H7.40386C6.86847 18.0961 6.42806 17.6744 6.40481 17.1395L6.05125 9.00781C6.02726 8.45605 6.45511 7.98931 7.00687 7.96532C7.55864 7.94133 8.02538 8.36917 8.04937 8.92094L8.36133 16.0961H15.8891Z" fill="currentColor"/>
</svg>
