<svg width="24" height="24" viewBox="0 0 24 24" fill="none" xmlns="http://www.w3.org/2000/svg">
<path opacity="0.3" fill-rule="evenodd" clip-rule="evenodd" d="M3.5 21H20.5C21.3284 21 22 20.3284 22 19.5V8.5C22 7.67157 21.3284 7 20.5 7H10L7.43934 4.43934C7.15804 4.15804 6.7765 4 6.37868 4H3.5C2.67157 4 2 4.67157 2 5.5V19.5C2 20.3284 2.67157 21 3.5 21Z" fill="currentColor"/>
<path fill-rule="evenodd" clip-rule="evenodd" d="M14.8874 12.8307H12.9309V10.823C12.9309 10.5469 12.7071 10.323 12.4309 10.323H11.4076C11.1315 10.323 10.9076 10.5469 10.9076 10.823V12.8307H8.95117C8.67503 12.8307 8.45117 13.0545 8.45117 13.3307C8.45117 13.449 8.49313 13.5635 8.56958 13.6538L11.5377 17.1594C11.7161 17.3702 12.0316 17.3964 12.2424 17.2179C12.2635 17.2001 12.283 17.1805 12.3009 17.1594L15.269 13.6538C15.4474 13.443 15.4213 13.1275 15.2105 12.9491C15.1202 12.8726 15.0057 12.8307 14.8874 12.8307Z" fill="currentColor"/>
</svg>
