<svg width="24" height="24" viewBox="0 0 24 24" fill="none" xmlns="http://www.w3.org/2000/svg">
<path opacity="0.3" d="M5.85714 2H13.7364C14.0911 2 14.4343 2.12568 14.7051 2.35474L19.4687 6.38394C19.8057 6.66895 20 7.08788 20 7.5292V20.0833C20 21.8739 19.9796 22 18.1429 22H5.85714C4.02045 22 4 21.8739 4 20.0833V3.91667C4 2.12612 4.02045 2 5.85714 2Z" fill="currentColor"/>
<path fill-rule="evenodd" clip-rule="evenodd" d="M14.8874 11.8307H12.9309V9.823C12.9309 9.54686 12.7071 9.323 12.4309 9.323H11.4076C11.1315 9.323 10.9076 9.54686 10.9076 9.823V11.8307H8.95117C8.67503 11.8307 8.45117 12.0545 8.45117 12.3307C8.45117 12.449 8.49313 12.5635 8.56958 12.6538L11.5377 16.1594C11.7161 16.3702 12.0316 16.3964 12.2424 16.2179C12.2635 16.2001 12.283 16.1805 12.3009 16.1594L15.269 12.6538C15.4474 12.443 15.4213 12.1275 15.2105 11.9491C15.1202 11.8726 15.0057 11.8307 14.8874 11.8307Z" fill="currentColor"/>
</svg>
