<svg width="24" height="24" viewBox="0 0 24 24" fill="none" xmlns="http://www.w3.org/2000/svg">
<path opacity="0.3" d="M15.1819 17.0963C15.5724 17.4868 16.2056 17.4868 16.5961 17.0963C16.9866 16.7057 16.9866 16.0726 16.5961 15.6821L8.11083 7.19677C7.72031 6.80625 7.08715 6.80625 6.69662 7.19677C6.3061 7.5873 6.3061 8.22046 6.69662 8.61099L15.1819 17.0963Z" fill="currentColor"/>
<path d="M15.5961 8.61084C15.5961 8.05855 16.0438 7.61084 16.5961 7.61084C17.1484 7.61084 17.5961 8.05855 17.5961 8.61084V17.0961C17.5961 17.6315 17.1744 18.0719 16.6395 18.0952L8.50781 18.4487C7.95605 18.4727 7.48931 18.0449 7.46532 17.4931C7.44133 16.9413 7.86917 16.4746 8.42094 16.4506L15.5961 16.1387V8.61084Z" fill="currentColor"/>
</svg>
