<svg width="24" height="24" viewBox="0 0 24 24" fill="none" xmlns="http://www.w3.org/2000/svg">
<path opacity="0.3" fill-rule="evenodd" clip-rule="evenodd" d="M8.04037 3C8.31764 4.50769 9.98473 5.66667 11.9999 5.66667C14.015 5.66667 15.6821 4.50769 15.9594 3H18.3818C18.9341 3 19.3818 3.44772 19.3818 4C19.3818 4.15525 19.3457 4.30836 19.2763 4.44721L16.2763 10.4472C16.1069 10.786 15.7606 11 15.3818 11H8.6179C8.23912 11 7.89286 10.786 7.72347 10.4472L4.72347 4.44721C4.47648 3.95324 4.6767 3.35256 5.17068 3.10557C5.30954 3.03614 5.46265 3 5.61789 3H8.04037Z" fill="currentColor"/>
<path fill-rule="evenodd" clip-rule="evenodd" d="M9.35408 12H14.646C15.4638 12 16.1992 12.4979 16.5029 13.2572L19.4515 20.6286C19.6566 21.1414 19.4072 21.7234 18.8944 21.9285C18.7763 21.9757 18.6502 22 18.523 22H5.47705C4.92477 22 4.47705 21.5523 4.47705 21C4.47705 20.8728 4.50133 20.7467 4.54857 20.6286L7.49713 13.2572C7.80086 12.4979 8.53627 12 9.35408 12Z" fill="currentColor"/>
</svg>
