<svg width="24" height="24" viewBox="0 0 24 24" fill="none" xmlns="http://www.w3.org/2000/svg">
<path opacity="0.3" d="M12 21C16.9706 21 21 16.9706 21 12C21 7.02944 16.9706 3 12 3C7.02944 3 3 7.02944 3 12C3 16.9706 7.02944 21 12 21Z" fill="currentColor"/>
<path fill-rule="evenodd" clip-rule="evenodd" d="M11.1583 15.8732L15.1507 12.3907C15.3589 12.2092 15.3804 11.8934 15.1989 11.6853C15.1843 11.6685 15.1686 11.6528 15.1519 11.6382L11.1594 8.13375C10.9519 7.95159 10.636 7.97216 10.4538 8.17969C10.3737 8.27091 10.3296 8.38815 10.3296 8.50953V15.4964C10.3296 15.7725 10.5534 15.9964 10.8296 15.9964C10.9504 15.9964 11.0672 15.9526 11.1583 15.8732Z" fill="currentColor"/>
</svg>
