<svg width="24" height="24" viewBox="0 0 24 24" fill="none" xmlns="http://www.w3.org/2000/svg">
<path opacity="0.3" d="M21.6 11.2L19.3 8.89998V5.59993C19.3 4.99993 18.9 4.59993 18.3 4.59993H14.9L12.6 2.3C12.2 1.9 11.6 1.9 11.2 2.3L8.9 4.59993H5.6C5 4.59993 4.6 4.99993 4.6 5.59993V8.89998L2.3 11.2C1.9 11.6 1.9 12.1999 2.3 12.5999L4.6 14.9V18.2C4.6 18.8 5 19.2 5.6 19.2H8.9L11.2 21.5C11.6 21.9 12.2 21.9 12.6 21.5L14.9 19.2H18.2C18.8 19.2 19.2 18.8 19.2 18.2V14.9L21.5 12.5999C22 12.1999 22 11.6 21.6 11.2Z" fill="currentColor"/>
<path d="M11.3001 9.40002C11.3001 10.2 11.1001 10.9 10.7001 11.3C10.3001 11.7 9.80009 11.9 9.20009 11.9C8.80009 11.9 8.4001 11.8 8.1001 11.6C7.8001 11.4 7.5001 11.2 7.4001 10.8C7.2001 10.4 7.1001 10 7.1001 9.40002C7.1001 8.80002 7.2001 8.4 7.3001 8C7.4001 7.6 7.70009 7.29998 8.00009 7.09998C8.30009 6.89998 8.70009 6.80005 9.20009 6.80005C9.50009 6.80005 9.8001 6.9 10.1001 7C10.4001 7.1 10.6001 7.3 10.8001 7.5C11.0001 7.7 11.1001 8.00005 11.2001 8.30005C11.3001 8.60005 11.3001 9.00002 11.3001 9.40002ZM10.1001 9.40002C10.1001 8.80002 10.0001 8.39998 9.9001 8.09998C9.8001 7.79998 9.60009 7.70007 9.20009 7.70007C9.00009 7.70007 8.80009 7.80002 8.70009 7.90002C8.60009 8.00002 8.5001 8.2 8.4001 8.5C8.4001 8.7 8.3001 9.10002 8.3001 9.40002C8.3001 9.80002 8.3001 10.1 8.4001 10.4C8.4001 10.6 8.50009 10.8 8.70009 11C8.80009 11.1 9.00009 11.2001 9.20009 11.2001C9.50009 11.2001 9.7001 11.1 9.9001 10.8C10.0001 10.4 10.1001 10 10.1001 9.40002ZM14.9001 7.80005L9.4001 16.7001C9.3001 16.9001 9.1001 17.1 8.9001 17.1C8.8001 17.1 8.7001 17.1 8.6001 17C8.5001 16.9 8.4001 16.8001 8.4001 16.7001C8.4001 16.6001 8.40009 16.5 8.50009 16.4L14.0001 7.5C14.1001 7.3 14.2001 7.19998 14.3001 7.09998C14.4001 6.99998 14.5001 7 14.6001 7C14.7001 7 14.8001 6.99998 14.9001 7.09998C15.0001 7.19998 15.0001 7.30002 15.0001 7.40002C15.2001 7.30002 15.1001 7.50005 14.9001 7.80005ZM16.6001 14.2001C16.6001 15.0001 16.4001 15.7 16.0001 16.1C15.6001 16.5 15.1001 16.7001 14.5001 16.7001C14.1001 16.7001 13.7001 16.6 13.4001 16.4C13.1001 16.2 12.8001 16 12.7001 15.6C12.5001 15.2 12.4001 14.8001 12.4001 14.2001C12.4001 13.3001 12.6001 12.7 12.9001 12.3C13.2001 11.9 13.7001 11.7001 14.5001 11.7001C14.8001 11.7001 15.1001 11.8 15.4001 11.9C15.7001 12 15.9001 12.2 16.1001 12.4C16.3001 12.6 16.4001 12.9001 16.5001 13.2001C16.6001 13.4001 16.6001 13.8001 16.6001 14.2001ZM15.4001 14.1C15.4001 13.5 15.3001 13.1 15.2001 12.9C15.1001 12.6 14.9001 12.5 14.5001 12.5C14.3001 12.5 14.1001 12.6001 14.0001 12.7001C13.9001 12.8001 13.8001 13.0001 13.7001 13.2001C13.6001 13.4001 13.6001 13.8 13.6001 14.1C13.6001 14.7 13.7001 15.1 13.8001 15.4C13.9001 15.7 14.1001 15.8 14.5001 15.8C14.8001 15.8 15.0001 15.7 15.2001 15.4C15.3001 15.2 15.4001 14.7 15.4001 14.1Z" fill="currentColor"/>
</svg>
