<svg width="24" height="24" viewBox="0 0 24 24" fill="none" xmlns="http://www.w3.org/2000/svg">
<path fill-rule="evenodd" clip-rule="evenodd" d="M18.9014 12.9153L12.8984 5.91405C12.7187 5.70442 12.403 5.68019 12.1934 5.85993C12.1744 5.87623 12.1566 5.89392 12.1403 5.91288L6.09947 12.9141C5.91908 13.1232 5.94233 13.4389 6.1514 13.6193C6.24219 13.6976 6.35812 13.7407 6.47804 13.7407L18.5218 13.7407C18.798 13.7407 19.0218 13.5169 19.0218 13.2407C19.0218 13.1213 18.9791 13.0059 18.9014 12.9153Z" fill="currentColor"/>
<path opacity="0.3" d="M6 18.5L6 16.5C6 16.2239 6.22386 16 6.5 16L18.5 16C18.7761 16 19 16.2239 19 16.5V18.5C19 18.7761 18.7761 19 18.5 19L6.5 19C6.22386 19 6 18.7761 6 18.5Z" fill="currentColor"/>
</svg>
