<svg width="24" height="24" viewBox="0 0 24 24" fill="none" xmlns="http://www.w3.org/2000/svg">
<path d="M12.4409 22C13.5455 22 14.4409 21.1046 14.4409 20C14.4409 18.8954 13.5455 18 12.4409 18C11.3364 18 10.4409 18.8954 10.4409 20C10.4409 21.1046 11.3364 22 12.4409 22Z" fill="currentColor"/>
<path opacity="0.3" d="M9.04077 14.8L9.94077 16.1C10.6407 15.6 11.5407 15.3 12.4407 15.3C13.3407 15.3 14.2407 15.6 14.9407 16.1L15.8407 14.8C16.1407 14.3 16.0407 13.6 15.4407 13.4C14.5407 13 13.5407 12.7 12.4407 12.7C11.3407 12.7 10.3407 12.9 9.44077 13.4C8.84077 13.6 8.74077 14.3 9.04077 14.8Z" fill="currentColor"/>
<path opacity="0.3" d="M3.14096 5.80005L4.04095 7.19995C6.44095 5.59995 9.34094 4.69995 12.4409 4.69995C15.5409 4.69995 18.4409 5.59995 20.8409 7.19995L21.7409 5.80005C22.0409 5.30005 21.8409 4.70002 21.3409 4.40002C18.7409 2.90002 15.6409 2 12.4409 2C9.24094 2 6.14095 2.90002 3.54095 4.40002C3.04095 4.70002 2.84096 5.30005 3.14096 5.80005Z" fill="currentColor"/>
<path opacity="0.3" d="M6.14121 10.3L7.0412 11.7C8.6412 10.7 10.4412 10.1 12.5412 10.1C14.6412 10.1 16.4412 10.7 18.0412 11.7L18.9412 10.3C19.2412 9.80005 19.1412 9.10002 18.5412 8.90002C16.7412 7.90002 14.7412 7.40002 12.5412 7.40002C10.3412 7.40002 8.3412 7.90002 6.5412 8.90002C5.9412 9.10002 5.74121 9.80005 6.14121 10.3Z" fill="currentColor"/>
</svg>
