<svg width="24" height="24" viewBox="0 0 24 24" fill="none" xmlns="http://www.w3.org/2000/svg">
<path opacity="0.3" d="M15 19H7C5.9 19 5 18.1 5 17V7C5 5.9 5.9 5 7 5H15C16.1 5 17 5.9 17 7V17C17 18.1 16.1 19 15 19Z" fill="currentColor"/>
<path d="M8.49991 2H13.3999C13.9999 2 14.4999 2.4 14.5999 3L14.8999 5H6.8999L7.19991 3C7.39991 2.4 7.89991 2 8.49991 2ZM7.29991 21C7.39991 21.6 7.89991 22 8.49991 22H13.3999C13.9999 22 14.4999 21.6 14.5999 21L14.8999 19H6.8999L7.29991 21ZM18.2999 10.2C18.4999 9.39995 18.4999 8.49995 18.2999 7.69995C18.1999 7.29995 17.7999 6.90002 17.2999 6.90002H16.9999V10.9H17.2999C17.7999 11 18.1999 10.7 18.2999 10.2Z" fill="currentColor"/>
</svg>
