<svg width="24" height="24" viewBox="0 0 24 24" fill="none" xmlns="http://www.w3.org/2000/svg">
<path opacity="0.3" fill-rule="evenodd" clip-rule="evenodd" d="M10.5856 12.0001L5.46428 6.87876C5.07376 6.48824 5.07376 5.85507 5.46428 5.46455C5.8548 5.07402 6.48797 5.07402 6.87849 5.46455L11.9998 10.5859L18.1922 4.39348C18.5827 4.00295 19.2159 4.00295 19.6064 4.39348C19.9969 4.784 19.9969 5.41717 19.6064 5.80769L13.414 12.0001L19.6064 18.1925C19.9969 18.583 19.9969 19.2162 19.6064 19.6067C19.2159 19.9972 18.5827 19.9972 18.1922 19.6067L11.9998 13.4143L6.87849 18.5356C6.48797 18.9261 5.8548 18.9261 5.46428 18.5356C5.07376 18.1451 5.07376 17.5119 5.46428 17.1214L10.5856 12.0001Z" fill="currentColor"/>
<path d="M6 18H9C9.66667 18.1144 10 18.4477 10 19C10 19.5523 9.66667 19.8856 9 20H4V15C4 14.3333 4.33333 14 5 14C5.66667 14 6 14.3333 6 15V18ZM18 18V15C18.1144 14.3333 18.4477 14 19 14C19.5523 14 19.8856 14.3333 20 15V20H15C14.3333 20 14 19.6667 14 19C14 18.3333 14.3333 18 15 18H18ZM18 6H15C14.3333 5.88562 14 5.55228 14 5C14 4.44772 14.3333 4.11438 15 4H20V9C20 9.66667 19.6667 10 19 10C18.3333 10 18 9.66667 18 9V6ZM6 6V9C5.88562 9.66667 5.55228 10 5 10C4.44772 10 4.11438 9.66667 4 9V4H9C9.66667 4 10 4.33333 10 5C10 5.66667 9.66667 6 9 6H6Z" fill="currentColor"/>
</svg>
