<svg width="24" height="24" viewBox="0 0 24 24" fill="none" xmlns="http://www.w3.org/2000/svg">
<path fill-rule="evenodd" clip-rule="evenodd" d="M11.604 6H20V8H14V11.728H19.488V13.636H14V19H11.604V6Z" fill="currentColor"/>
<path opacity="0.3" fill-rule="evenodd" clip-rule="evenodd" d="M3.72021 8.92004C3.72021 8.52404 3.79521 8.15204 3.94521 7.80404C4.09522 7.45604 4.30221 7.15004 4.56621 6.88604C4.83022 6.62204 5.13621 6.41504 5.48422 6.26504C5.83222 6.11504 6.20421 6.04004 6.60021 6.04004C6.99622 6.04004 7.36821 6.11504 7.71621 6.26504C8.06422 6.41504 8.37021 6.62204 8.63421 6.88604C8.89822 7.15004 9.10521 7.45604 9.25521 7.80404C9.40522 8.15204 9.48021 8.52404 9.48021 8.92004C9.48021 9.31604 9.40522 9.68804 9.25521 10.036C9.10521 10.384 8.89822 10.69 8.63421 10.954C8.37021 11.218 8.06422 11.425 7.71621 11.575C7.36821 11.725 6.99622 11.8 6.60021 11.8C6.20421 11.8 5.83222 11.725 5.48422 11.575C5.13621 11.425 4.83022 11.218 4.56621 10.954C4.30221 10.69 4.09522 10.384 3.94521 10.036C3.79521 9.68804 3.72021 9.31604 3.72021 8.92004ZM5.12421 8.92004C5.12421 9.32804 5.26821 9.67604 5.55622 9.96404C5.84422 10.252 6.19221 10.396 6.60021 10.396C7.00822 10.396 7.35621 10.252 7.64421 9.96404C7.93222 9.67604 8.07621 9.32804 8.07621 8.92004C8.07621 8.51204 7.93222 8.16404 7.64421 7.87604C7.35621 7.58804 7.00822 7.44404 6.60021 7.44404C6.19221 7.44404 5.84422 7.58804 5.55622 7.87604C5.26821 8.16404 5.12421 8.51204 5.12421 8.92004Z" fill="currentColor"/>
</svg>
