<svg width="24" height="24" viewBox="0 0 24 24" fill="none" xmlns="http://www.w3.org/2000/svg">
<path opacity="0.3" fill-rule="evenodd" clip-rule="evenodd" d="M23.3744 18.8971C22.1318 21.0494 18.4103 21.2272 15.0623 19.2942C11.7142 17.3612 10.0074 14.0494 11.2501 11.8971C12.4927 9.74475 16.2142 9.56695 19.5623 11.4999C22.9103 13.4329 24.6171 16.7447 23.3744 18.8971Z" fill="currentColor"/>
<path opacity="0.3" d="M12.5 2C10.0147 2 8 5.13401 8 9C8 12.866 10.0147 16 12.5 16C14.9853 16 17 12.866 17 9C17 5.13401 14.9853 2 12.5 2Z" fill="currentColor"/>
<path opacity="0.3" fill-rule="evenodd" clip-rule="evenodd" d="M1.25007 18.8971C0.00743401 16.7447 1.7142 13.4329 5.06225 11.4999C8.4103 9.56695 12.1318 9.74475 13.3744 11.8971C14.6171 14.0494 12.9103 17.3612 9.56225 19.2942C6.2142 21.2272 2.49272 21.0494 1.25007 18.8971Z" fill="currentColor"/>
</svg>
