<svg width="24" height="24" viewBox="0 0 24 24" fill="none" xmlns="http://www.w3.org/2000/svg">
<path d="M16 3H5C4.4 3 4 3.4 4 4V5C4 5.6 4.4 6 5 6H16C16.6 6 17 5.6 17 5V4C17 3.4 16.6 3 16 3Z" fill="currentColor"/>
<path opacity="0.3" d="M19 11H5C4.4 11 4 10.6 4 10C4 9.4 4.4 9 5 9H19C19.6 9 20 9.4 20 10C20 10.6 19.6 11 19 11ZM20 15C20 14.4 19.6 14 19 14H5C4.4 14 4 14.4 4 15C4 15.6 4.4 16 5 16H19C19.6 16 20 15.6 20 15ZM16 20C16 19.4 15.6 19 15 19H5C4.4 19 4 19.4 4 20C4 20.6 4.4 21 5 21H15C15.6 21 16 20.6 16 20Z" fill="currentColor"/>
</svg>
