<svg width="24" height="24" viewBox="0 0 24 24" fill="none" xmlns="http://www.w3.org/2000/svg">
<path opacity="0.3" d="M21 5C20.4 5 20 5.4 20 6V10H16V6C16 5.4 15.6 5 15 5C14.4 5 14 5.4 14 6V10H10V6C10 5.4 9.6 5 9 5C8.4 5 8 5.4 8 6V10H4V6C4 5.4 3.6 5 3 5C2.4 5 2 5.4 2 6V21C2 21.6 2.4 22 3 22H21C21.6 22 22 21.6 22 21V6C22 5.4 21.6 5 21 5ZM20 12V15H16V12H20ZM14 12V15H10V12H14ZM14 17V20H10V17H14ZM8 12V15H4V12H8ZM4 17H8V20H4V17ZM16 20V17H20V20H16Z" fill="currentColor"/>
<path d="M21 2H3C2.4 2 2 2.4 2 3V6C2 6.6 2.4 7 3 7H21C21.6 7 22 6.6 22 6V3C22 2.4 21.6 2 21 2Z" fill="currentColor"/>
</svg>
