<svg width="24" height="24" viewBox="0 0 24 24" fill="none" xmlns="http://www.w3.org/2000/svg">
<path opacity="0.3" fill-rule="evenodd" clip-rule="evenodd" d="M20 19H2C1.4 19 1 18.6 1 18V6C1 5.4 1.4 5 2 5H20C20.6 5 21 5.4 21 6V18C21 18.6 20.6 19 20 19ZM18 9C18 8.44772 17.5523 8 17 8H4C3.44772 8 3 8.44772 3 9C3 9.55228 3.44772 10 4 10H17C17.5523 10 18 9.55228 18 9ZM13 13C13 12.4477 12.5523 12 12 12H4C3.44772 12 3 12.4477 3 13C3 13.5523 3.44772 14 4 14H12C12.5523 14 13 13.5523 13 13Z" fill="currentColor"/>
<path opacity="0.3" d="M23.7002 11.1765L22.6207 12.2555L19.7427 9.3775L20.8217 8.29797C21.0126 8.10711 21.2715 7.99994 21.5415 7.99994C21.8114 7.99994 22.0703 8.10711 22.2612 8.29797L23.7002 9.737C23.8911 9.9279 23.9983 10.1868 23.9983 10.4567C23.9983 10.7267 23.8911 10.9856 23.7002 11.1765ZM14.8437 17.966L17.9437 16.9325L15.0657 14.0545L14.0322 17.1545C13.9943 17.2677 13.9887 17.3893 14.0162 17.5055C14.0436 17.6218 14.1029 17.728 14.1875 17.8124C14.272 17.8967 14.3784 17.9557 14.4947 17.9829C14.611 18.01 14.7326 18.0042 14.8457 17.966H14.8437Z" fill="currentColor"/>
<path d="M15.7872 17.65L14.8462 17.964C14.7331 18.0016 14.6119 18.007 14.4959 17.9797C14.38 17.9523 14.2739 17.8932 14.1896 17.8089C14.1054 17.7247 14.0462 17.6187 14.0187 17.5028C13.9913 17.3868 13.9966 17.2656 14.0342 17.1525L14.3482 16.211L15.7872 17.65ZM15.0677 14.0525L17.9457 16.9305L22.6227 12.2535L19.7447 9.37549L15.0677 14.0525Z" fill="currentColor"/>
</svg>
