<svg width="24" height="24" viewBox="0 0 24 24" fill="none" xmlns="http://www.w3.org/2000/svg">
<path opacity="0.3" d="M14.8 11.4H5C4.4 11.4 4 11 4 10.4C4 9.80002 4.4 9.40002 5 9.40002H14.8C15.4 9.40002 15.8 9.80002 15.8 10.4C15.8 11 15.3 11.4 14.8 11.4ZM14.7 13.7999C14.7 13.1999 14.3 12.7999 13.7 12.7999H5C4.4 12.7999 4 13.1999 4 13.7999C4 14.3999 4.4 14.7999 5 14.7999H13.8C14.3 14.7999 14.7 14.2999 14.7 13.7999Z" fill="currentColor"/>
<path d="M17.8 15.5C17.9 15.7 18 15.9 18.1 16.1C18.2 16.7 17.7 17.2 17.4 17.6C16.9 18.1 16.3 18.4999 15.6 18.7999C14.9 19.0999 14 19.2999 13.1 19.2999C12.4 19.2999 11.7 19.2 11.1 19.1C10.5 19 10 18.7 9.5 18.5C9 18.2 8.60001 17.7999 8.20001 17.2999C7.80001 16.8999 7.49999 16.3999 7.29999 15.7999C7.09999 15.1999 6.80001 14.7 6.70001 14.1C6.60001 13.5 6.5 12.8 6.5 12.2C6.5 11.1 6.7 10.1 7 9.19995C7.3 8.29995 7.79999 7.60002 8.39999 6.90002C8.99999 6.30002 9.7 5.8 10.5 5.5C11.3 5.2 12.2 5 13.1 5C14.2 5 15.2 5.19995 16.1 5.69995C16.8 6.09995 17.7 6.6 17.8 7.5C17.8 7.9 17.6 8.29998 17.3 8.59998C17.2 8.69998 17.1 8.69993 17 8.79993C16.7 8.89993 16.4 8.79995 16.2 8.69995C15.7 8.49995 15.5 7.99995 15 7.69995C14.5 7.39995 13.9 7.19995 13.2 7.19995C12.1 7.19995 11.1 7.6 10.5 8.5C9.9 9.4 9.5 10.6 9.5 12.2C9.5 13.3 9.7 14.2 10 14.9C10.3 15.6 10.7 16.1 11.3 16.5C11.9 16.9 12.5 17 13.2 17C14 17 14.7 16.8 15.2 16.4C15.8 16 16.2 15.2 16.9 15.1C17 15 17.5 15.2 17.8 15.5Z" fill="currentColor"/>
</svg>
