<svg width="24" height="24" viewBox="0 0 24 24" fill="none" xmlns="http://www.w3.org/2000/svg">
<path opacity="0.3" fill-rule="evenodd" clip-rule="evenodd" d="M7.22297 10.4938C7.44647 10.4924 7.67002 10.504 7.89243 10.5285C7.95407 11.0883 7.93387 11.6554 7.83182 12.2105C7.93387 12.7655 7.95407 13.3326 7.89243 13.8924C7.67002 13.9169 7.44647 13.9285 7.22297 13.9271C6.96553 14.3979 6.63752 14.8403 6.23893 15.2389C4.95175 16.5261 3.20728 17.0773 1.52847 16.8924C1.34498 15.226 1.88672 13.4948 3.15368 12.2105C1.88672 10.9261 1.34498 9.19493 1.52847 7.52847C3.20728 7.34362 4.95175 7.89479 6.23893 9.18197C6.63752 9.58056 6.96553 10.023 7.22297 10.4938Z" fill="currentColor"/>
<path fill-rule="evenodd" clip-rule="evenodd" d="M14.0001 6C17.8134 6 21.2113 9.14928 23.4094 12.5952C21.2113 15.8507 17.8134 19 14.0001 19C10.1868 19 6.78887 15.8507 4.59082 12.5952C6.78887 9.14928 10.1868 6 14.0001 6ZM20.0001 13C20.5524 13 21.0001 12.5523 21.0001 12C21.0001 11.4477 20.5524 11 20.0001 11C19.4478 11 19.0001 11.4477 19.0001 12C19.0001 12.5523 19.4478 13 20.0001 13Z" fill="currentColor"/>
</svg>
