<svg width="24" height="24" viewBox="0 0 24 24" fill="none" xmlns="http://www.w3.org/2000/svg">
<path fill-rule="evenodd" clip-rule="evenodd" d="M6 10V6H18V10C16 11.5198 15 12.8531 15 14V18V20C15 21.1046 14.1046 22 13 22H11C9.89543 22 9 21.1046 9 20V18V14C9 12.3333 8 11 6 10ZM12 11C10.8954 11 10 11.8954 10 13V15C10 16.1046 10.8954 17 12 17C13.1046 17 14 16.1046 14 15V13C14 11.8954 13.1046 11 12 11ZM12 14C11.4477 14 11 13.5523 11 13C11 12.4477 11.4477 12 12 12C12.5523 12 13 12.4477 13 13C13 13.5523 12.5523 14 12 14Z" fill="currentColor"/>
<path opacity="0.3" fill-rule="evenodd" clip-rule="evenodd" d="M7 2H17C17.5523 2 18 2.44772 18 3V4H6V3C6 2.44772 6.44772 2 7 2Z" fill="currentColor"/>
</svg>
