<svg width="24" height="24" viewBox="0 0 24 24" fill="none" xmlns="http://www.w3.org/2000/svg">
<path d="M9 21C12.3137 21 15 18.3137 15 15C15 11.6863 12.3137 9 9 9C5.68629 9 3 11.6863 3 15C3 18.3137 5.68629 21 9 21Z" fill="currentColor"/>
<path opacity="0.3" fill-rule="evenodd" clip-rule="evenodd" d="M8.80127 7.00242C9.83835 5.20768 11.7781 4 14 4C17.3137 4 20 6.68629 20 10C20 12.2218 18.7923 14.1616 16.9976 15.1987C16.9992 15.1327 17 15.0664 17 15C17 10.5817 13.4183 7 8.99998 7C8.93355 7 8.86731 7.00081 8.80127 7.00242Z" fill="currentColor"/>
</svg>
