<svg width="24" height="24" viewBox="0 0 24 24" fill="none" xmlns="http://www.w3.org/2000/svg">
<path opacity="0.3" fill-rule="evenodd" clip-rule="evenodd" d="M5.0001 3.73854L5.0001 8.50002C5.0001 8.77616 5.22396 9.00002 5.5001 9.00002L17.4038 9.00002C17.68 9.00002 17.9038 8.77616 17.9038 8.50002C17.9038 8.29557 17.7793 8.11171 17.5895 8.03578L5.68579 3.2743C5.4294 3.17174 5.13842 3.29645 5.03586 3.55284C5.01224 3.6119 5.0001 3.67493 5.0001 3.73854Z" fill="currentColor"/>
<path fill-rule="evenodd" clip-rule="evenodd" d="M5.0001 20.2615L5.0001 15.5C5.0001 15.2238 5.22396 15 5.5001 15L17.4038 15C17.68 15 17.9038 15.2238 17.9038 15.5C17.9038 15.7044 17.7793 15.8883 17.5895 15.9642L5.6858 20.7257C5.4294 20.8283 5.13842 20.7036 5.03586 20.4472C5.01224 20.3881 5.0001 20.3251 5.0001 20.2615Z" fill="currentColor"/>
<path opacity="0.3" d="M21 13C21.5523 13 22 12.5523 22 12C22 11.4477 21.5523 11 21 11L3 11C2.44772 11 2 11.4477 2 12C2 12.5523 2.44772 13 3 13L21 13Z" fill="currentColor"/>
</svg>
