<svg width="24" height="24" viewBox="0 0 24 24" fill="none" xmlns="http://www.w3.org/2000/svg">
<path opacity="0.3" fill-rule="evenodd" clip-rule="evenodd" d="M3.73841 19H8.4999C8.77604 19 8.9999 18.7762 8.9999 18.5V6.59631C8.9999 6.32017 8.77604 6.09631 8.4999 6.09631C8.29545 6.09631 8.11159 6.22079 8.03566 6.41062L3.27418 18.3143C3.17162 18.5707 3.29633 18.8617 3.55272 18.9643C3.61178 18.9879 3.6748 19 3.73841 19Z" fill="currentColor"/>
<path fill-rule="evenodd" clip-rule="evenodd" d="M20.2616 19H15.5001C15.224 19 15.0001 18.7762 15.0001 18.5V6.59631C15.0001 6.32017 15.224 6.09631 15.5001 6.09631C15.7046 6.09631 15.8884 6.22079 15.9643 6.41062L20.7258 18.3143C20.8284 18.5707 20.7037 18.8617 20.4473 18.9643C20.3882 18.9879 20.3252 19 20.2616 19Z" fill="currentColor"/>
<path opacity="0.3" d="M13 3C13 2.44772 12.5523 2 12 2C11.4477 2 11 2.44772 11 3V21C11 21.5523 11.4477 22 12 22C12.5523 22 13 21.5523 13 21V3Z" fill="currentColor"/>
</svg>
