<svg width="24" height="24" viewBox="0 0 24 24" fill="none" xmlns="http://www.w3.org/2000/svg">
<path opacity="0.3" fill-rule="evenodd" clip-rule="evenodd" d="M5.13356 2.03597C12.0784 5.9121 14.5784 10.2422 12.6336 15.0264C7.66227 14.2353 5.16227 9.90515 5.13356 2.03597Z" fill="currentColor"/>
<path opacity="0.3" fill-rule="evenodd" clip-rule="evenodd" d="M18.7414 2.03597C11.7966 5.9121 9.29655 10.2422 11.2414 15.0264C16.2127 14.2353 18.7127 9.90515 18.7414 2.03597Z" fill="currentColor"/>
<path opacity="0.3" fill-rule="evenodd" clip-rule="evenodd" d="M12.0002 1C7.92377 7.82927 7.92377 12.8293 12.0002 16C15.9099 12.8293 15.9099 7.82927 12.0002 1Z" fill="currentColor"/>
<path fill-rule="evenodd" clip-rule="evenodd" d="M6.34401 13H17.656C18.2082 13 18.656 13.4477 18.656 14C18.656 14.0973 18.6417 14.1941 18.6138 14.2873L16.4276 21.5747C16.1738 22.4207 15.3951 23 14.5119 23H9.48804C8.60483 23 7.82618 22.4207 7.57239 21.5747L5.38619 14.2873C5.22749 13.7584 5.52767 13.2009 6.05667 13.0422C6.14989 13.0142 6.24669 13 6.34401 13Z" fill="currentColor"/>
</svg>
