<svg width="24" height="24" viewBox="0 0 24 24" fill="none" xmlns="http://www.w3.org/2000/svg">
<path opacity="0.3" d="M15 22C17.7614 22 20 19.7614 20 17C20 14.2386 17.7614 12 15 12C12.2386 12 10 14.2386 10 17C10 19.7614 12.2386 22 15 22Z" fill="currentColor"/>
<path opacity="0.3" d="M9 22C11.7614 22 14 19.7614 14 17C14 14.2386 11.7614 12 9 12C6.23858 12 4 14.2386 4 17C4 19.7614 6.23858 22 9 22Z" fill="currentColor"/>
<path opacity="0.3" d="M7 16C9.76142 16 12 13.7614 12 11C12 8.23858 9.76142 6 7 6C4.23858 6 2 8.23858 2 11C2 13.7614 4.23858 16 7 16Z" fill="currentColor"/>
<path opacity="0.3" d="M17 16C19.7614 16 22 13.7614 22 11C22 8.23858 19.7614 6 17 6C14.2386 6 12 8.23858 12 11C12 13.7614 14.2386 16 17 16Z" fill="currentColor"/>
<path opacity="0.3" d="M12 12C14.7614 12 17 9.76142 17 7C17 4.23858 14.7614 2 12 2C9.23858 2 7 4.23858 7 7C7 9.76142 9.23858 12 12 12Z" fill="currentColor"/>
</svg>
