<svg width="24" height="24" viewBox="0 0 24 24" fill="none" xmlns="http://www.w3.org/2000/svg">
<path opacity="0.3" d="M21 5H3C2.44772 5 2 5.44772 2 6C2 6.55228 2.44772 7 3 7H21C21.5523 7 22 6.55228 22 6C22 5.44772 21.5523 5 21 5Z" fill="currentColor"/>
<path opacity="0.3" d="M21 17H3C2.44772 17 2 17.4477 2 18C2 18.5523 2.44772 19 3 19H21C21.5523 19 22 18.5523 22 18C22 17.4477 21.5523 17 21 17Z" fill="currentColor"/>
<path opacity="0.3" d="M6 9H3C2.44772 9 2 9.44772 2 10C2 10.5523 2.44772 11 3 11H6C6.55228 11 7 10.5523 7 10C7 9.44772 6.55228 9 6 9Z" fill="currentColor"/>
<path opacity="0.3" d="M21 13H17C16.4477 13 16 13.4477 16 14C16 14.5523 16.4477 15 17 15H21C21.5523 15 22 14.5523 22 14C22 13.4477 21.5523 13 21 13Z" fill="currentColor"/>
<path opacity="0.3" d="M21 9H10C9.44772 9 9 9.44772 9 10C9 10.5523 9.44772 11 10 11H21C21.5523 11 22 10.5523 22 10C22 9.44772 21.5523 9 21 9Z" fill="currentColor"/>
<path opacity="0.3" d="M13 13H3C2.44772 13 2 13.4477 2 14C2 14.5523 2.44772 15 3 15H13C13.5523 15 14 14.5523 14 14C14 13.4477 13.5523 13 13 13Z" fill="currentColor"/>
</svg>
