<svg width="24" height="24" viewBox="0 0 24 24" fill="none" xmlns="http://www.w3.org/2000/svg">
<path fill-rule="evenodd" clip-rule="evenodd" d="M2 13.15V5.5C2 4.67157 2.67157 4 3.5 4H6.37868C6.7765 4 7.15804 4.15804 7.43934 4.43934L10 7H20.5C21.3284 7 22 7.67157 22 8.5V19.5C22 20.3284 21.3284 21 20.5 21H10.9836C10.9945 20.8347 11 20.668 11 20.5C11 16.3579 7.64214 13 3.5 13C2.9863 13 2.48466 13.0516 2 13.15Z" fill="currentColor"/>
<path opacity="0.3" fill-rule="evenodd" clip-rule="evenodd" d="M4.5 16C5.05228 16 5.5 16.4477 5.5 17V19C5.5 19.5523 5.05228 20 4.5 20C3.94772 20 3.5 19.5523 3.5 19V17C3.5 16.4477 3.94772 16 4.5 16ZM4.5 23C3.94772 23 3.5 22.5523 3.5 22C3.5 21.4477 3.94772 21 4.5 21C5.05228 21 5.5 21.4477 5.5 22C5.5 22.5523 5.05228 23 4.5 23Z" fill="currentColor"/>
</svg>
