<svg width="24" height="24" viewBox="0 0 24 24" fill="none" xmlns="http://www.w3.org/2000/svg">
<path opacity="0.3" fill-rule="evenodd" clip-rule="evenodd" d="M3.5 21H20.5C21.3284 21 22 20.3284 22 19.5V8.5C22 7.67157 21.3284 7 20.5 7H10L7.43934 4.43934C7.15804 4.15804 6.7765 4 6.37868 4H3.5C2.67157 4 2 4.67157 2 5.5V19.5C2 20.3284 2.67157 21 3.5 21Z" fill="currentColor"/>
<path opacity="0.3" d="M14.3501 10.5C13.5453 10.5 12.6042 11.4123 12.1001 12C11.596 11.4123 10.6548 10.5 9.8501 10.5C8.4256 10.5 7.6001 11.6111 7.6001 13.0252C7.6001 14.5917 9.1001 16.25 12.1001 18C15.1001 16.25 16.6001 14.625 16.6001 13.125C16.6001 11.7109 15.7746 10.5 14.3501 10.5Z" fill="currentColor"/>
</svg>
