<svg width="24" height="24" viewBox="0 0 24 24" fill="none" xmlns="http://www.w3.org/2000/svg">
<path opacity="0.3" fill-rule="evenodd" clip-rule="evenodd" d="M3.5 21H20.5C21.3284 21 22 20.3284 22 19.5V8.5C22 7.67157 21.3284 7 20.5 7H10L7.43934 4.43934C7.15804 4.15804 6.7765 4 6.37868 4H3.5C2.67157 4 2 4.67157 2 5.5V19.5C2 20.3284 2.67157 21 3.5 21Z" fill="currentColor"/>
<path opacity="0.3" fill-rule="evenodd" clip-rule="evenodd" d="M12.6705 18.7881L15.9696 13.8394C16.1994 13.4948 16.1062 13.0291 15.7616 12.7993C15.6384 12.7172 15.4936 12.6734 15.3456 12.6734H12.6591V9.69995C12.6591 9.28574 12.3233 8.94995 11.9091 8.94995C11.6583 8.94995 11.4241 9.07528 11.285 9.28393L7.98591 14.2326C7.75614 14.5773 7.84927 15.0429 8.19392 15.2727C8.31712 15.3548 8.46187 15.3986 8.60994 15.3986H11.2964V18.3721C11.2964 18.7863 11.6322 19.1221 12.0464 19.1221C12.2972 19.1221 12.5314 18.9968 12.6705 18.7881Z" fill="currentColor"/>
</svg>
