<svg width="24" height="24" viewBox="0 0 24 24" fill="none" xmlns="http://www.w3.org/2000/svg">
<path fill-rule="evenodd" clip-rule="evenodd" d="M0.180176 18.9999L7.10018 4.63989L14.0202 18.9999H12.0602L10.3002 15.2799H3.90018L2.14018 18.9999H0.180176ZM7.10018 8.51989L4.70018 13.5999H9.50018L7.10018 8.51989Z" fill="currentColor"/>
<path opacity="0.3" fill-rule="evenodd" clip-rule="evenodd" d="M21.3401 19.0001V18.0001C20.5001 18.7601 19.3801 19.1601 18.1601 19.1601C15.2201 19.1601 13.0601 16.9001 13.0601 14.0001C13.0601 11.1001 15.2201 8.84009 18.1601 8.84009C19.3801 8.84009 20.5001 9.24009 21.3401 10.0001V9.00009H23.0601V19.0001H21.3401ZM18.2001 17.5401C19.6401 17.5401 20.7601 16.8601 21.3401 15.9201V12.0801C20.7601 11.1401 19.6401 10.4601 18.2001 10.4601C16.2401 10.4601 14.8401 12.0201 14.8401 14.0001C14.8401 15.9801 16.2401 17.5401 18.2001 17.5401Z" fill="currentColor"/>
</svg>
