<svg width="24" height="24" viewBox="0 0 24 24" fill="none" xmlns="http://www.w3.org/2000/svg">
<path fill-rule="evenodd" clip-rule="evenodd" d="M11 3L11.4502 7.50248C11.4785 7.78492 11.7162 8 12 8C12.2838 8 12.5215 7.78492 12.5498 7.50248L13 3H14L14.4502 7.50248C14.4785 7.78492 14.7162 8 15 8C15.2838 8 15.5215 7.78492 15.5498 7.50248L16 3H17V7.5C17 9.433 15.433 11 13.5 11C11.567 11 10 9.433 10 7.5V3H11Z" fill="currentColor"/>
<path opacity="0.3" fill-rule="evenodd" clip-rule="evenodd" d="M13.5 13C14.0611 13 14.5244 13.4383 14.5555 13.9985L14.9168 20.5023C14.9603 21.2848 14.3612 21.9543 13.5787 21.9978C13.5525 21.9993 13.5263 22 13.5 22C12.7164 22 12.0811 21.3647 12.0811 20.581C12.0811 20.5548 12.0818 20.5285 12.0832 20.5023L12.4446 13.9985C12.4757 13.4383 12.939 13 13.5 13Z" fill="currentColor"/>
<path opacity="0.3" fill-rule="evenodd" clip-rule="evenodd" d="M21.5002 15C22.0636 15 22.5313 15.4354 22.5714 15.9975L22.8933 20.5038C22.9483 21.2732 22.3691 21.9415 21.5997 21.9965C21.5666 21.9988 21.5334 22 21.5002 22C20.7288 22 20.1035 21.3747 20.1035 20.6033C20.1035 20.5701 20.1047 20.5369 20.1071 20.5038L20.4289 15.9975C20.4691 15.4354 20.9367 15 21.5002 15Z" fill="currentColor"/>
<path fill-rule="evenodd" clip-rule="evenodd" d="M20 3V13H24V7C24 4.79086 22.2091 3 20 3Z" fill="currentColor"/>
<path opacity="0.3" fill-rule="evenodd" clip-rule="evenodd" d="M4.5 14C5.06209 14 5.52731 14.437 5.56238 14.9981L5.90643 20.5029C5.95498 21.2797 5.36465 21.9487 4.5879 21.9973C4.55863 21.9991 4.52932 22 4.5 22C3.72173 22 3.09082 21.3691 3.09082 20.5908C3.09082 20.5615 3.09174 20.5322 3.09356 20.5029L3.43762 14.9981C3.47268 14.437 3.9379 14 4.5 14Z" fill="currentColor"/>
<path fill-rule="evenodd" clip-rule="evenodd" d="M4.5 12C2.567 12 1 9.433 1 7.5C1 5.567 2.567 3 4.5 3C6.433 3 8 5.567 8 7.5C8 9.433 6.433 12 4.5 12ZM4.50954 4.60103L4.56069 9.94758C5.61891 9.85786 6.45856 8.97981 6.4775 7.89491C6.49729 6.76103 5.63275 4.70471 4.50954 4.60103Z" fill="currentColor"/>
</svg>
