<svg width="24" height="24" viewBox="0 0 24 24" fill="none" xmlns="http://www.w3.org/2000/svg">
<path opacity="0.3" fill-rule="evenodd" clip-rule="evenodd" d="M9.37853 13.9142L10.0856 14.6213C10.4762 15.0119 10.4762 15.645 10.0856 16.0356L5.13589 20.9853C4.74537 21.3758 4.1122 21.3758 3.72168 20.9853L3.01457 20.2782C2.62405 19.8877 2.62405 19.2545 3.01457 18.864L7.96432 13.9142C8.35485 13.5237 8.98801 13.5237 9.37853 13.9142Z" fill="currentColor"/>
<path fill-rule="evenodd" clip-rule="evenodd" d="M15.5608 2.98958L12.2474 7.17819C11.9998 7.49118 12.0259 7.93998 12.3081 8.22217C12.5903 8.50435 13.0391 8.53044 13.3521 8.28286L17.5407 4.96948L18.5306 5.95943L15.2172 10.148C14.9697 10.461 14.9957 10.9098 15.2779 11.192C15.5601 11.4742 16.0089 11.5003 16.3219 11.2527L20.5105 7.93932L21.2176 8.64643L16.975 12.8891C15.4129 14.4512 12.8802 14.4512 11.3181 12.8891L10.611 12.182C9.04893 10.6199 9.04893 8.08721 10.611 6.52511L14.8537 2.28247L15.5608 2.98958Z" fill="currentColor"/>
</svg>
