<svg width="24" height="24" viewBox="0 0 24 24" fill="none" xmlns="http://www.w3.org/2000/svg">
<path fill-rule="evenodd" clip-rule="evenodd" d="M15 3L15.4502 7.50248C15.4785 7.78492 15.7162 8 16 8C16.2838 8 16.5215 7.78492 16.5498 7.50248L17 3H18L18.4502 7.50248C18.4785 7.78492 18.7162 8 19 8C19.2838 8 19.5215 7.78492 19.5498 7.50248L20 3H21V7.5C21 9.433 19.433 11 17.5 11C15.567 11 14 9.433 14 7.5V3H15Z" fill="currentColor"/>
<path opacity="0.3" fill-rule="evenodd" clip-rule="evenodd" d="M17.5 13C18.0611 13 18.5244 13.4383 18.5555 13.9985L18.9168 20.5023C18.9603 21.2848 18.3612 21.9543 17.5787 21.9978C17.5525 21.9993 17.5263 22 17.5 22C16.7164 22 16.0811 21.3647 16.0811 20.581C16.0811 20.5548 16.0818 20.5285 16.0832 20.5023L16.4446 13.9985C16.4757 13.4383 16.939 13 17.5 13Z" fill="currentColor"/>
<path opacity="0.3" fill-rule="evenodd" clip-rule="evenodd" d="M7.5 14C8.06209 14 8.52731 14.437 8.56238 14.9981L8.90643 20.5029C8.95498 21.2797 8.36465 21.9487 7.5879 21.9973C7.55863 21.9991 7.52932 22 7.5 22C6.72173 22 6.09082 21.3691 6.09082 20.5908C6.09082 20.5615 6.09174 20.5322 6.09356 20.5029L6.43762 14.9981C6.47268 14.437 6.9379 14 7.5 14Z" fill="currentColor"/>
<path fill-rule="evenodd" clip-rule="evenodd" d="M7.5 12C5.567 12 4 9.433 4 7.5C4 5.567 5.567 3 7.5 3C9.433 3 11 5.567 11 7.5C11 9.433 9.433 12 7.5 12ZM7.50954 4.60103L7.56069 9.94758C8.61891 9.85786 9.45856 8.97981 9.4775 7.89491C9.49729 6.76103 8.63275 4.70471 7.50954 4.60103Z" fill="currentColor"/>
</svg>
