<svg width="24" height="24" viewBox="0 0 24 24" fill="none" xmlns="http://www.w3.org/2000/svg">
<path d="M13 10V5.67017C13 5.25595 13.3358 4.92017 13.75 4.92017C13.9337 4.92017 14.111 4.98757 14.2483 5.10961L21.4055 11.4716C21.7151 11.7468 21.743 12.2208 21.4678 12.5304C21.458 12.5414 21.4479 12.5521 21.4375 12.5625L14.2803 19.7197C13.9874 20.0126 13.5126 20.0126 13.2197 19.7197C13.079 19.579 13 19.3883 13 19.1894V15C11.6528 14.9189 8.82236 14.9158 4.50867 14.9909V14.9909C4.23258 14.9957 4.00487 14.7758 4.00007 14.4997C4.00002 14.4968 3.99999 14.4939 3.99999 14.491L3.99994 10.5051C3.99994 10.2289 4.22382 10.005 4.49999 10.005C4.50161 10.005 4.50322 10.005 4.50484 10.005C9.63562 10.0548 12.4673 10.0531 13 10Z" fill="currentColor"/>
</svg>
