<svg width="24" height="24" viewBox="0 0 24 24" fill="none" xmlns="http://www.w3.org/2000/svg">
<path fill-rule="evenodd" clip-rule="evenodd" d="M11.1954 6.19216C11.2941 6.26576 11.4081 6.32225 11.5343 6.35606L14.803 7.2319C15.3364 7.37484 15.8848 7.05826 16.0277 6.52479C16.1707 5.99133 15.8541 5.44299 15.3206 5.30005L13.2275 4.7392C16.4954 2.66175 19.4878 2.01725 20.8388 3.3682C22.7914 5.32082 20.5753 10.7027 15.889 15.389C11.2027 20.0753 5.82082 22.2914 3.8682 20.3388C2.62541 19.096 3.07134 16.464 4.76806 13.5064C4.78969 13.5138 4.81171 13.5205 4.83412 13.5265L7.7319 14.303C8.26537 14.4459 8.8137 14.1293 8.95664 13.5959C9.09959 13.0624 8.783 12.5141 8.24954 12.3711L5.90327 11.7424C6.37493 11.0805 6.90168 10.4129 7.47902 9.75071C7.4968 9.75655 7.51484 9.76193 7.53314 9.76683L11.2674 10.7674C11.8009 10.9104 12.3492 10.5938 12.4922 10.0603C12.6351 9.52686 12.3185 8.97852 11.7851 8.83558L9.03855 8.09965C9.74787 7.40519 10.4715 6.76742 11.1954 6.19216Z" fill="currentColor"/>
</svg>
