<svg width="24" height="24" viewBox="0 0 24 24" fill="none" xmlns="http://www.w3.org/2000/svg">
<path opacity="0.3" fill-rule="evenodd" clip-rule="evenodd" d="M11 10.5L10.5 11L4.73915 8.37591C3.2592 7.70178 2.60595 5.95556 3.28008 4.47561C3.43328 4.13928 3.64843 3.83479 3.91428 3.57806C5.06945 2.46253 6.91022 2.49466 8.02575 3.64983C8.28722 3.92058 8.49363 4.23953 8.63353 4.58897L11 10.5ZM4.90665 4.60569C4.33383 5.15886 4.31377 6.06737 4.86184 6.63491C5.40991 7.20246 6.31857 7.21411 6.89139 6.66095C7.46421 6.10778 7.48427 5.19927 6.9362 4.63172C6.38813 4.06418 5.47947 4.05252 4.90665 4.60569Z" fill="currentColor"/>
<path fill-rule="evenodd" clip-rule="evenodd" d="M9.93941 19.9246C7.20574 17.1909 7.20574 12.7588 9.93941 10.0251C12.6731 7.29144 17.1052 7.29144 19.8389 10.0251C22.5726 12.7588 22.5726 17.1909 19.8389 19.9246C17.1052 22.6583 12.6731 22.6583 9.93941 19.9246ZM15.0001 20.5C18.0376 20.5 20.5001 18.0375 20.5001 15C20.5001 11.9624 18.0376 9.49998 15.0001 9.49998C11.9625 9.49998 9.50007 11.9624 9.50007 15C9.50007 18.0375 11.9625 20.5 15.0001 20.5ZM15.0001 19.5C12.5148 19.5 10.5001 17.4853 10.5001 15C10.5001 12.5147 12.5148 10.5 15.0001 10.5C17.4854 10.5 19.5001 12.5147 19.5001 15C19.5001 17.4853 17.4854 19.5 15.0001 19.5Z" fill="currentColor"/>
</svg>
