<svg width="24" height="24" viewBox="0 0 24 24" fill="none" xmlns="http://www.w3.org/2000/svg">
<path fill-rule="evenodd" clip-rule="evenodd" d="M2 12C2 15.3137 4.68629 18 8 18C11.3137 18 14 15.3137 14 12C14 8.68629 11.3137 6 8 6C4.68629 6 2 8.68629 2 12ZM8.43695 8.30359C8.43695 8.05095 8.23215 7.84615 7.97951 7.84615C7.72688 7.84615 7.52208 8.05095 7.52208 8.30359V8.80105C7.13973 8.86879 6.77513 9.02252 6.47338 9.26223C6.0389 9.60738 5.79451 10.0853 5.79451 10.5908C5.79451 11.0962 6.0389 11.5742 6.47338 11.9193C6.77984 12.1628 7.14556 12.3138 7.52208 12.3805V14.1963C7.31034 14.1448 7.11734 14.0576 6.96028 13.9398L6.42424 13.5377C6.22213 13.3862 5.93541 13.4271 5.78383 13.6292C5.63224 13.8313 5.6732 14.1181 5.8753 14.2696L6.41134 14.6717C6.73655 14.9156 7.12438 15.0648 7.52208 15.1287V15.6226C7.52208 15.8752 7.72688 16.08 7.97951 16.08C8.23215 16.08 8.43695 15.8752 8.43695 15.6226V15.1288C8.8347 15.0649 9.22258 14.9156 9.54783 14.6717C10.0023 14.3308 10.2667 13.8517 10.2667 13.3354C10.2667 12.8191 10.0023 12.3399 9.54783 11.9991C9.22258 11.7551 8.8347 11.6059 8.43695 11.542V9.73845C8.61333 9.78849 8.77788 9.86853 8.91641 9.97858L9.16946 10.1796C9.36728 10.3367 9.65503 10.3038 9.81217 10.106C9.96931 9.90814 9.93634 9.62039 9.73853 9.46325L9.48548 9.26223C9.18377 9.02255 8.81924 8.86884 8.43695 8.80108V8.30359ZM7.52208 9.73841C7.34563 9.78843 7.18102 9.86849 7.04245 9.97858C6.8023 10.1693 6.70938 10.3938 6.70938 10.5908C6.70938 10.7877 6.8023 11.0122 7.04245 11.203C7.17811 11.3107 7.34226 11.392 7.52208 11.4431V9.73841ZM8.43695 12.4744V14.1963C8.64874 14.1448 8.8418 14.0576 8.99889 13.9398C9.25899 13.7447 9.35182 13.5215 9.35182 13.3354C9.35182 13.1493 9.25899 12.926 8.99889 12.7309C8.8418 12.6131 8.64874 12.5259 8.43695 12.4744Z" fill="currentColor"/>
<path opacity="0.3" fill-rule="evenodd" clip-rule="evenodd" d="M11.5 16.874C12.4851 17.5826 13.6938 18 15 18C18.3137 18 21 15.3137 21 12C21 8.68629 18.3137 6 15 6C13.6938 6 12.4851 6.41738 11.5 7.12605C13.0141 8.21523 14 9.99247 14 12C14 14.0075 13.0141 15.7848 11.5 16.874Z" fill="currentColor"/>
<path opacity="0.3" fill-rule="evenodd" clip-rule="evenodd" d="M1.55469 7.12852C2.24021 6.24343 3.16781 5.55528 4.23822 5.16338C4.93934 4.23426 6.05273 3.63369 7.3064 3.63369L11.0917 3.63369V4.85523C11.0917 4.9588 11.1252 5.05959 11.1872 5.14256C11.3459 5.35503 11.6467 5.39862 11.8592 5.23993L14.6029 3.19063C14.6402 3.16273 14.6733 3.12954 14.7011 3.09211C14.8592 2.87916 14.8147 2.57842 14.6017 2.42037L11.858 0.383907C11.7753 0.322475 11.6749 0.289307 11.5719 0.289307C11.3067 0.289307 11.0917 0.504283 11.0917 0.769469V1.71304L7.3064 1.71304C4.24049 1.71304 1.73385 4.10759 1.55469 7.12852Z" fill="currentColor"/>
<path fill-rule="evenodd" clip-rule="evenodd" d="M21.2412 17.1608C20.5557 18.0459 19.6281 18.734 18.5577 19.1259C17.8566 20.0551 16.7432 20.6556 15.4895 20.6556L11.7042 20.6556L11.7042 19.4341C11.7042 19.3305 11.6707 19.2297 11.6087 19.1467C11.45 18.9343 11.1492 18.8907 10.9367 19.0494L8.19302 21.0987C8.15566 21.1266 8.12258 21.1598 8.09479 21.1972C7.93674 21.4101 7.98123 21.7109 8.19417 21.8689L10.9379 23.9054C11.0206 23.9668 11.121 24 11.224 24C11.4892 24 11.7042 23.785 11.7042 23.5198L11.7042 22.5763L15.4895 22.5763C18.5554 22.5763 21.062 20.1817 21.2412 17.1608Z" fill="currentColor"/>
</svg>
