<svg width="24" height="24" viewBox="0 0 24 24" fill="none" xmlns="http://www.w3.org/2000/svg">
<path opacity="0.3" d="M12.9486 8.31623L11.0513 7.68377C11.816 5.38965 13.0426 3.95855 14.7574 3.52986C15.6502 3.30665 17 1.86951 17 1H19C19 2.79716 17.0163 5.02668 15.2425 5.47014C14.2906 5.70811 13.5173 6.61035 12.9486 8.31623Z" fill="currentColor"/>
<path fill-rule="evenodd" clip-rule="evenodd" d="M7.81786 7.00004H16.2024C17.5586 6.72952 18.9493 7.42728 19.5263 8.7205L22.95 16.394C23.4665 17.5516 23.1997 18.9088 22.2835 19.7848L21.8391 20.2097C21.8187 20.2292 21.7979 20.2484 21.7769 20.2672C20.6904 21.2413 19.0199 21.1502 18.0458 20.0636L15.2993 17H8.86443L6.11796 20.0636C5.14388 21.1502 3.47341 21.2413 2.38687 20.2672C2.36583 20.2484 2.34509 20.2292 2.32467 20.2097L1.85757 19.7631C0.952577 18.8978 0.680135 17.5615 1.17417 16.411L4.46134 8.75595C5.02832 7.43557 6.44087 6.71767 7.81786 7.00004ZM7.99987 14C9.10444 14 9.99987 13.1046 9.99987 12C9.99987 10.8955 9.10444 10 7.99987 10C6.8953 10 5.99987 10.8955 5.99987 12C5.99987 13.1046 6.8953 14 7.99987 14ZM16.9999 12C17.5522 12 17.9999 11.5523 17.9999 11C17.9999 10.4478 17.5522 10 16.9999 10C16.4476 10 15.9999 10.4478 15.9999 11C15.9999 11.5523 16.4476 12 16.9999 12ZM14.9999 14C15.5522 14 15.9999 13.5523 15.9999 13C15.9999 12.4478 15.5522 12 14.9999 12C14.4476 12 13.9999 12.4478 13.9999 13C13.9999 13.5523 14.4476 14 14.9999 14Z" fill="currentColor"/>
</svg>
