<svg width="24" height="24" viewBox="0 0 24 24" fill="none" xmlns="http://www.w3.org/2000/svg">
<path opacity="0.3" fill-rule="evenodd" clip-rule="evenodd" d="M11 16V10C11 9.44772 11.4477 9 12 9C12.5523 9 13 9.44772 13 10V16H19C20.1046 16 21 16.8954 21 18V19C21 20.1046 20.1046 21 19 21H5C3.89543 21 3 20.1046 3 19V18C3 16.8954 3.89543 16 5 16H11Z" fill="currentColor"/>
<path d="M12 10C13.6569 10 15 8.65685 15 7C15 5.34315 13.6569 4 12 4C10.3431 4 9 5.34315 9 7C9 8.65685 10.3431 10 12 10Z" fill="currentColor"/>
</svg>
