<svg width="24" height="24" viewBox="0 0 24 24" fill="none" xmlns="http://www.w3.org/2000/svg">
<path opacity="0.3" d="M12.9486 9.31623L11.0513 8.68377C11.816 6.38965 13.0426 4.95855 14.7574 4.52986C15.6502 4.30665 17 2.86951 17 2H19C19 3.79716 17.0163 6.02668 15.2425 6.47014C14.2906 6.70811 13.5173 7.61035 12.9486 9.31623Z" fill="currentColor"/>
<path fill-rule="evenodd" clip-rule="evenodd" d="M7.05662 8.02782C7.20183 8.00946 7.34981 8 7.5 8H16.5C16.6502 8 16.7982 8.00946 16.9434 8.02782C17.1264 8.00942 17.3121 8 17.5 8C20.5376 8 23 10.4624 23 13.5C23 16.5376 20.5376 19 17.5 19C15.7921 19 14.266 18.2215 13.2572 17H10.7428C9.73405 18.2215 8.20794 19 6.5 19C3.46243 19 1 16.5376 1 13.5C1 10.4624 3.46243 8 6.5 8C6.68789 8 6.87358 8.00942 7.05662 8.02782ZM5.5 10C5.22386 10 5 10.2239 5 10.5V11.5C5 11.7761 5.22386 12 5.5 12H6.5C6.77614 12 7 11.7761 7 11.5V10.5C7 10.2239 6.77614 10 6.5 10H5.5ZM7.5 12C7.22386 12 7 12.2239 7 12.5V13.5C7 13.7761 7.22386 14 7.5 14H8.5C8.77614 14 9 13.7761 9 13.5V12.5C9 12.2239 8.77614 12 8.5 12H7.5ZM19 12C19.5523 12 20 11.5523 20 11C20 10.4477 19.5523 10 19 10C18.4477 10 18 10.4477 18 11C18 11.5523 18.4477 12 19 12ZM18 15C18.5523 15 19 14.5523 19 14C19 13.4477 18.5523 13 18 13C17.4477 13 17 13.4477 17 14C17 14.5523 17.4477 15 18 15ZM5.5 14C5.22386 14 5 14.2239 5 14.5V15.5C5 15.7761 5.22386 16 5.5 16H6.5C6.77614 16 7 15.7761 7 15.5V14.5C7 14.2239 6.77614 14 6.5 14H5.5ZM3.5 12C3.22386 12 3 12.2239 3 12.5V13.5C3 13.7761 3.22386 14 3.5 14H4.5C4.77614 14 5 13.7761 5 13.5V12.5C5 12.2239 4.77614 12 4.5 12H3.5Z" fill="currentColor"/>
</svg>
