<svg width="24" height="24" viewBox="0 0 24 24" fill="none" xmlns="http://www.w3.org/2000/svg">
<path fill-rule="evenodd" clip-rule="evenodd" d="M21 10H3V5C3 4.44772 3.44772 4 4 4H20C20.5523 4 21 4.44772 21 5V10ZM16 6C15.4477 6 15 6.44772 15 7C15 7.55228 15.4477 8 16 8C16.5523 8 17 7.55228 17 7C17 6.44772 16.5523 6 16 6ZM8 6C8.55228 6 9 6.44772 9 7C9 7.55228 8.55228 8 8 8C7.44772 8 7 7.55228 7 7C7 6.44772 7.44772 6 8 6ZM21 11V21C21 21.5523 20.5523 22 20 22H4C3.44772 22 3 21.5523 3 21V11H21ZM8 13C7.44772 13 7 13.5223 7 14.1667V18.8333C7 19.4777 7.44772 20 8 20H16C16.5523 20 17 19.4777 17 18.8333V14.1667C17 13.5223 16.5523 13 16 13H8Z" fill="currentColor"/>
<path opacity="0.3" fill-rule="evenodd" clip-rule="evenodd" d="M6 3H10C10.5523 3 11 3.44772 11 4H5C5 3.44772 5.44772 3 6 3ZM16 3H18C18.5523 3 19 3.44772 19 4H15C15 3.44772 15.4477 3 16 3Z" fill="currentColor"/>
</svg>
