<svg width="24" height="24" viewBox="0 0 24 24" fill="none" xmlns="http://www.w3.org/2000/svg">
<path opacity="0.3" d="M21 22H3C2.4 22 2 21.6 2 21V5C2 4.4 2.4 4 3 4H21C21.6 4 22 4.4 22 5V21C22 21.6 21.6 22 21 22Z" fill="currentColor"/>
<path d="M6 6C5.4 6 5 5.6 5 5V3C5 2.4 5.4 2 6 2C6.6 2 7 2.4 7 3V5C7 5.6 6.6 6 6 6ZM11 5V3C11 2.4 10.6 2 10 2C9.4 2 9 2.4 9 3V5C9 5.6 9.4 6 10 6C10.6 6 11 5.6 11 5ZM15 5V3C15 2.4 14.6 2 14 2C13.4 2 13 2.4 13 3V5C13 5.6 13.4 6 14 6C14.6 6 15 5.6 15 5ZM19 5V3C19 2.4 18.6 2 18 2C17.4 2 17 2.4 17 3V5C17 5.6 17.4 6 18 6C18.6 6 19 5.6 19 5Z" fill="currentColor"/>
<path d="M8.80009 13.1C9.20009 13.1 9.50009 13 9.70009 12.8C9.90009 12.6 10.1001 12.3 10.1001 11.9C10.1001 11.6 10.0001 11.3 9.80009 11.1C9.60009 10.9 9.30009 10.8 9.00009 10.8C8.80009 10.8 8.60008 10.8 8.40008 10.9C8.20008 11 8.10009 11.1 8.00009 11.2C7.90009 11.3 7.80009 11.4 7.70009 11.6C7.60009 11.8 7.50009 11.9 7.50009 12.1C7.50009 12.2 7.40009 12.2 7.30009 12.3C7.20009 12.4 7.10008 12.4 6.90008 12.4C6.70008 12.4 6.60009 12.3 6.50009 12.2C6.40009 12.1 6.30009 11.9 6.30009 11.7C6.30009 11.5 6.40009 11.3 6.50009 11.1C6.60009 10.9 6.80009 10.7 7.00009 10.5C7.20009 10.3 7.50008 10.1 7.90008 10C8.30008 9.90003 8.6001 9.80003 9.1001 9.80003C9.5001 9.80003 9.8001 9.90003 10.1001 10C10.4001 10.1 10.7001 10.3 10.9001 10.4C11.1001 10.5 11.3001 10.8 11.4001 11.1C11.5001 11.4 11.6001 11.6 11.6001 11.9C11.6001 12.3 11.5001 12.6 11.3001 12.9C11.1001 13.2 10.9001 13.5 10.6001 13.7C10.9001 13.9 11.2001 14.1 11.4001 14.3C11.6001 14.5 11.8001 14.7 11.9001 15C12.0001 15.3 12.1001 15.5 12.1001 15.8C12.1001 16.2 12.0001 16.5 11.9001 16.8C11.8001 17.1 11.5001 17.4 11.3001 17.7C11.1001 18 10.7001 18.2 10.3001 18.3C9.90009 18.4 9.50009 18.5 9.00009 18.5C8.50009 18.5 8.10009 18.4 7.70009 18.2C7.30009 18 7.00009 17.8 6.80009 17.6C6.60009 17.4 6.40009 17.1 6.30009 16.8C6.20009 16.5 6.1001 16.3 6.1001 16.1C6.1001 15.9 6.20009 15.7 6.30009 15.6C6.40009 15.5 6.60009 15.4 6.80009 15.4C6.90009 15.4 7.0001 15.4 7.1001 15.5C7.2001 15.6 7.30009 15.6 7.30009 15.7C7.50009 16.2 7.70009 16.6 8.00009 16.9C8.30009 17.2 8.60009 17.3 9.00009 17.3C9.20009 17.3 9.50009 17.2 9.70009 17.1C9.90009 17 10.1001 16.8 10.3001 16.6C10.5001 16.4 10.5001 16.1 10.5001 15.8C10.5001 15.3 10.4001 15 10.1001 14.7C9.8001 14.4 9.5001 14.3 9.1001 14.3C9.0001 14.3 8.90009 14.3 8.70009 14.3C8.50009 14.3 8.40008 14.3 8.40008 14.3C8.20008 14.3 8.00008 14.2 7.90008 14.1C7.80008 14 7.70009 13.8 7.70009 13.7C7.70009 13.5 7.80008 13.4 7.90008 13.2C8.00008 13 8.20009 13 8.50009 13H8.80009V13.1ZM15.3001 17.5V12.2C14.3001 13 13.6001 13.3 13.3001 13.3C13.1001 13.3 13.0001 13.2 12.9001 13.1C12.8001 13 12.7001 12.8 12.7001 12.6C12.7001 12.4 12.8001 12.3 12.9001 12.2C13.0001 12.1 13.2001 12 13.6001 11.8C14.1001 11.6 14.5001 11.3 14.7001 11.1C14.9001 10.9 15.2001 10.6 15.5001 10.3C15.8001 10 15.9001 9.80003 15.9001 9.70003C15.9001 9.60003 16.1001 9.60004 16.3001 9.60004C16.5001 9.60004 16.7001 9.70003 16.8001 9.80003C16.9001 9.90003 17.0001 10.2 17.0001 10.5V17.2C17.0001 18 16.7001 18.4 16.2001 18.4C16.0001 18.4 15.8001 18.3 15.6001 18.2C15.4001 18.1 15.3001 17.8 15.3001 17.5Z" fill="currentColor"/>
</svg>
