<svg width="24" height="24" viewBox="0 0 24 24" fill="none" xmlns="http://www.w3.org/2000/svg">
<path opacity="0.3" d="M17 8.19995V3.19995H7V8.19995C7 8.49995 7.1 8.69995 7.3 8.89995L10.6 12.1999L7.3 15.4999C7.1 15.6999 7 15.8999 7 16.1999V21.1999H17V16.1999C17 15.8999 16.9 15.6999 16.7 15.4999L13.4 12.1999L16.7 8.89995C16.9 8.69995 17 8.49995 17 8.19995Z" fill="currentColor"/>
<path d="M18 4.19995H6C5.4 4.19995 5 3.79995 5 3.19995C5 2.59995 5.4 2.19995 6 2.19995H18C18.6 2.19995 19 2.59995 19 3.19995C19 3.79995 18.6 4.19995 18 4.19995ZM18 20.1999H15V18.1999L12.7 15.8999C12.3 15.4999 11.7 15.4999 11.3 15.8999L9 18.1999V20.1999H6C5.4 20.1999 5 20.5999 5 21.1999C5 21.7999 5.4 22.1999 6 22.1999H18C18.6 22.1999 19 21.7999 19 21.1999C19 20.5999 18.6 20.1999 18 20.1999ZM9.4 8.19995L11.3 10.0999C11.7 10.4999 12.3 10.4999 12.7 10.0999L14.6 8.19995H9.4Z" fill="currentColor"/>
</svg>
