<svg width="24" height="24" viewBox="0 0 24 24" fill="none" xmlns="http://www.w3.org/2000/svg">
<path opacity="0.3" d="M18 2H6C3.8 2 2 3.8 2 6V18C2 20.2 3.8 22 6 22H18C20.2 22 22 20.2 22 18V6C22 3.8 20.2 2 18 2ZM17 12C17 12.7 16.8 13.4 16.6 14H20V18C20 19.1 19.1 20 18 20H14V16.6C13.4 16.9 12.7 17 12 17C11.3 17 10.6 16.8 10 16.6V20H6C4.9 20 4 19.1 4 18V14H7.4C7.1 13.4 7 12.7 7 12C7 11.3 7.2 10.6 7.4 10H4V6C4 4.9 4.9 4 6 4H10V7.4C10.6 7.1 11.3 7 12 7C12.7 7 13.4 7.2 14 7.4V4H18C19.1 4 20 4.9 20 6V10H16.6C16.8 10.6 17 11.3 17 12Z" fill="currentColor"/>
<path d="M14.0002 3.20007C17.4002 4.00007 20.0002 6.60008 20.8002 10.0001H16.6002C16.1002 8.80008 15.2002 7.90008 14.0002 7.40008V3.20007ZM7.4002 10.0001C7.9002 8.80008 8.80019 7.90008 10.0002 7.40008V3.20007C6.60019 4.00007 4.0002 6.60008 3.2002 10.0001H7.4002ZM16.6002 14.0001C16.1002 15.2001 15.2002 16.1001 14.0002 16.6001V20.8001C17.4002 20.0001 20.0002 17.4001 20.8002 14.0001H16.6002ZM10.0002 16.6001C8.80019 16.1001 7.9002 15.2001 7.4002 14.0001H3.2002C4.0002 17.4001 6.60019 20.0001 10.0002 20.8001V16.6001Z" fill="currentColor"/>
</svg>
