<svg width="24" height="24" viewBox="0 0 24 24" fill="none" xmlns="http://www.w3.org/2000/svg">
<path opacity="0.3" d="M20.9 12.9C20.3 12.9 19.9 12.5 19.9 11.9C19.9 11.3 20.3 10.9 20.9 10.9H21.8C21.3 6.2 17.6 2.4 12.9 2V2.9C12.9 3.5 12.5 3.9 11.9 3.9C11.3 3.9 10.9 3.5 10.9 2.9V2C6.19999 2.5 2.4 6.2 2 10.9H2.89999C3.49999 10.9 3.89999 11.3 3.89999 11.9C3.89999 12.5 3.49999 12.9 2.89999 12.9H2C2.5 17.6 6.19999 21.4 10.9 21.8V20.9C10.9 20.3 11.3 19.9 11.9 19.9C12.5 19.9 12.9 20.3 12.9 20.9V21.8C17.6 21.3 21.4 17.6 21.8 12.9H20.9Z" fill="currentColor"/>
<path d="M16.8999 10.9H13.5999C13.3999 10.6 13.1999 10.4 12.8999 10.2V5.90002C12.8999 5.30002 12.4999 4.90002 11.8999 4.90002C11.2999 4.90002 10.8999 5.30002 10.8999 5.90002V10.2C10.5999 10.4 10.3999 10.6 10.1999 10.9H9.8999C9.2999 10.9 8.8999 11.3 8.8999 11.9C8.8999 12.5 9.2999 12.9 9.8999 12.9H10.1999C10.3999 13.2 10.5999 13.4 10.8999 13.6V13.9C10.8999 14.5 11.2999 14.9 11.8999 14.9C12.4999 14.9 12.8999 14.5 12.8999 13.9V13.6C13.1999 13.4 13.3999 13.2 13.5999 12.9H16.8999C17.4999 12.9 17.8999 12.5 17.8999 11.9C17.8999 11.3 17.4999 10.9 16.8999 10.9Z" fill="currentColor"/>
</svg>
