<svg width="24" height="24" viewBox="0 0 24 24" fill="none" xmlns="http://www.w3.org/2000/svg">
<path opacity="0.3" d="M4.05418 15.1982C8.34518 7.76818 13.5781 3.26318 20.9281 2.01418C21.0728 1.98837 21.2215 1.99789 21.3617 2.04193C21.5019 2.08597 21.6293 2.16323 21.7332 2.26712C21.8371 2.37101 21.9143 2.49846 21.9584 2.63863C22.0024 2.7788 22.0119 2.92754 21.9861 3.07218C20.7371 10.4222 16.2321 15.6552 8.80218 19.9462L4.05418 15.1982ZM3.81918 17.3372L2.63318 20.4482C2.58421 20.5765 2.57344 20.7163 2.60214 20.8507C2.63085 20.9851 2.69782 21.1082 2.79497 21.2054C2.89212 21.3025 3.0153 21.3695 3.14966 21.3982C3.28402 21.4269 3.42381 21.4161 3.55218 21.3672L6.66518 20.1802L3.81918 17.3372ZM16.5001 5.99818C16.2035 5.99818 15.9135 6.08615 15.6668 6.25097C15.4201 6.41579 15.2279 6.65006 15.1143 6.92415C15.0008 7.19824 14.9711 7.49984 15.029 7.79081C15.0868 8.08178 15.2297 8.34906 15.4395 8.55884C15.6493 8.76862 15.9165 8.91148 16.2075 8.96935C16.4985 9.02723 16.8001 8.99753 17.0742 8.884C17.3483 8.77046 17.5825 8.5782 17.7473 8.33153C17.9122 8.08486 18.0001 7.79485 18.0001 7.49818C18.0001 7.10035 17.8421 6.71882 17.5608 6.43752C17.2795 6.15621 16.898 5.99818 16.5001 5.99818Z" fill="currentColor"/>
<path d="M4.05423 15.1982L2.24723 13.3912C2.15505 13.299 2.08547 13.1867 2.04395 13.0632C2.00243 12.9396 1.9901 12.8081 2.00793 12.679C2.02575 12.5498 2.07325 12.4266 2.14669 12.3189C2.22013 12.2112 2.31752 12.1219 2.43123 12.0582L9.15323 8.28918C7.17353 10.3717 5.4607 12.6926 4.05423 15.1982ZM8.80023 19.9442L10.6072 21.7512C10.6994 21.8434 10.8117 21.9129 10.9352 21.9545C11.0588 21.996 11.1903 22.0083 11.3195 21.9905C11.4486 21.9727 11.5718 21.9252 11.6795 21.8517C11.7872 21.7783 11.8765 21.6809 11.9402 21.5672L15.7092 14.8442C13.6269 16.8245 11.3061 18.5377 8.80023 19.9442ZM7.04023 18.1832L12.5832 12.6402C12.7381 12.4759 12.8228 12.2577 12.8195 12.032C12.8161 11.8063 12.725 11.5907 12.5653 11.4311C12.4057 11.2714 12.1901 11.1803 11.9644 11.1769C11.7387 11.1736 11.5205 11.2583 11.3562 11.4132L5.81323 16.9562L7.04023 18.1832Z" fill="currentColor"/>
</svg>
