<svg width="24" height="24" viewBox="0 0 24 24" fill="none" xmlns="http://www.w3.org/2000/svg">
<path d="M15.4302 8.56949L10.7442 15.1395C10.6424 15.282 10.5806 15.4492 10.5653 15.6236C10.55 15.7981 10.5817 15.9734 10.6572 16.1315L13.1942 21.4425C13.2739 21.6097 13.3993 21.751 13.5559 21.8499C13.7125 21.9488 13.894 22.0014 14.0792 22.0015H14.1172C14.3089 21.9941 14.4943 21.9307 14.6504 21.8191C14.8064 21.7075 14.9263 21.5526 14.9952 21.3735L21.9332 3.33649C22.0013 3.15918 22.0166 2.96594 21.9772 2.78013C21.9378 2.59432 21.8454 2.4239 21.7112 2.28949L15.4302 8.56949Z" fill="currentColor"/>
<path opacity="0.3" d="M20.664 2.06648L2.62602 9.00148C2.44768 9.07085 2.29348 9.19082 2.1824 9.34663C2.07131 9.50244 2.00818 9.68731 2.00074 9.87853C1.99331 10.0697 2.04189 10.259 2.14054 10.4229C2.23919 10.5869 2.38359 10.7185 2.55601 10.8015L7.86601 13.3365C8.02383 13.4126 8.19925 13.4448 8.37382 13.4297C8.54839 13.4145 8.71565 13.3526 8.85801 13.2505L15.43 8.56548L21.711 2.28448C21.5762 2.15096 21.4055 2.05932 21.2198 2.02064C21.034 1.98196 20.8409 1.99788 20.664 2.06648Z" fill="currentColor"/>
</svg>
