<svg width="24" height="24" viewBox="0 0 24 24" fill="none" xmlns="http://www.w3.org/2000/svg">
<path opacity="0.3" d="M20 6H4C2.89543 6 2 6.89543 2 8V18C2 19.1046 2.89543 20 4 20H20C21.1046 20 22 19.1046 22 18V8C22 6.89543 21.1046 6 20 6Z" fill="currentColor"/>
<path fill-rule="evenodd" clip-rule="evenodd" d="M5 4H7C7.55228 4 8 4.44772 8 5V6H4V5C4 4.44772 4.44772 4 5 4ZM17 4H19C19.5523 4 20 4.44772 20 5V6H16V5C16 4.44772 16.4477 4 17 4Z" fill="currentColor"/>
<path fill-rule="evenodd" clip-rule="evenodd" d="M7 12V11C7 10.4477 7.44772 10 8 10C8.55228 10 9 10.4477 9 11V12H10C10.5523 12 11 12.4477 11 13C11 13.5523 10.5523 14 10 14H9V15C9 15.5523 8.55228 16 8 16C7.44772 16 7 15.5523 7 15V14H6C5.44772 14 5 13.5523 5 13C5 12.4477 5.44772 12 6 12H7Z" fill="currentColor"/>
<path d="M17 12H15C14.4477 12 14 12.4477 14 13C14 13.5523 14.4477 14 15 14H17C17.5523 14 18 13.5523 18 13C18 12.4477 17.5523 12 17 12Z" fill="currentColor"/>
</svg>
