<svg width="24" height="24" viewBox="0 0 24 24" fill="none" xmlns="http://www.w3.org/2000/svg">
<path opacity="0.3" d="M13 9C13 8.44772 12.5523 8 12 8C11.4477 8 11 8.44772 11 9V16C11 16.5523 11.4477 17 12 17C12.5523 17 13 16.5523 13 16V9Z" fill="currentColor"/>
<path d="M12 21C13.1046 21 14 20.1046 14 19C14 17.8954 13.1046 17 12 17C10.8954 17 10 17.8954 10 19C10 20.1046 10.8954 21 12 21ZM12 23C9.79086 23 8 21.2091 8 19C8 16.7909 9.79086 15 12 15C14.2091 15 16 16.7909 16 19C16 21.2091 14.2091 23 12 23Z" fill="currentColor"/>
<path d="M12 7C13.1046 7 14 6.10457 14 5C14 3.89543 13.1046 3 12 3C10.8954 3 10 3.89543 10 5C10 6.10457 10.8954 7 12 7ZM12 9C9.79086 9 8 7.20914 8 5C8 2.79086 9.79086 1 12 1C14.2091 1 16 2.79086 16 5C16 7.20914 14.2091 9 12 9Z" fill="currentColor"/>
</svg>
