<svg width="24" height="24" viewBox="0 0 24 24" fill="none" xmlns="http://www.w3.org/2000/svg">
<path opacity="0.3" d="M7 9C7 8.44772 6.55228 8 6 8C5.44772 8 5 8.44772 5 9V15C5 15.5523 5.44772 16 6 16C6.55228 16 7 15.5523 7 15V9Z" fill="currentColor"/>
<path d="M6 21C7.10457 21 8 20.1046 8 19C8 17.8954 7.10457 17 6 17C4.89543 17 4 17.8954 4 19C4 20.1046 4.89543 21 6 21ZM6 23C3.79086 23 2 21.2091 2 19C2 16.7909 3.79086 15 6 15C8.20914 15 10 16.7909 10 19C10 21.2091 8.20914 23 6 23Z" fill="currentColor"/>
<path opacity="0.3" d="M19 9C19 8.44772 18.5523 8 18 8C17.4477 8 17 8.44772 17 9V15C17 15.5523 17.4477 16 18 16C18.5523 16 19 15.5523 19 15V9Z" fill="currentColor"/>
<path d="M18 21C19.1046 21 20 20.1046 20 19C20 17.8954 19.1046 17 18 17C16.8954 17 16 17.8954 16 19C16 20.1046 16.8954 21 18 21ZM18 23C15.7909 23 14 21.2091 14 19C14 16.7909 15.7909 15 18 15C20.2091 15 22 16.7909 22 19C22 21.2091 20.2091 23 18 23Z" fill="currentColor"/>
<path d="M6 7C7.10457 7 8 6.10457 8 5C8 3.89543 7.10457 3 6 3C4.89543 3 4 3.89543 4 5C4 6.10457 4.89543 7 6 7ZM6 9C3.79086 9 2 7.20914 2 5C2 2.79086 3.79086 1 6 1C8.20914 1 10 2.79086 10 5C10 7.20914 8.20914 9 6 9Z" fill="currentColor"/>
<path d="M18 7C19.1046 7 20 6.10457 20 5C20 3.89543 19.1046 3 18 3C16.8954 3 16 3.89543 16 5C16 6.10457 16.8954 7 18 7ZM18 9C15.7909 9 14 7.20914 14 5C14 2.79086 15.7909 1 18 1C20.2091 1 22 2.79086 22 5C22 7.20914 20.2091 9 18 9Z" fill="currentColor"/>
</svg>
