<svg width="24" height="24" viewBox="0 0 24 24" fill="none" xmlns="http://www.w3.org/2000/svg">
<path opacity="0.3" fill-rule="evenodd" clip-rule="evenodd" d="M7 11H15C16.1046 11 17 10.1046 17 9V8H19V9C19 11.2091 17.2091 13 15 13H7V15C7 15.5523 6.55228 16 6 16C5.44772 16 5 15.5523 5 15V9C5 8.44772 5.44772 8 6 8C6.55228 8 7 8.44772 7 9V11Z" fill="currentColor"/>
<path d="M6 21C7.10457 21 8 20.1046 8 19C8 17.8954 7.10457 17 6 17C4.89543 17 4 17.8954 4 19C4 20.1046 4.89543 21 6 21ZM6 23C3.79086 23 2 21.2091 2 19C2 16.7909 3.79086 15 6 15C8.20914 15 10 16.7909 10 19C10 21.2091 8.20914 23 6 23Z" fill="currentColor"/>
<path d="M18 7C19.1046 7 20 6.10457 20 5C20 3.89543 19.1046 3 18 3C16.8954 3 16 3.89543 16 5C16 6.10457 16.8954 7 18 7ZM18 9C15.7909 9 14 7.20914 14 5C14 2.79086 15.7909 1 18 1C20.2091 1 22 2.79086 22 5C22 7.20914 20.2091 9 18 9Z" fill="currentColor"/>
<path d="M6 7C7.10457 7 8 6.10457 8 5C8 3.89543 7.10457 3 6 3C4.89543 3 4 3.89543 4 5C4 6.10457 4.89543 7 6 7ZM6 9C3.79086 9 2 7.20914 2 5C2 2.79086 3.79086 1 6 1C8.20914 1 10 2.79086 10 5C10 7.20914 8.20914 9 6 9Z" fill="currentColor"/>
</svg>
