<svg width="24" height="24" viewBox="0 0 24 24" fill="none" xmlns="http://www.w3.org/2000/svg">
<path d="M6 7C7.10457 7 8 6.10457 8 5C8 3.89543 7.10457 3 6 3C4.89543 3 4 3.89543 4 5C4 6.10457 4.89543 7 6 7ZM6 9C3.79086 9 2 7.20914 2 5C2 2.79086 3.79086 1 6 1C8.20914 1 10 2.79086 10 5C10 7.20914 8.20914 9 6 9Z" fill="currentColor"/>
<path opacity="0.3" d="M7 11.4649V17C7 18.1046 7.89543 19 9 19H15V21H9C6.79086 21 5 19.2091 5 17V8V7H7V8C7 9.10457 7.89543 10 9 10H15V12H9C8.27143 12 7.58835 11.8052 7 11.4649Z" fill="currentColor"/>
<path d="M18 22C19.1046 22 20 21.1046 20 20C20 18.8954 19.1046 18 18 18C16.8954 18 16 18.8954 16 20C16 21.1046 16.8954 22 18 22ZM18 24C15.7909 24 14 22.2091 14 20C14 17.7909 15.7909 16 18 16C20.2091 16 22 17.7909 22 20C22 22.2091 20.2091 24 18 24Z" fill="currentColor"/>
<path d="M18 13C19.1046 13 20 12.1046 20 11C20 9.89543 19.1046 9 18 9C16.8954 9 16 9.89543 16 11C16 12.1046 16.8954 13 18 13ZM18 15C15.7909 15 14 13.2091 14 11C14 8.79086 15.7909 7 18 7C20.2091 7 22 8.79086 22 11C22 13.2091 20.2091 15 18 15Z" fill="currentColor"/>
</svg>
