<svg width="24" height="24" viewBox="0 0 24 24" fill="none" xmlns="http://www.w3.org/2000/svg">
<path d="M16.5429 17.4571L11 11.9142V4C11 3.44772 11.4477 3 12 3C12.5523 3 13 3.44772 13 4V11.0858L17.9571 16.0429L20.1464 13.8536C20.3417 13.6583 20.6583 13.6583 20.8536 13.8536C20.9473 13.9473 21 14.0745 21 14.2071V19.5C21 19.7761 20.7761 20 20.5 20H15.2071C14.931 20 14.7071 19.7761 14.7071 19.5C14.7071 19.3674 14.7598 19.2402 14.8536 19.1464L16.5429 17.4571Z" fill="currentColor"/>
<path opacity="0.3" d="M7.24467 17.1448L9.24632 19.1465C9.34009 19.2402 9.39277 19.3674 9.39277 19.5C9.39277 19.7762 9.16891 20 8.89277 20H3.52881C3.25267 20 3.02881 19.7762 3.02881 19.5V14.1361C3.02881 14.0034 3.08149 13.8763 3.17526 13.7825C3.37052 13.5872 3.6871 13.5872 3.88236 13.7825L5.82555 15.7257L8.85393 13.1632L10.1458 14.69L7.24467 17.1448Z" fill="currentColor"/>
</svg>
