<svg width="24" height="24" viewBox="0 0 24 24" fill="none" xmlns="http://www.w3.org/2000/svg">
<path opacity="0.3" fill-rule="evenodd" clip-rule="evenodd" d="M13 19.4L16.6857 20.8743C16.8755 20.9502 17 21.1341 17 21.3385V21.5C17 21.7761 16.7761 22 16.5 22H7.5C7.22386 22 7 21.7761 7 21.5V21.3385C7 21.1341 7.12448 20.9502 7.3143 20.8743L11 19.4V13.5H13V19.4Z" fill="currentColor"/>
<path d="M13.2496 13.961C12.3871 14.651 11.1285 14.5111 10.4385 13.6486L3.86922 5.43704C3.65645 5.17107 3.54053 4.84061 3.54053 4.5C3.54053 3.67157 4.2121 3 5.04053 3H18.9599C19.3005 3 19.631 3.11592 19.8969 3.3287C20.5438 3.84621 20.6487 4.79015 20.1312 5.43704L13.562 13.6486C13.4697 13.7639 13.3649 13.8687 13.2496 13.961ZM6.08084 5L8.50021 8.01229H15.5002L17.9196 5H6.08084Z" fill="currentColor"/>
</svg>
