<svg width="24" height="24" viewBox="0 0 24 24" fill="none" xmlns="http://www.w3.org/2000/svg">
<path d="M13 18.9451V20.0001H14C15.1046 20.0001 16 20.8955 16 22.0001H8.00001C8.00001 20.8955 8.89544 20.0001 10 20.0001H11V18.9449C9.02874 18.7263 7.20828 17.8665 5.79373 16.5183L4.73857 17.6742C4.36622 18.0821 3.73372 18.111 3.32582 17.7386C2.91792 17.3663 2.8891 16.7338 3.26145 16.3259L5.04941 14.3672C5.46151 13.9157 6.17862 13.9364 6.56408 14.4108C7.88624 16.038 9.86321 17.0001 12 17.0001C15.866 17.0001 19 13.8661 19 10.0001C19 7.73475 17.9176 5.65205 16.1214 4.3413C15.6753 4.01574 15.5776 3.39016 15.9031 2.94403C16.2287 2.49791 16.8543 2.40017 17.3004 2.72574C19.6071 4.40909 21 7.08913 21 10.0001C21 14.6326 17.5 18.4477 13 18.9451Z" fill="currentColor"/>
<path opacity="0.3" d="M12 16C15.3137 16 18 13.3137 18 10C18 6.68629 15.3137 4 12 4C8.68629 4 6 6.68629 6 10C6 13.3137 8.68629 16 12 16Z" fill="currentColor"/>
</svg>
