<svg width="24" height="24" viewBox="0 0 24 24" fill="none" xmlns="http://www.w3.org/2000/svg">
<path opacity="0.3" d="M7.92824 8.37139L6.07129 7.62861L6.95712 5.41404C7.7819 3.35208 9.77896 2 11.9998 2C14.2206 2 16.2176 3.35208 17.0424 5.41404L17.9282 7.62861L16.0713 8.37139L15.1855 6.15682C14.6644 4.85418 13.4028 4 11.9998 4C10.5968 4 9.33513 4.85418 8.81407 6.15682L7.92824 8.37139Z" fill="currentColor"/>
<path fill-rule="evenodd" clip-rule="evenodd" d="M7.61698 7H16.3833C17.3264 7 18.1413 7.6588 18.3389 8.58094L20.4818 18.5809C20.7132 19.661 20.0253 20.7242 18.9452 20.9556C18.8075 20.9851 18.667 21 18.5262 21H5.47412C4.36955 21 3.47412 20.1046 3.47412 19C3.47412 18.8591 3.489 18.7187 3.51852 18.5809L5.66137 8.58094C5.85898 7.6588 6.6739 7 7.61698 7ZM6.00015 19C6.55243 19 7.00015 18.5523 7.00015 18C7.00015 17.4477 6.55243 17 6.00015 17C5.44786 17 5.00015 17.4477 5.00015 18C5.00015 18.5523 5.44786 19 6.00015 19ZM8.00015 15C8.55243 15 9.00015 14.5523 9.00015 14C9.00015 13.4477 8.55243 13 8.00015 13C7.44786 13 7.00015 13.4477 7.00015 14C7.00015 14.5523 7.44786 15 8.00015 15ZM10.0001 11C10.5524 11 11.0001 10.5523 11.0001 10C11.0001 9.44772 10.5524 9 10.0001 9C9.44786 9 9.00015 9.44772 9.00015 10C9.00015 10.5523 9.44786 11 10.0001 11ZM14.0001 11C14.5524 11 15.0001 10.5523 15.0001 10C15.0001 9.44772 14.5524 9 14.0001 9C13.4479 9 13.0001 9.44772 13.0001 10C13.0001 10.5523 13.4479 11 14.0001 11ZM12.0001 15C12.5524 15 13.0001 14.5523 13.0001 14C13.0001 13.4477 12.5524 13 12.0001 13C11.4479 13 11.0001 13.4477 11.0001 14C11.0001 14.5523 11.4479 15 12.0001 15ZM16.0001 15C16.5524 15 17.0001 14.5523 17.0001 14C17.0001 13.4477 16.5524 13 16.0001 13C15.4479 13 15.0001 13.4477 15.0001 14C15.0001 14.5523 15.4479 15 16.0001 15ZM10.0001 19C10.5524 19 11.0001 18.5523 11.0001 18C11.0001 17.4477 10.5524 17 10.0001 17C9.44786 17 9.00015 17.4477 9.00015 18C9.00015 18.5523 9.44786 19 10.0001 19ZM14.0001 19C14.5524 19 15.0001 18.5523 15.0001 18C15.0001 17.4477 14.5524 17 14.0001 17C13.4479 17 13.0001 17.4477 13.0001 18C13.0001 18.5523 13.4479 19 14.0001 19ZM18.0001 19C18.5524 19 19.0001 18.5523 19.0001 18C19.0001 17.4477 18.5524 17 18.0001 17C17.4479 17 17.0001 17.4477 17.0001 18C17.0001 18.5523 17.4479 19 18.0001 19Z" fill="currentColor"/>
</svg>
