<svg width="24" height="24" viewBox="0 0 24 24" fill="none" xmlns="http://www.w3.org/2000/svg">
<path fill-rule="evenodd" clip-rule="evenodd" d="M1.63379 19V5.51001H3.36279V11.267H10.8108V5.51001H12.5398V19H10.8108V12.939H3.36279V19H1.63379Z" fill="currentColor"/>
<path opacity="0.3" fill-rule="evenodd" clip-rule="evenodd" d="M14.6489 18.9999L19.8739 13.3189C19.6459 13.3569 19.4749 13.3759 19.2469 13.3759C16.9479 13.3189 15.3329 11.5519 15.3329 9.40491C15.3329 7.12491 17.1189 5.35791 19.4179 5.35791C21.7169 5.35791 23.5219 7.12491 23.5219 9.40491C23.5219 11.0009 22.8189 12.2549 21.1849 14.0219L18.0689 17.4799H23.5219V18.9999H14.6489ZM19.4179 11.9509C20.8619 11.9509 21.9069 10.8679 21.9069 9.40491C21.9069 7.96091 20.8619 6.85891 19.4179 6.85891C17.9549 6.85891 16.9479 7.96091 16.9479 9.40491C16.9479 10.8679 17.9549 11.9509 19.4179 11.9509Z" fill="currentColor"/>
</svg>
