<svg width="24" height="24" viewBox="0 0 24 24" fill="none" xmlns="http://www.w3.org/2000/svg">
<path opacity="0.3" fill-rule="evenodd" clip-rule="evenodd" d="M12 4.25928C12.1489 4.25916 12.3 4.29242 12.4426 4.36276C12.6398 4.46009 12.7994 4.61972 12.8967 4.81693L14.9389 8.95486L19.5054 9.61841C20.0519 9.69783 20.4306 10.2053 20.3512 10.7518C20.3196 10.9695 20.2171 11.1706 20.0596 11.3241L16.7553 14.545L17.5353 19.0931C17.6287 19.6374 17.2631 20.1544 16.7188 20.2477C16.502 20.2849 16.279 20.2496 16.0844 20.1472L12 17.9999V4.25928Z" fill="currentColor"/>
<path fill-rule="evenodd" clip-rule="evenodd" d="M11.9998 4.25928V17.9999L7.91541 20.1472C7.42656 20.4042 6.82194 20.2163 6.56493 19.7274C6.4626 19.5328 6.42728 19.3098 6.46446 19.0931L7.24451 14.545L3.94017 11.3241C3.54469 10.9386 3.5366 10.3055 3.9221 9.91001C4.07561 9.75252 4.27675 9.65004 4.49439 9.61841L9.06086 8.95486L11.1031 4.81693C11.2771 4.46421 11.6314 4.25956 11.9998 4.25928Z" fill="currentColor"/>
</svg>
