<svg width="24" height="24" viewBox="0 0 24 24" fill="none" xmlns="http://www.w3.org/2000/svg">
<path fill-rule="evenodd" clip-rule="evenodd" d="M2 13H22V18C22 19.1046 21.1046 20 20 20H4C2.89543 20 2 19.1046 2 18V13ZM18.5 18C19.3284 18 20 17.3284 20 16.5C20 15.6716 19.3284 15 18.5 15C17.6716 15 17 15.6716 17 16.5C17 17.3284 17.6716 18 18.5 18ZM13.5 18C14.3284 18 15 17.3284 15 16.5C15 15.6716 14.3284 15 13.5 15C12.6716 15 12 15.6716 12 16.5C12 17.3284 12.6716 18 13.5 18Z" fill="currentColor"/>
<path opacity="0.3" fill-rule="evenodd" clip-rule="evenodd" d="M5.79269 8H18.2073C18.5458 8 18.8613 8.17122 19.0458 8.45501L22 13H2L4.95424 8.45501C5.13871 8.17122 5.45421 8 5.79269 8Z" fill="currentColor"/>
</svg>
