<svg width="24" height="24" viewBox="0 0 24 24" fill="none" xmlns="http://www.w3.org/2000/svg">
<path opacity="0.3" d="M19 16V12C19 8.13401 15.866 5 12 5C8.13401 5 5 8.13401 5 12V16H19ZM21 16H3V12C3 7.02944 7.02944 3 12 3C16.9706 3 21 7.02944 21 12V16Z" fill="currentColor"/>
<path fill-rule="evenodd" clip-rule="evenodd" d="M5 14H6C7.10457 14 8 14.8954 8 16V19C8 20.1046 7.10457 21 6 21H5C3.89543 21 3 20.1046 3 19V16C3 14.8954 3.89543 14 5 14ZM18 14H19C20.1046 14 21 14.8954 21 16V19C21 20.1046 20.1046 21 19 21H18C16.8954 21 16 20.1046 16 19V16C16 14.8954 16.8954 14 18 14Z" fill="currentColor"/>
</svg>
