<svg width="24" height="24" viewBox="0 0 24 24" fill="none" xmlns="http://www.w3.org/2000/svg">
<path d="M19.2081 9.84839C20.3306 11.0179 21.0002 12 21.0002 12C21.0002 12 16.9093 18 12.0002 18C11.6895 18 11.3881 17.9865 11.0957 17.9608L19.2081 9.84839Z" fill="currentColor"/>
<path d="M14.5051 6.49485L12 9C10.3431 9 9 10.3431 9 12L5.52661 15.4734C3.75006 13.8335 3 12 3 12C3 12 5.45455 6 12 6C12.8665 6 13.7076 6.18695 14.5051 6.49485Z" fill="currentColor"/>
<path opacity="0.3" d="M18.5351 5.00003L5.1001 18.4351L6.51431 19.8493L19.9493 6.41424L18.5351 5.00003Z" fill="currentColor"/>
</svg>
