<svg width="24" height="24" viewBox="0 0 24 24" fill="none" xmlns="http://www.w3.org/2000/svg">
<path opacity="0.3" fill-rule="evenodd" clip-rule="evenodd" d="M17.9284 4.46472C19.1974 5.56485 20 7.18869 20 8.99997V16C20 19.3137 17.3137 22 14 22H10C6.68629 22 4 19.3137 4 16V8.99997C4 7.18869 4.8026 5.56485 6.07156 4.46472C6.51827 5.90088 9.00243 6.99997 12 6.99997C14.9976 6.99997 17.4817 5.90088 17.9284 4.46472Z" fill="currentColor"/>
<path fill-rule="evenodd" clip-rule="evenodd" d="M15.348 3.66753C14.5234 3.25523 13.3165 3 11.9998 3C10.6831 3 9.47619 3.25523 8.65158 3.66753C8.42596 3.78034 8.24898 3.89543 8.125 4C8.24898 4.10457 8.42596 4.21966 8.65158 4.33247C9.47619 4.74477 10.6831 5 11.9998 5C13.3165 5 14.5234 4.74477 15.348 4.33247C15.5736 4.21966 15.7506 4.10457 15.8746 4C15.7506 3.89543 15.5736 3.78034 15.348 3.66753Z" fill="currentColor"/>
</svg>
