<svg width="24" height="24" viewBox="0 0 24 24" fill="none" xmlns="http://www.w3.org/2000/svg">
<path fill-rule="evenodd" clip-rule="evenodd" d="M21 12C21 12.5523 20.5523 13 20 13H19C18.4477 13 18 12.5523 18 12C18 11.4477 18.4477 11 19 11H20C20.5523 11 21 11.4477 21 12ZM16 12C16 12.5523 15.5523 13 15 13H14C13.4477 13 13 12.5523 13 12C13 11.4477 13.4477 11 14 11H15C15.5523 11 16 11.4477 16 12ZM11 12C11 12.5523 10.5523 13 10 13H9C8.44772 13 8 12.5523 8 12C8 11.4477 8.44772 11 9 11H10C10.5523 11 11 11.4477 11 12ZM6 12C6 12.5523 5.55228 13 5 13H4C3.44772 13 3 12.5523 3 12C3 11.4477 3.44772 11 4 11H5C5.55228 11 6 11.4477 6 12Z" fill="currentColor"/>
<path opacity="0.3" fill-rule="evenodd" clip-rule="evenodd" d="M14.9599 21H9.04055C8.7644 21 8.54055 20.7761 8.54055 20.5C8.54055 20.3865 8.57919 20.2763 8.65011 20.1877L11.6098 16.488C11.7823 16.2724 12.0969 16.2375 12.3126 16.41C12.3414 16.433 12.3676 16.4592 12.3907 16.488L15.3504 20.1877C15.5229 20.4033 15.4879 20.7179 15.2723 20.8904C15.1836 20.9614 15.0735 21 14.9599 21ZM9.04055 3H14.9599C15.2361 3 15.4599 3.22386 15.4599 3.5C15.4599 3.61354 15.4213 3.72369 15.3504 3.81235L12.3907 7.51196C12.2182 7.72759 11.9035 7.76255 11.6879 7.59004C11.6591 7.56698 11.6329 7.54079 11.6098 7.51196L8.65011 3.81235C8.47761 3.59672 8.51257 3.28207 8.7282 3.10957C8.81686 3.03864 8.92701 3 9.04055 3Z" fill="currentColor"/>
</svg>
