<svg width="24" height="24" viewBox="0 0 24 24" fill="none" xmlns="http://www.w3.org/2000/svg">
<path opacity="0.3" fill-rule="evenodd" clip-rule="evenodd" d="M3.51457 18.6567L13.4141 8.75725C13.8046 8.36672 14.4378 8.36672 14.8283 8.75725L16.2425 10.1715C16.633 10.562 16.633 11.1952 16.2425 11.5857L6.343 21.4852C5.95248 21.8757 5.31931 21.8757 4.92879 21.4852L3.51457 20.071C3.12405 19.6804 3.12405 19.0473 3.51457 18.6567Z" fill="currentColor"/>
<path fill-rule="evenodd" clip-rule="evenodd" d="M9.87883 6.63604L13.4144 3.10051C13.8049 2.70999 14.4381 2.70999 14.8286 3.10051L21.8996 10.1716C22.2902 10.5621 22.2902 11.1953 21.8996 11.5858L18.3641 15.1213C17.9736 15.5119 17.3404 15.5119 16.9499 15.1213L9.87883 8.05026C9.48831 7.65973 9.48831 7.02657 9.87883 6.63604Z" fill="currentColor"/>
<path opacity="0.3" fill-rule="evenodd" clip-rule="evenodd" d="M17.3032 4.8682L18.0103 4.1611C18.2056 3.96583 18.5221 3.96583 18.7174 4.1611L20.8387 6.28242C21.034 6.47768 21.034 6.79426 20.8387 6.98952L20.1316 7.69663C19.9363 7.89189 19.6198 7.89189 19.4245 7.69663L17.3032 5.57531C17.1079 5.38005 17.1079 5.06346 17.3032 4.8682Z" fill="currentColor"/>
</svg>
