<svg width="24" height="24" viewBox="0 0 24 24" fill="none" xmlns="http://www.w3.org/2000/svg">
<path opacity="0.3" fill-rule="evenodd" clip-rule="evenodd" d="M18.4244 12.6464L21.2528 9.81798C21.4481 9.62272 21.7647 9.62272 21.9599 9.81798L22.667 10.5251C22.8623 10.7204 22.8623 11.0369 22.667 11.2322L19.8386 14.0606C19.6434 14.2559 19.3268 14.2559 19.1315 14.0606L18.4244 13.3535C18.2291 13.1583 18.2291 12.8417 18.4244 12.6464ZM3.2216 17.9497L13.1211 8.05022C13.5116 7.65969 14.1448 7.65969 14.5353 8.05022L15.9495 9.46443C16.34 9.85495 16.34 10.4881 15.9495 10.8786L6.05003 20.7781C5.65951 21.1687 5.02634 21.1687 4.63582 20.7781L3.2216 19.3639C2.83108 18.9734 2.83108 18.3402 3.2216 17.9497Z" fill="currentColor"/>
<path fill-rule="evenodd" clip-rule="evenodd" d="M9.58594 4.51465C11.5386 2.56203 14.7044 2.56203 16.657 4.51465L19.839 7.69663C20.0342 7.89189 20.0342 8.20847 19.839 8.40374L17.0106 11.2322C16.8153 11.4274 16.4987 11.4274 16.3035 11.2322L9.58594 4.51465Z" fill="currentColor"/>
</svg>
