<svg width="24" height="24" viewBox="0 0 24 24" fill="none" xmlns="http://www.w3.org/2000/svg">
<path opacity="0.3" fill-rule="evenodd" clip-rule="evenodd" d="M12.2016 22.0492L16.5 13H7L11.2984 22.0492C11.4168 22.2986 11.7151 22.4048 11.9645 22.2863C12.0685 22.2369 12.1523 22.1532 12.2016 22.0492Z" fill="currentColor"/>
<path fill-rule="evenodd" clip-rule="evenodd" d="M17 6H17.5C18.8807 6 20 7.11929 20 8.5C20 9.88071 18.8807 11 17.5 11H6.5C5.11929 11 4 9.88071 4 8.5C4 7.11929 5.11929 6 6.5 6H7C7 3.23858 9.23858 1 12 1C14.7614 1 17 3.23858 17 6Z" fill="currentColor"/>
</svg>
