<svg width="24" height="24" viewBox="0 0 24 24" fill="none" xmlns="http://www.w3.org/2000/svg">
<path fill-rule="evenodd" clip-rule="evenodd" d="M5 9H19C20.1046 9 21 9.89543 21 11V20C21 21.1046 20.1046 22 19 22H5C3.89543 22 3 21.1046 3 20V11C3 9.89543 3.89543 9 5 9ZM18.1444 10.8396L12 14.1482L5.85558 10.8396C5.49087 10.6433 5.03603 10.7797 4.83965 11.1444C4.64327 11.5091 4.77972 11.964 5.14442 12.1604L11.6444 15.6604C11.8664 15.7799 12.1336 15.7799 12.3556 15.6604L18.8556 12.1604C19.2203 11.964 19.3567 11.5091 19.1604 11.1444C18.964 10.7797 18.5091 10.6433 18.1444 10.8396Z" fill="currentColor"/>
<path opacity="0.3" d="M14.8877 2.83067L12.9312 2.83067V0.822998C12.9312 0.546856 12.7074 0.322998 12.4312 0.322998L11.4079 0.322998C11.1318 0.322998 10.9079 0.546856 10.9079 0.822998V2.83067L8.95144 2.83067C8.6753 2.83067 8.45144 3.05453 8.45144 3.33067C8.45144 3.44898 8.49339 3.56346 8.56984 3.65375L11.538 7.15942C11.7164 7.37017 12.0319 7.39636 12.2426 7.21793C12.2637 7.20007 12.2833 7.1805 12.3012 7.15942L15.2693 3.65375C15.4477 3.443 15.4215 3.12751 15.2108 2.94907C15.1205 2.87262 15.006 2.83067 14.8877 2.83067Z" fill="currentColor"/>
</svg>
