<svg width="24" height="24" viewBox="0 0 24 24" fill="none" xmlns="http://www.w3.org/2000/svg">
<path opacity="0.3" d="M9.86043 6.01159C9.94071 5.93131 10.0459 5.88074 10.1588 5.8682C10.4332 5.83771 10.6804 6.03547 10.7109 6.30993L11.2341 11.0188C11.2382 11.0555 11.2382 11.0925 11.2341 11.1292C11.2036 11.4036 10.9564 11.6014 10.682 11.5709L5.97314 11.0477C5.86029 11.0352 5.75508 10.9846 5.6748 10.9043C5.47954 10.7091 5.47954 10.3925 5.6748 10.1972L7.06051 8.81151L5.55904 7.31005C5.36378 7.11479 5.36378 6.79821 5.55904 6.60294L6.26615 5.89584C6.46141 5.70057 6.778 5.70057 6.97326 5.89584L8.47472 7.3973L9.86043 6.01159Z" fill="currentColor"/>
<path fill-rule="evenodd" clip-rule="evenodd" d="M12.0799 14.7839L14.284 12.5799C14.8927 11.9712 15.0436 11.0412 14.6586 10.2713L14.5337 10.0215C14.1487 9.25153 14.2996 8.32159 14.9084 7.71287L17.6412 4.98006C17.8364 4.7848 18.153 4.7848 18.3483 4.98006C18.3863 5.01807 18.4179 5.06194 18.4419 5.11001L19.5459 7.31796C20.3905 9.00707 20.0594 11.0471 18.7241 12.3825L12.7252 18.3813C11.2717 19.8348 9.12167 20.3424 7.17154 19.6923L4.75706 18.8875C4.49509 18.8002 4.35351 18.517 4.44083 18.255C4.46538 18.1814 4.50673 18.1145 4.56162 18.0596L7.21289 15.4083C7.82161 14.7996 8.75156 14.6487 9.52153 15.0337L9.77129 15.1586C10.5413 15.5436 11.4712 15.3927 12.0799 14.7839Z" fill="currentColor"/>
</svg>
