<svg width="24" height="24" viewBox="0 0 24 24" fill="none" xmlns="http://www.w3.org/2000/svg">
<path fill-rule="evenodd" clip-rule="evenodd" d="M22 17V21C22 22.1046 21.1046 23 20 23H4C2.89543 23 2 22.1046 2 21V17H6.27924L6.82339 18.6325C7.09562 19.4491 7.8599 20 8.72076 20H15.382C16.1395 20 16.832 19.572 17.1708 18.8944L18.118 17H22Z" fill="currentColor"/>
<path opacity="0.3" fill-rule="evenodd" clip-rule="evenodd" d="M2.5625 15L5.92654 9.01948C6.28078 8.38972 6.94715 8 7.66969 8H16.3303C17.0529 8 17.7192 8.38972 18.0735 9.01948L21.4375 15H18.118C17.3605 15 16.668 15.428 16.3292 16.1056L15.382 18H8.72076L8.17661 16.3675C7.90438 15.5509 7.1401 15 6.27924 15H2.5625Z" fill="currentColor"/>
<path d="M14.8877 2.83067L12.9312 2.83067V0.822998C12.9312 0.546856 12.7074 0.322998 12.4312 0.322998L11.4079 0.322998C11.1318 0.322998 10.9079 0.546856 10.9079 0.822998V2.83067L8.95144 2.83067C8.6753 2.83067 8.45144 3.05453 8.45144 3.33067C8.45144 3.44898 8.49339 3.56346 8.56984 3.65375L11.538 7.15942C11.7164 7.37017 12.0319 7.39636 12.2426 7.21793C12.2637 7.20007 12.2833 7.1805 12.3012 7.15942L15.2693 3.65375C15.4477 3.443 15.4215 3.12751 15.2108 2.94907C15.1205 2.87262 15.006 2.83067 14.8877 2.83067Z" fill="currentColor"/>
</svg>
