<svg width="24" height="24" viewBox="0 0 24 24" fill="none" xmlns="http://www.w3.org/2000/svg">
<path fill-rule="evenodd" clip-rule="evenodd" d="M17.9998 1.99997C19.6567 1.99997 20.9998 4.4624 20.9998 7.49997C20.9998 9.8947 20.165 11.932 18.9998 12.687L18.9998 19H5.99981V9.20707C5.99981 9.07446 5.94713 8.94729 5.85336 8.85352L4.37294 7.3731C4.16932 7.14536 4.18789 6.82929 4.39429 6.64579C6.92649 4.39464 8.96165 3.01269 10.4998 2.49997C11.9159 2.02794 17.8055 1.96555 17.927 2.00155C17.9512 2.0005 17.9755 1.99997 17.9998 1.99997ZM17.4998 11C17.7252 11 18.9998 9.07977 18.9998 6.99997C18.9998 5.13208 18.4998 4.49997 17.4998 3.99997C17.4998 3.99997 17.4998 12 17.4998 11ZM10.9998 15H11.9998C12.5521 15 12.9998 14.5522 12.9998 14C12.9998 13.4477 12.5521 13 11.9998 13H10.9998V12H11.9998C12.5521 12 12.9998 11.5522 12.9998 11C12.9998 10.4477 12.5521 9.99997 11.9998 9.99997H10.9998V8.99997H11.9998C12.5521 8.99997 12.9998 8.55225 12.9998 7.99997C12.9998 7.44768 12.5521 6.99997 11.9998 6.99997H10.9998C10.9998 5.8954 11.8952 4.99997 12.9998 4.99997C14.1044 4.99997 14.9998 5.8954 14.9998 6.99997V15C14.9998 16.1045 14.1044 17 12.9998 17C11.8952 17 10.9998 16.1045 10.9998 15Z" fill="currentColor"/>
<path opacity="0.3" fill-rule="evenodd" clip-rule="evenodd" d="M6 20H19C19.5523 20 20 20.4477 20 21V22H5V21C5 20.4477 5.44772 20 6 20Z" fill="currentColor"/>
</svg>
