<svg width="24" height="24" viewBox="0 0 24 24" fill="none" xmlns="http://www.w3.org/2000/svg">
<path opacity="0.3" d="M11.9486 8.31623L10.0513 7.68377C10.816 5.38965 12.0426 3.95855 13.7574 3.52986C14.6502 3.30665 16 1.86951 16 1H18C18 2.79716 16.0163 5.02668 14.2425 5.47014C13.2906 5.70811 12.5173 6.61035 11.9486 8.31623Z" fill="currentColor"/>
<path fill-rule="evenodd" clip-rule="evenodd" d="M3 7H21C22.1046 7 23 7.89543 23 9V19C23 20.1046 22.1046 21 21 21H3C1.89543 21 1 20.1046 1 19V9C1 7.89543 1.89543 7 3 7ZM7.5 9C7.22386 9 7 9.22386 7 9.5V10.5C7 10.7761 7.22386 11 7.5 11H8.5C8.77614 11 9 10.7761 9 10.5V9.5C9 9.22386 8.77614 9 8.5 9H7.5ZM3.5 9C3.22386 9 3 9.22386 3 9.5V10.5C3 10.7761 3.22386 11 3.5 11H4.5C4.77614 11 5 10.7761 5 10.5V9.5C5 9.22386 4.77614 9 4.5 9H3.5ZM5.5 13C5.22386 13 5 13.2239 5 13.5V14.5C5 14.7761 5.22386 15 5.5 15H6.5C6.77614 15 7 14.7761 7 14.5V13.5C7 13.2239 6.77614 13 6.5 13H5.5ZM9.5 13C9.22386 13 9 13.2239 9 13.5V14.5C9 14.7761 9.22386 15 9.5 15H10.5C10.7761 15 11 14.7761 11 14.5V13.5C11 13.2239 10.7761 13 10.5 13H9.5ZM13.5 13C13.2239 13 13 13.2239 13 13.5V14.5C13 14.7761 13.2239 15 13.5 15H14.5C14.7761 15 15 14.7761 15 14.5V13.5C15 13.2239 14.7761 13 14.5 13H13.5ZM17.5 13C17.2239 13 17 13.2239 17 13.5V14.5C17 14.7761 17.2239 15 17.5 15H18.5C18.7761 15 19 14.7761 19 14.5V13.5C19 13.2239 18.7761 13 18.5 13H17.5ZM11.5 9C11.2239 9 11 9.22386 11 9.5V10.5C11 10.7761 11.2239 11 11.5 11H12.5C12.7761 11 13 10.7761 13 10.5V9.5C13 9.22386 12.7761 9 12.5 9H11.5ZM5.5 17C5.22386 17 5 17.2239 5 17.5V18.5C5 18.7761 5.22386 19 5.5 19H18.5C18.7761 19 19 18.7761 19 18.5V17.5C19 17.2239 18.7761 17 18.5 17H5.5ZM15.5 9C15.2239 9 15 9.22386 15 9.5V10.5C15 10.7761 15.2239 11 15.5 11H16.5C16.7761 11 17 10.7761 17 10.5V9.5C17 9.22386 16.7761 9 16.5 9H15.5ZM19.5 9C19.2239 9 19 9.22386 19 9.5V10.5C19 10.7761 19.2239 11 19.5 11H20.5C20.7761 11 21 10.7761 21 10.5V9.5C21 9.22386 20.7761 9 20.5 9H19.5Z" fill="currentColor"/>
</svg>
