<svg width="24" height="24" viewBox="0 0 24 24" fill="none" xmlns="http://www.w3.org/2000/svg">
<path fill-rule="evenodd" clip-rule="evenodd" d="M5 8H19C20.1046 8 21 8.89543 21 10V20C21 21.1046 20.1046 22 19 22H5C3.89543 22 3 21.1046 3 20V10C3 8.89543 3.89543 8 5 8ZM12 20C14.7614 20 17 17.7614 17 15C17 12.2386 14.7614 10 12 10C9.23858 10 7 12.2386 7 15C7 17.7614 9.23858 20 12 20ZM11.5731 13.5616L12 11L12.4269 13.5616C13.0474 13.7455 13.5 14.3199 13.5 15C13.5 15.8284 12.8284 16.5 12 16.5C11.1716 16.5 10.5 15.8284 10.5 15C10.5 14.3199 10.9526 13.7455 11.5731 13.5616Z" fill="currentColor"/>
<path opacity="0.3" fill-rule="evenodd" clip-rule="evenodd" d="M13.9999 6V8H9.99988V6H7.80265C6.67638 6 5.62462 5.43712 4.99988 4.5L4.51811 3.77735C4.36493 3.54759 4.42702 3.23715 4.65679 3.08397C4.73892 3.02922 4.83542 3 4.93414 3H19.0656C19.3418 3 19.5656 3.22386 19.5656 3.5C19.5656 3.59871 19.5364 3.69522 19.4816 3.77735L18.9999 4.5C18.3751 5.43712 17.3234 6 16.1971 6H13.9999Z" fill="currentColor"/>
</svg>
