<svg width="24" height="24" viewBox="0 0 24 24" fill="none" xmlns="http://www.w3.org/2000/svg">
<path opacity="0.3" fill-rule="evenodd" clip-rule="evenodd" d="M5.7826 14.6464L6.48971 15.3535C6.88024 15.744 6.88024 16.3772 6.48971 16.7677L3.66128 19.5962C3.27076 19.9867 2.63759 19.9867 2.24707 19.5962L1.53996 18.8891C1.14944 18.4985 1.14944 17.8654 1.53996 17.4748L4.36839 14.6464C4.75891 14.2559 5.39208 14.2559 5.7826 14.6464Z" fill="currentColor"/>
<path fill-rule="evenodd" clip-rule="evenodd" d="M6.48975 12.5252L17.0963 1.91858L22.0461 6.86833C23.2177 8.0399 23.2177 9.93939 22.0461 11.111L15.6821 17.4749C14.5106 18.6465 12.6111 18.6465 11.4395 17.4749L6.48975 12.5252ZM17.157 7.51477C17.7428 6.92899 17.7428 5.97924 17.157 5.39345C16.5712 4.80767 15.6215 4.80767 15.0357 5.39345C14.4499 5.97924 14.4499 6.92899 15.0357 7.51477C15.6215 8.10056 16.5712 8.10056 17.157 7.51477Z" fill="currentColor"/>
</svg>
