<svg width="24" height="24" viewBox="0 0 24 24" fill="none" xmlns="http://www.w3.org/2000/svg">
<path fill-rule="evenodd" clip-rule="evenodd" d="M6 3L6.45025 7.50248C6.47849 7.78492 6.71616 8 7 8C7.28384 8 7.52151 7.78492 7.54975 7.50248L8 3H9L9.45025 7.50248C9.47849 7.78492 9.71616 8 10 8C10.2838 8 10.5215 7.78492 10.5498 7.50248L11 3H12V7.5C12 9.433 10.433 11 8.5 11C6.567 11 5 9.433 5 7.5V3H6Z" fill="currentColor"/>
<path opacity="0.3" fill-rule="evenodd" clip-rule="evenodd" d="M8.50003 13C9.06107 13 9.52438 13.4383 9.5555 13.9985L9.91683 20.5023C9.9603 21.2848 9.36122 21.9543 8.57874 21.9978C8.55253 21.9993 8.52629 22 8.50003 22C7.71635 22 7.08105 21.3647 7.08105 20.581C7.08105 20.5548 7.08178 20.5285 7.08324 20.5023L7.44456 13.9985C7.47569 13.4383 7.939 13 8.50003 13Z" fill="currentColor"/>
<path opacity="0.3" fill-rule="evenodd" clip-rule="evenodd" d="M17.5002 15C18.0636 15 18.5313 15.4354 18.5714 15.9975L18.8933 20.5038C18.9483 21.2732 18.3691 21.9415 17.5997 21.9965C17.5666 21.9988 17.5334 22 17.5002 22C16.7288 22 16.1035 21.3747 16.1035 20.6033C16.1035 20.5701 16.1047 20.5369 16.1071 20.5038L16.4289 15.9975C16.4691 15.4354 16.9367 15 17.5002 15Z" fill="currentColor"/>
<path fill-rule="evenodd" clip-rule="evenodd" d="M19 3V13H15V7C15 4.79086 16.7909 3 19 3Z" fill="currentColor"/>
</svg>
