<svg width="24" height="24" viewBox="0 0 24 24" fill="none" xmlns="http://www.w3.org/2000/svg">
<path fill-rule="evenodd" clip-rule="evenodd" d="M3.98847 3.06006L11.0595 10.1311L8.23111 12.9596L3.98847 8.71691C2.42637 7.15482 2.42637 4.62216 3.98847 3.06006Z" fill="currentColor"/>
<path fill-rule="evenodd" clip-rule="evenodd" d="M17.7541 3.90706L14.8887 7.40917C14.709 7.62885 14.7249 7.94899 14.9256 8.1497C15.1263 8.35041 15.4465 8.36637 15.6662 8.18663L19.1683 5.32127L19.8754 6.02838L17.01 9.53049C16.8303 9.75017 16.8462 10.0703 17.047 10.271C17.2477 10.4717 17.5678 10.4877 17.7875 10.308L21.2896 7.44259L21.9967 8.1497L18.8147 11.3317C17.4479 12.6985 15.2318 12.6985 13.865 11.3317C12.4981 9.96484 12.4981 7.74877 13.865 6.38193L17.047 3.19995L17.7541 3.90706Z" fill="currentColor"/>
<path opacity="0.3" fill-rule="evenodd" clip-rule="evenodd" d="M11.0754 13.9246C11.4716 14.3208 11.4877 14.958 11.112 15.3736L6.14189 20.8725C5.61375 21.4568 4.71191 21.5024 4.12758 20.9742C4.10978 20.9581 4.09239 20.9416 4.07542 20.9246C3.51848 20.3677 3.51848 19.4647 4.07542 18.9078C4.09239 18.8908 4.10978 18.8743 4.12758 18.8582L9.62644 13.8881C10.0421 13.5124 10.6793 13.5285 11.0754 13.9246Z" fill="currentColor"/>
<path opacity="0.3" fill-rule="evenodd" clip-rule="evenodd" d="M13.0756 13.9246C13.4718 13.5285 14.109 13.5124 14.5246 13.8881L20.0235 18.8582C20.0413 18.8743 20.0587 18.8908 20.0756 18.9078C20.6326 19.4647 20.6326 20.3677 20.0756 20.9246C20.0587 20.9416 20.0413 20.9581 20.0235 20.9742C19.4392 21.5024 18.5373 21.4568 18.0092 20.8725L13.0391 15.3736C12.6634 14.958 12.6795 14.3208 13.0756 13.9246Z" fill="currentColor"/>
</svg>
