<svg width="24" height="24" viewBox="0 0 24 24" fill="none" xmlns="http://www.w3.org/2000/svg">
<path opacity="0.3" fill-rule="evenodd" clip-rule="evenodd" d="M7 5H17C17.5523 5 18 5.44772 18 6C18 6.55228 17.5523 7 17 7H7C6.44772 7 6 6.55228 6 6C6 5.44772 6.44772 5 7 5ZM7 9H17C17.5523 9 18 9.44772 18 10C18 10.5523 17.5523 11 17 11H7C6.44772 11 6 10.5523 6 10C6 9.44772 6.44772 9 7 9ZM7 13H17C17.5523 13 18 13.4477 18 14C18 14.5523 17.5523 15 17 15H7C6.44772 15 6 14.5523 6 14C6 13.4477 6.44772 13 7 13ZM7 17H17C17.5523 17 18 17.4477 18 18C18 18.5523 17.5523 19 17 19H7C6.44772 19 6 18.5523 6 18C6 17.4477 6.44772 17 7 17Z" fill="currentColor"/>
<path fill-rule="evenodd" clip-rule="evenodd" d="M5.5 2C6.32843 2 7 2.67157 7 3.5V20.5C7 21.3284 6.32843 22 5.5 22C4.67157 22 4 21.3284 4 20.5V3.5C4 2.67157 4.67157 2 5.5 2ZM18.5 2C19.3284 2 20 2.67157 20 3.5V20.5C20 21.3284 19.3284 22 18.5 22C17.6716 22 17 21.3284 17 20.5V3.5C17 2.67157 17.6716 2 18.5 2Z" fill="currentColor"/>
</svg>
