<svg width="24" height="24" viewBox="0 0 24 24" fill="none" xmlns="http://www.w3.org/2000/svg">
<path opacity="0.3" fill-rule="evenodd" clip-rule="evenodd" d="M23.3744 7.61092C23.765 8.00144 23.765 8.6346 23.3744 9.02513L17.0105 15.3891C16.62 15.7796 15.9868 15.7796 15.5963 15.3891L14.1821 13.9749C13.7915 13.5844 13.7915 12.9512 14.1821 12.5607L20.546 6.1967C20.9365 5.80618 21.5697 5.80618 21.9602 6.1967L23.3744 7.61092Z" fill="currentColor"/>
<path fill-rule="evenodd" clip-rule="evenodd" d="M9.23227 18.9247L12.7678 15.3891L14.182 16.8033L10.6465 20.3389L10.6277 20.3201C8.43445 22.0912 4.91232 21.6758 2.51476 19.2782C0.117197 16.8806 0.0171459 13.6739 1.82324 11.5156L9.23227 18.9247Z" fill="currentColor"/>
</svg>
