<svg width="24" height="24" viewBox="0 0 24 24" fill="none" xmlns="http://www.w3.org/2000/svg">
<path opacity="0.3" fill-rule="evenodd" clip-rule="evenodd" d="M12 2C12.5523 2 13 2.44772 13 3V11C13 11.5523 12.5523 12 12 12C11.4477 12 11 11.5523 11 11V3C11 2.44772 11.4477 2 12 2Z" fill="currentColor"/>
<path opacity="0.3" fill-rule="evenodd" clip-rule="evenodd" d="M8.12598 19H15.8739C15.4299 20.7252 13.8638 22 12 22C10.1361 22 8.57002 20.7252 8.12598 19Z" fill="currentColor"/>
<path fill-rule="evenodd" clip-rule="evenodd" d="M12 8C16.9706 8 21 12.0294 21 17H3C3 12.0294 7.02944 8 12 8Z" fill="currentColor"/>
</svg>
