<svg width="24" height="24" viewBox="0 0 24 24" fill="none" xmlns="http://www.w3.org/2000/svg">
<path fill-rule="evenodd" clip-rule="evenodd" d="M10 19H14C15.1046 19 16 19.8954 16 21H8C8 19.8954 8.89543 19 10 19Z" fill="currentColor"/>
<path opacity="0.3" d="M13 13C13 12.4477 12.5523 12 12 12C11.4477 12 11 12.4477 11 13V17C11 17.5523 11.4477 18 12 18C12.5523 18 13 17.5523 13 17V13Z" fill="currentColor"/>
<path d="M17.1907 6.96587C17.0477 6.4324 16.4994 6.11582 15.9659 6.25876C15.4325 6.4017 15.1159 6.95004 15.2588 7.4835L16.0353 10.3813C16.1782 10.9147 16.7266 11.2313 17.26 11.0884C17.7935 10.9454 18.1101 10.3971 17.9671 9.86364L17.1907 6.96587Z" fill="currentColor"/>
<path fill-rule="evenodd" clip-rule="evenodd" d="M7.44152 4H16.5585C17.4193 4 18.1836 4.55086 18.4558 5.36754L21 13H3L5.54415 5.36754C5.81638 4.55086 6.58066 4 7.44152 4Z" fill="currentColor"/>
</svg>
