<svg width="24" height="24" viewBox="0 0 24 24" fill="none" xmlns="http://www.w3.org/2000/svg">
<path d="M6.0002 8V16H18.0002V8H6.0002ZM20.0002 16H21.3822C21.7609 16 22.1072 16.214 22.2766 16.5528L22.5002 17C22.6709 17.3413 22.5325 17.7564 22.1912 17.9271C22.0952 17.975 21.9894 18 21.8822 18H2.11823C1.73661 18 1.42725 17.6906 1.42725 17.309C1.42725 17.2017 1.45222 17.0959 1.5002 17L1.7238 16.5528C1.89319 16.214 2.23946 16 2.61823 16H4.0002V8C4.0002 6.89543 4.89563 6 6.0002 6H18.0002C19.1048 6 20.0002 6.89543 20.0002 8V16Z" fill="currentColor"/>
<path opacity="0.3" fill-rule="evenodd" clip-rule="evenodd" d="M6 8V16H18V8H6Z" fill="currentColor"/>
</svg>
