<svg width="24" height="24" viewBox="0 0 24 24" fill="none" xmlns="http://www.w3.org/2000/svg">
<path d="M12.9338 16.0724L19.3602 10.9564L19.5184 10.8312C20.1679 10.3169 20.2775 9.3735 19.7632 8.72404C19.692 8.63411 19.6107 8.55264 19.5209 8.48124L12.9339 3.24252C12.3874 2.80783 11.6131 2.80783 11.0666 3.24252L4.47506 8.48483C3.82669 9.00049 3.71911 9.94413 4.23477 10.5925C4.30524 10.6811 4.38552 10.7615 4.47406 10.832L4.63024 10.9564L11.0661 16.073C11.6129 16.5077 12.3874 16.5074 12.9338 16.0724Z" fill="currentColor"/>
<path opacity="0.3" fill-rule="evenodd" clip-rule="evenodd" d="M11.0564 18.6707L5.33594 14.123C4.94555 13.8126 4.37748 13.8775 4.06711 14.2679C4.06473 14.2709 4.06236 14.2739 4.06001 14.2769C3.75258 14.6739 3.82518 15.2449 4.22216 15.5524C4.2236 15.5535 4.22504 15.5546 4.22649 15.5557L11.0873 20.8032C11.6251 21.2145 12.3718 21.2146 12.9096 20.8033L19.7678 15.5599C20.1693 15.2529 20.246 14.6785 19.939 14.2769C19.9377 14.2752 19.9363 14.2735 19.935 14.2718C19.6267 13.8744 19.0546 13.8022 18.6572 14.1105C18.6544 14.1128 18.6515 14.115 18.6486 14.1173L12.9235 18.6706C12.377 19.1052 11.6029 19.1053 11.0564 18.6707Z" fill="currentColor"/>
</svg>
