<svg width="24" height="24" viewBox="0 0 24 24" fill="none" xmlns="http://www.w3.org/2000/svg">
<path fill-rule="evenodd" clip-rule="evenodd" d="M10.5 5H20.5C21.3284 5 22 5.67157 22 6.5V9.5C22 10.3284 21.3284 11 20.5 11H10.5C9.67157 11 9 10.3284 9 9.5V6.5C9 5.67157 9.67157 5 10.5 5ZM10.5 13H20.5C21.3284 13 22 13.6716 22 14.5V17.5C22 18.3284 21.3284 19 20.5 19H10.5C9.67157 19 9 18.3284 9 17.5V14.5C9 13.6716 9.67157 13 10.5 13Z" fill="currentColor"/>
<path opacity="0.3" d="M6 5H3C2.44772 5 2 5.44772 2 6V18C2 18.5523 2.44772 19 3 19H6C6.55228 19 7 18.5523 7 18V6C7 5.44772 6.55228 5 6 5Z" fill="currentColor"/>
</svg>
