<svg width="24" height="24" viewBox="0 0 24 24" fill="none" xmlns="http://www.w3.org/2000/svg">
<path fill-rule="evenodd" clip-rule="evenodd" d="M1.5 5H4.5C5.32843 5 6 5.67157 6 6.5V17.5C6 18.3284 5.32843 19 4.5 19H1.5C0.671573 19 0 18.3284 0 17.5V6.5C0 5.67157 0.671573 5 1.5 5ZM18.5 5H22.5C23.3284 5 24 5.67157 24 6.5V17.5C24 18.3284 23.3284 19 22.5 19H18.5C17.6716 19 17 18.3284 17 17.5V6.5C17 5.67157 17.6716 5 18.5 5Z" fill="currentColor"/>
<path opacity="0.3" d="M13.5 5H9.5C8.67157 5 8 5.67157 8 6.5V17.5C8 18.3284 8.67157 19 9.5 19H13.5C14.3284 19 15 18.3284 15 17.5V6.5C15 5.67157 14.3284 5 13.5 5Z" fill="currentColor"/>
</svg>
