<svg width="24" height="24" viewBox="0 0 24 24" fill="none" xmlns="http://www.w3.org/2000/svg">
<path d="M3 7.19995H10C10.6 7.19995 11 6.79995 11 6.19995V3.19995C11 2.59995 10.6 2.19995 10 2.19995H3C2.4 2.19995 2 2.59995 2 3.19995V6.19995C2 6.69995 2.4 7.19995 3 7.19995Z" fill="currentColor"/>
<path opacity="0.3" d="M10.1001 22H3.1001C2.5001 22 2.1001 21.6 2.1001 21V10C2.1001 9.4 2.5001 9 3.1001 9H10.1001C10.7001 9 11.1001 9.4 11.1001 9V20C11.1001 21.6 10.7001 22 10.1001 22ZM13.1001 18V21C13.1001 21.6 13.5001 22 14.1001 22H21.1001C21.7001 22 22.1001 21.6 22.1001 21V18C22.1001 17.4 21.7001 17 21.1001 17H14.1001C13.5001 17 13.1001 17.4 13.1001 18ZM21.1001 2H14.1001C13.5001 2 13.1001 2.4 13.1001 3V14C13.1001 14.6 13.5001 15 14.1001 15H21.1001C21.7001 15 22.1001 14.6 22.1001 14V3C22.1001 2.4 21.7001 2 21.1001 2Z" fill="currentColor"/>
</svg>
