<svg width="24" height="24" viewBox="0 0 24 24" fill="none" xmlns="http://www.w3.org/2000/svg">
<path fill-rule="evenodd" clip-rule="evenodd" d="M3 4H20C20.5523 4 21 4.44772 21 5V7C21 7.55228 20.5523 8 20 8H3C2.44772 8 2 7.55228 2 7V5C2 4.44772 2.44772 4 3 4ZM3 10H13C13.5523 10 14 10.4477 14 11V13C14 13.5523 13.5523 14 13 14H3C2.44772 14 2 13.5523 2 13V11C2 10.4477 2.44772 10 3 10ZM3 16H13C13.5523 16 14 16.4477 14 17V19C14 19.5523 13.5523 20 13 20H3C2.44772 20 2 19.5523 2 19V17C2 16.4477 2.44772 16 3 16Z" fill="currentColor"/>
<path opacity="0.3" d="M20 10H17C16.4477 10 16 10.4477 16 11V19C16 19.5523 16.4477 20 17 20H20C20.5523 20 21 19.5523 21 19V11C21 10.4477 20.5523 10 20 10Z" fill="currentColor"/>
</svg>
