<svg width="24" height="24" viewBox="0 0 24 24" fill="none" xmlns="http://www.w3.org/2000/svg">
<path fill-rule="evenodd" clip-rule="evenodd" d="M10 4H21C21.5523 4 22 4.44772 22 5V7C22 7.55228 21.5523 8 21 8H10C9.44772 8 9 7.55228 9 7V5C9 4.44772 9.44772 4 10 4ZM10 10H21C21.5523 10 22 10.4477 22 11V13C22 13.5523 21.5523 14 21 14H10C9.44772 14 9 13.5523 9 13V11C9 10.4477 9.44772 10 10 10ZM10 16H21C21.5523 16 22 16.4477 22 17V19C22 19.5523 21.5523 20 21 20H10C9.44772 20 9 19.5523 9 19V17C9 16.4477 9.44772 16 10 16Z" fill="currentColor"/>
<path opacity="0.3" d="M6 4H3C2.44772 4 2 4.44772 2 5V19C2 19.5523 2.44772 20 3 20H6C6.55228 20 7 19.5523 7 19V5C7 4.44772 6.55228 4 6 4Z" fill="currentColor"/>
</svg>
