<svg width="24" height="24" viewBox="0 0 24 24" fill="none" xmlns="http://www.w3.org/2000/svg">
<path d="M20 4H3C2.44772 4 2 4.44772 2 5V7C2 7.55228 2.44772 8 3 8H20C20.5523 8 21 7.55228 21 7V5C21 4.44772 20.5523 4 20 4Z" fill="currentColor"/>
<path opacity="0.3" fill-rule="evenodd" clip-rule="evenodd" d="M3 10H6C6.55228 10 7 10.4477 7 11V19C7 19.5523 6.55228 20 6 20H3C2.44772 20 2 19.5523 2 19V11C2 10.4477 2.44772 10 3 10ZM10 10H13C13.5523 10 14 10.4477 14 11V19C14 19.5523 13.5523 20 13 20H10C9.44772 20 9 19.5523 9 19V11C9 10.4477 9.44772 10 10 10ZM17 10H20C20.5523 10 21 10.4477 21 11V19C21 19.5523 20.5523 20 20 20H17C16.4477 20 16 19.5523 16 19V11C16 10.4477 16.4477 10 17 10Z" fill="currentColor"/>
</svg>
