<svg width="24" height="24" viewBox="0 0 24 24" fill="none" xmlns="http://www.w3.org/2000/svg">
<path opacity="0.3" d="M12 22C17.5228 22 22 17.5228 22 12C22 6.47715 17.5228 2 12 2C6.47715 2 2 6.47715 2 12C2 17.5228 6.47715 22 12 22Z" fill="currentColor"/>
<path d="M14.6774 7.46323C15.0121 7.1285 15.0121 6.58579 14.6774 6.25105C14.3426 5.91632 13.7999 5.91632 13.4652 6.25105L8.32234 11.3939C7.99785 11.7184 7.98649 12.2409 8.29659 12.5792L13.0109 17.722C13.3308 18.071 13.873 18.0946 14.2219 17.7747C14.5709 17.4548 14.5944 16.9126 14.2746 16.5637L10.1148 12.0258L14.6774 7.46323Z" fill="currentColor"/>
</svg>
