<svg width="24" height="24" viewBox="0 0 24 24" fill="none" xmlns="http://www.w3.org/2000/svg">
<path fill-rule="evenodd" clip-rule="evenodd" d="M5 3H6C6.55228 3 7 3.44772 7 4V20C7 20.5523 6.55228 21 6 21H5C4.44772 21 4 20.5523 4 20V4C4 3.44772 4.44772 3 5 3ZM10 3H11C11.5523 3 12 3.44772 12 4V20C12 20.5523 11.5523 21 11 21H10C9.44772 21 9 20.5523 9 20V4C9 3.44772 9.44772 3 10 3Z" fill="currentColor"/>
<path opacity="0.3" d="M15.3681 3.27318L14.4226 3.59875C13.9004 3.77855 13.6228 4.34764 13.8026 4.86983L19.0117 19.9981C19.1915 20.5203 19.7606 20.7979 20.2828 20.6181L21.2283 20.2925C21.7505 20.1127 22.0281 19.5436 21.8483 19.0214L16.6392 3.89313C16.4594 3.37093 15.8903 3.09337 15.3681 3.27318Z" fill="currentColor"/>
</svg>
