<svg width="24" height="24" viewBox="0 0 24 24" fill="none" xmlns="http://www.w3.org/2000/svg">
<path opacity="0.3" fill-rule="evenodd" clip-rule="evenodd" d="M8 4C8.55228 4 9 4.44772 9 5V17H18C18.5523 17 19 17.4477 19 18C19 18.5523 18.5523 19 18 19H9C8.44772 19 8 18.5523 8 18C7.44772 18 7 17.5523 7 17V6H5C4.44772 6 4 5.55228 4 5C4 4.44772 4.44772 4 5 4H8Z" fill="currentColor"/>
<path opacity="0.3" d="M19 11C19 8.79086 17.2091 7 15 7C12.7909 7 11 8.79086 11 11C11 13.2091 12.7909 15 15 15C17.2091 15 19 13.2091 19 11Z" fill="currentColor"/>
<path d="M8 21C9.65685 21 11 19.6569 11 18C11 16.3431 9.65685 15 8 15C6.34315 15 5 16.3431 5 18C5 19.6569 6.34315 21 8 21Z" fill="currentColor"/>
</svg>
