<svg width="24" height="24" viewBox="0 0 24 24" fill="none" xmlns="http://www.w3.org/2000/svg">
<path opacity="0.3" fill-rule="evenodd" clip-rule="evenodd" d="M7.3898 2.83497C8.65217 2.29745 10.0413 2.00002 11.5 2.00002C17.299 2.00002 22 6.70103 22 12.5C22 18.299 17.299 23 11.5 23C5.70101 23 1 18.299 1 12.5C1 11.5151 1.13559 10.562 1.38913 9.65807L3.31481 10.1982C3.10672 10.9401 3 11.7119 3 12.5C3 17.1944 6.80558 21 11.5 21C16.1944 21 20 17.1944 20 12.5C20 7.8056 16.1944 4.00002 11.5 4.00002C10.5488 4.00002 9.62236 4.15594 8.74872 4.45448L9.93948 5.87357C10.0088 5.95619 10.0496 6.059 10.0557 6.16668C10.0713 6.44238 9.86045 6.67854 9.58475 6.69417L4.71778 6.96997C4.66931 6.97272 4.6207 6.96839 4.57348 6.95713C4.30487 6.89306 4.13907 6.62337 4.20314 6.35476L5.33164 1.62363C5.35654 1.51922 5.41438 1.42561 5.4966 1.35661C5.70814 1.17911 6.02352 1.2067 6.20102 1.41824L7.3898 2.83497Z" fill="currentColor"/>
<path fill-rule="evenodd" clip-rule="evenodd" d="M14.5 11C15.0523 11 15.5 11.4477 15.5 12V15C15.5 15.5523 15.0523 16 14.5 16H9.5C8.94772 16 8.5 15.5523 8.5 15V12C8.5 11.4477 8.94772 11 9.5 11V10.5C9.5 9.11929 10.6193 8 12 8C13.3807 8 14.5 9.11929 14.5 10.5V11ZM12 9C11.1716 9 10.5 9.67157 10.5 10.5V11H13.5V10.5C13.5 9.67157 12.8284 9 12 9Z" fill="currentColor"/>
</svg>
