<svg width="24" height="24" viewBox="0 0 24 24" fill="none" xmlns="http://www.w3.org/2000/svg">
<path opacity="0.3" d="M15.4509 17.4029L14.1785 15.8599C15.3245 14.9149 16 13.5137 16 12C16 10.4912 15.329 9.09417 14.1894 8.14908L15.4661 6.60962C17.0591 7.93072 18 9.88957 18 12C18 14.1173 17.0529 16.082 15.4509 17.4029ZM18.0211 20.4681L16.7438 18.9292C18.7927 17.2287 20 14.714 20 12C20 9.28973 18.7961 6.77819 16.752 5.07765L18.0311 3.54016C20.5272 5.61675 22 8.68921 22 12C22 15.3153 20.5231 18.3916 18.0211 20.4681ZM8.5491 17.4029C6.94714 16.082 6 14.1173 6 12C6 9.88957 6.94091 7.93072 8.53389 6.60962L9.81062 8.14908C8.67104 9.09417 8 10.4912 8 12C8 13.5137 8.6755 14.9149 9.8215 15.8599L8.5491 17.4029ZM5.97889 20.4681C3.47693 18.3916 2 15.3153 2 12C2 8.68921 3.47282 5.61675 5.96885 3.54016L7.24797 5.07765C5.20393 6.77819 4 9.28973 4 12C4 14.714 5.2073 17.2287 7.25619 18.9292L5.97889 20.4681Z" fill="currentColor"/>
<path d="M12 14C13.1046 14 14 13.1046 14 12C14 10.8954 13.1046 10 12 10C10.8954 10 10 10.8954 10 12C10 13.1046 10.8954 14 12 14Z" fill="currentColor"/>
</svg>
