<svg width="24" height="24" viewBox="0 0 24 24" fill="none" xmlns="http://www.w3.org/2000/svg">
<path opacity="0.3" d="M16.4509 17.4029L15.1785 15.8599C16.3245 14.9149 17 13.5137 17 12C17 10.4912 16.329 9.09417 15.1894 8.14908L16.4661 6.60962C18.0591 7.93072 19 9.88957 19 12C19 14.1173 18.0529 16.082 16.4509 17.4029ZM19.0211 20.4681L17.7438 18.9292C19.7927 17.2287 21 14.714 21 12C21 9.28973 19.7961 6.77819 17.752 5.07765L19.0311 3.54016C21.5272 5.61675 23 8.68921 23 12C23 15.3153 21.5231 18.3916 19.0211 20.4681ZM7.5491 17.4029C5.94714 16.082 5 14.1173 5 12C5 9.88957 5.94091 7.93072 7.53389 6.60962L8.81062 8.14908C7.67104 9.09417 7 10.4912 7 12C7 13.5137 7.6755 14.9149 8.8215 15.8599L7.5491 17.4029ZM4.97889 20.4681C2.47693 18.3916 1 15.3153 1 12C1 8.68921 2.47282 5.61675 4.96885 3.54016L6.24797 5.07765C4.20393 6.77819 3 9.28973 3 12C3 14.714 4.2073 17.2287 6.25619 18.9292L4.97889 20.4681Z" fill="currentColor"/>
<path fill-rule="evenodd" clip-rule="evenodd" d="M11 14.292C10.117 13.9062 9.5 13.0252 9.5 12C9.5 10.6193 10.6193 9.5 12 9.5C13.3807 9.5 14.5 10.6193 14.5 12C14.5 13.0252 13.883 13.9062 13 14.292V20C13 20.5523 12.5523 21 12 21C11.4477 21 11 20.5523 11 20V14.292Z" fill="currentColor"/>
</svg>
