<svg width="24" height="24" viewBox="0 0 24 24" fill="none" xmlns="http://www.w3.org/2000/svg">
<path d="M17.071 7.34314L15.6568 5.92893L12.1212 9.46446L13.5355 10.8787L17.071 7.34314ZM19.1923 8.05025L5.05017 22.1924C4.65965 22.5829 4.02648 22.5829 3.63596 22.1924L0.807531 19.364C0.417007 18.9734 0.417007 18.3403 0.807531 17.9497L14.9497 3.80761C15.3402 3.41708 15.9734 3.41708 16.3639 3.80761L19.1923 6.63603C19.5828 7.02656 19.5828 7.65972 19.1923 8.05025Z" fill="currentColor"/>
<path opacity="0.3" fill-rule="evenodd" clip-rule="evenodd" d="M17.5 12H18.5C18.7761 12 19 12.2239 19 12.5V13.5C19 13.7761 18.7761 14 18.5 14H17.5C17.2239 14 17 13.7761 17 13.5V12.5C17 12.2239 17.2239 12 17.5 12ZM20.5 9H21.5C21.7761 9 22 9.22386 22 9.5V10.5C22 10.7761 21.7761 11 21.5 11H20.5C20.2239 11 20 10.7761 20 10.5V9.5C20 9.22386 20.2239 9 20.5 9ZM21.5 13H22.5C22.7761 13 23 13.2239 23 13.5V14.5C23 14.7761 22.7761 15 22.5 15H21.5C21.2239 15 21 14.7761 21 14.5V13.5C21 13.2239 21.2239 13 21.5 13Z" fill="currentColor"/>
</svg>
