<svg width="24" height="24" viewBox="0 0 24 24" fill="none" xmlns="http://www.w3.org/2000/svg">
<path fill-rule="evenodd" clip-rule="evenodd" d="M11.5751 21.2001C6.1751 21.2001 2.8501 17.4 2.8501 12.575C2.8501 6.87505 7.3751 3.05005 12.5251 3.05005C17.4501 3.05005 21.1251 6.07505 21.1251 10.85C21.1251 15.2 18.8251 16.925 16.5251 16.925C15.4001 16.925 14.4751 16.4 14.0751 15.65C13.3001 16.4 12.1251 16.875 11.0001 16.875C8.2501 16.875 6.8501 14.925 6.8501 12.575C6.8501 9.55005 9.0501 7.10005 12.2751 7.10005C13.2001 7.10005 13.9501 7.35005 14.5251 7.77505L14.6251 7.35005H17.0001L15.8251 12.85C15.6001 13.95 15.8501 14.825 16.9251 14.825C18.2501 14.825 19.0251 13.725 19.0251 10.8C19.0251 6.90005 15.9501 5.07505 12.5001 5.07505C8.6251 5.07505 5.0501 7.75005 5.0501 12.575C5.0501 16.525 7.5751 19.1 11.5751 19.1C13.0751 19.1 14.6251 18.775 15.9751 18.075L16.8001 20.1C15.2501 20.8001 13.2001 21.2001 11.5751 21.2001ZM11.4001 14.525C12.0501 14.525 12.7001 14.35 13.2251 13.825L14.0251 10.125C13.5751 9.65005 12.9251 9.42505 12.3001 9.42505C10.6501 9.42505 9.4501 10.7 9.4501 12.375C9.4501 13.675 10.0751 14.525 11.4001 14.525Z" fill="currentColor"/>
</svg>
