<svg width="24" height="24" viewBox="0 0 24 24" fill="none" xmlns="http://www.w3.org/2000/svg">
<path opacity="0.3" fill-rule="evenodd" clip-rule="evenodd" d="M14.8572 14C14.9499 13.7223 15 13.4263 15 13.119V7.88095C15 6.28985 13.6569 5 12 5H11.7273C10.221 5 9 6.17259 9 7.61905H10.0909C10.0909 6.75117 10.8235 6.04762 11.7273 6.04762H12C13.0544 6.04762 13.9091 6.86843 13.9091 7.88095V13.119C13.9091 13.4383 13.8241 13.7386 13.6746 14H10.3254C10.1759 13.7386 10.0909 13.4383 10.0909 13.119V10.5C10.0909 10.0661 10.4572 9.71429 10.9091 9.71429C11.361 9.71429 11.7273 10.0661 11.7273 10.5V12.3333H12.8182V10.5C12.8182 9.48748 11.9635 8.66667 10.9091 8.66667C9.85473 8.66667 9 9.48748 9 10.5V13.119C9 13.4263 9.05009 13.7223 9.14285 14H6C5.44772 14 5 13.5523 5 13V4C5 3.44772 5.44772 3 6 3H18C18.5523 3 19 3.44772 19 4V13C19 13.5523 18.5523 14 18 14H14.8572Z" fill="currentColor"/>
<path fill-rule="evenodd" clip-rule="evenodd" d="M9 11.3333V13.119C9 14.7101 10.3431 15.9999 12 15.9999C13.6569 15.9999 15 14.7101 15 13.119V11.3333L20.2073 7.57248C20.4311 7.4108 20.7437 7.46121 20.9053 7.68507C20.9669 7.77028 21 7.87271 21 7.97782V17.9999C21 19.1045 20.1046 19.9999 19 19.9999H5C3.89543 19.9999 3 19.1045 3 17.9999V7.97782C3 7.70168 3.22386 7.47782 3.5 7.47782C3.60511 7.47782 3.70754 7.51094 3.79275 7.57248L9 11.3333ZM10.0909 12.1212L12 13.4999L13.9091 12.1212V13.119C13.9091 14.1315 13.0544 14.9523 12 14.9523C10.9456 14.9523 10.0909 14.1315 10.0909 13.119V12.1212Z" fill="currentColor"/>
</svg>
