<svg width="24" height="24" viewBox="0 0 24 24" fill="none" xmlns="http://www.w3.org/2000/svg">
<path fill-rule="evenodd" clip-rule="evenodd" d="M12.9836 18C12.7263 14.091 9.47412 11 5.5 11C4.9863 11 4.48466 11.0516 4 11.15V7C4 5.89543 4.89543 5 6 5H20C21.1046 5 22 5.89543 22 7V16C22 17.1046 21.1046 18 20 18H12.9836ZM19.1444 6.83965L13 10.1482L6.85558 6.83965C6.49087 6.64327 6.03603 6.77972 5.83965 7.14442C5.64327 7.50913 5.77972 7.96398 6.14442 8.16035L12.6444 11.6604C12.8664 11.7799 13.1336 11.7799 13.3556 11.6604L19.8556 8.16035C20.2203 7.96398 20.3567 7.50913 20.1604 7.14442C19.964 6.77972 19.5091 6.64327 19.1444 6.83965Z" fill="currentColor"/>
<path opacity="0.3" fill-rule="evenodd" clip-rule="evenodd" d="M6.5 14C7.05228 14 7.5 14.4477 7.5 15V17C7.5 17.5523 7.05228 18 6.5 18C5.94772 18 5.5 17.5523 5.5 17V15C5.5 14.4477 5.94772 14 6.5 14ZM6.5 21C5.94772 21 5.5 20.5523 5.5 20C5.5 19.4477 5.94772 19 6.5 19C7.05228 19 7.5 19.4477 7.5 20C7.5 20.5523 7.05228 21 6.5 21Z" fill="currentColor"/>
</svg>
