<svg width="24" height="24" viewBox="0 0 24 24" fill="none" xmlns="http://www.w3.org/2000/svg">
<path opacity="0.3" fill-rule="evenodd" clip-rule="evenodd" d="M6 2H18C18.5523 2 19 2.44772 19 3V13C19 13.5523 18.5523 14 18 14H6C5.44772 14 5 13.5523 5 13V3C5 2.44772 5.44772 2 6 2ZM13.8 4C13.1562 4 12.4033 4.72985 12 5.2C11.5967 4.72985 10.8438 4 10.2 4C9.0604 4 8.4 4.88887 8.4 6.02016C8.4 7.27339 9.6 8.6 12 10C14.4 8.6 15.6 7.3 15.6 6.1C15.6 4.96871 14.9396 4 13.8 4Z" fill="currentColor"/>
<path fill-rule="evenodd" clip-rule="evenodd" d="M3.79275 6.57248L12 12.4999L20.2073 6.57248C20.4311 6.4108 20.7437 6.46121 20.9053 6.68507C20.9669 6.77028 21 6.87271 21 6.97782V16.9999C21 18.1045 20.1046 18.9999 19 18.9999H5C3.89543 18.9999 3 18.1045 3 16.9999V6.97782C3 6.70168 3.22386 6.47782 3.5 6.47782C3.60511 6.47782 3.70754 6.51094 3.79275 6.57248Z" fill="currentColor"/>
</svg>
