<svg width="24" height="24" viewBox="0 0 24 24" fill="none" xmlns="http://www.w3.org/2000/svg">
<path fill-rule="evenodd" clip-rule="evenodd" d="M8 6H20.5C21.3284 6 22 6.67157 22 7.5C22 8.32843 21.3284 9 20.5 9H8V19.5C8 20.3284 7.32843 21 6.5 21C5.67157 21 5 20.3284 5 19.5V9H3.5C2.67157 9 2 8.32843 2 7.5C2 6.67157 2.67157 6 3.5 6H5V4.5C5 3.67157 5.67157 3 6.5 3C7.32843 3 8 3.67157 8 4.5V6Z" fill="currentColor"/>
<path opacity="0.3" fill-rule="evenodd" clip-rule="evenodd" d="M10 11H20.5C21.3284 11 22 11.6716 22 12.5V15C22 17.2091 20.2091 19 18 19H11.5C10.6716 19 10 18.3284 10 17.5V11ZM20 12C19.4477 12 19 12.4477 19 13V16C19 16.5523 19.4477 17 20 17C20.5523 17 21 16.5523 21 16V13C21 12.4477 20.5523 12 20 12Z" fill="currentColor"/>
</svg>
