<svg width="24" height="24" viewBox="0 0 24 24" fill="none" xmlns="http://www.w3.org/2000/svg">
<path d="M10.6128 16.163L7.83679 13.387C7.65292 13.203 7.54962 12.9536 7.54962 12.6935C7.54962 12.4334 7.65292 12.184 7.83679 12L14.7748 5.06201C14.9587 4.87814 15.2082 4.7749 15.4683 4.7749C15.7284 4.7749 15.9778 4.87814 16.1618 5.06201L18.9378 7.83801C19.1217 8.02197 19.225 8.2714 19.225 8.53149C19.225 8.79159 19.1217 9.04102 18.9378 9.22498L11.9998 16.163C11.8158 16.3468 11.5664 16.4502 11.3063 16.4502C11.0462 16.4502 10.7968 16.3468 10.6128 16.163ZM4.7128 17.203L2.48477 20.322C2.36729 20.4863 2.31197 20.687 2.32858 20.8883C2.34519 21.0896 2.43267 21.2784 2.5755 21.4213C2.71832 21.5641 2.90722 21.6516 3.10852 21.6682C3.30982 21.6848 3.51046 21.6294 3.67477 21.512L6.79379 19.2841L4.7128 17.203Z" fill="currentColor"/>
<path opacity="0.3" d="M7.83725 12L2.28723 6.44995C2.1033 6.26582 2 6.01624 2 5.75598C2 5.49572 2.1033 5.24614 2.28723 5.06201L5.06225 2.28699C5.24638 2.10306 5.49599 1.99976 5.75625 1.99976C6.01651 1.99976 6.26612 2.10306 6.45025 2.28699L12.0002 7.83704L7.83725 12ZM18.9372 21.713L21.7122 18.938C21.8961 18.7539 21.9994 18.5043 21.9994 18.244C21.9994 17.9838 21.8961 17.7342 21.7122 17.55L16.1622 12L12.0002 16.163L17.5502 21.713C17.7343 21.8969 17.9839 22.0002 18.2442 22.0002C18.5044 22.0002 18.7541 21.8969 18.9382 21.713H18.9372ZM9.14624 21.634C9.25088 21.7386 9.37857 21.8172 9.51907 21.8636C9.65957 21.9101 9.80898 21.923 9.95535 21.9014C10.1017 21.8797 10.2409 21.824 10.362 21.7389C10.483 21.6537 10.5824 21.5415 10.6522 21.411C11.078 20.2848 11.1697 19.0596 10.9163 17.8826C10.663 16.7055 10.0754 15.6265 9.22409 14.7751C8.37272 13.9238 7.29376 13.3362 6.1167 13.0829C4.93963 12.8296 3.71448 12.9213 2.58825 13.347C2.4578 13.4169 2.34552 13.5162 2.26037 13.6372C2.17523 13.7582 2.11957 13.8976 2.0979 14.0439C2.07622 14.1903 2.08913 14.3397 2.13555 14.4802C2.18198 14.6207 2.26062 14.7484 2.36523 14.853L9.14624 21.634ZM19.1812 6.83398C19.3015 6.79376 19.4096 6.72347 19.4952 6.62976C19.5808 6.53605 19.641 6.42209 19.6701 6.29858C19.6993 6.17508 19.6964 6.04615 19.6617 5.92407C19.6271 5.802 19.5618 5.69074 19.4722 5.60095L18.4012 4.53003C18.3114 4.44036 18.2002 4.37509 18.0781 4.34045C17.9561 4.30582 17.8272 4.30288 17.7037 4.33203C17.5802 4.36118 17.4661 4.42139 17.3724 4.50696C17.2787 4.59252 17.2084 4.7007 17.1682 4.82104L16.8552 5.75903L18.2432 7.14697L19.1812 6.83398Z" fill="currentColor"/>
</svg>
