<svg width="24" height="24" viewBox="0 0 24 24" fill="none" xmlns="http://www.w3.org/2000/svg">
<path d="M8.39941 20.5073C7.29941 20.5073 6.39941 19.6073 6.39941 18.5073C6.39941 17.4073 7.29941 16.5073 8.39941 16.5073H9.89941C11.7994 16.5073 13.3994 14.9073 13.3994 13.0073C13.3994 11.1073 11.7994 9.50732 9.89941 9.50732H8.09941L6.59941 11.2073C6.49941 11.3073 6.29941 11.4073 6.09941 11.5073C6.19941 11.5073 6.19941 11.5073 6.29941 11.5073H9.79941C10.5994 11.5073 11.2994 12.2073 11.2994 13.0073C11.2994 13.8073 10.5994 14.5073 9.79941 14.5073H8.39941C6.19941 14.5073 4.39941 16.3073 4.39941 18.5073C4.39941 20.7073 6.19941 22.5073 8.39941 22.5073H15.3994V20.5073H8.39941Z" fill="currentColor"/>
<path opacity="0.3" d="M8.89961 8.7073L6.69961 11.2073C6.29961 11.6073 5.59961 11.6073 5.19961 11.2073L2.99961 8.7073C2.19961 7.8073 1.7996 6.50732 2.0996 5.10732C2.3996 3.60732 3.5996 2.40732 5.0996 2.10732C7.6996 1.50732 9.99961 3.50734 9.99961 6.00734C9.89961 7.00734 9.49961 8.0073 8.89961 8.7073Z" fill="currentColor"/>
<path d="M5.89941 7.50732C6.72784 7.50732 7.39941 6.83575 7.39941 6.00732C7.39941 5.1789 6.72784 4.50732 5.89941 4.50732C5.07099 4.50732 4.39941 5.1789 4.39941 6.00732C4.39941 6.83575 5.07099 7.50732 5.89941 7.50732Z" fill="currentColor"/>
<path opacity="0.3" d="M17.3994 22.5073H15.3994V13.5073C15.3994 12.9073 15.7994 12.5073 16.3994 12.5073C16.9994 12.5073 17.3994 12.9073 17.3994 13.5073V22.5073Z" fill="currentColor"/>
<path d="M21.3994 18.5073H15.3994V13.5073H21.3994C22.1994 13.5073 22.5994 14.4073 22.0994 15.0073L21.2994 16.0073L22.0994 17.0073C22.6994 17.6073 22.1994 18.5073 21.3994 18.5073Z" fill="currentColor"/>
</svg>
