<svg width="24" height="24" viewBox="0 0 24 24" fill="none" xmlns="http://www.w3.org/2000/svg">
<path d="M8.7 4.19995L4 6.30005V18.8999L8.7 16.8V19L3.1 21.5C2.6 21.7 2 21.4 2 20.8V6C2 5.4 2.3 4.89995 2.9 4.69995L8.7 2.09998V4.19995Z" fill="currentColor"/>
<path d="M15.2998 19.8L19.9998 17.6999V5.09992L15.2998 7.19989V4.99994L20.8998 2.49994C21.3998 2.29994 21.9998 2.59989 21.9998 3.19989V17.9999C21.9998 18.5999 21.6998 19.1 21.0998 19.3L15.2998 21.8998V19.8Z" fill="currentColor"/>
<path opacity="0.3" d="M15.2998 7.19995L19.9998 5.09998V17.7L15.2998 19.8V7.19995Z" fill="currentColor"/>
<path opacity="0.3" d="M8.7002 4.19995V2L15.4002 5V7.19995L8.7002 4.19995ZM8.7002 16.8V19L15.4002 22V19.8L8.7002 16.8Z" fill="currentColor"/>
<path opacity="0.3" d="M8.7 16.8L4 18.8999V6.30005L8.7 4.19995V16.8Z" fill="currentColor"/>
</svg>
