<svg width="24" height="24" viewBox="0 0 24 24" fill="none" xmlns="http://www.w3.org/2000/svg">
<path opacity="0.3" fill-rule="evenodd" clip-rule="evenodd" d="M7.67496 18.7314C9.68017 17.3852 10.9998 15.0967 10.9998 12.5C10.9998 9.58868 9.34101 7.06479 6.91699 5.82193C8.299 4.68361 10.0696 4 11.9998 4C16.4181 4 19.9998 7.58172 19.9998 12C19.9998 16.4183 16.4181 20 11.9998 20C10.4065 20 8.92195 19.5342 7.67496 18.7314Z" fill="currentColor"/>
<path fill-rule="evenodd" clip-rule="evenodd" d="M6.39268 17.706C4.91588 16.2545 4 14.2342 4 12C4 10.0681 4.6848 8.29611 5.82489 6.91357C7.72637 8.04772 9 10.1251 9 12.5C9 14.6298 7.97562 16.5204 6.39268 17.706Z" fill="currentColor"/>
</svg>
