<svg width="24" height="24" viewBox="0 0 24 24" fill="none" xmlns="http://www.w3.org/2000/svg">
<path d="M15.0819 3.08899V3.08301C15.8094 2.3888 16.7763 2.00146 17.7819 2.00146C18.7875 2.00146 19.7544 2.3888 20.4819 3.08301C21.1966 3.79982 21.598 4.77072 21.598 5.78296C21.598 6.7952 21.1966 7.76622 20.4819 8.48304H20.4759C20.4649 8.47104 20.4599 8.45608 20.4489 8.44508L19.0689 7.06396C19.4098 6.72238 19.6012 6.25954 19.6012 5.77698C19.6012 5.29441 19.4098 4.83157 19.0689 4.49C18.7228 4.1579 18.2616 3.97253 17.7819 3.97253C17.3022 3.97253 16.8411 4.1579 16.4949 4.49L15.1109 3.10608C15.1069 3.10308 15.0929 3.09899 15.0819 3.08899ZM8.49287 20.426L7.10789 19.041C6.76486 19.3758 6.30372 19.562 5.82441 19.5591C5.3451 19.5562 4.88622 19.3645 4.54722 19.0256C4.20822 18.6868 4.0164 18.228 4.01335 17.7487C4.01029 17.2693 4.19625 16.8081 4.53089 16.465L3.14689 15.0801C3.13689 15.0711 3.13287 15.057 3.12287 15.047H3.11689C2.43659 15.7704 2.06453 16.7302 2.07954 17.7231C2.09455 18.7161 2.49545 19.6642 3.19731 20.3667C3.89917 21.0692 4.84688 21.4709 5.83979 21.4868C6.8327 21.5027 7.79285 21.1317 8.51689 20.452V20.446C8.51589 20.44 8.50087 20.436 8.49287 20.426Z" fill="currentColor"/>
<path opacity="0.3" d="M13.6742 2.94297C13.8986 2.80434 14.1633 2.74572 14.4253 2.77659C14.6873 2.80745 14.9312 2.92602 15.1172 3.11301L20.4562 8.45298C20.6439 8.63974 20.7627 8.88475 20.793 9.1478C20.8234 9.41086 20.7635 9.67639 20.6232 9.90098C17.9127 14.2288 14.2577 17.8869 9.9322 20.6011C9.70796 20.7384 9.44393 20.7961 9.18281 20.7649C8.9217 20.7337 8.67873 20.6154 8.49318 20.4291L3.1472 15.082C2.9603 14.8966 2.8415 14.6534 2.8101 14.3921C2.7787 14.1307 2.83653 13.8663 2.9742 13.6419C3.54353 12.7339 4.14986 11.862 4.7932 11.026C5.04109 10.7072 5.20489 10.3313 5.26954 9.93272C5.3342 9.53414 5.29763 9.12572 5.16319 8.74497C4.97952 8.24025 4.94381 7.69362 5.06026 7.16929C5.1767 6.64496 5.44046 6.16478 5.82051 5.78526C6.20056 5.40573 6.68112 5.14255 7.20561 5.02683C7.7301 4.91111 8.27673 4.94769 8.7812 5.13206C9.16244 5.26657 9.57134 5.30315 9.97041 5.2385C10.3695 5.17385 10.7459 5.00993 11.0652 4.76194C11.8999 4.12061 12.7695 3.5143 13.6742 2.94297ZM7.85719 15.8L15.8352 7.822C15.9307 7.72975 16.0069 7.61942 16.0593 7.49741C16.1117 7.37541 16.1393 7.24421 16.1405 7.11143C16.1416 6.97865 16.1163 6.84699 16.066 6.7241C16.0158 6.6012 15.9415 6.4895 15.8476 6.39561C15.7537 6.30171 15.6421 6.2275 15.5192 6.17722C15.3963 6.12694 15.2646 6.10161 15.1318 6.10276C14.999 6.10391 14.8678 6.13153 14.7458 6.18394C14.6238 6.23635 14.5135 6.31243 14.4212 6.40794L6.44319 14.386C6.34768 14.4782 6.27151 14.5885 6.2191 14.7105C6.16669 14.8326 6.13911 14.9638 6.13795 15.0965C6.1368 15.2293 6.16207 15.3611 6.21235 15.484C6.26264 15.6069 6.33691 15.7185 6.4308 15.8124C6.52469 15.9062 6.63633 15.9806 6.75923 16.0309C6.88213 16.0811 7.01381 16.1064 7.14659 16.1052C7.27937 16.104 7.4106 16.0766 7.53261 16.0241C7.65461 15.9717 7.76494 15.8955 7.85719 15.8ZM10.3232 18.484C13.4666 16.194 16.2332 13.4274 18.5232 10.284C18.6021 10.1778 18.6592 10.057 18.6912 9.92857C18.7231 9.80015 18.7292 9.66666 18.7091 9.53587C18.6891 9.40507 18.6433 9.27957 18.5744 9.1666C18.5055 9.05364 18.4148 8.95546 18.3077 8.87778C18.2006 8.80011 18.0791 8.74448 17.9504 8.71409C17.8216 8.6837 17.688 8.67919 17.5575 8.70078C17.4269 8.72238 17.302 8.7697 17.1898 8.83994C17.0777 8.91018 16.9806 9.00193 16.9042 9.10996C14.7363 12.084 12.1182 14.7021 9.14418 16.87C8.97431 16.9947 8.84821 17.17 8.78386 17.3707C8.71951 17.5714 8.72023 17.7873 8.78587 17.9875C8.85152 18.1878 8.97873 18.3622 9.1494 18.4858C9.32006 18.6095 9.52544 18.676 9.73619 18.676C9.94737 18.6765 10.1532 18.6092 10.3232 18.484ZM8.4232 10.102C8.4832 8.95703 8.98219 8.45904 10.1462 8.38804C10.4114 8.37173 10.6593 8.25068 10.8353 8.05161C11.0113 7.85254 11.101 7.59173 11.0847 7.32651C11.0684 7.0613 10.9474 6.81343 10.7483 6.63743C10.5493 6.46143 10.2884 6.37173 10.0232 6.38804C9.54743 6.37933 9.07482 6.46672 8.63365 6.645C8.19248 6.82327 7.79184 7.08873 7.4557 7.42551C7.11957 7.7623 6.85486 8.16344 6.67744 8.60496C6.50003 9.04647 6.41357 9.51924 6.4232 9.99497C6.40959 10.2598 6.50169 10.5191 6.67927 10.716C6.85686 10.9129 7.10539 11.0313 7.37019 11.045H7.4232C7.679 11.0457 7.92533 10.9483 8.11152 10.7729C8.29772 10.5975 8.4096 10.3574 8.42418 10.102H8.4232Z" fill="currentColor"/>
</svg>
