<svg width="24" height="24" viewBox="0 0 24 24" fill="none" xmlns="http://www.w3.org/2000/svg">
<path opacity="0.3" d="M17.1998 9.10509C17.0672 8.87541 17.0313 8.60248 17.0999 8.3463C17.1685 8.09013 17.3361 7.87161 17.5658 7.739L18.5658 7.16307C18.4497 6.93158 18.4285 6.66389 18.5066 6.41698C18.5847 6.17007 18.756 5.96332 18.9841 5.84069C19.2122 5.71805 19.4791 5.68923 19.7281 5.76024C19.9771 5.83126 20.1887 5.99657 20.3178 6.22106L21.2778 7.88305C21.3994 8.11038 21.4285 8.37585 21.3591 8.62413C21.2896 8.87242 21.1269 9.08435 20.905 9.21557C20.6831 9.34678 20.4191 9.38714 20.168 9.32836C19.917 9.26957 19.6984 9.11612 19.5578 8.90001L18.5678 9.47106C18.4159 9.55914 18.2434 9.60542 18.0678 9.60509C17.8919 9.60544 17.7191 9.55933 17.5667 9.47155C17.4143 9.38376 17.2878 9.2574 17.1998 9.10509ZM20.8898 14.9241C20.6696 14.7983 20.4096 14.7615 20.163 14.8212C19.9165 14.8808 19.7021 15.0325 19.5638 15.2451L18.5638 14.6691C18.45 14.6024 18.3242 14.5589 18.1935 14.541C18.0629 14.5231 17.9299 14.5312 17.8024 14.5649C17.6749 14.5986 17.5554 14.6573 17.4506 14.7374C17.3459 14.8175 17.258 14.9175 17.192 15.0317C17.1261 15.1459 17.0834 15.272 17.0664 15.4028C17.0494 15.5336 17.0585 15.6664 17.093 15.7937C17.1276 15.921 17.1869 16.0402 17.2678 16.1444C17.3486 16.2486 17.4492 16.3359 17.5638 16.4011L18.5548 16.973C18.4426 17.2022 18.4222 17.4655 18.4978 17.7092C18.5734 17.9529 18.7393 18.1586 18.9615 18.2839C19.1838 18.4093 19.4455 18.445 19.6932 18.3837C19.9409 18.3223 20.1557 18.1687 20.2938 17.9541L21.2538 16.291C21.3873 16.0621 21.4245 15.7896 21.3572 15.5333C21.2899 15.277 21.1236 15.0578 20.8948 14.9241H20.8898ZM5.44184 14.739L4.57584 15.239C4.44229 15.0112 4.22408 14.8456 3.96879 14.7781C3.71349 14.7106 3.44186 14.7467 3.21317 14.8788C2.98449 15.0108 2.8173 15.2279 2.74812 15.4828C2.67893 15.7376 2.71333 16.0094 2.84385 16.239L3.84385 17.9711C3.90903 18.0857 3.99624 18.1863 4.10047 18.2671C4.2047 18.3479 4.32388 18.4073 4.45115 18.4419C4.57842 18.4764 4.7113 18.4855 4.84208 18.4685C4.97286 18.4515 5.09896 18.4087 5.21317 18.3428C5.32738 18.2768 5.42744 18.189 5.50755 18.0842C5.58765 17.9795 5.64623 17.8599 5.67994 17.7324C5.71365 17.6049 5.72182 17.472 5.70396 17.3413C5.68609 17.2106 5.64254 17.0848 5.57584 16.9711L6.44184 16.4711C6.66965 16.3375 6.83541 16.1193 6.9029 15.864C6.9704 15.6087 6.93417 15.3371 6.80213 15.1084C6.6701 14.8797 6.45297 14.7125 6.19813 14.6433C5.94329 14.5741 5.6714 14.6085 5.44184 14.739ZM6.44184 7.66906L5.57584 7.16906C5.64254 7.05529 5.68609 6.92948 5.70396 6.79882C5.72182 6.66815 5.71365 6.5352 5.67994 6.4077C5.64623 6.2802 5.58765 6.16066 5.50755 6.0559C5.42744 5.95114 5.32738 5.86329 5.21317 5.79735C5.09896 5.73141 4.97286 5.68862 4.84208 5.67162C4.7113 5.65462 4.57842 5.66368 4.45115 5.69823C4.32388 5.73278 4.2047 5.79223 4.10047 5.87304C3.99624 5.95384 3.90903 6.05441 3.84385 6.16906L2.84385 7.90111C2.77715 8.01488 2.73363 8.14069 2.71577 8.27135C2.6979 8.40202 2.70605 8.53497 2.73975 8.66246C2.77346 8.78996 2.83207 8.90951 2.91218 9.01427C2.99229 9.11903 3.09231 9.20687 3.20652 9.27282C3.32073 9.33876 3.44687 9.38143 3.57764 9.39843C3.70842 9.41543 3.84127 9.40637 3.96854 9.37182C4.09582 9.33726 4.21499 9.27793 4.31922 9.19713C4.42345 9.11633 4.51066 9.01576 4.57584 8.90111L5.44184 9.40111C5.6714 9.53163 5.94329 9.566 6.19813 9.49682C6.45297 9.42763 6.6701 9.26041 6.80213 9.03173C6.93417 8.80304 6.9704 8.53141 6.9029 8.27611C6.83541 8.02082 6.66965 7.80261 6.44184 7.66906ZM13.0648 20.14V19.14C13.0648 18.8748 12.9594 18.6205 12.7719 18.433C12.5844 18.2454 12.33 18.14 12.0648 18.14C11.7996 18.14 11.5452 18.2454 11.3577 18.433C11.1701 18.6205 11.0648 18.8748 11.0648 19.14V20.14C10.7996 20.14 10.5452 20.2454 10.3577 20.433C10.1701 20.6205 10.0648 20.8748 10.0648 21.14C10.0648 21.4052 10.1701 21.6596 10.3577 21.8472C10.5452 22.0347 10.7996 22.14 11.0648 22.14H13.0648C13.33 22.14 13.5844 22.0347 13.7719 21.8472C13.9594 21.6596 14.0648 21.4052 14.0648 21.14C14.0648 20.8748 13.9594 20.6205 13.7719 20.433C13.5844 20.2454 13.33 20.14 13.0648 20.14ZM11.0648 3.98803V5.14C11.0648 5.40522 11.1701 5.65962 11.3577 5.84716C11.5452 6.03469 11.7996 6.14 12.0648 6.14C12.33 6.14 12.5844 6.03469 12.7719 5.84716C12.9594 5.65962 13.0648 5.40522 13.0648 5.14V3.99608C13.33 3.99343 13.5833 3.88545 13.769 3.69603C13.9546 3.50662 14.0575 3.25129 14.0548 2.98607C14.0521 2.72086 13.9443 2.46751 13.7548 2.28185C13.5654 2.09619 13.31 1.99343 13.0448 1.99608H11.1248C10.8666 1.99686 10.6189 2.09788 10.4339 2.27794C10.2488 2.458 10.141 2.70299 10.1332 2.96105C10.1254 3.21911 10.2183 3.47011 10.3921 3.661C10.5659 3.85189 10.8071 3.96765 11.0648 3.984V3.98803Z" fill="currentColor"/>
<path d="M15.1052 17.3269C15.3056 17.213 15.5395 17.1731 15.7663 17.214C15.9931 17.255 16.1983 17.3742 16.3462 17.5509C17.7512 16.4375 18.6739 14.8262 18.9232 13.0509C18.6731 13.035 18.4384 12.9244 18.2669 12.7416C18.0954 12.5588 18 12.3176 18 12.0669C18 11.8163 18.0954 11.5751 18.2669 11.3924C18.4384 11.2096 18.6731 11.0989 18.9232 11.0829C18.6742 9.31931 17.7614 7.71738 16.3712 6.60403C16.2315 6.81931 16.014 6.97219 15.7642 7.03091C15.5144 7.08964 15.2515 7.04959 15.0306 6.9191C14.8096 6.7886 14.6476 6.57784 14.5784 6.33072C14.5092 6.0836 14.5381 5.8192 14.6592 5.59293C12.9968 4.90633 11.133 4.89062 9.45922 5.54898L9.4692 5.56497C9.60181 5.79478 9.6377 6.06786 9.56897 6.32413C9.50023 6.58039 9.33253 6.79882 9.10272 6.93143C8.87291 7.06403 8.59983 7.10001 8.34356 7.03128C8.08729 6.96255 7.86881 6.79478 7.7362 6.56497L7.7192 6.53494C6.27872 7.64848 5.32973 9.28023 5.07422 11.0829C5.32434 11.0989 5.559 11.2096 5.7305 11.3924C5.90199 11.5751 5.99743 11.8163 5.99743 12.0669C5.99743 12.3176 5.90199 12.5588 5.7305 12.7416C5.559 12.9244 5.32434 13.035 5.07422 13.0509C5.33049 14.8605 6.28578 16.4977 7.7352 17.611C7.87542 17.4108 8.08531 17.2701 8.32379 17.2163C8.56226 17.1626 8.81218 17.1997 9.02472 17.3205C9.23725 17.4412 9.39711 17.6369 9.47302 17.8693C9.54893 18.1017 9.53545 18.354 9.43521 18.5769C11.1234 19.2459 13.006 19.2295 14.6822 18.531C14.5988 18.3128 14.5955 18.0719 14.6729 17.8515C14.7504 17.631 14.9036 17.4451 15.1052 17.3269ZM7.00021 12.07C7.00021 11.0811 7.29345 10.1144 7.84286 9.29214C8.39227 8.4699 9.17316 7.82903 10.0868 7.45059C11.0004 7.07215 12.0058 6.97312 12.9757 7.16605C13.9456 7.35897 14.8365 7.83519 15.5357 8.53445C16.235 9.23372 16.7112 10.1246 16.9041 11.0945C17.0971 12.0644 16.998 13.0698 16.6196 13.9834C16.2411 14.8971 15.6003 15.6779 14.7781 16.2273C13.9558 16.7767 12.9891 17.07 12.0002 17.07C10.6741 17.07 9.40237 16.5432 8.46469 15.6055C7.52701 14.6678 7.00021 13.3961 7.00021 12.07Z" fill="currentColor"/>
<path opacity="0.3" d="M18.337 18.924C18.4028 19.0378 18.4455 19.1635 18.4628 19.2938C18.48 19.4241 18.4714 19.5564 18.4374 19.6834C18.4034 19.8104 18.3447 19.9294 18.2647 20.0336C18.1847 20.1379 18.0849 20.2253 17.971 20.2909L17.106 20.7909L16.241 21.2909C16.1272 21.3566 16.0016 21.3991 15.8714 21.4162C15.7411 21.4333 15.6088 21.4245 15.482 21.3904C15.3551 21.3564 15.2362 21.2976 15.1321 21.2176C15.0279 21.1375 14.9406 21.0378 14.875 20.924C14.7424 20.6943 14.7065 20.4214 14.7751 20.1652C14.8438 19.909 15.0113 19.6906 15.241 19.558L14.741 18.693C14.6753 18.5793 14.6327 18.4536 14.6156 18.3233C14.5985 18.193 14.6072 18.0608 14.6412 17.9339C14.71 17.6776 14.8777 17.4591 15.1075 17.3265C15.3373 17.1939 15.6104 17.158 15.8667 17.2267C16.1229 17.2955 16.3414 17.4632 16.474 17.693L16.974 18.558C17.2034 18.4264 17.4756 18.3909 17.7311 18.4595C17.9865 18.5281 18.2044 18.6951 18.337 18.924ZM8.89999 4.57806C9.11219 4.43587 9.26194 4.21777 9.31851 3.96868C9.37508 3.71959 9.33419 3.45835 9.20422 3.23846C9.07426 3.01856 8.86506 2.85674 8.61957 2.78619C8.37408 2.71563 8.11089 2.74161 7.884 2.85894L6.22101 3.81902C6.01126 3.956 5.86054 4.16671 5.79871 4.40948C5.73687 4.65224 5.76841 4.90931 5.88708 5.12994C6.00576 5.35056 6.20293 5.51866 6.43958 5.60088C6.67622 5.68311 6.9351 5.67354 7.16501 5.57403L7.73901 6.56805C7.87162 6.79786 8.09008 6.9655 8.34634 7.03423C8.60261 7.10297 8.87569 7.06711 9.1055 6.9345C9.33531 6.80189 9.50301 6.58347 9.57175 6.3272C9.64048 6.07093 9.60459 5.79786 9.47198 5.56805L8.89999 4.57806ZM9.035 17.327C8.80533 17.1944 8.53239 17.1585 8.27621 17.2271C8.02004 17.2957 7.80162 17.4634 7.66901 17.693L7.16901 18.558C6.9392 18.4254 6.66612 18.3895 6.40985 18.4582C6.15358 18.5269 5.9351 18.6947 5.80249 18.9245C5.66988 19.1543 5.634 19.4274 5.70273 19.6836C5.77146 19.9399 5.9392 20.1583 6.16901 20.2909L7.901 21.2909C8.01479 21.3566 8.1404 21.3993 8.27066 21.4164C8.40092 21.4336 8.53327 21.4248 8.66016 21.3908C8.78705 21.3568 8.90598 21.2981 9.01019 21.2181C9.1144 21.1381 9.20183 21.0383 9.26749 20.9245C9.33315 20.8107 9.37577 20.6851 9.39288 20.5549C9.41 20.4246 9.40128 20.2922 9.36725 20.1653C9.33322 20.0384 9.27455 19.9194 9.19455 19.8152C9.11455 19.711 9.01479 19.6237 8.901 19.558L9.401 18.693C9.5336 18.4634 9.56952 18.1904 9.50089 17.9343C9.43225 17.6781 9.26468 17.4596 9.035 17.327ZM15.035 6.93401C15.2647 7.06662 15.5376 7.10251 15.7938 7.03387C16.05 6.96523 16.2684 6.79772 16.401 6.56805L16.973 5.57903C17.2025 5.69367 17.4673 5.71566 17.7126 5.64056C17.9579 5.56546 18.165 5.39894 18.291 5.17547C18.4169 4.952 18.4522 4.68863 18.3895 4.43987C18.3268 4.19111 18.1709 3.97607 17.954 3.83904L16.291 2.87896C16.0672 2.75278 15.8033 2.71805 15.5545 2.78204C15.3057 2.84602 15.0912 3.00373 14.9561 3.22222C14.8209 3.44071 14.7756 3.70307 14.8294 3.95428C14.8833 4.20548 15.0322 4.42611 15.245 4.57L14.669 5.57C14.537 5.7995 14.5015 6.072 14.5701 6.32769C14.6387 6.58338 14.8059 6.80141 15.035 6.93401ZM6 12.07C6 11.8048 5.89463 11.5504 5.70709 11.3628C5.51956 11.1753 5.26522 11.07 5 11.07H4C4 10.8048 3.89463 10.5504 3.70709 10.3628C3.51956 10.1753 3.26522 10.07 3 10.07C2.73478 10.07 2.48044 10.1753 2.29291 10.3628C2.10537 10.5504 2 10.8048 2 11.07V13.07C2 13.3352 2.10537 13.5896 2.29291 13.7772C2.48044 13.9647 2.73478 14.07 3 14.07C3.26522 14.07 3.51956 13.9647 3.70709 13.7772C3.89463 13.5896 4 13.3352 4 13.07H5C5.26522 13.07 5.51956 12.9647 5.70709 12.7772C5.89463 12.5896 6 12.3352 6 12.07ZM21.14 10.1301C20.8864 10.1307 20.6426 10.2284 20.4589 10.4033C20.2751 10.5781 20.1653 10.8167 20.152 11.07H19C18.7348 11.07 18.4804 11.1753 18.2929 11.3628C18.1054 11.5504 18 11.8048 18 12.07C18 12.3352 18.1054 12.5896 18.2929 12.7772C18.4804 12.9647 18.7348 13.07 19 13.07H20.144C20.1453 13.2013 20.1725 13.3311 20.2239 13.452C20.2754 13.5728 20.3502 13.6823 20.444 13.7742C20.5378 13.8662 20.6487 13.9387 20.7706 13.9877C20.8924 14.0368 21.0227 14.0613 21.154 14.06C21.2853 14.0587 21.4151 14.0315 21.5359 13.98C21.6567 13.9286 21.7663 13.8539 21.8582 13.7601C21.9501 13.6663 22.0227 13.5552 22.0717 13.4334C22.1208 13.3116 22.1453 13.1813 22.144 13.05V11.1301C22.144 10.9984 22.118 10.868 22.0675 10.7464C22.017 10.6248 21.943 10.5144 21.8497 10.4214C21.7564 10.3285 21.6457 10.255 21.5239 10.205C21.4021 10.155 21.2717 10.1295 21.14 10.1301ZM14.121 14.191C14.5407 13.7715 14.8265 13.2369 14.9423 12.655C15.0581 12.073 14.9988 11.4698 14.7717 10.9216C14.5447 10.3733 14.1602 9.90469 13.6668 9.57501C13.1734 9.24532 12.5934 9.06939 12 9.06939C11.4066 9.06939 10.8266 9.24532 10.3332 9.57501C9.83982 9.90469 9.45531 10.3733 9.22827 10.9216C9.00124 11.4698 8.94188 12.073 9.05771 12.655C9.17354 13.2369 9.45935 13.7715 9.879 14.191C10.0676 14.3731 10.3202 14.474 10.5824 14.4717C10.8446 14.4695 11.0954 14.3642 11.2808 14.1788C11.4662 13.9934 11.5714 13.7426 11.5737 13.4804C11.5759 13.2182 11.4752 12.9656 11.293 12.777C11.1531 12.6372 11.0578 12.4589 11.0192 12.2649C10.9806 12.071 11.0004 11.8699 11.0761 11.6872C11.1518 11.5044 11.2799 11.3482 11.4444 11.2383C11.6089 11.1284 11.8022 11.0698 12 11.0698C12.1978 11.0698 12.3911 11.1284 12.5556 11.2383C12.7201 11.3482 12.8482 11.5044 12.9239 11.6872C12.9996 11.8699 13.0194 12.071 12.9808 12.2649C12.9422 12.4589 12.8469 12.6372 12.707 12.777C12.6115 12.8693 12.5353 12.9796 12.4829 13.1016C12.4305 13.2236 12.4029 13.3548 12.4018 13.4876C12.4006 13.6204 12.4259 13.752 12.4762 13.8749C12.5264 13.9978 12.6007 14.1095 12.6946 14.2034C12.7885 14.2973 12.9001 14.3715 13.023 14.4218C13.1459 14.4721 13.2776 14.4974 13.4104 14.4963C13.5432 14.4951 13.6744 14.4675 13.7964 14.4151C13.9184 14.3627 14.0288 14.2865 14.121 14.191Z" fill="currentColor"/>
</svg>
