<svg width="24" height="24" viewBox="0 0 24 24" fill="none" xmlns="http://www.w3.org/2000/svg">
<path opacity="0.3" d="M20.2839 3.71594C19.74 3.17193 19.0943 2.74047 18.3836 2.44604C17.6729 2.15162 16.9112 2 16.1419 2C15.3726 2 14.6109 2.15162 13.9002 2.44604C13.1895 2.74047 12.5438 3.17193 11.9999 3.71594L7.85791 7.85803L9.27191 9.27197L13.4139 5.13C13.7713 4.77055 14.1964 4.4856 14.6647 4.29163C15.1329 4.09766 15.635 3.99852 16.1419 4C16.4071 4 16.6615 4.10531 16.849 4.29285C17.0365 4.48038 17.1419 4.73478 17.1419 5C17.1419 5.26522 17.0365 5.51962 16.849 5.70715C16.6615 5.89469 16.4071 6 16.1419 6C15.8978 5.99935 15.656 6.04713 15.4304 6.1405C15.2049 6.23388 15.0001 6.37094 14.8279 6.54395L10.6859 10.686L16.1419 16.142L20.2839 12C20.8279 11.4561 21.2595 10.8104 21.5539 10.0997C21.8483 9.38904 21.9999 8.6273 21.9999 7.85803C21.9999 7.08877 21.8483 6.32702 21.5539 5.61633C21.2595 4.90564 20.8279 4.25983 20.2839 3.71594Z" fill="currentColor"/>
<path d="M10.6862 10.686L16.1422 16.142L12.0002 20.2841C10.8977 21.3635 9.41387 21.9643 7.87098 21.9562C6.3281 21.948 4.85072 21.3315 3.75972 20.2405C2.66872 19.1495 2.05219 17.672 2.04403 16.1292C2.03588 14.5863 2.63675 13.1025 3.71616 12L7.85816 7.85803L9.27216 9.27197L8.97216 9.57202C8.87665 9.66427 8.80047 9.7746 8.74806 9.89661C8.69565 10.0186 8.66806 10.1498 8.66691 10.2826C8.66575 10.4154 8.69105 10.547 8.74133 10.6699C8.79162 10.7928 8.86587 10.9045 8.95976 10.9984C9.05366 11.0923 9.16531 11.1665 9.28821 11.2168C9.4111 11.2671 9.54278 11.2924 9.67556 11.2913C9.80834 11.2901 9.93956 11.2625 10.0616 11.2101C10.1836 11.1577 10.294 11.0815 10.3862 10.986L10.6862 10.686ZM7.32616 14.046L7.89516 13.478C7.99079 13.3859 8.06712 13.2756 8.1197 13.1537C8.17227 13.0318 8.20003 12.9006 8.20137 12.7678C8.20271 12.635 8.17759 12.5033 8.12749 12.3804C8.07738 12.2574 8.00328 12.1457 7.90953 12.0516C7.81577 11.9576 7.70423 11.8832 7.58141 11.8328C7.45859 11.7823 7.32695 11.7569 7.19418 11.7578C7.0614 11.7588 6.93015 11.7861 6.80807 11.8384C6.68599 11.8906 6.57554 11.9666 6.48316 12.062L5.91216 12.632C5.81665 12.7242 5.74046 12.8345 5.68805 12.9565C5.63565 13.0785 5.60806 13.2099 5.60691 13.3427C5.60575 13.4754 5.63106 13.6071 5.68134 13.73C5.73162 13.8529 5.80587 13.9645 5.89976 14.0583C5.99366 14.1522 6.10531 14.2266 6.2282 14.2769C6.3511 14.3271 6.48278 14.3524 6.61556 14.3512C6.74834 14.35 6.87956 14.3226 7.00156 14.2701C7.12357 14.2177 7.23391 14.1415 7.32616 14.046Z" fill="currentColor"/>
</svg>
