<svg width="24" height="24" viewBox="0 0 24 24" fill="none" xmlns="http://www.w3.org/2000/svg">
<path opacity="0.3" fill-rule="evenodd" clip-rule="evenodd" d="M3.5 21H20.5C21.3284 21 22 20.3284 22 19.5V8.5C22 7.67157 21.3284 7 20.5 7H10L7.43934 4.43934C7.15804 4.15804 6.7765 4 6.37868 4H3.5C2.67157 4 2 4.67157 2 5.5V19.5C2 20.3284 2.67157 21 3.5 21Z" fill="currentColor"/>
<path fill-rule="evenodd" clip-rule="evenodd" d="M10.7822 17.51L15.1856 14.5C15.4136 14.3442 15.4721 14.0331 15.3162 13.8051C15.2815 13.7542 15.2376 13.7102 15.1868 13.6753L10.7834 10.6463C10.5559 10.4898 10.2445 10.5474 10.088 10.7749C10.0307 10.8583 10 10.9571 10 11.0583V17.0973C10 17.3734 10.2239 17.5973 10.5 17.5973C10.6007 17.5973 10.699 17.5669 10.7822 17.51Z" fill="currentColor"/>
</svg>
