<svg width="24" height="24" viewBox="0 0 24 24" fill="none" xmlns="http://www.w3.org/2000/svg">
<path opacity="0.3" d="M21.3839 8.29703L16.9999 12.679C16.377 13.3013 15.6701 13.8335 14.8999 14.26L10.8329 16.5191C10.0627 16.9457 9.35584 17.4778 8.73286 18.1L5.41386 21.419C5.03753 21.795 4.52732 22.0063 3.99536 22.0063C3.46339 22.0063 2.95319 21.795 2.57686 21.419C2.39042 21.2327 2.24252 21.0116 2.14161 20.7681C2.04071 20.5246 1.98877 20.2636 1.98877 20C1.98877 19.7365 2.04071 19.4755 2.14161 19.232C2.24252 18.9885 2.39042 18.7674 2.57686 18.5811L5.89486 15.263C6.51685 14.6398 7.04896 13.933 7.47586 13.163L9.73585 9.09598C10.1625 8.32579 10.6947 7.61898 11.3169 6.99601L15.7039 2.60905C16.0195 2.28583 16.4336 2.07659 16.8811 2.01432C17.3286 1.95205 17.784 2.04029 18.1759 2.26505C19.6316 3.13391 20.8473 4.35233 21.7129 5.80997C21.9428 6.20198 22.0352 6.65952 21.9756 7.11002C21.916 7.56052 21.7078 7.97828 21.3839 8.29703ZM14.6439 12.1971L17.4859 9.35502C17.5789 9.26214 17.6526 9.15183 17.703 9.03043C17.7533 8.90903 17.7792 8.77891 17.7792 8.6475C17.7792 8.51608 17.7533 8.38596 17.703 8.26456C17.6526 8.14317 17.5789 8.03285 17.4859 7.93998L16.0629 6.517C15.8754 6.32953 15.6211 6.22428 15.3559 6.22428C15.0907 6.22428 14.8364 6.32953 14.6489 6.517L11.8069 9.35905C11.6194 9.54657 11.5141 9.80091 11.5141 10.0661C11.5141 10.3312 11.6194 10.5855 11.8069 10.773L13.2299 12.1971C13.417 12.3849 13.6711 12.4908 13.9363 12.4914C14.2015 12.4919 14.456 12.3871 14.6439 12.2V12.1971Z" fill="currentColor"/>
<path d="M7.5529 19.2911L5.42491 21.419C5.04857 21.7952 4.53819 22.0066 4.00606 22.0065C3.47392 22.0064 2.96361 21.7949 2.5874 21.4185C2.21119 21.0422 1.99991 20.5318 2 19.9997C2.0001 19.4676 2.21157 18.9573 2.58791 18.5811L4.71591 16.4531L7.5529 19.2911ZM21.7239 5.81804C20.8583 4.36041 19.6426 3.14186 18.1869 2.273C17.795 2.04824 17.3395 1.96012 16.8921 2.02239C16.4446 2.08466 16.0305 2.29378 15.7149 2.61699L15.3559 2.976L21.0309 8.65105L21.3839 8.29705C21.707 7.98038 21.9157 7.56529 21.9772 7.11712C22.0387 6.66894 21.9496 6.21313 21.7239 5.8211V5.81804Z" fill="currentColor"/>
</svg>
