<svg width="24" height="24" viewBox="0 0 24 24" fill="none" xmlns="http://www.w3.org/2000/svg">
<path opacity="0.3" d="M20 9H4C2.89543 9 2 9.89543 2 11V20C2 21.1046 2.89543 22 4 22H20C21.1046 22 22 21.1046 22 20V11C22 9.89543 21.1046 9 20 9Z" fill="currentColor"/>
<path opacity="0.3" d="M18.5 5H5.5C5.22386 5 5 5.22386 5 5.5V6.5C5 6.77614 5.22386 7 5.5 7H18.5C18.7761 7 19 6.77614 19 6.5V5.5C19 5.22386 18.7761 5 18.5 5Z" fill="currentColor"/>
<path opacity="0.3" d="M16.5 1H7.5C7.22386 1 7 1.22386 7 1.5V2.5C7 2.77614 7.22386 3 7.5 3H16.5C16.7761 3 17 2.77614 17 2.5V1.5C17 1.22386 16.7761 1 16.5 1Z" fill="currentColor"/>
<path fill-rule="evenodd" clip-rule="evenodd" d="M10.8333 20C9.82081 20 9 19.316 9 18.4722C9 17.6285 9.82081 16.9444 10.8333 16.9444C11.0476 16.9444 11.2533 16.9751 11.4444 17.0314V12.7916C11.4444 12.4782 11.6399 12.2012 11.9269 12.1078L15.4408 11.0331C15.8835 10.8889 16.3333 11.2336 16.3333 11.7169V12.7916C16.3333 13.1498 15.9979 13.3786 15.7222 13.4444C15.3255 13.5392 14.307 13.7429 12.6667 14.0556V18.5035C12.6667 18.5584 12.6622 18.6092 12.6535 18.656C12.5446 19.4131 11.7712 20 10.8333 20Z" fill="currentColor"/>
</svg>
