<svg width="24" height="24" viewBox="0 0 24 24" fill="none" xmlns="http://www.w3.org/2000/svg">
<path opacity="0.3" d="M18.9372 11.985L12.0152 5.06303C11.923 4.96752 11.8126 4.89131 11.6906 4.8389C11.5686 4.7865 11.4374 4.75888 11.3046 4.75773C11.1718 4.75657 11.0402 4.78191 10.9173 4.83219C10.7944 4.88247 10.6827 4.9568 10.5888 5.0507C10.4949 5.14459 10.4207 5.25617 10.3704 5.37907C10.3201 5.50196 10.2948 5.63362 10.296 5.7664C10.2971 5.89917 10.3247 6.03038 10.3771 6.15238C10.4295 6.27439 10.5057 6.38484 10.6012 6.47709L11.2932 7.16898L5.69315 12.7691C5.50678 12.9552 5.37596 13.1894 5.31537 13.4457C5.25479 13.702 5.26684 13.9702 5.35016 14.22L6.10416 16.4821L2.28916 20.297C2.19365 20.3893 2.11748 20.4996 2.06507 20.6216C2.01266 20.7436 1.98508 20.8748 1.98392 21.0076C1.98277 21.1404 2.00804 21.272 2.05832 21.3949C2.1086 21.5178 2.18288 21.6295 2.27677 21.7234C2.37066 21.8173 2.4823 21.8915 2.6052 21.9418C2.7281 21.9921 2.85978 22.0174 2.99256 22.0163C3.12534 22.0151 3.25657 21.9875 3.37858 21.9351C3.50058 21.8827 3.61091 21.8066 3.70316 21.7111L7.51816 17.896L9.78016 18.6501C10.03 18.7334 10.2982 18.7454 10.5545 18.6849C10.8108 18.6243 11.0451 18.4934 11.2312 18.307L16.8312 12.7071L17.5232 13.3991C17.6155 13.4946 17.7258 13.5707 17.8478 13.6231C17.9698 13.6755 18.101 13.7031 18.2338 13.7043C18.3666 13.7054 18.4983 13.6801 18.6211 13.6298C18.744 13.5795 18.8557 13.5053 18.9496 13.4114C19.0435 13.3175 19.1177 13.2059 19.168 13.083C19.2183 12.9601 19.2436 12.8284 19.2425 12.6956C19.2413 12.5628 19.2137 12.4316 19.1613 12.3096C19.1089 12.1876 19.0327 12.0773 18.9372 11.985Z" fill="currentColor"/>
<path d="M21.7071 7.861C21.5196 8.04847 21.2653 8.15385 21.0001 8.15385C20.7349 8.15385 20.4806 8.04847 20.2931 7.861L19.6001 7.16898L16.8611 9.9091L14.0911 7.13908L16.8311 4.40006L16.1391 3.70707C15.9569 3.51847 15.8562 3.26577 15.8584 3.00358C15.8607 2.74138 15.9659 2.49062 16.1513 2.30521C16.3367 2.11981 16.5875 2.01465 16.8497 2.01237C17.1119 2.01009 17.3645 2.11085 17.5531 2.29301L21.7071 6.44706C21.8946 6.63459 21.9999 6.88893 21.9999 7.15409C21.9999 7.41925 21.8946 7.67347 21.7071 7.861ZM8.00708 15.99L10.0841 16.683L12.6841 14.0771L9.9151 11.308L7.30908 13.908L8.00708 15.99Z" fill="currentColor"/>
</svg>
