<svg width="24" height="24" viewBox="0 0 24 24" fill="none" xmlns="http://www.w3.org/2000/svg">
<path opacity="0.3" d="M5.85714 2H13.7364C14.0911 2 14.4343 2.12568 14.7051 2.35474L19.4687 6.38394C19.8057 6.66895 20 7.08788 20 7.5292V20.0833C20 21.8739 19.9796 22 18.1429 22H5.85714C4.02045 22 4 21.8739 4 20.0833V3.91667C4 2.12612 4.02045 2 5.85714 2Z" fill="currentColor"/>
<path fill-rule="evenodd" clip-rule="evenodd" d="M10.7822 15.8053L15.1856 12.7953C15.4136 12.6395 15.4721 12.3284 15.3162 12.1004C15.2815 12.0495 15.2376 12.0055 15.1868 11.9706L10.7834 8.94161C10.5559 8.78511 10.2445 8.84268 10.088 9.07019C10.0307 9.15356 10 9.25237 10 9.35356V15.3926C10 15.6687 10.2239 15.8926 10.5 15.8926C10.6007 15.8926 10.699 15.8622 10.7822 15.8053Z" fill="currentColor"/>
</svg>
