<svg width="24" height="24" viewBox="0 0 24 24" fill="none" xmlns="http://www.w3.org/2000/svg">
<path d="M12.9976 17.9295C12.9992 17.9528 13 17.9763 13 18V21C13 21.5523 12.5523 22 12 22C11.4477 22 11 21.5523 11 21V18C11 17.9763 11.0008 17.9528 11.0024 17.9295C7.60896 17.4453 5 14.5273 5 11H7C7 13.7614 9.23858 16 12 16C14.7614 16 17 13.7614 17 11H19C19 14.5273 16.391 17.4453 12.9976 17.9295Z" fill="currentColor"/>
<path opacity="0.3" d="M15 5C15 3.34315 13.6569 2 12 2C10.3431 2 9 3.34315 9 5L9 11C9 12.6569 10.3431 14 12 14C13.6569 14 15 12.6569 15 11L15 5Z" fill="currentColor"/>
</svg>
