<svg width="24" height="24" viewBox="0 0 24 24" fill="none" xmlns="http://www.w3.org/2000/svg">
<path opacity="0.3" fill-rule="evenodd" clip-rule="evenodd" d="M4 6H21C21.5523 6 22 6.44772 22 7V18C22 18.5523 21.5523 19 21 19H4C3.44772 19 3 18.5523 3 18V7C3 6.44772 3.44772 6 4 6Z" fill="currentColor"/>
<path opacity="0.3" d="M8 13H7V19H8V13Z" fill="currentColor"/>
<path opacity="0.3" d="M13 13H12V19H13V13Z" fill="currentColor"/>
<path opacity="0.3" d="M18 13H17V19H18V13Z" fill="currentColor"/>
<path fill-rule="evenodd" clip-rule="evenodd" d="M6 6H9V12C9 12.5523 8.55228 13 8 13H7C6.44772 13 6 12.5523 6 12V6Z" fill="currentColor"/>
<path fill-rule="evenodd" clip-rule="evenodd" d="M11 6H14V12C14 12.5523 13.5523 13 13 13H12C11.4477 13 11 12.5523 11 12V6Z" fill="currentColor"/>
<path fill-rule="evenodd" clip-rule="evenodd" d="M16 6H19V12C19 12.5523 18.5523 13 18 13H17C16.4477 13 16 12.5523 16 12V6Z" fill="currentColor"/>
</svg>
