<svg width="24" height="24" viewBox="0 0 24 24" fill="none" xmlns="http://www.w3.org/2000/svg">
<path d="M12.9999 17.0486V18.0001H13.9999C15.1045 18.0001 15.9999 18.8955 15.9999 20.0001H7.99993C7.99993 18.8955 8.89536 18.0001 9.99993 18.0001H10.9999V17.0484C6.89838 16.5927 3.58679 13.3693 3.07548 9.22051C3.00793 8.67237 3.39752 8.17325 3.94566 8.1057C4.49379 8.03814 4.99291 8.42774 5.06047 8.97587C5.4896 12.4579 8.46042 15.1036 12.0008 15.1036C15.5776 15.1036 18.5681 12.4044 18.9524 8.87784C19.0122 8.32881 19.5058 7.93223 20.0549 7.99205C20.6039 8.05188 21.0005 8.54546 20.9407 9.0945C20.4824 13.3002 17.1471 16.5887 12.9999 17.0486Z" fill="currentColor"/>
<path opacity="0.3" fill-rule="evenodd" clip-rule="evenodd" d="M12 14C8.68629 14 6 11.3137 6 8C6 4.68629 8.68629 2 12 2C15.3137 2 18 4.68629 18 8C18 11.3137 15.3137 14 12 14ZM8.81596 7.80077C8.79068 7.43922 8.47708 7.16662 8.11553 7.1919C7.75398 7.21718 7.48137 7.53077 7.50665 7.89233C7.62279 9.55317 8.39667 10.8635 9.79502 11.7671C10.0994 11.9638 10.5057 11.8765 10.7024 11.5721C10.8991 11.2677 10.8118 10.8615 10.5074 10.6648C9.45599 9.98538 8.90328 9.0495 8.81596 7.80077Z" fill="currentColor"/>
</svg>
