<svg width="24" height="24" viewBox="0 0 24 24" fill="none" xmlns="http://www.w3.org/2000/svg">
<path fill-rule="evenodd" clip-rule="evenodd" d="M2 14H22C22 18.9706 17.9706 23 13 23H11C6.02944 23 2 18.9706 2 14Z" fill="currentColor"/>
<path opacity="0.3" fill-rule="evenodd" clip-rule="evenodd" d="M16.7234 1.41772C17.1846 1.68402 17.3427 2.2738 17.0764 2.73504C17.0705 2.74514 17.0645 2.75514 17.0583 2.76503L10.538 13.1675C10.3898 13.4039 10.0811 13.4806 9.83941 13.3411C9.59776 13.2016 9.50986 12.8959 9.64051 12.6493L15.3891 1.80132C15.6385 1.33072 16.2222 1.15139 16.6928 1.40077C16.7031 1.40624 16.7133 1.41189 16.7234 1.41772ZM21.8769 4.21674C22.2332 4.61253 22.2013 5.22228 21.8055 5.57866C21.7968 5.58647 21.788 5.59412 21.7791 5.6016L12.3633 13.48C12.1493 13.6591 11.832 13.6367 11.6453 13.4293C11.4586 13.2219 11.4695 12.904 11.6699 12.7099L20.4894 4.16925C20.872 3.79875 21.4825 3.80856 21.853 4.19116C21.8611 4.19954 21.8691 4.20807 21.8769 4.21674Z" fill="currentColor"/>
</svg>
