<svg width="24" height="24" viewBox="0 0 24 24" fill="none" xmlns="http://www.w3.org/2000/svg">
<path opacity="0.3" fill-rule="evenodd" clip-rule="evenodd" d="M6.58601 7.99998L5.1718 6.58577C4.78128 6.19524 4.78128 5.56208 5.1718 5.17156C5.56232 4.78103 6.19549 4.78103 6.58601 5.17156L8.00023 6.58577L9.41444 5.17156C9.80496 4.78103 10.4381 4.78103 10.8287 5.17156C11.2192 5.56208 11.2192 6.19524 10.8287 6.58577L9.41444 7.99998L10.8287 9.4142C11.2192 9.80472 11.2192 10.4379 10.8287 10.8284C10.4381 11.2189 9.80496 11.2189 9.41444 10.8284L8.00023 9.4142L6.58601 10.8284C6.19549 11.2189 5.56232 11.2189 5.1718 10.8284C4.78128 10.4379 4.78128 9.80472 5.1718 9.4142L6.58601 7.99998Z" fill="currentColor"/>
<path fill-rule="evenodd" clip-rule="evenodd" d="M13.0799 14.7839L15.284 12.5799C15.8927 11.9712 16.0436 11.0412 15.6586 10.2713L15.5337 10.0215C15.1487 9.25153 15.2996 8.32159 15.9084 7.71287L18.6412 4.98006C18.8364 4.7848 19.153 4.7848 19.3483 4.98006C19.3863 5.01807 19.4179 5.06194 19.4419 5.11001L20.5459 7.31796C21.3905 9.00707 21.0594 11.0471 19.7241 12.3825L13.7252 18.3813C12.2717 19.8348 10.1217 20.3424 8.17154 19.6923L5.75706 18.8875C5.49509 18.8002 5.35351 18.517 5.44083 18.255C5.46538 18.1814 5.50673 18.1145 5.56162 18.0596L8.21289 15.4083C8.82161 14.7996 9.75156 14.6487 10.5215 15.0337L10.7713 15.1586C11.5413 15.5436 12.4712 15.3927 13.0799 14.7839Z" fill="currentColor"/>
</svg>
