<svg width="24" height="24" viewBox="0 0 24 24" fill="none" xmlns="http://www.w3.org/2000/svg">
<path fill-rule="evenodd" clip-rule="evenodd" d="M8.42268 7.19587C8.29277 7.06902 8.24183 6.88172 8.2896 6.70656L8.84284 4.67801C9.00982 4.06578 9.54399 3.62486 10.1768 3.57697L17.7995 3L18.8602 4.06066C19.9317 5.1322 21.3708 6.76044 23.1776 8.9454C23.6686 9.53927 23.7748 10.3624 23.4505 11.0615L20.892 16.5771C20.8205 16.7313 20.7233 16.8722 20.6045 16.9938C20.0258 17.5865 19.0761 17.5979 18.4834 17.0191L8.42268 7.19587ZM20.5422 9.22082L17.7995 5.56396C17.3684 4.98917 16.553 4.87268 15.9782 5.30377C15.9289 5.34071 15.8824 5.38109 15.8389 5.42462C15.2531 6.01041 15.2531 6.96016 15.8389 7.54594L19.0208 10.7279C19.4114 11.1184 20.0445 11.1184 20.435 10.7279C20.8408 10.3222 20.8864 9.67985 20.5422 9.22082Z" fill="currentColor"/>
<path opacity="0.3" fill-rule="evenodd" clip-rule="evenodd" d="M10.3768 14.2318L12.0402 15.8953C12.6527 16.5077 12.6527 17.5007 12.0402 18.1132L8.71331 21.4401C8.10084 22.0526 7.10783 22.0526 6.49536 21.4401L2.05945 17.0042C1.44698 16.3918 1.44698 15.3988 2.05945 14.7863L5.38638 11.4594C5.99885 10.8469 6.99186 10.8469 7.60433 11.4594L9.2678 13.1228L10.9313 11.4594L12.0402 12.5683L10.3768 14.2318ZM7.32709 20.0539L10.654 16.727L10.0995 16.1725L6.7726 19.4994L7.32709 20.0539ZM5.66362 18.3905L8.99055 15.0635L8.43607 14.509L5.10914 17.836L5.66362 18.3905ZM4.00016 16.727L7.32709 13.4001L6.7726 12.8456L3.44567 16.1725L4.00016 16.727Z" fill="currentColor"/>
</svg>
