<svg width="24" height="24" viewBox="0 0 24 24" fill="none" xmlns="http://www.w3.org/2000/svg">
<path opacity="0.3" d="M18 11C18 7.68629 15.3137 5 12 5C8.68629 5 6 7.68629 6 11V17C6 20.3137 8.68629 23 12 23C15.3137 23 18 20.3137 18 17V11Z" fill="currentColor"/>
<path fill-rule="evenodd" clip-rule="evenodd" d="M11.5 2H12.5C12.7761 2 13 2.22386 13 2.5V5H11V2.5C11 2.22386 11.2239 2 11.5 2Z" fill="currentColor"/>
<path d="M13 17C13 16.4477 12.5523 16 12 16C11.4477 16 11 16.4477 11 17V20C11 20.5523 11.4477 21 12 21C12.5523 21 13 20.5523 13 20V17Z" fill="currentColor"/>
</svg>
