<svg width="24" height="24" viewBox="0 0 24 24" fill="none" xmlns="http://www.w3.org/2000/svg">
<path opacity="0.3" fill-rule="evenodd" clip-rule="evenodd" d="M12 21C7.02944 21 3 16.9706 3 12C3 7.02944 7.02944 3 12 3C16.9706 3 21 7.02944 21 12C21 16.9706 16.9706 21 12 21ZM11.7753 13.2929C12.3275 13.2929 12.7753 12.8452 12.7753 12.2929C12.7753 11.7406 12.3275 11.2929 11.7753 11.2929C11.223 11.2929 10.7753 11.7406 10.7753 12.2929C10.7753 12.8452 11.223 13.2929 11.7753 13.2929ZM11.2235 9.10222C12.2905 8.81634 12.9236 7.71967 12.6378 6.65273C12.3519 5.5858 11.2552 4.95264 10.1883 5.23852C9.12133 5.5244 8.48817 6.62108 8.77405 7.68801C9.05994 8.75494 10.1566 9.38811 11.2235 9.10222ZM13.8117 18.7615C14.8787 18.4756 15.5118 17.3789 15.2259 16.312C14.9401 15.2451 13.8434 14.6119 12.7765 14.8978C11.7095 15.1837 11.0764 16.2803 11.3622 17.3473C11.6481 18.4142 12.7448 19.0474 13.8117 18.7615ZM7.68801 15.2259C8.75494 14.9401 9.38811 13.8434 9.10222 12.7765C8.81634 11.7095 7.71967 11.0764 6.65273 11.3622C5.5858 11.6481 4.95264 12.7448 5.23852 13.8117C5.5244 14.8787 6.62108 15.5118 7.68801 15.2259ZM17.3473 12.6378C18.4142 12.3519 19.0474 11.2552 18.7615 10.1883C18.4756 9.12133 17.3789 8.48817 16.312 8.77405C15.2451 9.05994 14.6119 10.1566 14.8978 11.2235C15.1837 12.2905 16.2803 12.9236 17.3473 12.6378Z" fill="currentColor"/>
<path fill-rule="evenodd" clip-rule="evenodd" d="M17.6573 19H21C21.5523 19 22 19.4477 22 20C22 20.5523 21.5523 21 21 21H12C14.1433 21 16.1116 20.2508 17.6573 19Z" fill="currentColor"/>
</svg>
