<svg width="24" height="24" viewBox="0 0 24 24" fill="none" xmlns="http://www.w3.org/2000/svg">
<path opacity="0.3" fill-rule="evenodd" clip-rule="evenodd" d="M6 3H18C19.1046 3 20 3.89543 20 5V19C20 20.1046 19.1046 21 18 21H6C4.89543 21 4 20.1046 4 19V5C4 3.89543 4.89543 3 6 3ZM5.5 5C5.22386 5 5 5.22386 5 5.5V6.5C5 6.77614 5.22386 7 5.5 7H6.5C6.77614 7 7 6.77614 7 6.5V5.5C7 5.22386 6.77614 5 6.5 5H5.5ZM17.5 5C17.2239 5 17 5.22386 17 5.5V6.5C17 6.77614 17.2239 7 17.5 7H18.5C18.7761 7 19 6.77614 19 6.5V5.5C19 5.22386 18.7761 5 18.5 5H17.5ZM5.5 9C5.22386 9 5 9.22386 5 9.5V10.5C5 10.7761 5.22386 11 5.5 11H6.5C6.77614 11 7 10.7761 7 10.5V9.5C7 9.22386 6.77614 9 6.5 9H5.5ZM17.5 9C17.2239 9 17 9.22386 17 9.5V10.5C17 10.7761 17.2239 11 17.5 11H18.5C18.7761 11 19 10.7761 19 10.5V9.5C19 9.22386 18.7761 9 18.5 9H17.5ZM5.5 13C5.22386 13 5 13.2239 5 13.5V14.5C5 14.7761 5.22386 15 5.5 15H6.5C6.77614 15 7 14.7761 7 14.5V13.5C7 13.2239 6.77614 13 6.5 13H5.5ZM17.5 13C17.2239 13 17 13.2239 17 13.5V14.5C17 14.7761 17.2239 15 17.5 15H18.5C18.7761 15 19 14.7761 19 14.5V13.5C19 13.2239 18.7761 13 18.5 13H17.5ZM17.5 17C17.2239 17 17 17.2239 17 17.5V18.5C17 18.7761 17.2239 19 17.5 19H18.5C18.7761 19 19 18.7761 19 18.5V17.5C19 17.2239 18.7761 17 18.5 17H17.5ZM5.5 17C5.22386 17 5 17.2239 5 17.5V18.5C5 18.7761 5.22386 19 5.5 19H6.5C6.77614 19 7 18.7761 7 18.5V17.5C7 17.2239 6.77614 17 6.5 17H5.5Z" fill="currentColor"/>
<path fill-rule="evenodd" clip-rule="evenodd" d="M11.352 14.5724L13.9567 12.7919C14.1846 12.6361 14.2431 12.3249 14.0873 12.097C14.0525 12.0461 14.0086 12.0021 13.9579 11.9672L11.3532 10.1755C11.1257 10.019 10.8144 10.0766 10.6579 10.3041C10.6005 10.3875 10.5698 10.4863 10.5698 10.5874V14.1596C10.5698 14.4357 10.7937 14.6596 11.0698 14.6596C11.1705 14.6596 11.2689 14.6292 11.352 14.5724Z" fill="currentColor"/>
</svg>
