<svg width="24" height="24" viewBox="0 0 24 24" fill="none" xmlns="http://www.w3.org/2000/svg">
<path d="M8 17.04V7.99996C8 7.56258 8.28425 7.17595 8.70173 7.04548L17.7017 4.54548C18.3457 4.34426 19 4.82532 19 5.49996V17C19 17.0002 19 17.0003 19 17.0005C18.9996 18.1048 17.8805 19 16.5 19C15.1193 19 14 18.1045 14 17C14 15.8954 15.1193 15 16.5 15C16.6712 15 16.8384 15.0137 17 15.04V7.99996L10 9.87497V19C10 19.0002 10 19.0003 10 19.0005C9.99961 20.1048 8.88047 21 7.5 21C6.11929 21 5 20.1045 5 19C5 17.8954 6.11929 17 7.5 17C7.67123 17 7.83844 17.0137 8 17.04Z" fill="currentColor"/>
</svg>
