<svg width="24" height="24" viewBox="0 0 24 24" fill="none" xmlns="http://www.w3.org/2000/svg">
<path d="M11.9785 18.8007C11.8003 20.0396 10.5347 21 9 21C7.34315 21 6 19.8807 6 18.5C6 17.1193 7.34315 16 9 16C9.35064 16 9.68722 16.0501 10 16.1423V5.93171C10 5.41894 10.3198 4.96567 10.7894 4.81272L16.5394 3.05418C17.2639 2.81827 18 3.38226 18 4.17317C18 4.95475 18 5.54093 18 5.93171C18 6.51789 17.4512 6.89226 17 7C16.3509 7.15502 14.6842 7.48836 12 8V18.5512C12 18.641 11.9927 18.7241 11.9785 18.8007Z" fill="currentColor"/>
</svg>
