<svg width="24" height="24" viewBox="0 0 24 24" fill="none" xmlns="http://www.w3.org/2000/svg">
<path opacity="0.3" fill-rule="evenodd" clip-rule="evenodd" d="M17.5859 12L16.1717 10.5858C15.7812 10.1953 15.7812 9.5621 16.1717 9.17157C16.5622 8.78105 17.1954 8.78105 17.5859 9.17157L19.0001 10.5858L20.4143 9.17157C20.8049 8.78105 21.438 8.78105 21.8285 9.17157C22.2191 9.5621 22.2191 10.1953 21.8285 10.5858L20.4143 12L21.8285 13.4142C22.2191 13.8047 22.2191 14.4379 21.8285 14.8284C21.438 15.219 20.8049 15.219 20.4143 14.8284L19.0001 13.4142L17.5859 14.8284C17.1954 15.219 16.5622 15.219 16.1717 14.8284C15.7812 14.4379 15.7812 13.8047 16.1717 13.4142L17.5859 12Z" fill="currentColor"/>
<path fill-rule="evenodd" clip-rule="evenodd" d="M7 16.0001L3.60777 15.3216C2.67292 15.1347 2 14.3138 2 13.3605V10.6397C2 9.68634 2.67292 8.86551 3.60777 8.67854L7 8.00009L10.2929 4.7072C10.6834 4.31668 11.3166 4.31668 11.7071 4.7072C11.8946 4.89474 12 5.14909 12 5.41431V18.5859C12 19.1382 11.5523 19.5859 11 19.5859C10.7348 19.5859 10.4804 19.4805 10.2929 19.293L7 16.0001Z" fill="currentColor"/>
</svg>
