<svg width="24" height="24" viewBox="0 0 24 24" fill="none" xmlns="http://www.w3.org/2000/svg">
<path fill-rule="evenodd" clip-rule="evenodd" d="M6.82866 18.2773L13.5694 12.3977C13.7775 12.2162 13.799 11.9003 13.6175 11.6922C13.6029 11.6755 13.5872 11.6598 13.5705 11.6451L6.82984 5.72848C6.6223 5.54631 6.30639 5.56688 6.12422 5.77442C6.04415 5.86564 6 5.98288 6 6.10425V17.9005C6 18.1766 6.22386 18.4005 6.5 18.4005C6.62084 18.4005 6.7376 18.3567 6.82866 18.2773Z" fill="currentColor"/>
<path opacity="0.3" d="M16 6H17C17.5523 6 18 6.44772 18 7V17C18 17.5523 17.5523 18 17 18H16C15.4477 18 15 17.5523 15 17V7C15 6.44772 15.4477 6 16 6Z" fill="currentColor"/>
</svg>
