<svg width="24" height="24" viewBox="0 0 24 24" fill="none" xmlns="http://www.w3.org/2000/svg">
<path fill-rule="evenodd" clip-rule="evenodd" d="M12.8812 3.00021C12.4133 3.80914 12.1455 4.7483 12.1455 5.75C12.1455 8.77149 14.5819 11.2239 17.5973 11.2498C16.6464 12.8939 14.8689 14 12.833 14C9.79544 14 7.33301 11.5376 7.33301 8.5C7.33301 5.46243 9.79544 3 12.833 3C12.8491 3 12.8651 3.00007 12.8812 3.00021Z" fill="currentColor"/>
<path opacity="0.3" fill-rule="evenodd" clip-rule="evenodd" d="M2.5 16H21.5C21.7761 16 22 16.2239 22 16.5C22 16.7761 21.7761 17 21.5 17H2.5C2.22386 17 2 16.7761 2 16.5C2 16.2239 2.22386 16 2.5 16ZM2.5 18H7.5C7.77614 18 8 18.2239 8 18.5C8 18.7761 7.77614 19 7.5 19H2.5C2.22386 19 2 18.7761 2 18.5C2 18.2239 2.22386 18 2.5 18ZM14.5 20H21.5C21.7761 20 22 20.2239 22 20.5C22 20.7761 21.7761 21 21.5 21H14.5C14.2239 21 14 20.7761 14 20.5C14 20.2239 14.2239 20 14.5 20ZM9.5 18H21.5C21.7761 18 22 18.2239 22 18.5C22 18.7761 21.7761 19 21.5 19H9.5C9.22386 19 9 18.7761 9 18.5C9 18.2239 9.22386 18 9.5 18ZM2.5 20H12.5C12.7761 20 13 20.2239 13 20.5C13 20.7761 12.7761 21 12.5 21H2.5C2.22386 21 2 20.7761 2 20.5C2 20.2239 2.22386 20 2.5 20Z" fill="currentColor"/>
</svg>
