<svg width="24" height="24" viewBox="0 0 24 24" fill="none" xmlns="http://www.w3.org/2000/svg">
<path opacity="0.3" fill-rule="evenodd" clip-rule="evenodd" d="M17.2284 2.20459C17.0948 3.04357 17.1735 3.92789 17.4998 4.77804C18.4842 7.34241 21.351 8.63004 23.9186 7.66963C23.6472 9.37477 22.4989 10.8927 20.7711 11.5559C18.1931 12.5455 15.3009 11.2579 14.3113 8.67985C13.3217 6.10184 14.6094 3.20972 17.1874 2.22011C17.201 2.21487 17.2147 2.2097 17.2284 2.20459ZM6.5 22C5.67157 22 5 21.3284 5 20.5C5 19.9477 5.5 19.1144 6.5 18C7.5 19.1144 8 19.9477 8 20.5C8 21.3284 7.32843 22 6.5 22ZM11.5 22C10.6716 22 10 21.3284 10 20.5C10 19.9477 10.5 19.1144 11.5 18C12.5 19.1144 13 19.9477 13 20.5C13 21.3284 12.3284 22 11.5 22ZM16.5 22C15.6716 22 15 21.3284 15 20.5C15 19.9477 15.5 19.1144 16.5 18C17.5 19.1144 18 19.9477 18 20.5C18 21.3284 17.3284 22 16.5 22Z" fill="currentColor"/>
<path fill-rule="evenodd" clip-rule="evenodd" d="M5.74715 16.0426C4.0941 14.974 3 13.1148 3 11C3 7.68629 5.68629 5 9 5C11.7958 5 14.1449 6.91216 14.811 9.5H17.25C19.3211 9.5 21 11.1789 21 13.25C21 15.3211 19.3211 17 17.25 17H8.25C7.28818 17 6.41093 16.6379 5.74715 16.0426Z" fill="currentColor"/>
</svg>
