<svg width="24" height="24" viewBox="0 0 24 24" fill="none" xmlns="http://www.w3.org/2000/svg">
<path opacity="0.3" d="M21 7H13C12.4477 7 12 7.44772 12 8C12 8.55228 12.4477 9 13 9H21C21.5523 9 22 8.55228 22 8C22 7.44772 21.5523 7 21 7Z" fill="currentColor"/>
<path d="M2 9C1.44772 9 1 8.55228 1 8C1 7.44772 1.44772 7 2 7H7.35013C8.1405 7 8.85675 7.46547 9.17775 8.18772L12.6499 16H22C22.5523 16 23 16.4477 23 17C23 17.5523 22.5523 18 22 18H12.6499C11.8595 18 11.1433 17.5345 10.8223 16.8123L7.35013 9H2Z" fill="currentColor"/>
</svg>
