<svg width="24" height="24" viewBox="0 0 24 24" fill="none" xmlns="http://www.w3.org/2000/svg">
<path d="M12 19C15.866 19 19 15.866 19 12C19 8.13401 15.866 5 12 5C8.13401 5 5 8.13401 5 12C5 15.866 8.13401 19 12 19ZM12 21C7.02944 21 3 16.9706 3 12C3 7.02944 7.02944 3 12 3C16.9706 3 21 7.02944 21 12C21 16.9706 16.9706 21 12 21Z" fill="currentColor"/>
<path opacity="0.3" fill-rule="evenodd" clip-rule="evenodd" d="M12.0002 9.66667C11.3335 8.64515 11.0002 7.88126 11.0002 7.375C11.0002 6.61561 11.4479 6 12.0002 6C12.5524 6 13.0002 6.61561 13.0002 7.375C13.0002 7.88126 12.6668 8.64515 12.0002 9.66667ZM12.0002 14C12.6668 15.0215 13.0002 15.7854 13.0002 16.2917C13.0002 17.0511 12.5524 17.6667 12.0002 17.6667C11.4479 17.6667 11.0002 17.0511 11.0002 16.2917C11.0002 15.7854 11.3335 15.0215 12.0002 14ZM14.3335 12C15.355 11.3333 16.1189 11 16.6252 11C17.3846 11 18.0002 11.4477 18.0002 12C18.0002 12.5523 17.3846 13 16.6252 13C16.1189 13 15.355 12.6667 14.3335 12ZM10.0002 12C8.97865 12.6667 8.21476 13 7.7085 13C6.9491 13 6.3335 12.5523 6.3335 12C6.3335 11.4477 6.9491 11 7.7085 11C8.21476 11 8.97865 11.3333 10.0002 12ZM13.6501 10.3501C13.901 9.15636 14.2054 8.38051 14.5634 8.02252C15.1004 7.48555 15.8523 7.36684 16.2428 7.75736C16.6333 8.14788 16.5146 8.89977 15.9776 9.43674C15.6197 9.79472 14.8438 10.0992 13.6501 10.3501ZM10.5859 13.4142C10.335 14.6079 10.0306 15.3838 9.6726 15.7418C9.13563 16.2787 8.38375 16.3975 7.99322 16.0069C7.6027 15.6164 7.72142 14.8645 8.25839 14.3276C8.61637 13.9696 9.39222 13.6651 10.5859 13.4142ZM13.6501 13.6499C14.8438 13.9008 15.6197 14.2053 15.9776 14.5633C16.5146 15.1002 16.6333 15.8521 16.2428 16.2426C15.8523 16.6332 15.1004 16.5144 14.5634 15.9775C14.2054 15.6195 13.901 14.8436 13.6501 13.6499ZM10.5859 10.5858C9.39222 10.3349 8.61637 10.0304 8.25839 9.67244C7.72142 9.13547 7.6027 8.38359 7.99322 7.99306C8.38375 7.60254 9.13563 7.72126 9.6726 8.25823C10.0306 8.61621 10.335 9.39206 10.5859 10.5858Z" fill="currentColor"/>
</svg>
