<svg width="24" height="24" viewBox="0 0 24 24" fill="none" xmlns="http://www.w3.org/2000/svg">
<path opacity="0.3" d="M7.14287 11.6653C7.06259 11.7456 6.95737 11.7962 6.84453 11.8087C6.57008 11.8392 6.32287 11.6415 6.29237 11.367L5.76917 6.65816C5.76509 6.62147 5.76509 6.58443 5.76917 6.54773C5.79967 6.27328 6.04688 6.07551 6.32133 6.10601L11.0302 6.62921C11.143 6.64175 11.2482 6.69232 11.3285 6.7726C11.5238 6.96786 11.5238 7.28444 11.3285 7.47971L9.94279 8.86542L11.4443 10.3669C11.6395 10.5621 11.6395 10.8787 11.4443 11.074L10.7371 11.7811C10.5419 11.9764 10.2253 11.9764 10.03 11.7811L8.52858 10.2796L7.14287 11.6653Z" fill="currentColor"/>
<path fill-rule="evenodd" clip-rule="evenodd" d="M12.0799 14.7839L14.284 12.5799C14.8927 11.9712 15.0436 11.0412 14.6586 10.2713L14.5337 10.0215C14.1487 9.25153 14.2996 8.32159 14.9084 7.71287L17.6412 4.98006C17.8364 4.7848 18.153 4.7848 18.3483 4.98006C18.3863 5.01807 18.4179 5.06194 18.4419 5.11001L19.5459 7.31796C20.3905 9.00707 20.0594 11.0471 18.7241 12.3825L12.7252 18.3813C11.2717 19.8348 9.12167 20.3424 7.17154 19.6923L4.75706 18.8875C4.49509 18.8002 4.35351 18.517 4.44083 18.255C4.46538 18.1814 4.50673 18.1145 4.56162 18.0596L7.21289 15.4083C7.82161 14.7996 8.75156 14.6487 9.52153 15.0337L9.77129 15.1586C10.5413 15.5436 11.4712 15.3927 12.0799 14.7839Z" fill="currentColor"/>
</svg>
