<svg width="24" height="24" viewBox="0 0 24 24" fill="none" xmlns="http://www.w3.org/2000/svg">
<g clip-path="url(#clip0_1395_41217)">
<path fill-rule="evenodd" clip-rule="evenodd" d="M22 17V21C22 22.1046 21.1046 23 20 23H4C2.89543 23 2 22.1046 2 21V17H6.27924L6.82339 18.6325C7.09562 19.4491 7.8599 20 8.72076 20H15.382C16.1395 20 16.832 19.572 17.1708 18.8944L18.118 17H22Z" fill="currentColor"/>
<path opacity="0.3" fill-rule="evenodd" clip-rule="evenodd" d="M2.5625 15L5.92654 9.01948C6.28078 8.38972 6.94715 8 7.66969 8H16.3303C17.0529 8 17.7192 8.38972 18.0735 9.01948L21.4375 15H18.118C17.3605 15 16.668 15.428 16.3292 16.1056L15.382 18H8.72076L8.17661 16.3675C7.90438 15.5509 7.1401 15 6.27924 15H2.5625Z" fill="currentColor"/>
<path d="M9.03175 4.49233H10.9882V6.5C10.9882 6.77614 11.2121 7 11.4882 7H12.5115C12.7877 7 13.0115 6.77614 13.0115 6.5V4.49233H14.968C15.2441 4.49233 15.468 4.26847 15.468 3.99233C15.468 3.87402 15.426 3.75954 15.3496 3.66924L12.3815 0.163582C12.203 -0.0471683 11.8875 -0.0733647 11.6768 0.10507C11.6557 0.122924 11.6361 0.142495 11.6183 0.163582L8.65015 3.66924C8.47172 3.87999 8.49791 4.19549 8.70866 4.37393C8.79896 4.45037 8.91344 4.49233 9.03175 4.49233Z" fill="currentColor"/>
</g>
<defs>
<clipPath id="clip0_1395_41217">
<rect width="24" height="24" fill="currentColor"/>
</clipPath>
</defs>
</svg>
