<svg width="24" height="24" viewBox="0 0 24 24" fill="none" xmlns="http://www.w3.org/2000/svg">
<path opacity="0.3" fill-rule="evenodd" clip-rule="evenodd" d="M22 15V19C22 20.1046 21.1046 21 20 21H8C5.79086 21 4 19.2091 4 17C4 14.7909 5.79086 13 8 13H20C21.1046 13 22 13.8954 22 15ZM7 19C8.10457 19 9 18.1046 9 17C9 15.8954 8.10457 15 7 15C5.89543 15 5 15.8954 5 17C5 18.1046 5.89543 19 7 19Z" fill="currentColor"/>
<path opacity="0.3" fill-rule="evenodd" clip-rule="evenodd" d="M15.5419 5.70004L18.3703 8.52847C19.1514 9.30952 19.1514 10.5759 18.3703 11.3569L9.88507 19.8422C8.32297 21.4043 5.79031 21.4043 4.22821 19.8422C2.66612 18.2801 2.66612 15.7474 4.22821 14.1853L12.7135 5.70004C13.4945 4.919 14.7609 4.919 15.5419 5.70004ZM6.99979 19C8.10436 19 8.99979 18.1046 8.99979 17C8.99979 15.8955 8.10436 15 6.99979 15C5.89522 15 4.99979 15.8955 4.99979 17C4.99979 18.1046 5.89522 19 6.99979 19Z" fill="currentColor"/>
<path fill-rule="evenodd" clip-rule="evenodd" d="M5 3H9C10.1046 3 11 3.89543 11 5V17C11 19.2091 9.20914 21 7 21C4.79086 21 3 19.2091 3 17V5C3 3.89543 3.89543 3 5 3ZM7 19C8.10457 19 9 18.1046 9 17C9 15.8954 8.10457 15 7 15C5.89543 15 5 15.8954 5 17C5 18.1046 5.89543 19 7 19Z" fill="currentColor"/>
</svg>
