<svg width="24" height="24" viewBox="0 0 24 24" fill="none" xmlns="http://www.w3.org/2000/svg">
<path fill-rule="evenodd" clip-rule="evenodd" d="M11.2927 5.63599L18.3637 12.7071L11.9998 19.071L4.92871 11.9999L11.2927 5.63599ZM8.46424 11.2928C8.07372 11.6834 8.07372 12.3165 8.46424 12.7071C8.85477 13.0976 9.48793 13.0976 9.87846 12.7071C10.269 12.3165 10.269 11.6834 9.87846 11.2928C9.48793 10.9023 8.85477 10.9023 8.46424 11.2928ZM11.2927 8.46441C10.9021 8.85494 10.9021 9.4881 11.2927 9.87863C11.6832 10.2692 12.3164 10.2692 12.7069 9.87863C13.0974 9.4881 13.0974 8.85494 12.7069 8.46441C12.3164 8.07389 11.6832 8.07389 11.2927 8.46441ZM11.2927 14.1213C10.9021 14.5118 10.9021 15.145 11.2927 15.5355C11.6832 15.926 12.3164 15.926 12.7069 15.5355C13.0974 15.145 13.0974 14.5118 12.7069 14.1213C12.3164 13.7307 11.6832 13.7307 11.2927 14.1213ZM14.1211 11.2928C13.7306 11.6834 13.7306 12.3165 14.1211 12.7071C14.5116 13.0976 15.1448 13.0976 15.5353 12.7071C15.9258 12.3165 15.9258 11.6834 15.5353 11.2928C15.1448 10.9023 14.5116 10.9023 14.1211 11.2928Z" fill="currentColor"/>
<path opacity="0.3" fill-rule="evenodd" clip-rule="evenodd" d="M10.515 20.4146C8.57366 21.7008 5.93225 21.4887 4.22179 19.7782C2.51133 18.0678 2.2992 15.4264 3.58541 13.485L10.515 20.4146Z" fill="currentColor"/>
<path opacity="0.3" fill-rule="evenodd" clip-rule="evenodd" d="M12.7778 4.29256C14.7192 3.00635 17.3606 3.21848 19.0711 4.92894C20.7815 6.63941 20.9937 9.28081 19.7075 11.2222L12.7778 4.29256Z" fill="currentColor"/>
</svg>
