<svg width="24" height="24" viewBox="0 0 24 24" fill="none" xmlns="http://www.w3.org/2000/svg">
<path opacity="0.3" d="M22 6.85718H4V10.5715H22V6.85718Z" fill="currentColor"/>
<path fill-rule="evenodd" clip-rule="evenodd" d="M21.1 18H11.9836C11.7263 14.091 8.47412 11 4.5 11C4.33199 11 4.16526 11.0055 4 11.0164V10.5715H22V17.0714C22 17.6286 21.64 18 21.1 18ZM22 6.85718V5.92857C22 5.37143 21.64 5 21.1 5H4.9C4.36 5 4 5.37143 4 5.92857V6.85718H22ZM14.6 14.75C14.6 15.4929 15.23 16.1429 15.95 16.1429H18.85C19.57 16.1429 20.2 15.4929 20.2 14.75C20.2 14.0071 19.57 13.3571 18.85 13.3571H15.95C15.23 13.3571 14.6 14.0071 14.6 14.75Z" fill="currentColor"/>
<path opacity="0.3" d="M3.875 20.75C3.63542 20.75 3.39583 20.6542 3.20417 20.4625L1.2875 18.5458C0.904167 18.1625 0.904167 17.5875 1.2875 17.2042C1.67083 16.8208 2.29375 16.8208 2.62917 17.2042L3.875 18.45L7.0375 15.2875C7.42083 14.9042 7.99583 14.9042 8.37917 15.2875C8.7625 15.6708 8.7625 16.2458 8.37917 16.6292L4.54583 20.4625C4.35417 20.6542 4.11458 20.75 3.875 20.75Z" fill="currentColor"/>
</svg>
