<svg width="24" height="24" viewBox="0 0 24 24" fill="none" xmlns="http://www.w3.org/2000/svg">
<path opacity="0.3" fill-rule="evenodd" clip-rule="evenodd" d="M3 16H5C5.55228 16 6 15.5523 6 15C6 14.4477 5.55228 14 5 14H3V12H5C5.55228 12 6 11.5523 6 11C6 10.4477 5.55228 10 5 10H3V8H5C5.55228 8 6 7.55228 6 7C6 6.44772 5.55228 6 5 6H3V4C3 3.44772 3.44772 3 4 3H10C10.5523 3 11 3.44772 11 4V19C11 19.5523 10.5523 20 10 20H4C3.44772 20 3 19.5523 3 19V16Z" fill="currentColor"/>
<path fill-rule="evenodd" clip-rule="evenodd" d="M16 3H19C20.1046 3 21 3.89543 21 5V15.2485C21 15.733 20.8242 16.201 20.5052 16.5655L17.8763 19.57C17.6944 19.7778 17.3786 19.7988 17.1707 19.617C17.154 19.6024 17.1383 19.5867 17.1237 19.57L14.4948 16.5655C14.1758 16.201 14 15.733 14 15.2485V5C14 3.89543 14.8954 3 16 3Z" fill="currentColor"/>
</svg>
