<svg width="24" height="24" viewBox="0 0 24 24" fill="none" xmlns="http://www.w3.org/2000/svg">
<path d="M7.13889 4V19H16.8611V4H7.13889ZM7.83333 1H16.1667C17.5729 1 18.25 1.98122 18.25 3.5V20.5C18.25 22.0188 17.5729 23 16.1667 23H7.83333C6.42705 23 5.75 22.0188 5.75 20.5V3.5C5.75 1.98122 6.42705 1 7.83333 1Z" fill="currentColor"/>
<path opacity="0.3" fill-rule="evenodd" clip-rule="evenodd" d="M7 4V19H17V4H7Z" fill="currentColor"/>
<path d="M12 22C12.5523 22 13 21.5523 13 21C13 20.4477 12.5523 20 12 20C11.4477 20 11 20.4477 11 21C11 21.5523 11.4477 22 12 22Z" fill="currentColor"/>
</svg>
