<svg width="24" height="24" viewBox="0 0 24 24" fill="none" xmlns="http://www.w3.org/2000/svg">
<path fill-rule="evenodd" clip-rule="evenodd" d="M10.2323 10.2322L13.7678 13.7677L8.46454 19.071C7.48823 20.0473 5.90532 20.0473 4.92901 19.071C3.9527 18.0947 3.9527 16.5118 4.92901 15.5355L10.2323 10.2322Z" fill="currentColor"/>
<path opacity="0.3" fill-rule="evenodd" clip-rule="evenodd" d="M13.7678 6.69666L15.5356 4.92889C16.5119 3.95258 18.0948 3.95258 19.0711 4.92889C20.0474 5.9052 20.0474 7.48811 19.0711 8.46442L17.3033 10.2322L18.364 11.2928C18.9498 11.8786 18.9498 12.8284 18.364 13.4142C17.7782 14 16.8285 14 16.2427 13.4142L10.5858 7.75732C10 7.17153 10 6.22178 10.5858 5.63599C11.1716 5.05021 12.1214 5.05021 12.7071 5.63599L13.7678 6.69666Z" fill="currentColor"/>
</svg>
