<svg width="24" height="24" viewBox="0 0 24 24" fill="none" xmlns="http://www.w3.org/2000/svg">
<path opacity="0.3" fill-rule="evenodd" clip-rule="evenodd" d="M12 21C7.02944 21 3 16.9706 3 12C3 7.02944 7.02944 3 12 3C16.9706 3 21 7.02944 21 12C21 16.9706 16.9706 21 12 21ZM12 18C15.3137 18 18 15.3137 18 12C18 8.68629 15.3137 6 12 6C8.68629 6 6 8.68629 6 12C6 15.3137 8.68629 18 12 18Z" fill="currentColor"/>
<path fill-rule="evenodd" clip-rule="evenodd" d="M11.9998 16.3323C9.60712 16.3323 7.66748 14.3927 7.66748 12C7.66748 9.60737 9.60712 7.66772 11.9998 7.66772C14.3925 7.66772 16.3321 9.60737 16.3321 12C16.3321 14.3927 14.3925 16.3323 11.9998 16.3323ZM11.9998 14.8882C13.5949 14.8882 14.888 13.5951 14.888 12C14.888 10.4049 13.5949 9.11183 11.9998 9.11183C10.4047 9.11183 9.11158 10.4049 9.11158 12C9.11158 13.5951 10.4047 14.8882 11.9998 14.8882Z" fill="currentColor"/>
</svg>
