<svg width="24" height="24" viewBox="0 0 24 24" fill="none" xmlns="http://www.w3.org/2000/svg">
<path opacity="0.3" fill-rule="evenodd" clip-rule="evenodd" d="M11.5 5H18.5C19.3284 5 20 5.67157 20 6.5C20 7.32843 19.3284 8 18.5 8H11.5C10.6716 8 10 7.32843 10 6.5C10 5.67157 10.6716 5 11.5 5ZM5.5 17H18.5C19.3284 17 20 17.6716 20 18.5C20 19.3284 19.3284 20 18.5 20H5.5C4.67157 20 4 19.3284 4 18.5C4 17.6716 4.67157 17 5.5 17ZM5.5 11H18.5C19.3284 11 20 11.6716 20 12.5C20 13.3284 19.3284 14 18.5 14H5.5C4.67157 14 4 13.3284 4 12.5C4 11.6716 4.67157 11 5.5 11Z" fill="currentColor"/>
<path fill-rule="evenodd" clip-rule="evenodd" d="M4.82866 9.40752L7.70336 6.90007C7.91146 6.71855 7.93301 6.4027 7.75149 6.1946C7.7369 6.17787 7.72121 6.16213 7.70453 6.14749L4.82984 3.62423C4.6223 3.44207 4.30639 3.46263 4.12422 3.67017C4.04415 3.76139 4 3.87863 4 4.00001V9.03071C4 9.30686 4.22386 9.53071 4.5 9.53071C4.62084 9.53071 4.7376 9.48695 4.82866 9.40752Z" fill="currentColor"/>
</svg>
