<svg width="24" height="24" viewBox="0 0 24 24" fill="none" xmlns="http://www.w3.org/2000/svg">
<g clip-path="url(#clip0_1692_34768)">
<path d="M8.24275 16.2426C7.85223 15.8521 7.85223 15.2189 8.24275 14.8284L15.3138 7.75735C15.7043 7.36682 16.3375 7.36682 16.728 7.75735C17.1186 8.14787 17.1186 8.78104 16.728 9.17156L9.65696 16.2426C9.26644 16.6332 8.63328 16.6332 8.24275 16.2426Z" fill="currentColor"/>
<path opacity="0.4" d="M11.0714 14.8284C10.6808 15.2189 10.1952 15.3665 9.98666 15.1579L8.09864 13.2699C7.8901 13.0614 8.03762 12.5757 8.42815 12.1852C8.81867 11.7947 9.30431 11.6471 9.51286 11.8557L11.4009 13.7437C11.6094 13.9523 11.4619 14.4379 11.0714 14.8284Z" fill="currentColor"/>
<path d="M20.5357 19.5357C20.1452 19.9262 19.512 19.9262 19.1215 19.5357L17.0002 17.4144L18.4144 16.0002L20.5357 18.1215C20.9262 18.512 20.9262 19.1452 20.5357 19.5357Z" fill="currentColor"/>
<path opacity="0.4" d="M15.3136 10.5857C14.923 10.9763 14.4392 11.1256 14.2328 10.9192L12.3646 9.05098C12.1582 8.84462 12.3075 8.36075 12.698 7.97023C13.0886 7.5797 13.5724 7.43041 13.7788 7.63676L15.647 9.50499C15.8534 9.71135 15.7041 10.1952 15.3136 10.5857Z" fill="currentColor"/>
<path opacity="0.4" d="M9.65674 16.2426L16.7278 9.17149L18.142 10.5857C19.7041 12.1478 19.7041 14.6805 18.142 16.2426L16.7278 17.6568C15.1657 19.2189 12.633 19.2189 11.071 17.6568L9.65674 16.2426Z" fill="currentColor"/>
<path d="M5.32861 6.74261L3.20729 4.62129C2.81677 4.23077 2.81677 3.59761 3.20729 3.20708C3.59782 2.81656 4.23098 2.81656 4.62151 3.20708L6.74283 5.3284L5.32861 6.74261Z" fill="currentColor"/>
<path d="M15.435 6.4644C15.8255 6.85493 15.8255 7.48809 15.435 7.87862L8.36391 14.9497C7.97339 15.3402 7.34023 15.3402 6.9497 14.9497C6.55918 14.5592 6.55918 13.926 6.9497 13.5355L14.0208 6.4644C14.4113 6.07388 15.0445 6.07388 15.435 6.4644Z" fill="currentColor"/>
<path opacity="0.4" d="M14.021 6.46442L6.94993 13.5355L5.53571 12.1213C3.97362 10.5592 3.97362 8.02651 5.53571 6.46442L6.94993 5.0502C8.51203 3.48811 11.0447 3.48811 12.6068 5.0502L14.021 6.46442Z" fill="currentColor"/>
</g>
<defs>
<clipPath id="clip0_1692_34768">
<rect width="24" height="24" fill="currentColor"/>
</clipPath>
</defs>
</svg>
