<svg width="24" height="24" viewBox="0 0 24 24" fill="none" xmlns="http://www.w3.org/2000/svg">
<path fill-rule="evenodd" clip-rule="evenodd" d="M7.8248 10.225C7.1998 9.47505 6.8498 8.40005 6.8498 7.37505C6.8498 4.55005 9.1498 2.05005 12.3498 2.05005C15.4498 2.05005 17.7998 4.45005 17.8748 7.42505H15.0748C15.0748 5.85005 13.9748 4.60005 12.3498 4.60005C10.7498 4.60005 9.5998 5.77505 9.5998 7.37505C9.5998 8.26632 10.0161 9.06152 10.6675 9.58397C10.7129 9.62038 10.7236 12.2341 10.6998 17.425H17.5442C17.8204 17.425 18.0442 17.6489 18.0442 17.925C18.0442 17.987 18.0328 18.0483 18.0103 18.1061L17.3987 19.6811C17.324 19.8734 17.1389 20 16.9326 20H6.2998C6.02366 20 5.7998 19.7762 5.7998 19.5V17.925C5.7998 17.6489 6.02366 17.425 6.2998 17.425H7.9248V12.475L7.8248 10.225Z" fill="currentColor"/>
<path opacity="0.3" fill-rule="evenodd" clip-rule="evenodd" d="M4.36187 11.2764L4.86187 10.2764C4.94656 10.107 5.1197 10 5.30908 10H15.191C15.4672 10 15.691 10.2239 15.691 10.5C15.691 10.5776 15.673 10.6542 15.6383 10.7236L15.1383 11.7236C15.0536 11.893 14.8804 12 14.691 12H4.80908C4.53294 12 4.30908 11.7761 4.30908 11.5C4.30908 11.4224 4.32715 11.3458 4.36187 11.2764Z" fill="currentColor"/>
</svg>
