<svg width="24" height="24" viewBox="0 0 24 24" fill="none" xmlns="http://www.w3.org/2000/svg">
<path opacity="0.3" d="M3.52271 14.0288C2.82576 13.3277 2.82576 12.1954 3.52271 11.4943L11.6128 3.54063C11.9489 3.21011 12.4015 3.0249 12.873 3.0249H19.3274C20.3202 3.0249 21.1249 3.82968 21.1249 4.82242V11.2584C21.1249 11.7408 20.9311 12.2029 20.5869 12.5409L12.5103 20.4729C12.1732 20.8105 11.7156 21.0001 11.2386 21.0001C10.7615 21.0001 10.304 20.8105 9.96682 20.4729L3.52271 14.0288ZM16.9307 9.01664C17.9235 9.01664 18.7282 8.21186 18.7282 7.21912C18.7282 6.22638 17.9235 5.4216 16.9307 5.4216C15.938 5.4216 15.1332 6.22638 15.1332 7.21912C15.1332 8.21186 15.938 9.01664 16.9307 9.01664Z" fill="currentColor"/>
</svg>
