<svg width="24" height="24" viewBox="0 0 24 24" fill="none" xmlns="http://www.w3.org/2000/svg">
<g opacity="0.3">
<path opacity="0.3" fill-rule="evenodd" clip-rule="evenodd" d="M10.8789 4.929L13.0002 7.05032C13.0402 7.09028 13.0827 7.12615 13.1272 7.15794C12.5867 8.27537 12.78 9.6586 13.7073 10.5858C14.8789 11.7574 16.7784 11.7574 17.9499 10.5858C19.1215 9.41428 19.1215 7.51478 17.9499 6.34321C17.0227 5.41596 15.6395 5.22259 14.522 5.7631C14.4902 5.71857 14.4544 5.67607 14.4144 5.6361L12.3517 3.57344C14.6949 1.90351 17.969 2.11966 20.0713 4.22189C22.4144 6.56503 22.4144 10.364 20.0713 12.7072L10.8789 21.8996C10.0978 22.6806 8.83149 22.6806 8.05044 21.8996L2.39358 16.2427C1.61254 15.4617 1.61254 14.1953 2.39358 13.4143L10.8789 4.929Z" fill="currentColor"/>
<path opacity="0.3" d="M13 15.5357L8.7574 11.293C8.36688 10.9025 7.73371 10.9025 7.34319 11.293C6.95266 11.6836 6.95266 12.3167 7.34319 12.7073L11.5858 16.9499C11.9764 17.3404 12.6095 17.3404 13 16.9499C13.3906 16.5594 13.3906 15.9262 13 15.5357Z" fill="currentColor"/>
<path opacity="0.3" d="M9.46473 17.6569L6.63631 14.8284C6.24578 14.4379 5.61262 14.4379 5.22209 14.8284C4.83157 15.219 4.83157 15.8521 5.22209 16.2427L8.05052 19.0711C8.44104 19.4616 9.07421 19.4616 9.46473 19.0711C9.85526 18.6806 9.85526 18.0474 9.46473 17.6569Z" fill="currentColor"/>
</g>
</svg>
