<svg width="24" height="24" viewBox="0 0 24 24" fill="none" xmlns="http://www.w3.org/2000/svg">
<path opacity="0.3" d="M12 22C17.5228 22 22 17.5228 22 12C22 6.47715 17.5228 2 12 2C6.47715 2 2 6.47715 2 12C2 17.5228 6.47715 22 12 22Z" fill="currentColor"/>
<circle cx="12" cy="17" r="1" fill="currentColor"/>
<path fill-rule="evenodd" clip-rule="evenodd" d="M12 7C10.8954 7 10 7.89543 10 9C10 9.55228 9.55228 10 9 10C8.44772 10 8 9.55228 8 9C8 6.79086 9.79086 5 12 5C14.2091 5 16 6.79086 16 9C16 10.5155 15.1568 11.8327 13.9186 12.5105C13.6233 12.6721 13.3721 12.8622 13.2058 13.0562C13.0438 13.245 13 13.39 13 13.5C13 14.0523 12.5523 14.5 12 14.5C11.4477 14.5 11 14.0523 11 13.5C11 12.7816 11.3121 12.1921 11.6877 11.7542C12.0589 11.3213 12.5269 10.9923 12.9583 10.7561C13.5812 10.4151 14 9.75575 14 9C14 7.89543 13.1046 7 12 7Z" fill="currentColor"/>
</svg>
