<svg width="24" height="24" viewBox="0 0 24 24" fill="none" xmlns="http://www.w3.org/2000/svg">
<path opacity="0.3" fill-rule="evenodd" clip-rule="evenodd" d="M4 7H20C21.1046 7 22 7.89543 22 9V19C22 20.1046 21.1046 21 20 21H4C2.89543 21 2 20.1046 2 19V9C2 7.89543 2.89543 7 4 7ZM16 18C18.2091 18 20 16.2091 20 14C20 11.7909 18.2091 10 16 10C13.7909 10 12 11.7909 12 14C12 16.2091 13.7909 18 16 18Z" fill="currentColor"/>
<path fill-rule="evenodd" clip-rule="evenodd" d="M20.6188 7.09756C20.424 7.03427 20.2161 7.00006 20.0002 7.00006H17.2016L8.01295 1.87333C7.53065 1.60424 7.35782 0.995118 7.62691 0.512824C7.896 0.0305294 8.50512 -0.142305 8.98742 0.126787L20.1119 6.33362C20.4055 6.4974 20.5844 6.78713 20.6188 7.09756Z" fill="currentColor"/>
<path fill-rule="evenodd" clip-rule="evenodd" d="M16 16C17.1046 16 18 15.1046 18 14C18 12.8954 17.1046 12 16 12C14.8954 12 14 12.8954 14 14C14 15.1046 14.8954 16 16 16Z" fill="currentColor"/>
<path opacity="0.3" d="M8 11H5C4.44772 11 4 11.4477 4 12C4 12.5523 4.44772 13 5 13H8C8.55228 13 9 12.5523 9 12C9 11.4477 8.55228 11 8 11Z" fill="currentColor"/>
<path opacity="0.3" d="M8 15H5C4.44772 15 4 15.4477 4 16C4 16.5523 4.44772 17 5 17H8C8.55228 17 9 16.5523 9 16C9 15.4477 8.55228 15 8 15Z" fill="currentColor"/>
</svg>
