<svg width="24" height="24" viewBox="0 0 24 24" fill="none" xmlns="http://www.w3.org/2000/svg">
<path opacity="0.3" fill-rule="evenodd" clip-rule="evenodd" d="M4.30769 13C3.03319 13 2 11.9926 2 10.75C2 9.92157 2.76923 8.67157 4.30769 7C5.84615 8.67157 6.61538 9.92157 6.61538 10.75C6.61538 11.9926 5.5822 13 4.30769 13ZM19.6923 13C18.4178 13 17.3846 11.9926 17.3846 10.75C17.3846 9.92157 18.1538 8.67157 19.6923 7C21.2308 8.67157 22 9.92157 22 10.75C22 11.9926 20.9668 13 19.6923 13ZM8.30769 20C7.03319 20 6 18.9926 6 17.75C6 16.9216 6.76923 15.6716 8.30769 14C9.84615 15.6716 10.6154 16.9216 10.6154 17.75C10.6154 18.9926 9.5822 20 8.30769 20ZM16 20C14.7255 20 13.6923 18.9926 13.6923 17.75C13.6923 16.9216 14.4615 15.6716 16 14C17.5385 15.6716 18.3077 16.9216 18.3077 17.75C18.3077 18.9926 17.2745 20 16 20Z" fill="currentColor"/>
<path fill-rule="evenodd" clip-rule="evenodd" d="M12.0001 13C13.2746 13 14.3078 11.9926 14.3078 10.75C14.3078 9.92157 13.5385 8.67157 12.0001 7C10.4616 8.67157 9.69238 9.92157 9.69238 10.75C9.69238 11.9926 10.7256 13 12.0001 13Z" fill="currentColor"/>
</svg>
