<svg width="24" height="24" viewBox="0 0 24 24" fill="none" xmlns="http://www.w3.org/2000/svg">
<path fill-rule="evenodd" clip-rule="evenodd" d="M5.74715 14.0426C4.0941 12.974 3 11.1148 3 9C3 5.68629 5.68629 3 9 3C11.7958 3 14.1449 4.91216 14.811 7.5H17.25C19.3211 7.5 21 9.17893 21 11.25C21 13.3211 19.3211 15 17.25 15H8.25C7.28818 15 6.41093 14.6379 5.74715 14.0426Z" fill="currentColor"/>
<path opacity="0.3" fill-rule="evenodd" clip-rule="evenodd" d="M8.90567 16.1193C9.43914 16.2622 9.75572 16.8106 9.61278 17.344L8.5775 21.2077C8.43456 21.7412 7.88622 22.0578 7.35276 21.9148C6.81929 21.7719 6.50271 21.2236 6.64565 20.6901L7.68093 16.8264C7.82387 16.2929 8.37221 15.9763 8.90567 16.1193ZM16.9057 16.1193C17.4391 16.2622 17.7557 16.8106 17.6128 17.344L16.5775 21.2077C16.4346 21.7412 15.8862 22.0578 15.3528 21.9148C14.8193 21.7719 14.5027 21.2236 14.6457 20.6901L15.6809 16.8264C15.8239 16.2929 16.3722 15.9763 16.9057 16.1193ZM12.9057 16.1193C13.4391 16.2622 13.7557 16.8106 13.6128 17.344L12.5775 21.2077C12.4346 21.7412 11.8862 22.0578 11.3528 21.9148C10.8193 21.7719 10.5027 21.2236 10.6457 20.6901L11.6809 16.8264C11.8239 16.2929 12.3722 15.9763 12.9057 16.1193Z" fill="currentColor"/>
</svg>
