<svg width="24" height="24" viewBox="0 0 24 24" fill="none" xmlns="http://www.w3.org/2000/svg">
<path opacity="0.3" fill-rule="evenodd" clip-rule="evenodd" d="M5.0708 16C5.55892 12.5781 8.50491 10 12.0002 10C15.4957 10 18.4415 12.5784 18.9295 16H16.9002C16.4369 13.7178 14.4191 12 12.0002 12C9.58121 12 7.56346 13.7178 7.10019 16H5.0708ZM9.17013 16C9.58363 14.8278 10.704 14 12.0002 14C13.2964 14 14.4167 14.8279 14.8302 16H9.17013Z" fill="currentColor"/>
<path fill-rule="evenodd" clip-rule="evenodd" d="M12.0001 6C17.7381 6 22.45 10.3935 22.9552 16H20.9452C20.9366 15.9226 20.9271 15.8456 20.9166 15.7688C20.3163 11.3807 16.553 8 12.0001 8C7.45058 8 3.6895 11.3757 3.08495 15.759C3.07392 15.839 3.06393 15.9193 3.05502 16H1.04492C1.55016 10.3935 6.26204 6 12.0001 6Z" fill="currentColor"/>
<path fill-rule="evenodd" clip-rule="evenodd" d="M12.0001 6C17.7381 6 22.45 10.3935 22.9552 16H20.9452C20.9366 15.9226 20.9271 15.8456 20.9166 15.7688C20.3163 11.3807 16.553 8 12.0001 8C7.45058 8 3.6895 11.3757 3.08495 15.759C3.07392 15.839 3.06393 15.9193 3.05502 16H1.04492C1.55016 10.3935 6.26204 6 12.0001 6Z" fill="currentColor"/>
</svg>
