<svg width="24" height="24" viewBox="0 0 24 24" fill="none" xmlns="http://www.w3.org/2000/svg">
<path fill-rule="evenodd" clip-rule="evenodd" d="M5.74715 14.0426C4.0941 12.974 3 11.1148 3 9C3 5.68629 5.68629 3 9 3C11.7958 3 14.1449 4.91216 14.811 7.5H17.25C19.3211 7.5 21 9.17893 21 11.25C21 13.3211 19.3211 15 17.25 15H8.25C7.28818 15 6.41093 14.6379 5.74715 14.0426Z" fill="currentColor"/>
<path opacity="0.3" fill-rule="evenodd" clip-rule="evenodd" d="M6.5 21C5.67157 21 5 20.3284 5 19.5C5 18.9477 5.5 18.1144 6.5 17C7.5 18.1144 8 18.9477 8 19.5C8 20.3284 7.32843 21 6.5 21ZM11.5 21C10.6716 21 10 20.3284 10 19.5C10 18.9477 10.5 18.1144 11.5 17C12.5 18.1144 13 18.9477 13 19.5C13 20.3284 12.3284 21 11.5 21ZM16.5 21C15.6716 21 15 20.3284 15 19.5C15 18.9477 15.5 18.1144 16.5 17C17.5 18.1144 18 18.9477 18 19.5C18 20.3284 17.3284 21 16.5 21Z" fill="currentColor"/>
</svg>
