<svg width="24" height="24" viewBox="0 0 24 24" fill="none" xmlns="http://www.w3.org/2000/svg">
<path fill-rule="evenodd" clip-rule="evenodd" d="M9 13H15L20.4472 15.7236C20.786 15.893 21 16.2393 21 16.618V20C21 20.5523 20.5523 21 20 21H4C3.44772 21 3 20.5523 3 20V16.618C3 16.2393 3.214 15.893 3.55279 15.7236L9 13ZM10 2H14H10ZM18 19C18.5523 19 19 18.5523 19 18C19 17.4477 18.5523 17 18 17C17.4477 17 17 17.4477 17 18C17 18.5523 17.4477 19 18 19ZM15 19C15.5523 19 16 18.5523 16 18C16 17.4477 15.5523 17 15 17C14.4477 17 14 17.4477 14 18C14 18.5523 14.4477 19 15 19ZM12 19C12.5523 19 13 18.5523 13 18C13 17.4477 12.5523 17 12 17C11.4477 17 11 17.4477 11 18C11 18.5523 11.4477 19 12 19Z" fill="currentColor"/>
<path opacity="0.3" fill-rule="evenodd" clip-rule="evenodd" d="M9 13V3C9 2.44772 9.44772 2 10 2H14C14.5523 2 15 2.44772 15 3V13H9Z" fill="currentColor"/>
</svg>
