<svg width="24" height="24" viewBox="0 0 24 24" fill="none" xmlns="http://www.w3.org/2000/svg">
<path d="M3.06501 17.7911C3.06501 16.9707 2.88923 13.7334 5.44294 11.1651C7.16169 9.43656 9.73395 9.13676 12.8101 9.00004V4.69312C12.8101 4.2789 13.1459 3.94312 13.5601 3.94312C13.7464 3.94312 13.9261 4.01246 14.0641 4.13765L21.2041 10.6153C21.5109 10.8936 21.534 11.3679 21.2557 11.6747C21.2411 11.6908 21.2258 11.7063 21.2098 11.721L14.0697 18.3335C13.7658 18.615 13.2913 18.5968 13.0099 18.2928C12.8815 18.1542 12.8101 17.9722 12.8101 17.7832V13.5C10.857 13.5538 9.46575 13.678 8.20173 14.0801C6.3817 14.6591 4.97515 16.3019 3.98208 19.0084L3.9821 19.0084C3.87373 19.3037 3.59258 19.5 3.27798 19.5H3.06012C3.06012 19.0069 3.06501 18.2256 3.06501 17.7911Z" fill="currentColor"/>
</svg>
