<svg width="24" height="24" viewBox="0 0 24 24" fill="none" xmlns="http://www.w3.org/2000/svg">
<path opacity="0.3" fill-rule="evenodd" clip-rule="evenodd" d="M21.9969 12.1934C21.8948 15.4176 19.2489 18 15.9999 18H12.0582V18.9825C12.0582 19.2587 11.8344 19.4825 11.5582 19.4825C11.4509 19.4825 11.3464 19.448 11.2602 19.384L8.4032 17.2635C8.18146 17.0989 8.13513 16.7857 8.29971 16.564C8.32864 16.525 8.3631 16.4904 8.402 16.4614L11.259 14.3274C11.4803 14.1622 11.7936 14.2075 11.9588 14.4288C12.0234 14.5152 12.0582 14.6202 12.0582 14.728V16H15.9999C17.6264 16 19.0261 15.0292 19.6514 13.6355C20.5363 13.3252 21.3338 12.8288 21.9969 12.1934Z" fill="currentColor"/>
<path d="M12.1 6C12.5633 3.71776 14.581 2 17 2C19.7614 2 22 4.23858 22 7C22 9.76142 19.7614 12 17 12C14.581 12 12.5633 10.2822 12.1 8H8C5.79086 8 4 9.79086 4 12V13C4 14.6569 5.34315 16 7 16V18C4.23858 18 2 15.7614 2 13V12C2 8.68629 4.68629 6 8 6H12.1ZM16.73 5.668V9.5H17.69V4.5H16.818L15.05 5.924L15.61 6.588L16.73 5.668Z" fill="currentColor"/>
</svg>
