<svg width="24" height="24" viewBox="0 0 24 24" fill="none" xmlns="http://www.w3.org/2000/svg">
<path opacity="0.3" d="M8.29629 4.13765L1.15622 10.6153C0.849447 10.8936 0.826375 11.3679 1.10469 11.6747C1.1193 11.6908 1.1346 11.7063 1.15055 11.721L8.29062 18.3335C8.59452 18.615 9.06905 18.5968 9.3505 18.2928C9.4789 18.1542 9.55023 17.9722 9.55023 17.7832V4.69312C9.55023 4.2789 9.21444 3.94312 8.80023 3.94312C8.61392 3.94312 8.43428 4.01246 8.29629 4.13765Z" fill="currentColor"/>
<path d="M23.2953 17.7911C23.2953 16.9707 23.4711 13.7334 20.9174 11.1651C19.1987 9.43656 16.6264 9.13676 13.5502 9.00004V4.69312C13.5502 4.2789 13.2144 3.94312 12.8002 3.94312C12.6139 3.94312 12.4343 4.01246 12.2963 4.13765L5.15622 10.6153C4.84945 10.8936 4.82637 11.3679 5.10469 11.6747C5.1193 11.6908 5.1346 11.7063 5.15055 11.721L12.2906 18.3335C12.5945 18.615 13.069 18.5968 13.3505 18.2928C13.4789 18.1542 13.5502 17.9722 13.5502 17.7832V13.5C15.5034 13.5538 16.8946 13.678 18.1586 14.0801C19.9787 14.6591 21.3852 16.3019 22.3783 19.0084L22.3783 19.0084C22.4866 19.3037 22.7678 19.5 23.0824 19.5H23.3002C23.3002 19.0069 23.2953 18.2256 23.2953 17.7911Z" fill="currentColor"/>
</svg>
