<svg width="24" height="24" viewBox="0 0 24 24" fill="none" xmlns="http://www.w3.org/2000/svg">
<path opacity="0.3" d="M12 22C17.5228 22 22 17.5228 22 12C22 6.47715 17.5228 2 12 2C6.47715 2 2 6.47715 2 12C2 17.5228 6.47715 22 12 22Z" fill="currentColor"/>
<path d="M9.32262 7.46323C8.98788 7.1285 8.98788 6.58579 9.32262 6.25105C9.65735 5.91632 10.2001 5.91632 10.5348 6.25105L15.6777 11.3939C16.0022 11.7184 16.0135 12.2409 15.7034 12.5792L10.9891 17.722C10.6692 18.071 10.127 18.0946 9.77809 17.7747C9.42913 17.4548 9.40556 16.9126 9.72544 16.5637L13.8852 12.0258L9.32262 7.46323Z" fill="currentColor"/>
</svg>
