<svg width="24" height="24" viewBox="0 0 24 24" fill="none" xmlns="http://www.w3.org/2000/svg">
<path d="M12.6572 10V5.67017C12.6572 5.25595 12.3214 4.92017 11.9072 4.92017C11.7235 4.92017 11.5463 4.98757 11.409 5.10961L4.25174 11.4716C3.94215 11.7468 3.91426 12.2208 4.18945 12.5304C4.19921 12.5414 4.20929 12.5521 4.21968 12.5625L11.3769 19.7197C11.6698 20.0126 12.1447 20.0126 12.4376 19.7197C12.5782 19.579 12.6572 19.3883 12.6572 19.1894V15C14.0044 14.9189 16.8349 14.9158 21.1486 14.9909V14.9909C21.4246 14.9957 21.6524 14.7758 21.6572 14.4997C21.6572 14.4968 21.6572 14.4939 21.6572 14.491L21.6573 10.5051C21.6573 10.2289 21.4334 10.005 21.1572 10.005C21.1556 10.005 21.154 10.005 21.1524 10.005C16.0216 10.0548 13.1899 10.0531 12.6572 10Z" fill="currentColor"/>
</svg>
