<svg width="24" height="24" viewBox="0 0 24 24" fill="none" xmlns="http://www.w3.org/2000/svg">
<path fill-rule="evenodd" clip-rule="evenodd" d="M14.8518 9L15.7778 12H8.22173L9.14774 9H14.8518ZM13.9258 6H10.0738L10.7048 3.95552C10.8802 3.38746 11.4053 3 11.9998 3C12.5943 3 13.1194 3.38746 13.2947 3.95552L13.9258 6ZM16.7038 15L17.9385 19H6.06104L7.29572 15H16.7038Z" fill="currentColor"/>
<path opacity="0.3" d="M20 20H4C3.44772 20 3 20.4477 3 21C3 21.5523 3.44772 22 4 22H20C20.5523 22 21 21.5523 21 21C21 20.4477 20.5523 20 20 20Z" fill="currentColor"/>
</svg>
