<svg width="24" height="24" viewBox="0 0 24 24" fill="none" xmlns="http://www.w3.org/2000/svg">
<path fill-rule="evenodd" clip-rule="evenodd" d="M5.2826 14.4749L14.475 5.28248C15.0608 4.69669 16.0105 4.69669 16.5963 5.28248L18.7176 7.4038C19.3034 7.98959 19.3034 8.93933 18.7176 9.52512L9.52524 18.7175C8.93946 19.3033 7.98971 19.3033 7.40392 18.7175L5.2826 16.5962C4.69682 16.0104 4.69682 15.0607 5.2826 14.4749Z" fill="currentColor"/>
<path opacity="0.3" fill-rule="evenodd" clip-rule="evenodd" d="M3.51454 18.364L4.22164 17.6569C4.4169 17.4617 4.73349 17.4617 4.92875 17.6569L6.34296 19.0711C6.53822 19.2664 6.53822 19.583 6.34296 19.7782L5.63586 20.4853C5.05007 21.0711 4.10032 21.0711 3.51454 20.4853C2.92875 19.8996 2.92875 18.9498 3.51454 18.364ZM18.3638 3.51478C18.9496 2.92899 19.8993 2.92899 20.4851 3.51478C21.0709 4.10057 21.0709 5.05031 20.4851 5.6361L19.778 6.34321C19.5827 6.53847 19.2661 6.53847 19.0709 6.34321L17.6567 4.92899C17.4614 4.73373 17.4614 4.41715 17.6567 4.22189L18.3638 3.51478Z" fill="currentColor"/>
</svg>
