<svg width="24" height="24" viewBox="0 0 24 24" fill="none" xmlns="http://www.w3.org/2000/svg">
<path d="M17 2H4C3.44772 2 3 2.44772 3 3V6C3 6.55228 3.44772 7 4 7H17C17.5523 7 18 6.55228 18 6V3C18 2.44772 17.5523 2 17 2Z" fill="currentColor"/>
<path d="M12 12H10C9.44772 12 9 12.4477 9 13V21C9 21.5523 9.44772 22 10 22H12C12.5523 22 13 21.5523 13 21V13C13 12.4477 12.5523 12 12 12Z" fill="currentColor"/>
<path opacity="0.3" d="M12 12H10V11C10 9.89543 10.8954 9 12 9H19V5.5H18V3.5H19C20.1046 3.5 21 4.39543 21 5.5V9C21 10.1046 20.1046 11 19 11H12V12Z" fill="currentColor"/>
</svg>
