<svg width="24" height="24" viewBox="0 0 24 24" fill="none" xmlns="http://www.w3.org/2000/svg">
<path opacity="0.3" fill-rule="evenodd" clip-rule="evenodd" d="M5.36187 16.2764L5.86187 15.2764C5.94656 15.107 6.1197 15 6.30908 15H16.191C16.4672 15 16.691 15.2239 16.691 15.5C16.691 15.5776 16.673 15.6542 16.6383 15.7236L16.1383 16.7236C16.0536 16.893 15.8804 17 15.691 17H5.80908C5.53294 17 5.30908 16.7761 5.30908 16.5C5.30908 16.4224 5.32715 16.3458 5.36187 16.2764Z" fill="currentColor"/>
<path fill-rule="evenodd" clip-rule="evenodd" d="M8 3.71606H13.107C14.0423 3.71606 14.8857 3.8004 15.637 3.96906C16.3883 4.13773 17.0323 4.41373 17.569 4.79706C18.1057 5.1804 18.5197 5.67106 18.811 6.26906C19.1023 6.86707 19.248 7.58773 19.248 8.43106C19.248 9.33574 19.0793 10.0947 18.742 10.7081C18.4047 11.3214 17.9485 11.8159 17.3735 12.1916C16.7985 12.5672 16.1277 12.8394 15.361 13.0081C14.5943 13.1767 13.7817 13.2611 12.923 13.2611H10.692V20.0001H8V3.71606ZM12.716 10.8231C13.1913 10.8231 13.6437 10.7886 14.073 10.7196C14.5023 10.6506 14.8857 10.5279 15.223 10.3516C15.5603 10.1752 15.8287 9.93373 16.028 9.62706C16.2273 9.3204 16.327 8.92173 16.327 8.43106C16.327 7.95573 16.2273 7.56857 16.028 7.26956C15.8287 6.97056 15.5642 6.73673 15.2345 6.56806C14.9048 6.3994 14.5292 6.28823 14.1075 6.23456C13.6858 6.1809 13.2527 6.15406 12.808 6.15406H10.692V10.8231H12.716Z" fill="currentColor"/>
</svg>
