<svg width="24" height="24" viewBox="0 0 24 24" fill="none" xmlns="http://www.w3.org/2000/svg">
<path fill-rule="evenodd" clip-rule="evenodd" d="M22 8C22 8.55228 21.5523 9 21 9H19V15C19 18.3137 16.3137 21 13 21H5C3.89543 21 3 20.1046 3 19V11C3 7.68629 5.68629 5 9 5H17C18.1046 5 19 5.89543 19 7H21V6H22V8ZM11 17C13.2091 17 15 15.2091 15 13C15 10.7909 13.2091 9 11 9C8.79086 9 7 10.7909 7 13C7 15.2091 8.79086 17 11 17Z" fill="currentColor"/>
<path opacity="0.3" fill-rule="evenodd" clip-rule="evenodd" d="M12 3H15C15.5523 3 16 3.44772 16 4V5H11V4C11 3.44772 11.4477 3 12 3Z" fill="currentColor"/>
</svg>
