<svg width="24" height="24" viewBox="0 0 24 24" fill="none" xmlns="http://www.w3.org/2000/svg">
<path fill-rule="evenodd" clip-rule="evenodd" d="M15 15V10C15 9.44772 15.4477 9 16 9C16.5523 9 17 9.44772 17 10V15H20C21.1046 15 22 15.8954 22 17V19C22 20.1046 21.1046 21 20 21H4C2.89543 21 2 20.1046 2 19V17C2 15.8954 2.89543 15 4 15H15ZM5 17C4.44772 17 4 17.4477 4 18C4 18.5523 4.44772 19 5 19H10C10.5523 19 11 18.5523 11 18C11 17.4477 10.5523 17 10 17H5Z" fill="currentColor"/>
<path opacity="0.3" d="M20.5 7.71557L19.2133 8.85714C18.4253 7.82897 17.257 7.22293 15.9948 7.22293C14.7366 7.22293 13.5717 7.82497 12.7837 8.84738L11.5 7.70192C12.6016 6.27273 14.235 5.42857 15.9948 5.42857C17.7603 5.42857 19.3985 6.27833 20.5 7.71557ZM23.5 5.46053L22.1363 6.57143C20.6295 4.78946 18.4012 3.73945 15.9963 3.73945C13.5947 3.73945 11.3692 4.78653 9.86238 6.56428L8.5 5.4518C10.3401 3.28094 13.0626 2 15.9963 2C18.9341 2 21.66 3.28452 23.5 5.46053Z" fill="currentColor"/>
</svg>
