<svg width="24" height="24" viewBox="0 0 24 24" fill="none" xmlns="http://www.w3.org/2000/svg">
<path d="M19 13H5C3.89543 13 3 13.8954 3 15V18C3 19.1046 3.89543 20 5 20H19C20.1046 20 21 19.1046 21 18V15C21 13.8954 20.1046 13 19 13Z" fill="currentColor"/>
<path opacity="0.3" d="M17.4028 9.5491L15.8598 10.8215C14.9148 9.6755 13.5136 9 11.9999 9C10.4911 9 9.09404 9.67104 8.14896 10.8106L6.60949 9.53389C7.9306 7.94091 9.88945 7 11.9999 7C14.1172 7 16.0818 7.94714 17.4028 9.5491ZM20.468 6.97889L18.929 8.25619C17.2285 6.2073 14.7139 5 11.9999 5C9.2896 5 6.77807 6.20393 5.07752 8.24797L3.54004 6.96885C5.61663 4.47282 8.68908 3 11.9999 3C15.3152 3 18.3915 4.47693 20.468 6.97889Z" fill="currentColor"/>
</svg>
