<svg width="24" height="24" viewBox="0 0 24 24" fill="none" xmlns="http://www.w3.org/2000/svg">
<path fill-rule="evenodd" clip-rule="evenodd" d="M10.586 6.34318L11.2931 7.05029C11.6836 7.44081 12.3168 7.44081 12.7073 7.05029C13.0979 6.65976 13.0979 6.0266 12.7073 5.63607L12.0002 4.92897L13.4144 3.51475L15.5358 5.63607C15.9263 6.0266 16.5595 6.0266 16.95 5.63607C17.3405 5.24555 17.3405 4.61238 16.95 4.22186L14.8287 2.10054C15.6097 1.31949 16.876 1.31949 17.6571 2.10054L21.8997 6.34318C22.6808 7.12423 22.6808 8.39056 21.8997 9.17161L9.1718 21.8995C8.39076 22.6806 7.12443 22.6806 6.34338 21.8995L2.10074 17.6569C1.31969 16.8758 1.31969 15.6095 2.10074 14.8285L4.22206 16.9498C4.61258 17.3403 5.24575 17.3403 5.63627 16.9498C6.0268 16.5593 6.0268 15.9261 5.63627 15.5356L3.51495 13.4142L4.92916 12L5.63627 12.7071C6.0268 13.0977 6.65996 13.0977 7.05048 12.7071C7.44101 12.3166 7.44101 11.6835 7.05048 11.2929L6.34338 10.5858L7.75759 9.17161L9.87891 11.2929C10.2694 11.6835 10.9026 11.6835 11.2931 11.2929C11.6836 10.9024 11.6836 10.2692 11.2931 9.87871L9.1718 7.75739L10.586 6.34318Z" fill="currentColor"/>
</svg>
