<svg width="24" height="24" viewBox="0 0 24 24" fill="none" xmlns="http://www.w3.org/2000/svg">
<path opacity="0.3" fill-rule="evenodd" clip-rule="evenodd" d="M8 17C8.55228 17 9 17.4477 9 18V21C9 21.5523 8.55228 22 8 22H3C2.44772 22 2 21.5523 2 21V18C2 17.4477 2.44772 17 3 17V16.5C3 15.1193 4.11929 14 5.5 14C6.88071 14 8 15.1193 8 16.5V17ZM5.5 15C4.67157 15 4 15.6716 4 16.5V17H7V16.5C7 15.6716 6.32843 15 5.5 15Z" fill="currentColor"/>
<path fill-rule="evenodd" clip-rule="evenodd" d="M2 11.865V6C2 4.34315 3.34315 3 5 3H19C20.6569 3 22 4.34315 22 6V15C22 15.0033 22 15.0065 22 15.0098L22.0249 15V19.5858C22.0249 20.1381 21.5772 20.5858 21.0249 20.5858C20.7597 20.5858 20.5054 20.4804 20.3178 20.2929L18.0249 18H12.9836C12.7263 14.091 9.47412 11 5.5 11C4.23591 11 3.04486 11.3127 2 11.865ZM6 7C5.44772 7 5 7.44772 5 8C5 8.55228 5.44772 9 6 9H15C15.5523 9 16 8.55228 16 8C16 7.44772 15.5523 7 15 7H6Z" fill="currentColor"/>
</svg>
