<svg width="24" height="24" viewBox="0 0 24 24" fill="none" xmlns="http://www.w3.org/2000/svg">
<path opacity="0.3" fill-rule="evenodd" clip-rule="evenodd" d="M6.5 16H7.5C8.32843 16 9 16.6716 9 17.5V19.5C9 20.3284 8.32843 21 7.5 21H6.5C5.67157 21 5 20.3284 5 19.5V17.5C5 16.6716 5.67157 16 6.5 16ZM16.5 16H17.5C18.3284 16 19 16.6716 19 17.5V19.5C19 20.3284 18.3284 21 17.5 21H16.5C15.6716 21 15 20.3284 15 19.5V17.5C15 16.6716 15.6716 16 16.5 16Z" fill="currentColor"/>
<path fill-rule="evenodd" clip-rule="evenodd" d="M5 4H19C20.1046 4 21 4.89543 21 6V17C21 18.1046 20.1046 19 19 19H5C3.89543 19 3 18.1046 3 17V6C3 4.89543 3.89543 4 5 4ZM15.5 15C17.433 15 19 13.433 19 11.5C19 9.567 17.433 8 15.5 8C13.567 8 12 9.567 12 11.5C12 13.433 13.567 15 15.5 15ZM15.5 13C16.3284 13 17 12.3284 17 11.5C17 10.6716 16.3284 10 15.5 10C14.6716 10 14 10.6716 14 11.5C14 12.3284 14.6716 13 15.5 13ZM7 8C7.55228 8 8 8.44772 8 9V11C8 11.5523 7.55228 12 7 12C6.44772 12 6 11.5523 6 11V9C6 8.44772 6.44772 8 7 8Z" fill="currentColor"/>
</svg>
