<svg width="24" height="24" viewBox="0 0 24 24" fill="none" xmlns="http://www.w3.org/2000/svg">
<path opacity="0.3" fill-rule="evenodd" clip-rule="evenodd" d="M12 20.0218L8.47343 21.7285L6.86903 18.1542L3.07046 17.1949L4.13891 13.4255L1.8457 10.249L5.08707 8.04826L5.37224 4.14081L9.26985 4.5385L12 1.72852L14.7301 4.5385L18.6277 4.14081L18.9129 8.04826L22.1542 10.249L19.861 13.4255L20.9295 17.1949L17.1309 18.1542L15.5265 21.7285L12 20.0218Z" fill="currentColor"/>
<path fill-rule="evenodd" clip-rule="evenodd" d="M14.0891 8.60254L8.36084 14.7014L9.70873 16.0493L15.437 9.95043L14.0891 8.60254Z" fill="currentColor"/>
<path opacity="0.3" fill-rule="evenodd" clip-rule="evenodd" d="M10.8545 9.17527C10.8545 10.1251 10.0856 10.8938 9.13597 10.8938C8.18805 10.8938 7.41748 10.1251 7.41748 9.17527C7.41748 8.2254 8.18805 7.45679 9.13597 7.45679C10.0856 7.45679 10.8545 8.2254 10.8545 9.17527Z" fill="currentColor"/>
<path opacity="0.3" fill-rule="evenodd" clip-rule="evenodd" d="M14.864 16.6223C13.9161 16.6223 13.1455 15.8537 13.1455 14.9038C13.1455 13.9522 13.9161 13.1853 14.864 13.1853C15.8137 13.1853 16.5825 13.9522 16.5825 14.9038C16.5825 15.8537 15.8137 16.6223 14.864 16.6223Z" fill="currentColor"/>
</svg>
