<svg width="24" height="24" viewBox="0 0 24 24" fill="none" xmlns="http://www.w3.org/2000/svg">
<path d="M7 14C7 16.7614 9.23858 19 12 19C14.7614 19 17 16.7614 17 14C17 12.3742 15.3703 9.86853 12 6.69923C8.62971 9.86853 7 12.3742 7 14ZM12 21C8.13401 21 5 17.866 5 14C5 11.4227 7.33333 8.08934 12 4C16.6667 8.08934 19 11.4227 19 14C19 17.866 15.866 21 12 21Z" fill="currentColor"/>
<path fill-rule="evenodd" clip-rule="evenodd" d="M12 4C16.6667 8.08934 19 11.4227 19 14C19 17.866 15.866 21 12 21V4Z" fill="currentColor"/>
</svg>
