<svg width="24" height="24" viewBox="0 0 24 24" fill="none" xmlns="http://www.w3.org/2000/svg">
<path fill-rule="evenodd" clip-rule="evenodd" d="M2 9H12C12.5523 9 13 9.44772 13 10V13C13 15.2091 11.2091 17 9 17H5C2.79086 17 1 15.2091 1 13V10C1 9.44772 1.44772 9 2 9Z" fill="currentColor"/>
<path opacity="0.3" fill-rule="evenodd" clip-rule="evenodd" d="M14.9985 9.44448L21.5023 9.08316C22.2848 9.03969 22.9543 9.63877 22.9978 10.4212C22.9993 10.4475 23 10.4737 23 10.5C23 11.2836 22.3647 11.9189 21.581 11.9189C21.5548 11.9189 21.5285 11.9182 21.5023 11.9167L14.9985 11.5554C14.4383 11.5243 14 11.061 14 10.5C14 9.93891 14.4383 9.4756 14.9985 9.44448Z" fill="currentColor"/>
</svg>
