<svg width="24" height="24" viewBox="0 0 24 24" fill="none" xmlns="http://www.w3.org/2000/svg">
<path d="M10 14H5C4.33333 13.8856 4 13.5523 4 13C4 12.4477 4.33333 12.1144 5 12H12V19C12 19.6667 11.6667 20 11 20C10.3333 20 10 19.6667 10 19V14ZM15 9H20C20.6667 9.11438 21 9.44772 21 10C21 10.5523 20.6667 10.8856 20 11H13V4C13 3.33333 13.3333 3 14 3C14.6667 3 15 3.33333 15 4V9Z" fill="currentColor"/>
<path opacity="0.3" fill-rule="evenodd" clip-rule="evenodd" d="M3.87883 18.707L6.70726 15.8786C7.09778 15.4881 7.73095 15.4881 8.12147 15.8786C8.512 16.2691 8.512 16.9023 8.12147 17.2928L5.29304 20.1212C4.90252 20.5118 4.26936 20.5118 3.87883 20.1212C3.48831 19.7307 3.48831 19.0975 3.87883 18.707ZM16.8788 5.70701L19.7073 2.87859C20.0978 2.48806 20.7309 2.48806 21.1215 2.87859C21.512 3.26911 21.512 3.90228 21.1215 4.2928L18.293 7.12123C17.9025 7.51175 17.2694 7.51175 16.8788 7.12123C16.4883 6.7307 16.4883 6.09754 16.8788 5.70701Z" fill="currentColor"/>
</svg>
