<svg width="24" height="24" viewBox="0 0 24 24" fill="none" xmlns="http://www.w3.org/2000/svg">
<path fill-rule="evenodd" clip-rule="evenodd" d="M14.6683 12.3124L2 13.5V20.2267C2 20.5029 2.22386 20.7267 2.5 20.7267C2.57074 20.7267 2.64067 20.7117 2.70518 20.6827L11.0284 16.9372C11.2467 14.7895 12.7008 13.0071 14.6683 12.3124ZM17.3325 12.0626L18 12L2 10.5V3.77332C2 3.70258 2.01501 3.63264 2.04404 3.56813C2.15736 3.31631 2.45336 3.20404 2.70518 3.31736L20.9868 11.5441C21.0982 11.5942 21.1874 11.6834 21.2375 11.7948C21.3509 12.0467 21.2386 12.3427 20.9868 12.456L19.7075 13.0316C19.0181 12.5359 18.2093 12.1957 17.3325 12.0626Z" fill="currentColor"/>
<path fill-rule="evenodd" clip-rule="evenodd" d="M16 13.5C14.067 13.5 12.5 15.067 12.5 17C12.5 18.933 14.067 20.5 16 20.5C17.933 20.5 19.5 18.933 19.5 17C19.5 15.067 17.933 13.5 16 13.5ZM10.5 17C10.5 13.9624 12.9624 11.5 16 11.5C19.0376 11.5 21.5 13.9624 21.5 17C21.5 20.0376 19.0376 22.5 16 22.5C12.9624 22.5 10.5 20.0376 10.5 17ZM16 14C16.5523 14 17 14.4477 17 15V16.5858L18.2071 17.7929C18.5976 18.1834 18.5976 18.8166 18.2071 19.2071C17.8166 19.5976 17.1834 19.5976 16.7929 19.2071L15.2929 17.7071C15.1054 17.5196 15 17.2652 15 17V15C15 14.4477 15.4477 14 16 14Z" fill="currentColor"/>
</svg>
