<svg width="24" height="24" viewBox="0 0 24 24" fill="none" xmlns="http://www.w3.org/2000/svg">
<path opacity="0.3" fill-rule="evenodd" clip-rule="evenodd" d="M8.46432 11.293L7.40366 10.2323C7.2084 10.037 7.2084 9.72045 7.40366 9.52518L8.11077 8.81808C8.30603 8.62282 8.62261 8.62282 8.81787 8.81808L15.1818 15.182C15.3771 15.3773 15.3771 15.6939 15.1818 15.8891L14.4747 16.5963C14.2795 16.7915 13.9629 16.7915 13.7676 16.5963L12.707 15.5356L7.05011 21.1924C6.26906 21.9735 5.00273 21.9735 4.22168 21.1924L2.80747 19.7782C2.02642 18.9972 2.02642 17.7309 2.80747 16.9498L8.46432 11.293ZM4.57523 18.0105C4.37997 18.2057 4.37997 18.5223 4.57523 18.7176C4.7705 18.9128 5.08708 18.9128 5.28234 18.7176L9.52498 14.4749C9.72024 14.2797 9.72024 13.9631 9.52498 13.7678C9.32972 13.5726 9.01314 13.5726 8.81787 13.7678L4.57523 18.0105Z" fill="currentColor"/>
<path fill-rule="evenodd" clip-rule="evenodd" d="M16.9498 5.63597L16.7789 5.46504C16.5836 5.26978 16.5836 4.95319 16.7789 4.75793C16.8268 4.71005 16.8839 4.6724 16.9468 4.64725L19.4721 3.63709C19.6578 3.56281 19.87 3.60635 20.0114 3.74778L20.2522 3.98862C20.3937 4.13005 20.4372 4.34216 20.3629 4.52787L19.3528 7.05325C19.2502 7.30964 18.9592 7.43435 18.7028 7.3318C18.64 7.30665 18.5828 7.26899 18.535 7.22111L18.364 7.05018L12.7072 12.707L11.293 11.2928L16.9498 5.63597Z" fill="currentColor"/>
</svg>
