<svg width="25" height="25" viewBox="0 0 25 25" fill="none" xmlns="http://www.w3.org/2000/svg">
<path opacity="0.3" fill-rule="evenodd" clip-rule="evenodd" d="M12.7364 1H4.85714C3.02045 1 3 1.12612 3 2.91667V19.0833C3 20.8739 3.02045 21 4.85714 21H8C8 15.4772 12.4772 11 18 11C18.3375 11 18.6711 11.0167 19 11.0494V6.5292C19 6.08788 18.8057 5.66895 18.4687 5.38394L13.7051 1.35474C13.4343 1.12568 13.0911 1 12.7364 1ZM7 8C7 7.44772 7.44772 7 8 7H15C15.5523 7 16 7.44772 16 8C16 8.55228 15.5523 9 15 9H8C7.44772 9 7 8.55228 7 8ZM7 12C7 11.4477 7.44772 11 8 11H11C11.5523 11 12 11.4477 12 12C12 12.5523 11.5523 13 11 13H8C7.44772 13 7 12.5523 7 12Z" fill="currentColor"/>
<path opacity="0.3" d="M19.5077 14.5V16.4565H17.5C17.2239 16.4565 17 16.6803 17 16.9565V17.9798C17 18.2559 17.2239 18.4798 17.5 18.4798H19.5077V20.4363C19.5077 20.7124 19.7315 20.9363 20.0077 20.9363C20.126 20.9363 20.2405 20.8943 20.3308 20.8179L23.8364 17.8497C24.0472 17.6713 24.0734 17.3558 23.8949 17.145C23.8771 17.124 23.8575 17.1044 23.8364 17.0865L20.3308 14.1184C20.12 13.94 19.8045 13.9662 19.6261 14.1769C19.5496 14.2672 19.5077 14.3817 19.5077 14.5Z" fill="currentColor"/>
<path opacity="0.3" d="M15.5055 24.4363L15.5055 22.4798L17.5132 22.4798C17.7893 22.4798 18.0132 22.2559 18.0132 21.9798L18.0132 20.9565C18.0132 20.6804 17.7893 20.4565 17.5132 20.4565L15.5055 20.4565L15.5055 18.5C15.5055 18.2239 15.2817 18 15.0055 18C14.8872 18 14.7727 18.042 14.6824 18.1184L11.1768 21.0865C10.966 21.265 10.9398 21.5805 11.1183 21.7912C11.1361 21.8123 11.1557 21.8319 11.1768 21.8497L14.6824 24.8179C14.8932 24.9963 15.2087 24.9701 15.3871 24.7594C15.4636 24.6691 15.5055 24.5546 15.5055 24.4363Z" fill="currentColor"/>
<path fill-rule="evenodd" clip-rule="evenodd" d="M14.7364 3H6.85714C5.02045 3 5 3.12612 5 4.91667V21.0833C5 22.8739 5.02045 23 6.85714 23H9.04938C9.01672 22.6711 9 22.3375 9 22C9 16.4772 13.4772 12 19 12C19.6849 12 20.3538 12.0689 21 12.2V8.5292C21 8.08788 20.8057 7.66895 20.4687 7.38394L15.7051 3.35474C15.4343 3.12568 15.0911 3 14.7364 3ZM7 8C7 7.44772 7.44772 7 8 7H15C15.5523 7 16 7.44772 16 8C16 8.55228 15.5523 9 15 9H8C7.44772 9 7 8.55228 7 8ZM7 12C7 11.4477 7.44772 11 8 11H11C11.5523 11 12 11.4477 12 12C12 12.5523 11.5523 13 11 13H8C7.44772 13 7 12.5523 7 12Z" fill="currentColor"/>
</svg>
