<svg width="24" height="24" viewBox="0 0 24 24" fill="none" xmlns="http://www.w3.org/2000/svg">
<path opacity="0.3" fill-rule="evenodd" clip-rule="evenodd" d="M4 16H5C5.55228 16 6 16.4477 6 17C6 17.5523 5.55228 18 5 18H4C3.44772 18 3 17.5523 3 17C3 16.4477 3.44772 16 4 16ZM1 11H5C5.55228 11 6 11.4477 6 12C6 12.5523 5.55228 13 5 13H1C0.447715 13 0 12.5523 0 12C0 11.4477 0.447715 11 1 11ZM3 6H5C5.55228 6 6 6.44772 6 7C6 7.55228 5.55228 8 5 8H3C2.44772 8 2 7.55228 2 7C2 6.44772 2.44772 6 3 6Z" fill="currentColor"/>
<path fill-rule="evenodd" clip-rule="evenodd" d="M10 6H22C23.1046 6 24 6.89543 24 8V16C24 17.1046 23.1046 18 22 18H10C8.89543 18 8 17.1046 8 16V8C8 6.89543 8.89543 6 10 6ZM21.0849 8.07183L16 10.7186L10.9151 8.07183C10.6132 7.91473 10.2368 8.02389 10.0743 8.31565C9.91179 8.6074 10.0247 8.97127 10.3265 9.12837L15.7057 11.9283C15.8894 12.0239 16.1106 12.0239 16.2943 11.9283L21.6735 9.12837C21.9753 8.97127 22.0882 8.6074 21.9257 8.31565C21.7632 8.02389 21.3868 7.91473 21.0849 8.07183Z" fill="currentColor"/>
</svg>
