<svg width="24" height="24" viewBox="0 0 24 24" fill="none" xmlns="http://www.w3.org/2000/svg">
<path fill-rule="evenodd" clip-rule="evenodd" d="M8 13.1669L20.447 12L8 10.8331V5.77185C8 5.70111 8.01501 5.63118 8.04404 5.56667C8.15736 5.31485 8.45336 5.20257 8.70518 5.31589L22.5456 11.5441C22.657 11.5942 22.7462 11.6834 22.7963 11.7948C22.9096 12.0467 22.7974 12.3427 22.5456 12.456L8.70518 18.6841C8.64067 18.7132 8.57074 18.7282 8.5 18.7282C8.22386 18.7282 8 18.5043 8 18.2282V13.1669Z" fill="currentColor"/>
<path opacity="0.3" fill-rule="evenodd" clip-rule="evenodd" d="M4 16H5C5.55228 16 6 16.4477 6 17C6 17.5523 5.55228 18 5 18H4C3.44772 18 3 17.5523 3 17C3 16.4477 3.44772 16 4 16ZM1 11H5C5.55228 11 6 11.4477 6 12C6 12.5523 5.55228 13 5 13H1C0.447715 13 0 12.5523 0 12C0 11.4477 0.447715 11 1 11ZM4 6H5C5.55228 6 6 6.44772 6 7C6 7.55228 5.55228 8 5 8H4C3.44772 8 3 7.55228 3 7C3 6.44772 3.44772 6 4 6Z" fill="currentColor"/>
</svg>
