<svg width="24" height="24" viewBox="0 0 24 24" fill="none" xmlns="http://www.w3.org/2000/svg">
<path d="M15.1232 19.0112L7.83785 14.8189C8.31992 14.3337 8.67837 13.7254 8.862 13.0454L16.0981 17.247C15.6353 17.7347 15.2941 18.3389 15.1232 19.0112ZM7.75586 9.10078L15.0775 4.78748C15.2169 5.48577 15.5381 6.11846 15.9897 6.63411L8.865 10.9657C8.67213 10.2431 8.28202 9.60108 7.75586 9.10078Z" fill="currentColor"/>
<path opacity="0.3" d="M19 7C20.6569 7 22 5.65685 22 4C22 2.34315 20.6569 1 19 1C17.3431 1 16 2.34315 16 4C16 5.65685 17.3431 7 19 7Z" fill="currentColor"/>
<path opacity="0.3" d="M19 23C20.6569 23 22 21.6569 22 20C22 18.3431 20.6569 17 19 17C17.3431 17 16 18.3431 16 20C16 21.6569 17.3431 23 19 23Z" fill="currentColor"/>
<path opacity="0.3" d="M5 15C6.65685 15 8 13.6569 8 12C8 10.3431 6.65685 9 5 9C3.34315 9 2 10.3431 2 12C2 13.6569 3.34315 15 5 15Z" fill="currentColor"/>
</svg>
