<svg width="25" height="24" viewBox="0 0 25 24" fill="none" xmlns="http://www.w3.org/2000/svg">
<path opacity="0.3" d="M10.9 2C11.4523 2 11.9 2.44772 11.9 3C11.9 3.55228 11.4523 4 10.9 4H6C4.89543 4 4 4.89543 4 6V18C4 19.1046 4.89543 20 6 20H18C19.1046 20 20 19.1046 20 18V16C20 15.4477 20.4477 15 21 15C21.5523 15 22 15.4477 22 16V18C22 20.2091 20.2091 22 18 22H6C3.79086 22 2 20.2091 2 18V6C2 3.79086 3.79086 2 6 2H10.9Z" fill="currentColor"/>
<path d="M7.00467 13.8973C7.00467 13.1346 6.84123 10.1246 9.21564 7.73657C10.8137 6.12942 13.2054 5.85066 16.0656 5.72354V1.83789C16.0656 1.42368 16.4014 1.08789 16.8156 1.08789C17.0019 1.08789 17.1815 1.15724 17.3195 1.28242L23.8277 7.18679C24.1344 7.46511 24.1575 7.93942 23.8792 8.2462C23.8646 8.2623 23.8493 8.27776 23.8333 8.29254L17.3252 14.3198C17.0213 14.6012 16.5467 14.583 16.2653 14.2791C16.1369 14.1405 16.0656 13.9585 16.0656 13.7695V9.90759C14.2496 9.95753 12.956 10.073 11.7807 10.4469C10.0959 10.983 8.79211 12.4994 7.86946 14.9963L7.86943 14.9963C7.76061 15.2908 7.47989 15.4863 7.16595 15.4863H7.00013C7.00013 15.0278 7.00467 14.3014 7.00467 13.8973Z" fill="currentColor"/>
</svg>
