<svg width="24" height="24" viewBox="0 0 24 24" fill="none" xmlns="http://www.w3.org/2000/svg">
<path opacity="0.3" fill-rule="evenodd" clip-rule="evenodd" d="M4 4.00006L11.6314 2.56917C11.875 2.52349 12.125 2.52349 12.3686 2.56917L20 4.00006V13.2831C20 16.2174 18.4883 18.9448 16 20.5001L12.53 22.6688C12.2057 22.8715 11.7943 22.8715 11.47 22.6688L8 20.5001C5.51165 18.9448 4 16.2174 4 13.2831V4.00006Z" fill="currentColor"/>
<path fill-rule="evenodd" clip-rule="evenodd" d="M14.5 11C15.0523 11 15.5 11.4477 15.5 12V15C15.5 15.5523 15.0523 16 14.5 16H9.5C8.94772 16 8.5 15.5523 8.5 15V12C8.5 11.4477 8.94772 11 9.5 11V10.5C9.5 9.11929 10.6193 8 12 8C13.3807 8 14.5 9.11929 14.5 10.5V11ZM12 9C11.1716 9 10.5 9.67157 10.5 10.5V11H13.5V10.5C13.5 9.67157 12.8284 9 12 9Z" fill="currentColor"/>
</svg>
