<svg width="24" height="24" viewBox="0 0 24 24" fill="none" xmlns="http://www.w3.org/2000/svg">
<path d="M18.6688 12L14.9999 12L14.9999 18H8.99991L8.99991 12L5.32567 12L11.992 5.32844L18.6688 12ZM6.99991 14L6.99991 19C6.99991 19.5523 7.44763 20 7.99991 20L15.9999 20C16.5522 20 16.9999 19.5523 16.9999 19L16.9999 14H21.6882C21.8873 14 22.0781 13.9209 22.2188 13.7801C22.5116 13.4871 22.5114 13.0123 22.2184 12.7195L12.5215 3.03013C12.2284 2.73735 11.7536 2.73754 11.4608 3.03055L1.77903 12.7199C1.63851 12.8605 1.55957 13.0512 1.55957 13.25C1.55957 13.6642 1.89536 14 2.30957 14L6.99991 14Z" fill="currentColor"/>
</svg>
