<svg width="24" height="24" viewBox="0 0 24 24" fill="none" xmlns="http://www.w3.org/2000/svg">
<path opacity="0.3" fill-rule="evenodd" clip-rule="evenodd" d="M6.18256 4.09501C6.73278 3.42638 7.5667 3 8.50022 3H15.5002C16.4333 3 17.2669 3.426 17.8171 4.09412C17.8387 4.10461 17.8601 4.11594 17.8812 4.12813L22.5902 6.84688C23.0685 7.12302 23.2324 7.73461 22.9562 8.2129L21.3 11.0816C21.0239 11.5599 20.4123 11.7238 19.934 11.4476L18.5002 10.6199V19C18.5002 19.5523 18.0525 20 17.5002 20H6.50022C5.94793 20 5.50022 19.5523 5.50022 19V10.6205L4.06755 11.4476C3.58926 11.7238 2.97767 11.5599 2.70152 11.0816L1.04527 8.2129C0.769132 7.73461 0.933007 7.12302 1.4113 6.84688L6.12031 4.12813C6.14083 4.11628 6.16159 4.10524 6.18256 4.09501Z" fill="currentColor"/>
<path fill-rule="evenodd" clip-rule="evenodd" d="M9.85143 3.22265L9.26223 4.10645C9.11503 4.32724 9.16596 4.62458 9.37826 4.7838L10.9999 6L10.0352 12.7525C10.013 12.9083 10.0654 13.0655 10.1766 13.1768L11.6463 14.6464C11.8416 14.8417 12.1582 14.8417 12.3534 14.6464L13.8231 13.1768C13.9344 13.0655 13.9868 12.9083 13.9645 12.7525L12.9999 6L14.6215 4.7838C14.8338 4.62458 14.8847 4.32724 14.7375 4.10645L14.1483 3.22265C14.0556 3.08355 13.8994 3 13.7323 3H10.2675C10.1003 3 9.94416 3.08355 9.85143 3.22265Z" fill="currentColor"/>
</svg>
