<svg width="24" height="24" viewBox="0 0 24 24" fill="none" xmlns="http://www.w3.org/2000/svg">
<path fill-rule="evenodd" clip-rule="evenodd" d="M4.3538 3.51939C6.20312 4.71947 7.41851 6.04633 7.99997 7.49999C8.53025 8.82568 9.58776 10.5732 11.1725 12.7424L11.1725 12.7424C11.9424 13.7963 13.3054 14.2315 14.5436 13.8188L16.5029 13.1657C16.8142 13.0619 17.1566 13.1175 17.4191 13.3144L22.0098 16.7574C22.2307 16.9231 22.2755 17.2365 22.1098 17.4574C22.0284 17.5659 21.9064 17.6367 21.7718 17.6535L13.3911 18.7011C11.9299 18.8837 10.4866 18.2488 9.63385 17.0482C8.12983 14.9306 7.0852 13.5812 6.49997 13C5.79075 12.2956 4.85089 11.426 3.68037 10.3912L3.68037 10.3912C2.37082 9.23354 1.90264 7.39266 2.49997 5.74999L3.16652 3.91706C3.3175 3.50185 3.7765 3.28765 4.19171 3.43864C4.24862 3.45933 4.303 3.48642 4.3538 3.51939Z" fill="currentColor"/>
<path opacity="0.3" fill-rule="evenodd" clip-rule="evenodd" d="M2.5 8.5C3.16667 11.8333 3.5 14 3.5 15C3.5 16 3.5 17.3333 3.5 19H5C5 16.3333 5 14.5833 5 13.75C5 12.9167 5.5 12.6667 6.5 13L2.5 8.5Z" fill="currentColor"/>
</svg>
