<svg width="24" height="24" viewBox="0 0 24 24" fill="none" xmlns="http://www.w3.org/2000/svg">
<path fill-rule="evenodd" clip-rule="evenodd" d="M6.50574 3.06113C6.66333 3.02121 6.82838 3 6.99839 3H16.9984C17.1684 3 17.3334 3.02121 17.491 3.06113C18.3226 3.11551 19.0645 3.69009 19.2921 4.53976L22.6568 17.0968C22.7997 17.6303 22.4831 18.1786 21.9497 18.3215L15.1882 20.1333C14.6547 20.2762 14.1064 19.9596 13.9635 19.4262L11.9984 12.0924L10.0333 19.4262C9.89038 19.9596 9.34204 20.2762 8.80857 20.1333L2.04709 18.3215C1.51363 18.1786 1.19704 17.6303 1.33999 17.0968L4.70463 4.53976C4.9323 3.69009 5.67418 3.11551 6.50574 3.06113Z" fill="currentColor"/>
</svg>
