<svg width="24" height="24" viewBox="0 0 24 24" fill="none" xmlns="http://www.w3.org/2000/svg">
<path opacity="0.3" fill-rule="evenodd" clip-rule="evenodd" d="M6.34326 4.92892L13.4143 12L12.0001 13.4142L4.92905 6.34313L1.89351 6.34313C1.76091 6.34313 1.63373 6.29046 1.53996 6.19669C1.3447 6.00142 1.3447 5.68484 1.53996 5.48958L5.48971 1.53983C5.58348 1.44606 5.71065 1.39339 5.84326 1.39339C6.1194 1.39339 6.34326 1.61724 6.34326 1.89339L6.34326 4.92892Z" fill="currentColor"/>
<path fill-rule="evenodd" clip-rule="evenodd" d="M16.95 9.87866L19.7751 13.1385C20.8923 14.4275 21.3504 16.1609 21.0158 17.8336L20.6163 19.8315C20.5371 20.2274 20.2276 20.5368 19.8318 20.616L17.8339 21.0156C16.1612 21.3501 14.4278 20.8921 13.1387 19.7749L9.87891 16.9497L16.95 9.87866ZM13.5453 16.0236C12.782 15.3777 11.813 16.5228 12.5764 17.1687L14.8745 19.1133C15.6379 19.7592 16.6068 18.6141 15.8434 17.9682L13.5453 16.0236Z" fill="currentColor"/>
</svg>
