<svg width="24" height="24" viewBox="0 0 24 24" fill="none" xmlns="http://www.w3.org/2000/svg">
<path opacity="0.3" fill-rule="evenodd" clip-rule="evenodd" d="M8.52502 14.5607L9.93923 15.9749C10.3298 16.3655 10.3298 16.9986 9.93923 17.3891L4.98948 22.3389C4.59896 22.7294 3.9658 22.7294 3.57527 22.3389L2.16106 20.9247C1.77053 20.5342 1.77053 19.901 2.16106 19.5105L7.11081 14.5607C7.50133 14.1702 8.13449 14.1702 8.52502 14.5607Z" fill="currentColor"/>
<path fill-rule="evenodd" clip-rule="evenodd" d="M11.3536 11.7323L9.23227 9.61096C8.45122 8.82991 8.45122 7.56358 9.23227 6.78253L13.4749 2.53989C14.256 1.75884 15.5223 1.75884 16.3033 2.53989L21.9602 8.19674C22.7412 8.97779 22.7412 10.2441 21.9602 11.0252L17.7176 15.2678C16.9365 16.0489 15.6702 16.0489 14.8891 15.2678L12.7678 13.1465L10.6465 15.2678L9.23227 13.8536L11.3536 11.7323ZM15.2427 4.30765L11 8.5503L11.7071 9.2574L15.9498 5.01476L15.2427 4.30765ZM17.364 6.42898L13.1214 10.6716L13.8285 11.3787L18.0711 7.13608L17.364 6.42898ZM19.4853 8.5503L15.2427 12.7929L15.9498 13.5L20.1924 9.2574L19.4853 8.5503Z" fill="currentColor"/>
</svg>
