<svg width="24" height="24" viewBox="0 0 24 24" fill="none" xmlns="http://www.w3.org/2000/svg">
<path opacity="0.3" d="M18 15V13.4774C18 13.356 18.0442 13.2388 18.1242 13.1476C18.3064 12.94 18.6223 12.9195 18.8298 13.1016L21.7648 15.6778C21.7815 15.6924 21.7972 15.7082 21.8118 15.7249C21.9933 15.933 21.9717 16.2489 21.7636 16.4304L18.8287 18.9904C18.7376 19.0698 18.6208 19.1136 18.5 19.1136C18.2239 19.1136 18 18.8897 18 18.6136V17H16.4454C14.5939 17 12.846 16.1452 11.7093 14.6836L7.71199 9.54424C6.95416 8.56989 5.78894 8 4.55458 8H2V6H4.55458C6.40612 6 8.15396 6.85484 9.29069 8.31636L13.288 13.4558C14.0458 14.4301 15.2111 15 16.4454 15H18Z" fill="currentColor"/>
<path d="M18 5.99989V4.4773C18 4.35592 18.0442 4.23869 18.1242 4.14746C18.3064 3.93993 18.6223 3.91936 18.8298 4.10153L21.7648 6.67769C21.7815 6.69233 21.7972 6.70807 21.8118 6.7248C21.9933 6.9329 21.9717 7.24875 21.7636 7.43027L18.8287 9.99029C18.7376 10.0697 18.6208 10.1135 18.5 10.1135C18.2239 10.1135 18 9.88963 18 9.61348V7.99989H16.4454C15.2111 7.99989 14.0458 8.56978 13.288 9.54412L9.29069 14.6835C8.15396 16.145 6.40612 16.9999 4.55458 16.9999H2V14.9999H4.55458C5.78894 14.9999 6.95416 14.43 7.71199 13.4556L11.7093 8.31624C12.846 6.85472 14.5939 5.99989 16.4454 5.99989H18Z" fill="currentColor"/>
</svg>
