<svg width="24" height="24" viewBox="0 0 24 24" fill="none" xmlns="http://www.w3.org/2000/svg">
<path opacity="0.3" fill-rule="evenodd" clip-rule="evenodd" d="M8.61257 18H14.6126L15.1738 19.6838C15.3485 20.2077 15.0653 20.774 14.5414 20.9487C14.4394 20.9827 14.3326 21 14.2251 21H9C8.44772 21 8 20.5523 8 20C8 19.8925 8.01733 19.7857 8.05132 19.6838L8.61257 18Z" fill="currentColor"/>
<path fill-rule="evenodd" clip-rule="evenodd" d="M21 9V10C21 14.9706 16.9706 19 12 19C7.02944 19 3 14.9706 3 10V9H2C1.44772 9 1 8.55228 1 8C1 7.44772 1.44772 7 2 7H22C22.5523 7 23 7.44772 23 8C23 8.55228 22.5523 9 22 9H21ZM6 11C6.55228 11 7 10.5523 7 10C7 9.44772 6.55228 9 6 9C5.44772 9 5 9.44772 5 10C5 10.5523 5.44772 11 6 11ZM8 14C8.55228 14 9 13.5523 9 13C9 12.4477 8.55228 12 8 12C7.44772 12 7 12.4477 7 13C7 13.5523 7.44772 14 8 14ZM10 17C10.5523 17 11 16.5523 11 16C11 15.4477 10.5523 15 10 15C9.44771 15 9 15.4477 9 16C9 16.5523 9.44771 17 10 17ZM14 17C14.5523 17 15 16.5523 15 16C15 15.4477 14.5523 15 14 15C13.4477 15 13 15.4477 13 16C13 16.5523 13.4477 17 14 17ZM12 14C12.5523 14 13 13.5523 13 13C13 12.4477 12.5523 12 12 12C11.4477 12 11 12.4477 11 13C11 13.5523 11.4477 14 12 14ZM16 14C16.5523 14 17 13.5523 17 13C17 12.4477 16.5523 12 16 12C15.4477 12 15 12.4477 15 13C15 13.5523 15.4477 14 16 14ZM10 11C10.5523 11 11 10.5523 11 10C11 9.44772 10.5523 9 10 9C9.44771 9 9 9.44772 9 10C9 10.5523 9.44771 11 10 11ZM14 11C14.5523 11 15 10.5523 15 10C15 9.44772 14.5523 9 14 9C13.4477 9 13 9.44772 13 10C13 10.5523 13.4477 11 14 11ZM18 11C18.5523 11 19 10.5523 19 10C19 9.44772 18.5523 9 18 9C17.4477 9 17 9.44772 17 10C17 10.5523 17.4477 11 18 11Z" fill="currentColor"/>
</svg>
