<svg width="24" height="24" viewBox="0 0 24 24" fill="none" xmlns="http://www.w3.org/2000/svg">
<path opacity="0.3" d="M22 12C22 6.47715 17.5228 2 12 2C6.47715 2 2 6.47715 2 12C2 17.5228 6.47715 22 12 22C17.5228 22 22 17.5228 22 12Z" fill="currentColor"/>
<path fill-rule="evenodd" clip-rule="evenodd" d="M6.16806 14.5548C5.8617 14.0953 5.98588 13.4744 6.44541 13.1681C6.90493 12.8617 7.5258 12.9859 7.83216 13.4454C8.98919 15.181 10.3544 16.0001 12.0001 16.0001C13.6458 16.0001 15.011 15.181 16.1681 13.4454C16.4744 12.9859 17.0953 12.8617 17.5548 13.1681C18.0143 13.4744 18.1385 14.0953 17.8322 14.5548C16.3225 16.8193 14.3544 18.0001 12.0001 18.0001C9.64578 18.0001 7.67769 16.8193 6.16806 14.5548Z" fill="currentColor"/>
</svg>
