<svg width="24" height="24" viewBox="0 0 24 24" fill="none" xmlns="http://www.w3.org/2000/svg">
<path opacity="0.3" d="M8 3H3C2.44772 3 2 3.44772 2 4V16C2 16.5523 2.44772 17 3 17H8C8.55228 17 9 16.5523 9 16V4C9 3.44772 8.55228 3 8 3Z" fill="currentColor"/>
<path fill-rule="evenodd" clip-rule="evenodd" d="M16.6237 13.0538C18.8274 13.8579 20.1826 13.7956 21 14C21.5845 14.1461 22.105 14.4525 22.5613 14.9193C22.8221 15.186 23.0031 15.5203 23.0838 15.8845C23.323 16.9628 22.6427 18.0309 21.5643 18.2701C20.2741 18.5562 18.7434 18.7531 16.9723 18.8606C13.9911 19.0416 8.86231 19.0463 1.5859 18.8747C1.26011 18.867 1 18.6007 1 18.2748C1 15.4124 1.00005 13.3451 1.00005 12.0727C5.24985 11.6622 8.09788 10.5071 9.54414 8.6073C9.56486 8.58008 9.58788 8.55468 9.61293 8.53138C9.85558 8.3057 10.2352 8.31946 10.4609 8.56212C10.8763 9.00875 11.2675 9.41535 11.6345 9.78192C11.6102 9.81414 11.5877 9.84816 11.567 9.88395L10.067 12.482C9.79089 12.9603 9.95477 13.5719 10.4331 13.848C10.9114 14.1242 11.5229 13.9603 11.7991 13.482L13.1336 11.1706C13.6305 11.5858 14.0582 11.8865 14.4167 12.0727C14.5382 12.1358 14.6577 12.1965 14.7755 12.2549L14.067 13.482C13.7909 13.9603 13.9548 14.5719 14.4331 14.848C14.9114 15.1242 15.5229 14.9603 15.7991 14.482L16.6237 13.0538Z" fill="currentColor"/>
</svg>
