<svg width="24" height="24" viewBox="0 0 24 24" fill="none" xmlns="http://www.w3.org/2000/svg">
<path opacity="0.3" d="M8 3H3C2.44772 3 2 3.44772 2 4V16C2 16.5523 2.44772 17 3 17H8C8.55228 17 9 16.5523 9 16V4C9 3.44772 8.55228 3 8 3Z" fill="currentColor"/>
<path fill-rule="evenodd" clip-rule="evenodd" d="M16.6237 13.0539C18.8274 13.858 20.1826 13.7957 21 14.0001C21.5845 14.1462 22.105 14.4527 22.5613 14.9195C22.8221 15.1862 23.0031 15.5204 23.0838 15.8846C23.323 16.9629 22.6427 18.031 21.5643 18.2702C20.2741 18.5564 18.7434 18.7532 16.9723 18.8607C13.9911 19.0417 8.86231 19.0464 1.5859 18.8748C1.26011 18.8671 1 18.6008 1 18.2749H1.00005C1.00005 15.4126 1.00005 13.3452 1.00005 12.0728C5.24985 11.6624 8.09788 10.5072 9.54414 8.60742C9.56486 8.5802 9.58788 8.5548 9.61293 8.5315C9.85558 8.30582 10.2352 8.31959 10.4609 8.56225C10.8763 9.00887 11.2675 9.41547 11.6345 9.78205C11.6102 9.81426 11.5877 9.84828 11.567 9.88407L10.067 12.4821C9.79089 12.9604 9.95477 13.572 10.4331 13.8482C10.9114 14.1243 11.5229 13.9604 11.7991 13.4821L13.1336 11.1707C13.6305 11.5859 14.0582 11.8866 14.4167 12.0728C14.5382 12.1359 14.6577 12.1966 14.7755 12.255L14.067 13.4821C13.7909 13.9604 13.9548 14.572 14.4331 14.8482C14.9114 15.1243 15.5229 14.9604 15.7991 14.4821L16.6237 13.0539Z" fill="currentColor"/>
</svg>
