<svg width="24" height="24" viewBox="0 0 24 24" fill="none" xmlns="http://www.w3.org/2000/svg">
<path fill-rule="evenodd" clip-rule="evenodd" d="M12.9836 18C12.7263 14.091 9.47412 11 5.5 11C4.9863 11 4.48466 11.0516 4 11.15V7C4 5.89543 4.89543 5 6 5H20C21.1046 5 22 5.89543 22 7V16C22 17.1046 21.1046 18 20 18H12.9836ZM19.1444 6.83965L13 10.1482L6.85558 6.83965C6.49087 6.64327 6.03603 6.77972 5.83965 7.14442C5.64327 7.50913 5.77972 7.96398 6.14442 8.16035L12.6444 11.6604C12.8664 11.7799 13.1336 11.7799 13.3556 11.6604L19.8556 8.16035C20.2203 7.96398 20.3567 7.50913 20.1604 7.14442C19.964 6.77972 19.5091 6.64327 19.1444 6.83965Z" fill="currentColor"/>
<path opacity="0.3" d="M8.44721 18.1056C8.94119 18.3526 9.14142 18.9532 8.89443 19.4472C8.64744 19.9412 8.04676 20.1414 7.55279 19.8944L5 18.618V14.5C5 13.9477 5.44772 13.5 6 13.5C6.55228 13.5 7 13.9477 7 14.5V17.382L8.44721 18.1056Z" fill="currentColor"/>
</svg>
