<svg width="24" height="25" viewBox="0 0 24 25" fill="none" xmlns="http://www.w3.org/2000/svg">
<path opacity="0.3" fill-rule="evenodd" clip-rule="evenodd" d="M11.9056 22.1193C12.4391 22.2622 12.7557 22.8105 12.6127 23.344C12.4698 23.8775 11.9215 24.1941 11.388 24.0511C10.8545 23.9082 10.538 23.3598 10.6809 22.8264C10.8238 22.2929 11.3722 21.9763 11.9056 22.1193ZM15.9056 22.1193C16.4391 22.2622 16.7557 22.8105 16.6127 23.344C16.4698 23.8775 15.9215 24.1941 15.388 24.0511C14.8545 23.9082 14.538 23.3598 14.6809 22.8264C14.8238 22.2929 15.3722 21.9763 15.9056 22.1193ZM7.90564 22.1193C8.43911 22.2622 8.75569 22.8105 8.61275 23.344C8.4698 23.8775 7.92147 24.1941 7.388 24.0511C6.85454 23.9082 6.53795 23.3598 6.6809 22.8264C6.82384 22.2929 7.37217 21.9763 7.90564 22.1193ZM12.9998 15C10.7906 15 8.99977 13.2091 8.99977 11C8.99977 8.79086 10.7906 7 12.9998 7C15.2089 7 16.9998 8.79086 16.9998 11C16.9998 13.2091 15.2089 15 12.9998 15ZM20.4998 9.5H21.9998C22.8282 9.5 23.4998 10.1716 23.4998 11C23.4998 11.8284 22.8282 12.5 21.9998 12.5H20.4998C19.6713 12.5 18.9998 11.8284 18.9998 11C18.9998 10.1716 19.6713 9.5 20.4998 9.5ZM17.0604 4.87132L18.1211 3.81066C18.7069 3.22487 19.6566 3.22487 20.2424 3.81066C20.8282 4.39645 20.8282 5.34619 20.2424 5.93198L19.1818 6.99264C18.596 7.57843 17.6462 7.57843 17.0604 6.99264C16.4746 6.40685 16.4746 5.45711 17.0604 4.87132ZM12.9998 0.5C13.8282 0.5 14.4998 1.17157 14.4998 2V3.5C14.4998 4.32843 13.8282 5 12.9998 5C12.1713 5 11.4998 4.32843 11.4998 3.5V2C11.4998 1.17157 12.1713 0.5 12.9998 0.5ZM5.81043 3.81066C6.39622 3.22487 7.34597 3.22487 7.93175 3.81066L8.99241 4.87132C9.5782 5.45711 9.5782 6.40685 8.99241 6.99264C8.40663 7.57843 7.45688 7.57843 6.87109 6.99264L5.81043 5.93198C5.22465 5.34619 5.22465 4.39645 5.81043 3.81066Z" fill="currentColor"/>
<path fill-rule="evenodd" clip-rule="evenodd" d="M4.74715 19.0426C3.0941 17.974 2 16.1148 2 14C2 10.6863 4.68629 8 8 8C10.7958 8 13.1449 9.91216 13.811 12.5H16.25C18.3211 12.5 20 14.1789 20 16.25C20 18.3211 18.3211 20 16.25 20H7.25C6.28818 20 5.41093 19.6379 4.74715 19.0426Z" fill="currentColor"/>
</svg>
