<svg width="24" height="24" viewBox="0 0 24 24" fill="none" xmlns="http://www.w3.org/2000/svg">
<path fill-rule="evenodd" clip-rule="evenodd" d="M5.74715 14.0426C4.0941 12.974 3 11.1148 3 9C3 5.68629 5.68629 3 9 3C11.7958 3 14.1449 4.91216 14.811 7.5H17.25C19.3211 7.5 21 9.17893 21 11.25C21 13.3211 19.3211 15 17.25 15H8.25C7.28818 15 6.41093 14.6379 5.74715 14.0426Z" fill="currentColor"/>
<path opacity="0.3" fill-rule="evenodd" clip-rule="evenodd" d="M11.906 18.1193C12.4395 18.2622 12.7561 18.8106 12.6131 19.344C12.4702 19.8775 11.9219 20.1941 11.3884 20.0511C10.8549 19.9082 10.5384 19.3599 10.6813 18.8264C10.8242 18.2929 11.3726 17.9763 11.906 18.1193ZM15.906 18.1193C16.4395 18.2622 16.7561 18.8106 16.6131 19.344C16.4702 19.8775 15.9219 20.1941 15.3884 20.0511C14.8549 19.9082 14.5384 19.3599 14.6813 18.8264C14.8242 18.2929 15.3726 17.9763 15.906 18.1193ZM7.90604 18.1193C8.43951 18.2622 8.75609 18.8106 8.61315 19.344C8.4702 19.8775 7.92187 20.1941 7.3884 20.0511C6.85494 19.9082 6.53835 19.3599 6.6813 18.8264C6.82424 18.2929 7.37257 17.9763 7.90604 18.1193Z" fill="currentColor"/>
</svg>
