<svg width="24" height="24" viewBox="0 0 24 24" fill="none" xmlns="http://www.w3.org/2000/svg">
<path fill-rule="evenodd" clip-rule="evenodd" d="M5.74715 14.0426C4.0941 12.974 3 11.1148 3 9C3 5.68629 5.68629 3 9 3C11.7958 3 14.1449 4.91216 14.811 7.5H17.25C19.3211 7.5 21 9.17893 21 11.25C21 13.3211 19.3211 15 17.25 15H8.25C7.28818 15 6.41093 14.6379 5.74715 14.0426Z" fill="currentColor"/>
<path opacity="0.3" fill-rule="evenodd" clip-rule="evenodd" d="M8.90604 16.1193C9.43951 16.2622 9.75609 16.8106 9.61315 17.344C9.4702 17.8775 8.92187 18.1941 8.3884 18.0511C7.85494 17.9082 7.53835 17.3599 7.6813 16.8264C7.82424 16.2929 8.37257 15.9763 8.90604 16.1193ZM16.906 16.1193C17.4395 16.2622 17.7561 16.8106 17.6131 17.344C17.4702 17.8775 16.9219 18.1941 16.3884 18.0511C15.8549 17.9082 15.5384 17.3599 15.6813 16.8264C15.8242 16.2929 16.3726 15.9763 16.906 16.1193ZM12.906 16.1193C13.4395 16.2622 13.7561 16.8106 13.6131 17.344C13.4702 17.8775 12.9219 18.1941 12.3884 18.0511C11.8549 17.9082 11.5384 17.3599 11.6813 16.8264C11.8242 16.2929 12.3726 15.9763 12.906 16.1193ZM14.906 19.1193C15.4395 19.2622 15.7561 19.8106 15.6131 20.344C15.4702 20.8775 14.9219 21.1941 14.3884 21.0511C13.8549 20.9082 13.5384 20.3599 13.6813 19.8264C13.8242 19.2929 14.3726 18.9763 14.906 19.1193ZM10.906 19.1193C11.4395 19.2622 11.7561 19.8106 11.6131 20.344C11.4702 20.8775 10.9219 21.1941 10.3884 21.0511C9.85494 20.9082 9.53835 20.3599 9.6813 19.8264C9.82424 19.2929 10.3726 18.9763 10.906 19.1193Z" fill="currentColor"/>
</svg>
