<svg width="24" height="24" viewBox="0 0 24 24" fill="none" xmlns="http://www.w3.org/2000/svg">
<path opacity="0.3" fill-rule="evenodd" clip-rule="evenodd" d="M10.9999 10.4165V4C10.9999 3.44772 11.4476 3 11.9999 3C12.5522 3 12.9999 3.44772 12.9999 4V10.3175L18.3852 7.20827C18.8635 6.93213 19.4751 7.096 19.7513 7.57429C20.0274 8.05259 19.8635 8.66418 19.3852 8.94032L13.9141 12.0991L19.2994 15.2083C19.7777 15.4844 19.9416 16.096 19.6655 16.5743C19.3893 17.0526 18.7777 17.2165 18.2994 16.9403L12.9999 13.8806V20C12.9999 20.5523 12.5522 21 11.9999 21C11.4476 21 10.9999 20.5523 10.9999 20V13.7816L5.52882 16.9403C5.05053 17.2165 4.43894 17.0526 4.1628 16.5743C3.88666 16.096 4.05053 15.4844 4.52882 15.2083L9.91413 12.0991L4.44304 8.94032C3.96475 8.66418 3.80087 8.05259 4.07701 7.57429C4.35316 7.096 4.96475 6.93213 5.44304 7.20827L10.9999 10.4165Z" fill="currentColor"/>
<path opacity="0.3" fill-rule="evenodd" clip-rule="evenodd" d="M7.85838 9.77974C7.87467 9.81931 7.88861 9.86038 7.89998 9.90281C8.04292 10.4363 7.72634 10.9846 7.19287 11.1276L5.26102 11.6452C4.72755 11.7881 4.17922 11.4716 4.03628 10.9381C3.89333 10.4046 4.20992 9.85629 4.74338 9.71335L6.67523 9.19571C6.71767 9.18434 6.7602 9.17587 6.80262 9.1702C6.78633 9.13062 6.77239 9.08956 6.76102 9.04712L6.24338 7.11527C6.10044 6.5818 6.41702 6.03347 6.95049 5.89052C7.48396 5.74758 8.03229 6.06416 8.17523 6.59763L8.69287 8.52948C8.83581 9.06295 8.51923 9.61129 7.98576 9.75423C7.94333 9.7656 7.90079 9.77406 7.85838 9.77974ZM17.0259 15.0726C17.0422 15.1122 17.0562 15.1533 17.0675 15.1957L17.5852 17.1276C17.7281 17.661 17.4115 18.2094 16.8781 18.3523C16.3446 18.4952 15.7963 18.1787 15.6533 17.6452L15.1357 15.7133C14.9927 15.1799 15.3093 14.6315 15.8428 14.4886C15.8852 14.4772 15.9278 14.4688 15.9702 14.4631C15.9539 14.4235 15.94 14.3825 15.9286 14.34C15.7856 13.8065 16.1022 13.2582 16.6357 13.1153L18.5675 12.5976C19.101 12.4547 19.6493 12.7713 19.7923 13.3047C19.9352 13.8382 19.6186 14.3865 19.0852 14.5295L17.1533 15.0471C17.1109 15.0585 17.0684 15.067 17.0259 15.0726ZM15.9702 9.77974C15.9278 9.77406 15.8852 9.7656 15.8428 9.75423C15.3093 9.61129 14.9927 9.06295 15.1357 8.52948L15.6533 6.59763C15.7963 6.06416 16.3446 5.74758 16.8781 5.89052C17.4115 6.03347 17.7281 6.5818 17.5852 7.11527L17.0675 9.04712C17.0562 9.08956 17.0422 9.13062 17.0259 9.1702C17.0684 9.17587 17.1109 9.18434 17.1533 9.19571L19.0852 9.71335C19.6186 9.85629 19.9352 10.4046 19.7923 10.9381C19.6493 11.4716 19.101 11.7881 18.5675 11.6452L16.6357 11.1276C16.1022 10.9846 15.7856 10.4363 15.9286 9.90281C15.94 9.86038 15.9539 9.81931 15.9702 9.77974ZM6.80262 15.0726C6.7602 15.067 6.71767 15.0585 6.67523 15.0471L4.74338 14.5295C4.20992 14.3865 3.89333 13.8382 4.03628 13.3047C4.17922 12.7713 4.72755 12.4547 5.26102 12.5976L7.19287 13.1153C7.72634 13.2582 8.04292 13.8065 7.89998 14.34C7.88861 14.3825 7.87467 14.4235 7.85838 14.4631C7.90079 14.4688 7.94333 14.4772 7.98576 14.4886C8.51923 14.6315 8.83581 15.1799 8.69287 15.7133L8.17523 17.6452C8.03229 18.1787 7.48396 18.4952 6.95049 18.3523C6.41702 18.2094 6.10044 17.661 6.24338 17.1276L6.76102 15.1957C6.77239 15.1533 6.78633 15.1122 6.80262 15.0726ZM11.9143 7.43806C11.8882 7.47196 11.8596 7.50456 11.8285 7.53563C11.438 7.92615 10.8048 7.92615 10.4143 7.53563L9.00007 6.12141C8.60954 5.73089 8.60954 5.09772 9.00007 4.7072C9.39059 4.31668 10.0238 4.31668 10.4143 4.7072L11.8285 6.12141C11.8596 6.15248 11.8882 6.18508 11.9143 6.21898C11.9404 6.18508 11.969 6.15248 12.0001 6.12141L13.4143 4.7072C13.8048 4.31668 14.438 4.31668 14.8285 4.7072C15.219 5.09772 15.219 5.73089 14.8285 6.12141L13.4143 7.53563C13.0238 7.92615 12.3906 7.92615 12.0001 7.53563C11.969 7.50456 11.9404 7.47196 11.9143 7.43806ZM11.9143 18.0239C11.8882 18.0577 11.8596 18.0903 11.8285 18.1214L10.4143 19.5356C10.0238 19.9262 9.39059 19.9262 9.00007 19.5356C8.60954 19.1451 8.60954 18.5119 9.00007 18.1214L10.4143 16.7072C10.8048 16.3167 11.438 16.3167 11.8285 16.7072C11.8596 16.7383 11.8882 16.7709 11.9143 16.8048C11.9404 16.7709 11.969 16.7383 12.0001 16.7072C12.3906 16.3167 13.0238 16.3167 13.4143 16.7072L14.8285 18.1214C15.219 18.5119 15.219 19.1451 14.8285 19.5356C14.438 19.9262 13.8048 19.9262 13.4143 19.5356L12.0001 18.1214C11.969 18.0903 11.9404 18.0577 11.9143 18.0239Z" fill="currentColor"/>
</svg>
