<svg width="24" height="24" viewBox="0 0 24 24" fill="none" xmlns="http://www.w3.org/2000/svg">
<path opacity="0.3" d="M5.72523 20.1899C5.71523 20.1829 5.70422 20.179 5.69422 20.173C4.66874 19.48 3.87913 18.4906 3.43088 17.3369C2.98264 16.1833 2.89709 14.9202 3.18567 13.7167C3.47426 12.5131 4.12324 11.4263 5.0459 10.6013C5.96857 9.77636 7.12098 9.25259 8.34922 9.09998C8.49322 9.08498 8.67623 9.07397 8.87623 9.06897C9.11116 9.06456 9.34013 9.14308 9.52299 9.29065C9.70584 9.43822 9.83092 9.64541 9.87623 9.87598C9.86323 9.87598 9.85322 9.86902 9.84022 9.86902C9.64022 9.87402 9.45721 9.88502 9.31321 9.90002C8.18487 10.0339 7.11689 10.4822 6.23118 11.194C5.34546 11.9057 4.67769 12.8521 4.30408 13.9252C3.93047 14.9982 3.86606 16.1548 4.11823 17.2627C4.3704 18.3706 4.929 19.3854 5.73023 20.191L5.72523 20.1899ZM18.2522 6.69495C18.6926 6.96887 19.1766 7.16543 19.6832 7.276C19.6263 7.08315 19.5173 6.90974 19.3682 6.77478C19.2192 6.63982 19.0358 6.54852 18.8382 6.51099C18.3154 6.40512 17.8151 6.20855 17.3602 5.93005C17.6226 6.222 17.9214 6.47898 18.2492 6.69495H18.2522ZM8.77921 18.395C9.20221 18.608 9.6726 18.7093 10.1457 18.6895C10.6189 18.6696 11.0791 18.5292 11.4828 18.2816C11.8865 18.034 12.2202 17.6873 12.4524 17.2745C12.6845 16.8618 12.8073 16.3965 12.8092 15.923V3.80005C12.8092 3.53483 12.9146 3.28043 13.1021 3.0929C13.2896 2.90536 13.544 2.80005 13.8092 2.80005H15.1092C15.1432 2.80005 15.1712 2.81402 15.2092 2.81702C15.1443 2.58472 15.006 2.37967 14.815 2.23242C14.6239 2.08518 14.3904 2.00361 14.1492 2H12.8492C12.584 2 12.3297 2.10531 12.1421 2.29285C11.9546 2.48038 11.8492 2.73478 11.8492 3V15.126C11.8475 15.5988 11.7252 16.0633 11.4939 16.4756C11.2626 16.8879 10.9299 17.2344 10.5273 17.4823C10.1248 17.7302 9.66562 17.8713 9.1933 17.8922C8.72099 17.9131 8.25115 17.8133 7.82822 17.6021C8.08104 17.9363 8.40613 18.2091 8.77921 18.4V18.395ZM17.2902 5.89502C17.3122 5.90902 17.3382 5.91705 17.3602 5.93005C16.7831 5.31815 16.3859 4.55892 16.2122 3.73596C16.1663 3.4943 16.0433 3.27412 15.8615 3.1084C15.6797 2.94268 15.4491 2.84042 15.2042 2.81702C15.2217 2.85569 15.2367 2.89545 15.2492 2.93604C15.3727 3.5419 15.6172 4.11659 15.9678 4.62585C16.3185 5.13512 16.7683 5.56851 17.2902 5.90002V5.89502ZM9.91123 11.355C9.90922 11.6105 9.80943 11.8556 9.63239 12.0399C9.45535 12.2242 9.21446 12.3337 8.9592 12.3459C8.24669 12.3859 7.57556 12.6935 7.08011 13.2072C6.58467 13.7208 6.30146 14.4025 6.28721 15.116C6.28698 15.6307 6.42984 16.1354 6.69983 16.5737C6.96983 17.012 7.35637 17.3667 7.81623 17.598H7.82621C7.45304 17.1152 7.25048 16.5222 7.25022 15.912C7.26425 15.1984 7.54736 14.5165 8.04285 14.0028C8.53835 13.4891 9.20962 13.1817 9.92222 13.142C10.1773 13.1295 10.4179 13.0198 10.5948 12.8356C10.7716 12.6513 10.8712 12.4064 10.8732 12.151V10.864C10.8713 10.6 10.7652 10.3474 10.5778 10.1614C10.3905 9.97535 10.1372 9.87097 9.8732 9.87097C9.89314 9.93376 9.90655 9.99843 9.91321 10.064L9.91123 11.355ZM19.8002 7.31104C19.7602 7.30304 19.7232 7.285 19.6832 7.276C19.715 7.36988 19.7329 7.46794 19.7362 7.56702V8.87305C19.7362 9.00783 19.7074 9.141 19.6519 9.26379C19.5963 9.38659 19.5151 9.49613 19.4139 9.58508C19.3126 9.67404 19.1936 9.74036 19.0646 9.77966C18.9357 9.81896 18.7999 9.83033 18.6662 9.81299C17.3995 9.64132 16.1938 9.16274 15.1542 8.41895V14.912C15.175 16.4605 14.6172 17.9611 13.59 19.12C12.5627 20.2789 11.14 21.0127 9.60023 21.178C8.23398 21.2965 6.86792 20.9482 5.72523 20.1899C6.00903 20.4809 6.32088 20.7433 6.65623 20.973C7.80559 21.7435 9.18373 22.0981 10.5622 21.978C12.1021 21.8128 13.5249 21.0789 14.5523 19.92C15.5797 18.7612 16.1378 17.2606 16.1172 15.712V9.21899C17.1565 9.96278 18.3618 10.4414 19.6282 10.613C19.7619 10.6304 19.8977 10.619 20.0266 10.5797C20.1556 10.5404 20.2746 10.4741 20.3759 10.3851C20.4771 10.2962 20.5583 10.1866 20.6139 10.0638C20.6694 9.94105 20.6982 9.80776 20.6982 9.67297V8.36694C20.6952 8.11381 20.6038 7.86973 20.4398 7.67688C20.2759 7.48403 20.0496 7.35465 19.8002 7.31104Z" fill="currentColor"/>
<path d="M15.1488 14.912V8.41895C16.1884 9.16274 17.3941 9.64132 18.6608 9.81299C18.7945 9.83033 18.9303 9.81896 19.0592 9.77966C19.1882 9.74036 19.3072 9.67404 19.4085 9.58508C19.5097 9.49613 19.5909 9.38659 19.6464 9.26379C19.702 9.141 19.7308 9.00783 19.7308 8.87305V7.56702C19.7275 7.46794 19.7096 7.36988 19.6778 7.276C19.1712 7.16543 18.6872 6.96887 18.2468 6.69495C17.918 6.47919 17.6182 6.22219 17.3548 5.93005C17.3328 5.91705 17.3068 5.90902 17.2848 5.89502C16.7634 5.56407 16.314 5.13154 15.9633 4.62317C15.6127 4.1148 15.3679 3.541 15.2438 2.93604C15.2313 2.89545 15.2163 2.85569 15.1988 2.81702C15.1658 2.81702 15.1378 2.80005 15.0988 2.80005H13.7988C13.5336 2.80005 13.2792 2.90536 13.0917 3.0929C12.9042 3.28043 12.7988 3.53483 12.7988 3.80005V15.926C12.7984 16.5066 12.6158 17.0725 12.2768 17.5438C11.9378 18.0152 11.4595 18.3683 10.9091 18.5533C10.3588 18.7384 9.76433 18.7462 9.20938 18.5756C8.65443 18.4049 8.16702 18.0644 7.81583 17.6021H7.80582C7.34595 17.3707 6.95945 17.016 6.68945 16.5778C6.41945 16.1395 6.2766 15.6348 6.27682 15.12C6.29108 14.4065 6.57426 13.7247 7.0697 13.2111C7.56515 12.6974 8.23631 12.3899 8.94882 12.35C9.20408 12.3377 9.44497 12.2282 9.62201 12.0439C9.79905 11.8597 9.89881 11.6146 9.90082 11.359V10.072C9.89415 10.0065 9.88074 9.94182 9.86081 9.87903C9.84781 9.87903 9.83783 9.87195 9.82483 9.87195C9.62483 9.87695 9.44182 9.88795 9.29782 9.90295C8.51498 9.85635 7.73099 9.97297 6.99554 10.2452C6.2601 10.5175 5.58922 10.9396 5.02545 11.4847C4.46168 12.0299 4.01733 12.6861 3.72052 13.412C3.4237 14.1379 3.28091 14.9176 3.30121 15.7015C3.3215 16.4855 3.50443 17.2568 3.83841 17.9663C4.17239 18.6759 4.65011 19.3082 5.24133 19.8235C5.83255 20.3387 6.52437 20.7255 7.27292 20.9594C8.02147 21.1932 8.81043 21.2691 9.58981 21.182C11.1312 21.0179 12.5557 20.2839 13.5841 19.124C14.6125 17.9641 15.1705 16.462 15.1488 14.912Z" fill="currentColor"/>
</svg>
