<svg width="24" height="24" viewBox="0 0 24 24" fill="none" xmlns="http://www.w3.org/2000/svg">
<path opacity="0.3" d="M19.0004 4.40002C18.2004 3.50002 17.1004 3 15.8004 3C14.1004 3 12.5004 3.99998 11.8004 5.59998C11.0004 7.39998 11.9005 9.49993 11.2005 11.2999C10.1005 14.2999 7.80046 16.9 4.90046 17.9C4.50046 18 3.80047 18.2 3.10047 18.2C2.60047 18.3 2.40046 19 2.90046 19.2C4.40046 19.8 6.00045 20.2 7.80045 20.2C15.8004 20.2 20.2005 13.5999 20.2005 7.79993C20.2005 7.59993 20.2005 7.39995 20.2005 7.19995C20.8005 6.69995 21.4004 6.09993 21.9004 5.29993C22.2004 4.79993 21.9004 4.19998 21.4004 4.09998C20.5004 4.19998 19.7004 4.20002 19.0004 4.40002Z" fill="currentColor"/>
<path d="M11.5004 8.29997C8.30036 8.09997 5.60034 6.80004 3.30034 4.50004C2.90034 4.10004 2.30037 4.29997 2.20037 4.79997C1.60037 6.59997 2.40035 8.40002 3.90035 9.60002C3.50035 9.60002 3.10037 9.50007 2.70037 9.40007C2.40037 9.30007 2.00036 9.60004 2.10036 10C2.50036 11.8 3.60035 12.9001 5.40035 13.4001C5.10035 13.5001 4.70034 13.5 4.30034 13.6C3.90034 13.6 3.70035 14.1001 3.90035 14.4001C4.70035 15.7001 5.90036 16.5 7.50036 16.5C8.80036 16.5 10.1004 16.5 11.2004 15.8C12.7004 14.9 13.9003 13.2001 13.8003 11.4001C13.9003 10.0001 13.1004 8.39997 11.5004 8.29997Z" fill="currentColor"/>
</svg>
