<svg width="24" height="24" viewBox="0 0 24 24" fill="none" xmlns="http://www.w3.org/2000/svg">
<path opacity="0.3" d="M22 8.20267V15.7027C22 19.1027 19.2 22.0026 15.7 22.0026H8.2C4.8 22.0026 2 19.2027 2 15.7027V8.20267C2 4.80267 4.8 2.0026 8.2 2.0026H15.7C19.2 1.9026 22 4.70267 22 8.20267ZM12 7.30265C9.5 7.30265 7.39999 9.40262 7.39999 11.9026C7.39999 14.4026 9.5 16.5026 12 16.5026C14.5 16.5026 16.6 14.4026 16.6 11.9026C16.6 9.30262 14.5 7.30265 12 7.30265ZM17.9 5.0026C17.3 5.0026 16.9 5.4026 16.9 6.0026C16.9 6.6026 17.3 7.0026 17.9 7.0026C18.5 7.0026 18.9 6.6026 18.9 6.0026C18.9 5.5026 18.4 5.0026 17.9 5.0026Z" fill="currentColor"/>
<path d="M11.9999 17.5026C8.89991 17.5026 6.3999 15.0026 6.3999 11.9026C6.3999 8.80259 8.89991 6.30261 11.9999 6.30261C15.0999 6.30261 17.5999 8.80259 17.5999 11.9026C17.5999 15.0026 15.0999 17.5026 11.9999 17.5026ZM11.9999 8.30261C9.99991 8.30261 8.3999 9.90259 8.3999 11.9026C8.3999 13.9026 9.99991 15.5026 11.9999 15.5026C13.9999 15.5026 15.5999 13.9026 15.5999 11.9026C15.5999 9.90259 13.9999 8.30261 11.9999 8.30261Z" fill="currentColor"/>
</svg>
