<svg width="24" height="24" viewBox="0 0 24 24" fill="none" xmlns="http://www.w3.org/2000/svg">
<path d="M4.335 8.61499C3.98049 8.61579 3.64078 8.75725 3.39048 9.0083C3.14018 9.25935 2.99973 9.59947 3 9.95398V15.307C3 15.6611 3.14065 16.0006 3.39101 16.251C3.64138 16.5013 3.98094 16.642 4.335 16.642C4.68907 16.642 5.02863 16.5013 5.27899 16.251C5.52935 16.0006 5.67 15.6611 5.67 15.307V9.95398C5.67027 9.59947 5.52983 9.25935 5.27953 9.0083C5.02922 8.75725 4.68952 8.61579 4.335 8.61499ZM20.353 8.61499C19.9986 8.61579 19.659 8.75734 19.4088 9.00842C19.1587 9.25951 19.0185 9.59956 19.019 9.95398V15.307C19.0141 15.4853 19.045 15.6628 19.1099 15.829C19.1748 15.9952 19.2723 16.1467 19.3967 16.2745C19.5211 16.4024 19.6699 16.504 19.8342 16.5734C19.9985 16.6428 20.1751 16.6786 20.3535 16.6786C20.5319 16.6786 20.7085 16.6428 20.8728 16.5734C21.0371 16.504 21.1859 16.4024 21.3103 16.2745C21.4347 16.1467 21.5322 15.9952 21.5971 15.829C21.662 15.6628 21.6929 15.4853 21.688 15.307V9.95398C21.6883 9.59947 21.5478 9.25935 21.2975 9.0083C21.0472 8.75725 20.7075 8.61579 20.353 8.61499Z" fill="currentColor"/>
<path d="M8.33887 18.062V20.662C8.33887 21.0161 8.47952 21.3556 8.72988 21.606C8.98024 21.8563 9.31981 21.9969 9.67387 21.9969C10.028 21.9969 10.3675 21.8563 10.6179 21.606C10.8682 21.3556 11.0089 21.0161 11.0089 20.662V18.062H8.33887Z" fill="currentColor"/>
<path opacity="0.3" d="M16.3439 18.062C16.6983 18.0615 17.038 17.9202 17.2884 17.6693C17.5387 17.4184 17.6792 17.0784 17.6789 16.724V8.69299H7.00391V16.724C7.00364 17.0784 7.14411 17.4184 7.39445 17.6693C7.64478 17.9202 7.98449 18.0615 8.33891 18.062H16.3439Z" fill="currentColor"/>
<path d="M13.6792 18.062V20.662C13.6792 21.0161 13.8198 21.3556 14.0702 21.606C14.3206 21.8563 14.6601 21.9969 15.0142 21.9969C15.3682 21.9969 15.7078 21.8563 15.9582 21.606C16.2085 21.3556 16.3492 21.0161 16.3492 20.662V18.062H13.6792Z" fill="currentColor"/>
<path d="M15.6759 4.53889L16.8639 3.09492C16.9208 3.02747 16.9638 2.94945 16.9903 2.8653C17.0169 2.78115 17.0265 2.69257 17.0186 2.60468C17.0108 2.51679 16.9856 2.43131 16.9445 2.35322C16.9034 2.27512 16.8473 2.206 16.7793 2.14973C16.7114 2.09345 16.6329 2.05112 16.5485 2.02534C16.4641 1.99955 16.3755 1.99079 16.2877 1.99946C16.1999 2.00813 16.1146 2.03408 16.0369 2.07587C15.9592 2.11767 15.8905 2.17451 15.8349 2.24299L14.5349 3.82099C13.8434 3.50074 13.0901 3.33617 12.3281 3.33893C11.5661 3.3417 10.814 3.51173 10.1249 3.83698L8.85993 2.2519C8.80497 2.18348 8.73708 2.1266 8.66012 2.08442C8.58316 2.04224 8.49865 2.01569 8.41141 2.00617C8.32417 1.99665 8.23591 2.00441 8.15167 2.029C8.06742 2.05359 7.98885 2.09452 7.92043 2.14948C7.85201 2.20444 7.79509 2.27235 7.75291 2.34931C7.71073 2.42627 7.68412 2.51073 7.6746 2.59797C7.66509 2.68521 7.67284 2.77349 7.69743 2.85773C7.72203 2.94198 7.76297 3.02052 7.81793 3.08893L8.98993 4.55793C8.37132 5.05535 7.87181 5.68486 7.528 6.40034C7.1842 7.11581 7.00479 7.89915 7.00293 8.69294H17.6839C17.682 7.8943 17.5005 7.10632 17.153 6.38727C16.8054 5.66823 16.3006 5.03648 15.6759 4.53889ZM10.6759 7.34699C10.4781 7.34699 10.2848 7.28829 10.1203 7.17841C9.95591 7.06853 9.82774 6.91241 9.75205 6.72968C9.67636 6.54696 9.65656 6.34578 9.69515 6.1518C9.73373 5.95782 9.82897 5.77969 9.96882 5.63984C10.1086 5.49998 10.2868 5.40474 10.4808 5.36616C10.6748 5.32757 10.8758 5.34735 11.0586 5.42304C11.2413 5.49873 11.3975 5.62688 11.5074 5.79133C11.6172 5.95578 11.6759 6.14921 11.6759 6.34699C11.6759 6.61221 11.5705 6.86649 11.383 7.05402C11.1955 7.24156 10.9411 7.34699 10.6759 7.34699ZM14.0049 7.34699C13.8071 7.34699 13.6138 7.28829 13.4493 7.17841C13.2849 7.06853 13.1567 6.91241 13.081 6.72968C13.0053 6.54696 12.9855 6.34578 13.0241 6.1518C13.0627 5.95782 13.1579 5.77969 13.2978 5.63984C13.4376 5.49998 13.6158 5.40474 13.8098 5.36616C14.0038 5.32757 14.2048 5.34735 14.3876 5.42304C14.5703 5.49873 14.7265 5.62688 14.8364 5.79133C14.9462 5.95578 15.0049 6.14921 15.0049 6.34699C15.0049 6.61221 14.8995 6.86649 14.712 7.05402C14.5245 7.24156 14.2701 7.34699 14.0049 7.34699Z" fill="currentColor"/>
</svg>
