<svg width="24" height="24" viewBox="0 0 24 24" fill="none" xmlns="http://www.w3.org/2000/svg">
<path fill-rule="evenodd" clip-rule="evenodd" d="M11 3.05493V5C11 5.55229 11.4477 6 12 6C12.5523 6 13 5.55229 13 5V3.05493C17.5 3.55238 21 7.36745 21 12C21 16.6326 17.5 20.4476 13 20.9451V19C13 18.4477 12.5523 18 12 18C11.4477 18 11 18.4477 11 19V20.9451C6.50005 20.4476 3 16.6326 3 12C3 7.36745 6.50005 3.55238 11 3.05493ZM8.5 13C9.32843 13 10 12.3284 10 11.5C10 10.6716 9.32843 10 8.5 10C7.67157 10 7 10.6716 7 11.5C7 12.3284 7.67157 13 8.5 13ZM15.5 13C16.3284 13 17 12.3284 17 11.5C17 10.6716 16.3284 10 15.5 10C14.6716 10 14 10.6716 14 11.5C14 12.3284 14.6716 13 15.5 13Z" fill="currentColor"/>
</svg>
