<svg width="24" height="24" viewBox="0 0 24 24" fill="none" xmlns="http://www.w3.org/2000/svg">
<path fill-rule="evenodd" clip-rule="evenodd" d="M5 4H19C19.5523 4 20 4.44772 20 5V19C20 19.5523 19.5523 20 19 20H5C4.44772 20 4 19.5523 4 19V5C4 4.44772 4.44772 4 5 4ZM9 7C8.44772 7 8 7.44772 8 8V11C8 11.5523 8.44772 12 9 12C9.55228 12 10 11.5523 10 11V8C10 7.44772 9.55228 7 9 7ZM12 15C11.1716 15 10.5 15.6716 10.5 16.5V18H13.5V16.5C13.5 15.6716 12.8284 15 12 15ZM15 7C14.4477 7 14 7.44772 14 8V11C14 11.5523 14.4477 12 15 12C15.5523 12 16 11.5523 16 11V8C16 7.44772 15.5523 7 15 7Z" fill="currentColor"/>
</svg>
