<svg width="24" height="24" viewBox="0 0 24 24" fill="none" xmlns="http://www.w3.org/2000/svg">
<path opacity="0.3" fill-rule="evenodd" clip-rule="evenodd" d="M10.0842 15.4434L6.29215 16.8236C4.85009 17.3485 3.25559 16.605 2.73072 15.1629C2.20586 13.7209 2.94939 12.1264 4.39144 11.6015L8.33171 10.1673L9.18671 5.31841C9.25864 4.91049 9.64763 4.63811 10.0556 4.71004L13.6204 5.33862C14.0283 5.41054 14.3007 5.79954 14.2288 6.20746L12.7848 14.3965C12.641 15.2123 11.863 15.7571 11.0471 15.6132L10.0842 15.4434Z" fill="currentColor"/>
<path fill-rule="evenodd" clip-rule="evenodd" d="M14.469 18.6888L9.36363 20.547C7.39201 21.2647 5.21196 20.2481 4.49435 18.2765C3.77674 16.3049 4.79331 14.1248 6.76493 13.4072L11.943 11.5225L13.0511 5.23828C13.147 4.69439 13.6656 4.33122 14.2095 4.42712L19.1336 5.29536C19.6774 5.39127 20.0406 5.90993 19.9447 6.45382L18.0346 17.2867C17.8428 18.3745 16.8055 19.1008 15.7177 18.909L14.469 18.6888Z" fill="currentColor"/>
</svg>
