<svg width="24" height="24" viewBox="0 0 24 24" fill="none" xmlns="http://www.w3.org/2000/svg">
<path d="M18.5 5H5.5C4.67157 5 4 5.67157 4 6.5C4 7.32843 4.67157 8 5.5 8H18.5C19.3284 8 20 7.32843 20 6.5C20 5.67157 19.3284 5 18.5 5Z" fill="currentColor"/>
<path opacity="0.3" fill-rule="evenodd" clip-rule="evenodd" d="M7.5 11H16.5C17.3284 11 18 11.6716 18 12.5C18 13.3284 17.3284 14 16.5 14H7.5C6.67157 14 6 13.3284 6 12.5C6 11.6716 6.67157 11 7.5 11ZM10.5 17H13.5C14.3284 17 15 17.6716 15 18.5C15 19.3284 14.3284 20 13.5 20H10.5C9.67157 20 9 19.3284 9 18.5C9 17.6716 9.67157 17 10.5 17Z" fill="currentColor"/>
</svg>
