<svg width="24" height="24" viewBox="0 0 24 24" fill="none" xmlns="http://www.w3.org/2000/svg">
<path d="M5.5 19L18.5 19C19.3284 19 20 18.3284 20 17.5C20 16.6716 19.3284 16 18.5 16L5.5 16C4.67157 16 4 16.6716 4 17.5C4 18.3284 4.67157 19 5.5 19Z" fill="currentColor"/>
<path opacity="0.3" fill-rule="evenodd" clip-rule="evenodd" d="M16.5 13L7.5 13C6.67157 13 6 12.3284 6 11.5C6 10.6716 6.67157 10 7.5 10L16.5 10C17.3284 10 18 10.6716 18 11.5C18 12.3284 17.3284 13 16.5 13ZM13.5 7L10.5 7C9.67157 7 9 6.32843 9 5.5C9 4.67157 9.67157 4 10.5 4L13.5 4C14.3284 4 15 4.67157 15 5.5C15 6.32843 14.3284 7 13.5 7Z" fill="currentColor"/>
</svg>
