<svg width="24" height="24" viewBox="0 0 24 24" fill="none" xmlns="http://www.w3.org/2000/svg">
<path fill-rule="evenodd" clip-rule="evenodd" d="M5.5 6C6.32843 6 7 6.67157 7 7.5V18.5C7 19.3284 6.32843 20 5.5 20C4.67157 20 4 19.3284 4 18.5V7.5C4 6.67157 4.67157 6 5.5 6ZM11.5 11C12.3284 11 13 11.6716 13 12.5V18.5C13 19.3284 12.3284 20 11.5 20C10.6716 20 10 19.3284 10 18.5V12.5C10 11.6716 10.6716 11 11.5 11ZM17.5 15C18.3284 15 19 15.6716 19 16.5V18.5C19 19.3284 18.3284 20 17.5 20C16.6716 20 16 19.3284 16 18.5V16.5C16 15.6716 16.6716 15 17.5 15Z" fill="currentColor"/>
</svg>
