<svg width="24" height="24" viewBox="0 0 24 24" fill="none" xmlns="http://www.w3.org/2000/svg">
<path opacity="0.3" fill-rule="evenodd" clip-rule="evenodd" d="M14.6134 1.26402L22.2361 8.88677C22.4314 9.08203 22.4314 9.39862 22.2361 9.59388C22.2129 9.61716 22.1873 9.63809 22.1599 9.65635L15.4804 14.1093C13.7388 15.2705 11.4196 15.0408 9.93948 13.5607C8.45933 12.0805 8.22969 9.7614 9.39082 8.01971L13.8438 1.34023C13.997 1.11046 14.3074 1.04837 14.5372 1.20155C14.5646 1.21981 14.5901 1.24074 14.6134 1.26402Z" fill="currentColor"/>
<path fill-rule="evenodd" clip-rule="evenodd" d="M8.2127 13.2481L10.2518 15.2872L8.47423 19.0685C7.76025 20.5874 5.95019 21.2398 4.43136 20.5258C4.11342 20.3764 3.82381 20.1729 3.57539 19.9245C2.38867 18.7378 2.38867 16.8137 3.57539 15.627C3.82381 15.3786 4.11342 15.1751 4.43136 15.0257L8.2127 13.2481ZM4.58555 18.9143C5.14862 19.4774 6.05735 19.4816 6.61524 18.9237C7.17313 18.3658 7.16893 17.4571 6.60585 16.894C6.04277 16.331 5.13405 16.3268 4.57615 16.8847C4.01826 17.4425 4.02247 18.3513 4.58555 18.9143Z" fill="currentColor"/>
</svg>
