<svg width="24" height="24" viewBox="0 0 24 24" fill="none" xmlns="http://www.w3.org/2000/svg">
<path fill-rule="evenodd" clip-rule="evenodd" d="M7 2H17C18.1046 2 19 2.89543 19 4V20C19 21.1046 18.1046 22 17 22H7C5.89543 22 5 21.1046 5 20V4C5 2.89543 5.89543 2 7 2ZM12 19C9.79086 19 8 17.2091 8 15C8 12.7909 9.79086 11 12 11C14.2091 11 16 12.7909 16 15C16 17.2091 14.2091 19 12 19ZM12 7C11.1716 7 10.5 6.32843 10.5 5.5C10.5 4.67157 11.1716 4 12 4C12.8284 4 13.5 4.67157 13.5 5.5C13.5 6.32843 12.8284 7 12 7Z" fill="currentColor"/>
<path opacity="0.3" fill-rule="evenodd" clip-rule="evenodd" d="M12 17C13.1046 17 14 16.1046 14 15C14 13.8954 13.1046 13 12 13C10.8954 13 10 13.8954 10 15C10 16.1046 10.8954 17 12 17Z" fill="currentColor"/>
</svg>
