<svg width="24" height="24" viewBox="0 0 24 24" fill="none" xmlns="http://www.w3.org/2000/svg">
<path opacity="0.3" fill-rule="evenodd" clip-rule="evenodd" d="M9.37853 12.9142L10.0856 13.6213C10.4762 14.0119 10.4762 14.645 10.0856 15.0356L5.13589 19.9853C4.74537 20.3758 4.1122 20.3758 3.72168 19.9853L3.01457 19.2782C2.62405 18.8877 2.62405 18.2545 3.01457 17.864L7.96432 12.9142C8.35485 12.5237 8.98801 12.5237 9.37853 12.9142Z" fill="currentColor"/>
<path fill-rule="evenodd" clip-rule="evenodd" d="M11.1466 11.8536C12.904 13.611 15.7532 13.611 17.5106 11.8536C19.268 10.0962 21.0357 5.47923 19.2784 3.72187C17.521 1.96451 12.904 3.73227 11.1466 5.48963C9.38927 7.24699 9.38927 10.0962 11.1466 11.8536Z" fill="currentColor"/>
<path fill-rule="evenodd" clip-rule="evenodd" d="M17.6253 5.50659C18.5833 6.61928 17.5334 9.32637 16.4896 10.3701C15.4909 11.3688 13.9108 11.4318 12.8389 10.5589L17.6253 5.50659Z" fill="currentColor"/>
</svg>
