<svg width="24" height="24" viewBox="0 0 24 24" fill="none" xmlns="http://www.w3.org/2000/svg">
<path fill-rule="evenodd" clip-rule="evenodd" d="M12.9863 8.8341C12.9953 8.88806 13 8.94348 13 9V11H17C18.1046 11 19 11.8954 19 13V16H5V13C5 11.8954 5.89543 11 7 11H11V9C11 8.94348 11.0047 8.88806 11.0137 8.8341C9.84136 8.42616 9 7.31133 9 6C9 4.34315 10.3431 3 12 3C13.6569 3 15 4.34315 15 6C15 7.31133 14.1586 8.42616 12.9863 8.8341Z" fill="currentColor"/>
<path opacity="0.3" d="M18 18H6C5.44772 18 5 18.4477 5 19C5 19.5523 5.44772 20 6 20H18C18.5523 20 19 19.5523 19 19C19 18.4477 18.5523 18 18 18Z" fill="currentColor"/>
</svg>
