<svg width="24" height="24" viewBox="0 0 24 24" fill="none" xmlns="http://www.w3.org/2000/svg">
<path fill-rule="evenodd" clip-rule="evenodd" d="M11.9998 17.9999L7.91541 20.1472C7.42656 20.4042 6.82194 20.2163 6.56493 19.7274C6.4626 19.5328 6.42728 19.3098 6.46446 19.0931L7.24451 14.545L3.94017 11.3241C3.54469 10.9386 3.5366 10.3055 3.9221 9.91001C4.07561 9.75252 4.27675 9.65004 4.49439 9.61841L9.06086 8.95486L11.1031 4.81693C11.3475 4.32168 11.9471 4.11834 12.4424 4.36276C12.6396 4.46009 12.7992 4.61972 12.8965 4.81693L14.9387 8.95486L19.5052 9.61841C20.0517 9.69783 20.4304 10.2053 20.351 10.7518C20.3194 10.9695 20.2169 11.1706 20.0594 11.3241L16.7551 14.545L17.5351 19.0931C17.6285 19.6374 17.2629 20.1544 16.7186 20.2477C16.5018 20.2849 16.2788 20.2496 16.0842 20.1472L11.9998 17.9999Z" fill="currentColor"/>
</svg>
