<svg width="24" height="24" viewBox="0 0 24 24" fill="none" xmlns="http://www.w3.org/2000/svg">
<path opacity="0.3" d="M12 22C6.47715 22 2 17.5228 2 12C2 6.47715 6.47715 2 12 2C17.5228 2 22 6.47715 22 12C22 17.5228 17.5228 22 12 22ZM12 20C16.4183 20 20 16.4183 20 12C20 7.58172 16.4183 4 12 4C7.58172 4 4 7.58172 4 12C4 16.4183 7.58172 20 12 20ZM19.0711 4.92893C19.4616 5.31946 19.4616 5.95262 19.0711 6.34315L6.34315 19.0711C5.95262 19.4616 5.31946 19.4616 4.92893 19.0711C4.53841 18.6805 4.53841 18.0474 4.92893 17.6569L17.6569 4.92893C18.0474 4.53841 18.6805 4.53841 19.0711 4.92893Z" fill="currentColor"/>
</svg>
