<svg width="24" height="24" viewBox="0 0 24 24" fill="none" xmlns="http://www.w3.org/2000/svg">
<path d="M21 2H9C8.44772 2 8 2.44772 8 3C8 3.55228 8.44772 4 9 4H21C21.5523 4 22 3.55228 22 3C22 2.44772 21.5523 2 21 2Z" fill="currentColor"/>
<path opacity="0.3" fill-rule="evenodd" clip-rule="evenodd" d="M6 6H18C18.5523 6 19 6.44772 19 7C19 7.55228 18.5523 8 18 8H6C5.44772 8 5 7.55228 5 7C5 6.44772 5.44772 6 6 6ZM8 10H15C15.5523 10 16 10.4477 16 11C16 11.5523 15.5523 12 15 12H8C7.44772 12 7 11.5523 7 11C7 10.4477 7.44772 10 8 10ZM11 14H17C17.5523 14 18 14.4477 18 15C18 15.5523 17.5523 16 17 16H11C10.4477 16 10 15.5523 10 15C10 14.4477 10.4477 14 11 14ZM12 18H15C15.5523 18 16 18.4477 16 19C16 19.5523 15.5523 20 15 20H12C11.4477 20 11 19.5523 11 19C11 18.4477 11.4477 18 12 18ZM11 21H12C12.5523 21 13 21.4477 13 22C13 22.5523 12.5523 23 12 23H11C10.4477 23 10 22.5523 10 22C10 21.4477 10.4477 21 11 21Z" fill="currentColor"/>
</svg>
