<svg width="24" height="24" viewBox="0 0 24 24" fill="none" xmlns="http://www.w3.org/2000/svg">
<path opacity="0.3" d="M20 11H5C4.44772 11 4 11.4477 4 12C4 12.5523 4.44772 13 5 13H20C20.5523 13 21 12.5523 21 12C21 11.4477 20.5523 11 20 11Z" fill="currentColor"/>
<path fill-rule="evenodd" clip-rule="evenodd" d="M12.0599 19.1599C9.99994 19.1599 8.27994 18.1599 7.43994 16.9599L8.81994 15.7599C9.49994 16.6399 10.6599 17.4199 12.0399 17.4199C13.6799 17.4199 14.7199 16.6599 14.7199 15.4199C14.7199 14.1199 13.9199 13.4399 12.3999 12.7799L11.0999 12.2199C8.93994 11.2999 7.99994 9.97989 7.99994 8.19989C7.99994 6.03989 10.0399 4.63989 12.1399 4.63989C13.7999 4.63989 15.1599 5.29989 16.1199 6.45989L14.8399 7.73989C14.0999 6.85989 13.3199 6.37989 12.0799 6.37989C10.8799 6.37989 9.81994 7.05989 9.81994 8.23989C9.81994 9.27989 10.4199 9.97989 11.9199 10.6399L13.2199 11.1999C15.1399 12.0399 16.5599 13.2199 16.5599 15.2199C16.5599 17.5399 14.8399 19.1599 12.0599 19.1599Z" fill="currentColor"/>
</svg>
