<svg width="24" height="24" viewBox="0 0 24 24" fill="none" xmlns="http://www.w3.org/2000/svg">
<path opacity="0.3" d="M9.89426 16.9423L8.10541 16.0479C9.18082 13.897 11.7962 13.0252 13.947 14.1007C14.7897 14.522 15.4729 15.2052 15.8943 16.0479L14.1054 16.9423C13.8776 16.4867 13.5082 16.1173 13.0526 15.8895C11.8897 15.3081 10.4757 15.7794 9.89426 16.9423ZM21.9057 8.11928C22.4392 8.26223 22.7558 8.81056 22.6128 9.34403L20.9656 15.4915C20.8227 16.0249 20.2743 16.3415 19.7409 16.1986C19.2074 16.0556 18.8908 15.5073 19.0338 14.9738L20.681 8.82639C20.8239 8.29292 21.3722 7.97634 21.9057 8.11928ZM2.09397 8.11928C2.62743 7.97634 3.17577 8.29292 3.31871 8.82639L4.87163 14.6219C5.01457 15.1554 4.69799 15.7037 4.16452 15.8467C3.63105 15.9896 3.08272 15.673 2.93978 15.1396L1.38686 9.34403C1.24392 8.81056 1.5605 8.26223 2.09397 8.11928Z" fill="currentColor"/>
<path fill-rule="evenodd" clip-rule="evenodd" d="M6.5 20C4.01472 20 2 17.9853 2 15.5C2 13.0147 4.01472 11 6.5 11C8.98528 11 11 13.0147 11 15.5C11 17.9853 8.98528 20 6.5 20ZM17.5 20C15.0147 20 13 17.9853 13 15.5C13 13.0147 15.0147 11 17.5 11C19.9853 11 22 13.0147 22 15.5C22 17.9853 19.9853 20 17.5 20Z" fill="currentColor"/>
</svg>
