<svg width="24" height="24" viewBox="0 0 24 24" fill="none" xmlns="http://www.w3.org/2000/svg">
<path d="M8 14C8 11.7909 9.79086 10 12 10C14.2091 10 16 11.7909 16 14H8Z" fill="currentColor"/>
<path opacity="0.3" d="M19.5 11H21C21.8284 11 22.5 11.6716 22.5 12.5C22.5 13.3284 21.8284 14 21 14H19.5C18.6716 14 18 13.3284 18 12.5C18 11.6716 18.6716 11 19.5 11ZM16.0607 6.87132L17.1213 5.81066C17.7071 5.22487 18.6569 5.22487 19.2426 5.81066C19.8284 6.39645 19.8284 7.34619 19.2426 7.93198L18.182 8.99264C17.5962 9.57843 16.6464 9.57843 16.0607 8.99264C15.4749 8.40685 15.4749 7.45711 16.0607 6.87132ZM3 11H4.5C5.32843 11 6 11.6716 6 12.5C6 13.3284 5.32843 14 4.5 14H3C2.17157 14 1.5 13.3284 1.5 12.5C1.5 11.6716 2.17157 11 3 11ZM12 2.5C12.8284 2.5 13.5 3.17157 13.5 4V5.5C13.5 6.32843 12.8284 7 12 7C11.1716 7 10.5 6.32843 10.5 5.5V4C10.5 3.17157 11.1716 2.5 12 2.5ZM4.81066 5.81066C5.39645 5.22487 6.34619 5.22487 6.93198 5.81066L7.99264 6.87132C8.57843 7.45711 8.57843 8.40685 7.99264 8.99264C7.40685 9.57843 6.45711 9.57843 5.87132 8.99264L4.81066 7.93198C4.22487 7.34619 4.22487 6.39645 4.81066 5.81066ZM2.5 16H21.5C21.7761 16 22 16.2239 22 16.5C22 16.7761 21.7761 17 21.5 17H2.5C2.22386 17 2 16.7761 2 16.5C2 16.2239 2.22386 16 2.5 16ZM2.5 18H7.5C7.77614 18 8 18.2239 8 18.5C8 18.7761 7.77614 19 7.5 19H2.5C2.22386 19 2 18.7761 2 18.5C2 18.2239 2.22386 18 2.5 18ZM14.5 20H21.5C21.7761 20 22 20.2239 22 20.5C22 20.7761 21.7761 21 21.5 21H14.5C14.2239 21 14 20.7761 14 20.5C14 20.2239 14.2239 20 14.5 20ZM9.5 18H21.5C21.7761 18 22 18.2239 22 18.5C22 18.7761 21.7761 19 21.5 19H9.5C9.22386 19 9 18.7761 9 18.5C9 18.2239 9.22386 18 9.5 18ZM2.5 20H12.5C12.7761 20 13 20.2239 13 20.5C13 20.7761 12.7761 21 12.5 21H2.5C2.22386 21 2 20.7761 2 20.5C2 20.2239 2.22386 20 2.5 20Z" fill="currentColor"/>
</svg>
