<svg width="24" height="24" viewBox="0 0 24 24" fill="none" xmlns="http://www.w3.org/2000/svg">
<path d="M8 16C8 13.7909 9.79086 12 12 12C14.2091 12 16 13.7909 16 16H8ZM4 18H20C20.5523 18 21 18.4477 21 19C21 19.5523 20.5523 20 20 20H4C3.44772 20 3 19.5523 3 19C3 18.4477 3.44772 18 4 18Z" fill="currentColor"/>
<path opacity="0.3" d="M19.5 13H21C21.8284 13 22.5 13.6716 22.5 14.5C22.5 15.3284 21.8284 16 21 16H19.5C18.6716 16 18 15.3284 18 14.5C18 13.6716 18.6716 13 19.5 13ZM16.0607 8.87132L17.1213 7.81066C17.7071 7.22487 18.6569 7.22487 19.2426 7.81066C19.8284 8.39645 19.8284 9.34619 19.2426 9.93198L18.182 10.9926C17.5962 11.5784 16.6464 11.5784 16.0607 10.9926C15.4749 10.4069 15.4749 9.45711 16.0607 8.87132ZM3 13H4.5C5.32843 13 6 13.6716 6 14.5C6 15.3284 5.32843 16 4.5 16H3C2.17157 16 1.5 15.3284 1.5 14.5C1.5 13.6716 2.17157 13 3 13ZM12 4.5C12.8284 4.5 13.5 5.17157 13.5 6V7.5C13.5 8.32843 12.8284 9 12 9C11.1716 9 10.5 8.32843 10.5 7.5V6C10.5 5.17157 11.1716 4.5 12 4.5ZM4.81066 7.81066C5.39645 7.22487 6.34619 7.22487 6.93198 7.81066L7.99264 8.87132C8.57843 9.45711 8.57843 10.4069 7.99264 10.9926C7.40685 11.5784 6.45711 11.5784 5.87132 10.9926L4.81066 9.93198C4.22487 9.34619 4.22487 8.39645 4.81066 7.81066Z" fill="currentColor"/>
</svg>
