<svg width="24" height="24" viewBox="0 0 24 24" fill="none" xmlns="http://www.w3.org/2000/svg">
<path d="M8.53513 14C9.22675 12.8044 10.5194 12 12 12C13.4806 12 14.7733 12.8044 15.4649 14H8.53513ZM16 16H8H16ZM4 16H20C20.5523 16 21 16.4477 21 17C21 17.5523 20.5523 18 20 18H4C3.44772 18 3 17.5523 3 17C3 16.4477 3.44772 16 4 16Z" fill="currentColor"/>
<path opacity="0.3" d="M16.0604 8.87132L17.1211 7.81066C17.7069 7.22487 18.6566 7.22487 19.2424 7.81066C19.8282 8.39645 19.8282 9.34619 19.2424 9.93198L18.1818 10.9926C17.596 11.5784 16.6462 11.5784 16.0604 10.9926C15.4746 10.4069 15.4746 9.45711 16.0604 8.87132ZM11.9998 4.5C12.8282 4.5 13.4998 5.17157 13.4998 6V7.5C13.4998 8.32843 12.8282 9 11.9998 9C11.1713 9 10.4998 8.32843 10.4998 7.5V6C10.4998 5.17157 11.1713 4.5 11.9998 4.5ZM4.81043 7.81066C5.39622 7.22487 6.34597 7.22487 6.93175 7.81066L7.99241 8.87132C8.5782 9.45711 8.5782 10.4069 7.99241 10.9926C7.40663 11.5784 6.45688 11.5784 5.87109 10.9926L4.81043 9.93198C4.22465 9.34619 4.22465 8.39645 4.81043 7.81066Z" fill="currentColor"/>
</svg>
