<svg width="24" height="24" viewBox="0 0 24 24" fill="none" xmlns="http://www.w3.org/2000/svg">
<path d="M7 17C9.281 17 11 15.9686 11 15C11 14.0314 9.281 13 7 13C4.719 13 3 14.0314 3 15C3 15.9686 4.719 17 7 17ZM11.5 21.3092C10.6896 22.3101 8.9791 23 7 23C4.23858 23 2 21.6569 2 20C2 17.2642 2 15.5975 2 15C2 13.3431 4.23858 12 7 12C8.9791 12 10.6896 12.6899 11.5 13.6908C12.3104 12.6899 14.0209 12 16 12C18.7614 12 21 13.3431 21 15C21 15.3357 21 17.0024 21 20C21 21.6569 18.7614 23 16 23C14.0209 23 12.3104 22.3101 11.5 21.3092ZM16 17C18.281 17 20 15.9686 20 15C20 14.0314 18.281 13 16 13C13.719 13 12 14.0314 12 15C12 15.9686 13.719 17 16 17Z" fill="currentColor"/>
<path opacity="0.3" fill-rule="evenodd" clip-rule="evenodd" d="M19.6609 2.02095C19.8361 2.52959 19.5657 3.08389 19.0571 3.25903C19.049 3.26181 19.0409 3.26448 19.0327 3.26705L2.33572 8.52921C2.07035 8.61285 1.78665 8.46983 1.69606 8.20675C1.60547 7.94366 1.74098 7.6563 2.00159 7.55882L18.3987 1.42576C18.9026 1.2373 19.4638 1.49298 19.6523 1.99683C19.6552 2.00483 19.6581 2.01287 19.6609 2.02095ZM20.9716 6.55153C21.065 7.0813 20.7113 7.58649 20.1815 7.6799C20.1731 7.68138 20.1646 7.68276 20.1562 7.68402L2.84157 10.2694C2.56638 10.3105 2.30855 10.1249 2.26023 9.85084C2.21191 9.57683 2.3907 9.3142 2.66336 9.25869L19.818 5.76622C20.3452 5.6589 20.8595 5.99922 20.9668 6.52635C20.9685 6.53472 20.9701 6.54312 20.9716 6.55153ZM16.0001 15.9999C15.1716 15.9999 14.5001 15.5522 14.5001 14.9999C14.5001 14.4476 15.1716 13.9999 16.0001 13.9999C16.8285 13.9999 17.5001 14.4476 17.5001 14.9999C17.5001 15.5522 16.8285 15.9999 16.0001 15.9999ZM7.00007 15.9999C6.17164 15.9999 5.50007 15.5522 5.50007 14.9999C5.50007 14.4476 6.17164 13.9999 7.00007 13.9999C7.82849 13.9999 8.50007 14.4476 8.50007 14.9999C8.50007 15.5522 7.82849 15.9999 7.00007 15.9999Z" fill="currentColor"/>
</svg>
