<svg width="24" height="24" viewBox="0 0 24 24" fill="none" xmlns="http://www.w3.org/2000/svg">
<path opacity="0.3" fill-rule="evenodd" clip-rule="evenodd" d="M15.7842 14L12.9778 16.8063L7.82831 11.6569C6.26621 10.0948 6.26621 7.5621 7.82831 6L13.9999 12.1716V8C13.9999 4.68629 16.6862 2 19.9999 2V14H15.7842Z" fill="currentColor"/>
<path fill-rule="evenodd" clip-rule="evenodd" d="M5.5 12H18.5C20.9853 12 23 14.0147 23 16.5C23 18.9853 20.9853 21 18.5 21H5.5C3.01472 21 1 18.9853 1 16.5C1 14.0147 3.01472 12 5.5 12ZM19.5 18C20.3284 18 21 17.3284 21 16.5C21 15.6716 20.3284 15 19.5 15C18.6716 15 18 15.6716 18 16.5C18 17.3284 18.6716 18 19.5 18Z" fill="currentColor"/>
</svg>
