<svg width="24" height="24" viewBox="0 0 24 24" fill="none" xmlns="http://www.w3.org/2000/svg">
<path fill-rule="evenodd" clip-rule="evenodd" d="M7.8352 3.99997C8.22898 5.21241 9.94407 6.12497 12.0002 6.12497C14.0563 6.12497 15.7714 5.21241 16.1652 3.99997H17.2726C17.3449 3.99201 17.4183 3.99189 17.4915 3.99997H17.5002C17.8014 3.99997 18.0715 4.13315 18.2549 4.34384L22.5902 6.84685C23.0685 7.12299 23.2324 7.73458 22.9562 8.21287L21.3 11.0816C21.0239 11.5599 20.4123 11.7238 19.934 11.4476L18.5002 10.6198V20C18.5002 20.5523 18.0525 21 17.5002 21H6.50022C5.94793 21 5.50022 20.5523 5.50022 20V10.6205L4.06755 11.4476C3.58926 11.7238 2.97767 11.5599 2.70152 11.0816L1.04527 8.21287C0.769132 7.73458 0.933007 7.12299 1.4113 6.84685L5.74446 4.3451C5.92781 4.13368 6.1984 3.99997 6.50022 3.99997H6.51C6.58318 3.99189 6.65661 3.99201 6.72894 3.99997H7.8352Z" fill="currentColor"/>
</svg>
