<svg width="24" height="24" viewBox="0 0 24 24" fill="none" xmlns="http://www.w3.org/2000/svg">
<path opacity="0.3" d="M11 6.5C11 9 9 11 6.5 11C4 11 2 9 2 6.5C2 4 4 2 6.5 2C9 2 11 4 11 6.5ZM17.5 2C15 2 13 4 13 6.5C13 9 15 11 17.5 11C20 11 22 9 22 6.5C22 4 20 2 17.5 2ZM6.5 13C4 13 2 15 2 17.5C2 20 4 22 6.5 22C9 22 11 20 11 17.5C11 15 9 13 6.5 13ZM17.5 13C15 13 13 15 13 17.5C13 20 15 22 17.5 22C20 22 22 20 22 17.5C22 15 20 13 17.5 13Z" fill="currentColor"/>
<path d="M17.4999 16C17.3999 16 17.4999 16 17.4999 16L16.6999 15.3C16.0999 14.7 15.6999 13.9 15.5999 13.1C15.4999 12.4 15.4999 11.6 15.5999 10.8C15.6999 9.99999 16.0999 9.19998 16.6999 8.59998L17.3999 7.90002H17.4999C18.2999 7.90002 18.9999 7.20002 18.9999 6.40002C18.9999 5.60002 18.2999 4.90002 17.4999 4.90002C16.6999 4.90002 15.9999 5.60002 15.9999 6.40002V6.5L15.2999 7.20001C14.6999 7.80001 13.8999 8.19999 13.0999 8.29999C12.3999 8.39999 11.5999 8.39999 10.7999 8.29999C9.9999 8.19999 9.19992 7.80001 8.59992 7.20001L7.8999 6.5V6.40002C7.8999 5.60002 7.1999 4.90002 6.3999 4.90002C5.5999 4.90002 4.8999 5.60002 4.8999 6.40002C4.8999 7.20002 5.5999 7.90002 6.3999 7.90002H6.49991L7.19992 8.59998C7.79992 9.19998 8.1999 9.99999 8.2999 10.8C8.3999 11.5 8.3999 12.3 8.2999 13.1C8.1999 13.9 7.79992 14.7 7.19992 15.3L6.49991 16H6.3999C5.5999 16 4.8999 16.7 4.8999 17.5C4.8999 18.3 5.5999 19 6.3999 19C7.1999 19 7.8999 18.3 7.8999 17.5V17.4L8.59992 16.7C9.19992 16.1 9.9999 15.7 10.7999 15.6C11.4999 15.5 12.2999 15.5 13.0999 15.6C13.8999 15.7 14.6999 16.1 15.2999 16.7L15.9999 17.4V17.5C15.9999 18.3 16.6999 19 17.4999 19C18.2999 19 18.9999 18.3 18.9999 17.5C18.9999 16.7 18.2999 16 17.4999 16Z" fill="currentColor"/>
</svg>
