<svg width="24" height="24" viewBox="0 0 24 24" fill="none" xmlns="http://www.w3.org/2000/svg">
<path opacity="0.3" d="M20.3348 15.537C21.7248 14.425 21.5698 12.812 21.5528 11.224C21.4405 9.50899 20.7418 7.88483 19.5738 6.624C18.5501 5.40102 17.2666 4.4216 15.8168 3.757C14.4295 3.26981 12.9701 3.01966 11.4998 3.01701C8.79556 2.83108 6.11977 3.66483 3.9998 5.35398C2.2888 6.72498 1.23081 9.12497 2.68581 11.089C3.22877 11.6881 3.93009 12.1214 4.7088 12.339C5.44783 12.6142 6.24661 12.6888 7.0238 12.555C6.88493 12.9965 6.85058 13.4644 6.92347 13.9215C6.99636 14.3786 7.17449 14.8125 7.4438 15.189C7.73871 15.5299 8.10611 15.8006 8.51911 15.9812C8.93212 16.1619 9.38027 16.2478 9.8308 16.233C10.0737 16.2296 10.3139 16.1807 10.5388 16.089C10.7369 15.9871 10.9286 15.8732 11.1128 15.748C12.1592 15.2831 13.3273 15.1668 14.4448 15.416C15.7793 15.7213 17.1297 15.952 18.4898 16.107C18.7925 16.1438 19.0991 16.1313 19.3978 16.07C19.7443 15.9606 20.0637 15.7789 20.3348 15.537Z" fill="currentColor"/>
<path d="M19.0081 16.114C18.9487 16.6061 18.7935 17.0817 18.5511 17.514C18.2291 18.114 17.5811 18.314 17.1031 18.752C16.4571 19.343 16.5951 20.38 16.6321 21.164C16.6523 21.3437 16.6211 21.5254 16.5421 21.688C16.4336 21.835 16.2752 21.9373 16.0966 21.9758C15.918 22.0143 15.7315 21.9863 15.5721 21.897C15.2578 21.7083 15.0073 21.4296 14.8531 21.097C14.5811 20.607 14.3621 20.085 14.0531 19.612C13.3183 18.7548 12.4202 18.0525 11.4111 17.546C10.9335 17.1942 10.5858 16.6942 10.4221 16.124C10.4591 16.111 10.4991 16.106 10.5361 16.09C10.7337 15.9879 10.9251 15.8741 11.1091 15.749C12.1555 15.2842 13.3235 15.1678 14.4411 15.417C15.7755 15.7223 17.126 15.953 18.4861 16.108C18.6599 16.1191 18.8341 16.1211 19.0081 16.114ZM18.8001 10.278V3C18.8001 2.73478 18.6947 2.48044 18.5072 2.29291C18.3197 2.10537 18.0653 2 17.8001 2C17.5349 2 17.2805 2.10537 17.093 2.29291C16.9054 2.48044 16.8001 2.73478 16.8001 3V10.278C16.4188 10.4981 16.1208 10.8379 15.9523 11.2447C15.7839 11.6514 15.7543 12.1024 15.8682 12.5277C15.9822 12.953 16.2333 13.3287 16.5826 13.5967C16.9319 13.8648 17.3598 14.0101 17.8001 14.0101C18.2404 14.0101 18.6683 13.8648 19.0176 13.5967C19.3669 13.3287 19.618 12.953 19.7319 12.5277C19.8459 12.1024 19.8163 11.6514 19.6478 11.2447C19.4794 10.8379 19.1814 10.4981 18.8001 10.278ZM13.8001 2C13.5349 2 13.2805 2.10537 13.093 2.29291C12.9054 2.48044 12.8001 2.73478 12.8001 3V8.586L12.3121 9.07397C11.8793 8.95363 11.4189 8.98003 11.0027 9.14899C10.5865 9.31794 10.238 9.61994 10.0116 10.0079C9.78514 10.3958 9.69357 10.8478 9.75115 11.2933C9.80873 11.7387 10.0123 12.1526 10.3299 12.4702C10.6475 12.7878 11.0613 12.9913 11.5068 13.0489C11.9523 13.1065 12.4043 13.0149 12.7922 12.7885C13.1801 12.5621 13.4822 12.2136 13.6511 11.7974C13.8201 11.3812 13.8464 10.9207 13.7261 10.488L14.5071 9.70697C14.6946 9.51948 14.8 9.26519 14.8001 9V3C14.8001 2.73478 14.6947 2.48044 14.5072 2.29291C14.3197 2.10537 14.0653 2 13.8001 2ZM9.80005 2C9.53484 2 9.28048 2.10537 9.09295 2.29291C8.90541 2.48044 8.80005 2.73478 8.80005 3V4.586L7.31205 6.07397C6.8793 5.95363 6.41888 5.98004 6.00269 6.14899C5.5865 6.31794 5.23798 6.61994 5.01156 7.00787C4.78514 7.39581 4.69357 7.84781 4.75115 8.29327C4.80873 8.73874 5.01222 9.1526 5.32983 9.47021C5.64745 9.78783 6.0613 9.99131 6.50677 10.0489C6.95224 10.1065 7.40423 10.0149 7.79216 9.78851C8.1801 9.56209 8.48213 9.21355 8.65108 8.79736C8.82003 8.38117 8.8464 7.92073 8.72606 7.48798L10.5071 5.70697C10.6946 5.51948 10.8 5.26519 10.8001 5V3C10.8001 2.73478 10.6947 2.48044 10.5072 2.29291C10.3197 2.10537 10.0653 2 9.80005 2Z" fill="currentColor"/>
</svg>
