<svg width="24" height="24" viewBox="0 0 24 24" fill="none" xmlns="http://www.w3.org/2000/svg">
<path d="M13.9985 12.5339L13 11.9563V5C13 4.73295 12.483 4.0088 12 4C11.4841 3.99061 11 4.71476 11 5V11.9563L10.0015 12.5339C8.77164 13.2453 8 14.5544 8 16C8 18.2091 9.79086 20 12 20C14.2091 20 16 18.2091 16 16C16 14.5544 15.2284 13.2453 13.9985 12.5339ZM18 16C18 19.3137 15.3137 22 12 22C8.68629 22 6 19.3137 6 16C6 13.7792 7.2066 11.8401 9 10.8027V5C9 3.34315 10.3431 2 12 2C13.6569 2 15 3.34315 15 5V10.8027C16.7934 11.8401 18 13.7792 18 16Z" fill="currentColor"/>
</svg>
