<svg width="24" height="24" viewBox="0 0 24 24" fill="none" xmlns="http://www.w3.org/2000/svg">
<path d="M5.29289 6.70711C4.90237 6.31658 4.90237 5.68342 5.29289 5.29289C5.68342 4.90237 6.31658 4.90237 6.70711 5.29289L12.7071 11.2929C13.0857 11.6715 13.0989 12.2811 12.7372 12.6757L7.23715 18.6757C6.86396 19.0828 6.23139 19.1103 5.82427 18.7372C5.41716 18.364 5.38965 17.7314 5.76285 17.3243L10.6159 12.0301L5.29289 6.70711Z" fill="currentColor"/>
<path opacity="0.3" d="M21 17H13C12.4477 17 12 17.4477 12 18C12 18.5523 12.4477 19 13 19H21C21.5523 19 22 18.5523 22 18C22 17.4477 21.5523 17 21 17Z" fill="currentColor"/>
</svg>
