<svg width="24" height="24" viewBox="0 0 24 24" fill="none" xmlns="http://www.w3.org/2000/svg">
<path opacity="0.3" fill-rule="evenodd" clip-rule="evenodd" d="M8.5 8V18C8.5 18.5523 8.05228 19 7.5 19H6.5C5.94772 19 5.5 18.5523 5.5 18V8H2C1.44772 8 1 7.55228 1 7V6C1 5.44772 1.44772 5 2 5H12C12.5523 5 13 5.44772 13 6V7C13 7.55228 12.5523 8 12 8H8.5Z" fill="currentColor"/>
<path fill-rule="evenodd" clip-rule="evenodd" d="M20 16.5858L21.2929 15.2929C21.6834 14.9024 22.3166 14.9024 22.7071 15.2929C23.0976 15.6834 23.0976 16.3166 22.7071 16.7071L19.7071 19.7071C19.3166 20.0976 18.6834 20.0976 18.2929 19.7071L15.2929 16.7071C14.9024 16.3166 14.9024 15.6834 15.2929 15.2929C15.6834 14.9024 16.3166 14.9024 16.7071 15.2929L18 16.5858V7.41421L16.7071 8.70711C16.3166 9.09763 15.6834 9.09763 15.2929 8.70711C14.9024 8.31658 14.9024 7.68342 15.2929 7.29289L18.2929 4.29289C18.6834 3.90237 19.3166 3.90237 19.7071 4.29289L22.7071 7.29289C23.0976 7.68342 23.0976 8.31658 22.7071 8.70711C22.3166 9.09763 21.6834 9.09763 21.2929 8.70711L20 7.41421V16.5858Z" fill="currentColor"/>
</svg>
