<svg width="24" height="24" viewBox="0 0 24 24" fill="none" xmlns="http://www.w3.org/2000/svg">
<path opacity="0.3" d="M19.1998 15.9C19.1998 17.1 18.8998 18.1 18.2998 19.1C17.6998 20 16.7998 20.8 15.6998 21.3C14.4998 21.8 13.1998 22.1 11.5998 22.1C9.69984 22.1 8.09982 21.7 6.89983 21C5.99983 20.5 5.29982 19.8 4.79982 18.9C4.49982 18.5 4.29983 18 4.09983 17.5C3.69983 15.7 5.99983 14.9 7.19983 16C7.69983 16.5 7.89983 17.2 8.19983 17.7C8.49984 18.1 8.89983 18.5 9.39983 18.7C9.89983 19 10.5998 19.1 11.3998 19.1C12.5998 19.1 13.4998 18.8 14.1998 18.3C14.8998 17.8 15.2998 17.1 15.2998 16.3C15.2998 15.7 15.0998 15.1 14.6998 14.7C14.2998 14.3 13.7998 14 13.1998 13.8C12.5998 13.6 11.7998 13.4 10.6998 13.1C9.29983 12.8 8.09983 12.4 7.19983 12C6.29983 11.6 5.49983 11 4.99983 10.2C4.39983 9.39995 4.19983 8.50002 4.19983 7.40002C4.19983 6.30002 4.49984 5.39998 5.09984 4.59998C5.69984 3.79998 6.49984 3.09995 7.59983 2.69995C8.69983 2.29995 9.99981 2 11.4998 2C12.6998 2 13.6998 2.10002 14.5998 2.40002C15.4998 2.70002 16.1998 3.09998 16.7998 3.59998C17.6998 4.39998 18.5998 5.49995 17.9998 6.69995C17.6998 7.19995 17.1998 7.60005 16.5998 7.80005C16.0998 7.90005 15.5998 7.8 15.2998 7.5C15.1998 7.4 14.9998 7.19998 14.8998 7.09998C14.4998 6.49998 14.1998 5.90002 13.5998 5.40002C13.0998 5.00002 12.2998 4.80005 11.1998 4.80005C10.1998 4.80005 9.39982 5 8.79982 5.5C8.19982 6 7.89983 6.49998 7.89983 7.09998C7.89983 7.49998 7.99983 7.79998 8.19983 8.09998C8.39983 8.39998 8.69984 8.60005 9.09984 8.80005C9.49984 9.00005 9.79983 9.20005 10.1998 9.30005C10.5998 9.40005 11.1998 9.60005 12.0998 9.80005C13.1998 10.1 14.1998 10.3 15.0998 10.6C15.9998 10.9 16.6998 11.3 17.3998 11.7C17.9998 12.1 18.4998 12.7 18.8998 13.4C18.9998 14.1 19.1998 14.9 19.1998 15.9Z" fill="currentColor"/>
<path d="M3 12H20" stroke="currentColor" stroke-width="3" stroke-miterlimit="10" stroke-linecap="round" stroke-linejoin="round"/>
</svg>
