<svg width="24" height="24" viewBox="0 0 24 24" fill="none" xmlns="http://www.w3.org/2000/svg">
<path fill-rule="evenodd" clip-rule="evenodd" d="M11.6734 8.33074L14.9992 6.09977L14.1212 5.22178C13.7307 4.83126 13.7307 4.1981 14.1212 3.80757L15.5355 2.39336C15.926 2.00283 16.5592 2.00283 16.9497 2.39336L22.6065 8.05021C22.9971 8.44074 22.9971 9.0739 22.6065 9.46443L21.1923 10.8786C20.8018 11.2692 20.1686 11.2692 19.7781 10.8786L18.9002 10.0007L16.6692 13.3265C16.9263 14.2523 16.9984 15.232 16.8664 16.2092L16.4344 19.4058C16.3604 19.9531 15.8568 20.3368 15.3095 20.2629C15.0925 20.2335 14.8911 20.1338 14.7363 19.979L5.02092 10.2636C4.6304 9.87307 4.6304 9.2399 5.02092 8.84938C5.17575 8.69455 5.37712 8.59482 5.59411 8.56549L8.79067 8.13353C9.76791 8.00147 10.7476 8.07355 11.6734 8.33074Z" fill="currentColor"/>
<path opacity="0.3" fill-rule="evenodd" clip-rule="evenodd" d="M8.81787 14.0607L4.77726 18.1013L4.22168 20.7782L6.89858 20.2226L10.9392 16.182L8.81787 14.0607Z" fill="currentColor"/>
</svg>
