<svg width="24" height="24" viewBox="0 0 24 24" fill="none" xmlns="http://www.w3.org/2000/svg">
<path opacity="0.3" d="M12 22C17.5228 22 22 17.5228 22 12C22 6.47715 17.5228 2 12 2C6.47715 2 2 6.47715 2 12C2 17.5228 6.47715 22 12 22Z" fill="currentColor"/>
<path fill-rule="evenodd" clip-rule="evenodd" d="M12.4208 17.1584L15.4573 11.0854C15.6426 10.7149 15.4924 10.2644 15.1219 10.0792C15.0178 10.0271 14.9029 10 14.7865 10H12V7.17706C12 6.76285 11.6642 6.42706 11.25 6.42706C10.9659 6.42706 10.7062 6.58756 10.5792 6.84165L7.54272 12.9146C7.35748 13.2851 7.50765 13.7356 7.87813 13.9208C7.98227 13.9729 8.09711 14 8.21354 14H11V16.823C11 17.2372 11.3358 17.573 11.75 17.573C12.0341 17.573 12.2938 17.4125 12.4208 17.1584Z" fill="currentColor"/>
</svg>
