<svg width="24" height="24" viewBox="0 0 24 24" fill="none" xmlns="http://www.w3.org/2000/svg">
<path fill-rule="evenodd" clip-rule="evenodd" d="M16.3741 19.9389L22.2227 11.166C22.4525 10.8213 22.3593 10.3557 22.0147 10.1259C21.8915 10.0438 21.7467 9.99997 21.5987 9.99997H17.0001V4.47705C17.0001 4.06284 16.6643 3.72705 16.2501 3.72705C15.9993 3.72705 15.7651 3.85238 15.626 4.06103L9.77741 12.8339C9.54764 13.1786 9.64078 13.6442 9.98542 13.874C10.1086 13.9561 10.2534 14 10.4014 14H15.0001V19.5229C15.0001 19.9371 15.3358 20.2729 15.7501 20.2729C16.0008 20.2729 16.235 20.1476 16.3741 19.9389Z" fill="currentColor"/>
<path opacity="0.3" fill-rule="evenodd" clip-rule="evenodd" d="M4.5 5H9.5C10.3284 5 11 5.67157 11 6.5C11 7.32843 10.3284 8 9.5 8H4.5C3.67157 8 3 7.32843 3 6.5C3 5.67157 3.67157 5 4.5 5ZM4.5 17H9.5C10.3284 17 11 17.6716 11 18.5C11 19.3284 10.3284 20 9.5 20H4.5C3.67157 20 3 19.3284 3 18.5C3 17.6716 3.67157 17 4.5 17ZM2.5 11H6.5C7.32843 11 8 11.6716 8 12.5C8 13.3284 7.32843 14 6.5 14H2.5C1.67157 14 1 13.3284 1 12.5C1 11.6716 1.67157 11 2.5 11Z" fill="currentColor"/>
</svg>
