<svg width="24" height="24" viewBox="0 0 24 24" fill="none" xmlns="http://www.w3.org/2000/svg">
<path opacity="0.3" fill-rule="evenodd" clip-rule="evenodd" d="M17.2284 0.20459C17.0948 1.04357 17.1735 1.92789 17.4999 2.77804C18.4842 5.34241 21.351 6.63004 23.9186 5.66963C23.6472 7.37477 22.499 8.89265 20.7711 9.55592C18.1931 10.5455 15.301 9.25786 14.3114 6.67985C13.3218 4.10184 14.6094 1.20972 17.1874 0.220112C17.2011 0.214874 17.2147 0.2097 17.2284 0.20459ZM10.0889 24V20H7.8667L12.3111 14V18H14.5334L10.0889 24Z" fill="currentColor"/>
<path fill-rule="evenodd" clip-rule="evenodd" d="M5.74715 14.0426C4.0941 12.974 3 11.1148 3 9C3 5.68629 5.68629 3 9 3C11.7958 3 14.1449 4.91216 14.811 7.5H17.25C19.3211 7.5 21 9.17893 21 11.25C21 13.3211 19.3211 15 17.25 15H8.25C7.28818 15 6.41093 14.6379 5.74715 14.0426Z" fill="currentColor"/>
</svg>
