<svg width="24" height="24" viewBox="0 0 24 24" fill="none" xmlns="http://www.w3.org/2000/svg">
<path fill-rule="evenodd" clip-rule="evenodd" d="M12.3741 19.9389L18.2227 11.166C18.4525 10.8213 18.3593 10.3557 18.0147 10.1259C17.8915 10.0438 17.7467 9.99997 17.5987 9.99997H13.0001V4.47705C13.0001 4.06284 12.6643 3.72705 12.2501 3.72705C11.9993 3.72705 11.7651 3.85238 11.626 4.06103L5.77741 12.8339C5.54764 13.1786 5.64078 13.6442 5.98542 13.874C6.10862 13.9561 6.25338 14 6.40145 14H11.0001V19.5229C11.0001 19.9371 11.3358 20.2729 11.7501 20.2729C12.0008 20.2729 12.235 20.1476 12.3741 19.9389Z" fill="currentColor"/>
</svg>
