<svg width="24" height="24" viewBox="0 0 24 24" fill="none" xmlns="http://www.w3.org/2000/svg">
<path opacity="0.3" fill-rule="evenodd" clip-rule="evenodd" d="M4.05024 17.4851L2.60066 16.0355C2.21014 15.645 2.21014 15.0118 2.60066 14.6213L6.1362 11.0857L7.55041 12.4999C7.94093 12.8905 8.5741 12.8905 8.96462 12.4999C9.35515 12.1094 9.35515 11.4763 8.96462 11.0857L7.55041 9.67151L14.6215 2.60045C15.012 2.20992 15.6452 2.20992 16.0357 2.60045L17.4853 4.05002C16.8422 5.02071 16.9482 6.34141 17.8035 7.19664C18.6587 8.05187 19.9794 8.15794 20.9501 7.51483L22.3997 8.96441C22.7902 9.35493 22.7902 9.9881 22.3997 10.3786L15.3286 17.4497L13.9144 16.0355C13.5238 15.645 12.8907 15.645 12.5002 16.0355C12.1096 16.426 12.1096 17.0592 12.5002 17.4497L13.9144 18.8639L10.3788 22.3994C9.98831 22.79 9.35515 22.79 8.96462 22.3994L7.51505 20.9499C8.15815 19.9792 8.05209 18.6585 7.19686 17.8032C6.34162 16.948 5.02092 16.8419 4.05024 17.4851ZM9.67173 13.207C9.2812 13.5976 9.2812 14.2307 9.67173 14.6213L10.3788 15.3284C10.7694 15.7189 11.4025 15.7189 11.793 15.3284C12.1836 14.9378 12.1836 14.3047 11.793 13.9142L11.0859 13.207C10.6954 12.8165 10.0623 12.8165 9.67173 13.207Z" fill="currentColor"/>
</svg>
