<svg width="24" height="24" viewBox="0 0 24 24" fill="none" xmlns="http://www.w3.org/2000/svg">
<path opacity="0.3" fill-rule="evenodd" clip-rule="evenodd" d="M12 21C7.58172 21 4 17.4183 4 13C4 8.58172 7.58172 5 12 5C16.4183 5 20 8.58172 20 13C20 17.4183 16.4183 21 12 21Z" fill="currentColor"/>
<path fill-rule="evenodd" clip-rule="evenodd" d="M13 5.06189C12.6724 5.02104 12.3387 5 12 5C11.6613 5 11.3276 5.02104 11 5.06189V4H10C9.44772 4 9 3.55228 9 3C9 2.44772 9.44772 2 10 2H14C14.5523 2 15 2.44772 15 3C15 3.55228 14.5523 4 14 4H13V5.06189Z" fill="currentColor"/>
<path fill-rule="evenodd" clip-rule="evenodd" d="M16.71 6.53282L17.5356 5.7072C17.9261 5.31668 18.5593 5.31668 18.9498 5.7072C19.3403 6.09772 19.3403 6.73089 18.9498 7.12141L18.1672 7.90402C17.7408 7.38864 17.2511 6.9276 16.71 6.53282Z" fill="currentColor"/>
<path fill-rule="evenodd" clip-rule="evenodd" d="M11.9631 7.5H12.0371C12.2984 7.5 12.5156 7.70115 12.5356 7.96165L12.9587 13.4617C12.9799 13.737 12.7738 13.9773 12.4985 13.9985C12.4858 13.9995 12.473 14 12.4602 14H11.54C11.2639 14 11.04 13.7761 11.04 13.5C11.04 13.4872 11.0405 13.4744 11.0415 13.4617L11.4646 7.96165C11.4846 7.70115 11.7018 7.5 11.9631 7.5Z" fill="currentColor"/>
</svg>
