<svg width="24" height="24" viewBox="0 0 24 24" fill="none" xmlns="http://www.w3.org/2000/svg">
<path fill-rule="evenodd" clip-rule="evenodd" d="M10.9631 7.5H11.0476C11.3044 7.5 11.5195 7.69465 11.5451 7.95025L12.0001 12.5L15.2481 14.356C15.4039 14.4451 15.5001 14.6107 15.5001 14.7902V15C15.5001 15.2109 15.3291 15.3819 15.1182 15.3819C15.0842 15.3819 15.0504 15.3774 15.0177 15.3684L10.3987 14.1087C10.1674 14.0456 10.0134 13.8271 10.0318 13.588L10.4646 7.96165C10.4846 7.70115 10.7018 7.5 10.9631 7.5Z" fill="currentColor"/>
<path opacity="0.3" fill-rule="evenodd" clip-rule="evenodd" d="M7.3898 2.83497C8.65217 2.29745 10.0413 2.00002 11.5 2.00002C17.299 2.00002 22 6.70103 22 12.5C22 18.299 17.299 23 11.5 23C5.70101 23 1 18.299 1 12.5C1 11.5151 1.13559 10.562 1.38913 9.65807L3.31481 10.1982C3.10672 10.9401 3 11.7119 3 12.5C3 17.1944 6.80558 21 11.5 21C16.1944 21 20 17.1944 20 12.5C20 7.8056 16.1944 4.00002 11.5 4.00002C10.5488 4.00002 9.62236 4.15594 8.74872 4.45448L9.93948 5.87357C10.0088 5.95619 10.0496 6.059 10.0557 6.16668C10.0713 6.44238 9.86045 6.67854 9.58475 6.69417L4.71778 6.96997C4.66931 6.97272 4.6207 6.96839 4.57348 6.95713C4.30487 6.89306 4.13907 6.62337 4.20314 6.35476L5.33164 1.62363C5.35654 1.51922 5.41438 1.42561 5.4966 1.35661C5.70814 1.17911 6.02352 1.2067 6.20102 1.41824L7.3898 2.83497Z" fill="currentColor"/>
</svg>
