<svg width="24" height="24" viewBox="0 0 24 24" fill="none" xmlns="http://www.w3.org/2000/svg">
<path fill-rule="evenodd" clip-rule="evenodd" d="M22 11.5C22 12.3284 21.3284 13 20.5 13H3.5C2.6716 13 2 12.3284 2 11.5C2 10.6716 2.6716 10 3.5 10H20.5C21.3284 10 22 10.6716 22 11.5Z" fill="currentColor"/>
<path opacity="0.5" d="M17.5 17H6.5C5.67157 17 5 17.6716 5 18.5C5 19.3284 5.67157 20 6.5 20H17.5C18.3284 20 19 19.3284 19 18.5C19 17.6716 18.3284 17 17.5 17Z" fill="currentColor"/>
<path opacity="0.5" d="M14.5 3H9.5C8.67157 3 8 3.67157 8 4.5C8 5.32843 8.67157 6 9.5 6H14.5C15.3284 6 16 5.32843 16 4.5C16 3.67157 15.3284 3 14.5 3Z" fill="currentColor"/>
</svg>
