<svg width="24" height="24" viewBox="0 0 24 24" fill="none" xmlns="http://www.w3.org/2000/svg">
<path opacity="0.3" d="M17 1H7C6.44772 1 6 1.44772 6 2V4C6 4.55228 6.44772 5 7 5H17C17.5523 5 18 4.55228 18 4V2C18 1.44772 17.5523 1 17 1Z" fill="currentColor"/>
<path fill-rule="evenodd" clip-rule="evenodd" d="M17.8608 12.8865C17.952 13.4062 18 13.9461 18 14.5C18 18.6421 15.3137 22 12 22C8.68629 22 6 18.6421 6 14.5C6 13.9461 6.04803 13.4062 6.13918 12.8865L6.78101 7.75193C6.90612 6.75107 7.75692 6 8.76556 6H15.2344C16.2431 6 17.0939 6.75107 17.219 7.75193L17.8608 12.8865ZM12 20C14.2091 20 16 17.7614 16 15C16 12.2386 14.2091 10 12 10C9.79086 10 8 12.2386 8 15C8 17.7614 9.79086 20 12 20Z" fill="currentColor"/>
<path opacity="0.3" fill-rule="evenodd" clip-rule="evenodd" d="M11 14H13C13.2761 14 13.5 14.2239 13.5 14.5V15.5C13.5 16.3284 12.8284 17 12 17C11.1716 17 10.5 16.3284 10.5 15.5V14.5C10.5 14.2239 10.7239 14 11 14Z" fill="currentColor"/>
</svg>
