<svg width="24" height="24" viewBox="0 0 24 24" fill="none" xmlns="http://www.w3.org/2000/svg">
<path fill-rule="evenodd" clip-rule="evenodd" d="M15.9499 3.80771L13.0247 6.73284C12.2437 7.51389 12.2437 8.78022 13.0247 9.56127L14.4389 10.9755C15.22 11.7565 16.4863 11.7565 17.2674 10.9755L20.1925 8.05035C20.7342 10.0449 20.2297 12.2558 18.6747 13.8108C16.8454 15.64 14.1087 16.0156 11.8841 14.9445L6.75748 20.0712C5.97643 20.8522 4.7101 20.8522 3.92905 20.0712C3.148 19.2901 3.148 18.0238 3.92905 17.2427L9.05568 12.1161C7.98459 9.89154 8.36017 7.15476 10.1894 5.32554C11.7444 3.7705 13.9553 3.26599 15.9499 3.80771Z" fill="currentColor"/>
<path opacity="0.3" fill-rule="evenodd" clip-rule="evenodd" d="M16.6571 5.92888L18.0713 7.34309C18.4618 7.73362 18.4618 8.36678 18.0713 8.75731L16.6916 10.137C16.3011 10.5275 15.6679 10.5275 15.2774 10.137L13.8632 8.72277C13.4727 8.33224 13.4727 7.69908 13.8632 7.30855L15.2429 5.92888C15.6334 5.53836 16.2666 5.53836 16.6571 5.92888Z" fill="currentColor"/>
</svg>
