<svg width="24" height="24" viewBox="0 0 24 24" fill="none" xmlns="http://www.w3.org/2000/svg">
<path fill-rule="evenodd" clip-rule="evenodd" d="M3 5H21C21.5523 5 22 5.44772 22 6V17C22 17.5523 21.5523 18 21 18H3C2.44772 18 2 17.5523 2 17V6C2 5.44772 2.44772 5 3 5ZM9.632 10.066H11.032V9.044H7.035V10.066H8.435V14H9.632V10.066ZM14.935 14L16.846 9.044H15.523L14.382 12.558H14.354L13.206 9.044H11.862L13.738 14H14.935Z" fill="currentColor"/>
<path opacity="0.3" d="M20.5 19H3.5C3.22386 19 3 19.2239 3 19.5C3 19.7761 3.22386 20 3.5 20H20.5C20.7761 20 21 19.7761 21 19.5C21 19.2239 20.7761 19 20.5 19Z" fill="currentColor"/>
</svg>
