<svg width="24" height="24" viewBox="0 0 24 24" fill="none" xmlns="http://www.w3.org/2000/svg">
<path fill-rule="evenodd" clip-rule="evenodd" d="M11 12H2V11C2 9.34315 3.34315 8 5 8H8C9.65685 8 11 9.34315 11 11V12ZM11 14V20C11 20.5523 10.5523 21 10 21H3C2.44772 21 2 20.5523 2 20V14H11Z" fill="currentColor"/>
<path opacity="0.3" fill-rule="evenodd" clip-rule="evenodd" d="M22 12H13V11C13 9.34315 14.3431 8 16 8H19C20.6569 8 22 9.34315 22 11V12ZM22 14V20C22 20.5523 21.5523 21 21 21H14C13.4477 21 13 20.5523 13 20V14H22ZM5 3H8C8.55228 3 9 3.44772 9 4V5C9 5.55228 8.55228 6 8 6H5C4.44772 6 4 5.55228 4 5V4C4 3.44772 4.44772 3 5 3ZM16 3H19C19.5523 3 20 3.44772 20 4V5C20 5.55228 19.5523 6 19 6H16C15.4477 6 15 5.55228 15 5V4C15 3.44772 15.4477 3 16 3Z" fill="currentColor"/>
</svg>
