<svg width="24" height="24" viewBox="0 0 24 24" fill="none" xmlns="http://www.w3.org/2000/svg">
<path fill-rule="evenodd" clip-rule="evenodd" d="M12.1199 19.16C8.7799 19.16 6.3999 16.98 6.3999 13.48V4.80005H8.7199V13.54C8.7199 15.74 10.0999 16.96 12.1199 16.96C14.1399 16.96 15.4999 15.74 15.4999 13.54V4.80005H17.8199V13.48C17.8199 16.98 15.4599 19.16 12.1199 19.16Z" fill="currentColor"/>
<path opacity="0.3" d="M19 21H5C4.44772 21 4 21.4477 4 22C4 22.5523 4.44772 23 5 23H19C19.5523 23 20 22.5523 20 22C20 21.4477 19.5523 21 19 21Z" fill="currentColor"/>
</svg>
