<svg width="24" height="24" viewBox="0 0 24 24" fill="none" xmlns="http://www.w3.org/2000/svg">
<path d="M21.4452 17.7911C21.4452 16.9707 21.621 13.7334 19.0673 11.1651C17.3486 9.43656 14.7763 9.13676 11.7001 9.00004V4.69312C11.7001 4.2789 11.3643 3.94312 10.9501 3.94312C10.7638 3.94312 10.5842 4.01246 10.4462 4.13765L3.30613 10.6153C2.99935 10.8936 2.97628 11.3679 3.25459 11.6747C3.2692 11.6908 3.2845 11.7063 3.30045 11.721L10.4405 18.3335C10.7444 18.615 11.219 18.5968 11.5004 18.2928C11.6288 18.1542 11.7001 17.9722 11.7001 17.7832V13.5C13.6533 13.5538 15.0445 13.678 16.3085 14.0801C18.1286 14.6591 19.5351 16.3019 20.5282 19.0084L20.5282 19.0084C20.6365 19.3037 20.9177 19.5 21.2323 19.5H21.4501C21.4501 19.0069 21.4452 18.2256 21.4452 17.7911Z" fill="currentColor"/>
</svg>
