<svg width="24" height="24" viewBox="0 0 24 24" fill="none" xmlns="http://www.w3.org/2000/svg">
<mask id="mask0_1395_41184" style="mask-type:alpha" maskUnits="userSpaceOnUse" x="0" y="0" width="24" height="24">
<path d="M0 0H24V24H0V0Z" fill="currentColor"/>
</mask>
<g mask="url(#mask0_1395_41184)">
<path fill-rule="evenodd" clip-rule="evenodd" d="M15.6275 4.55882L14.4694 6.29594C13.928 5.51297 13.0239 5 12 5C10.3431 5 9 6.34315 9 8V10H14H17H18C19.1046 10 20 10.8954 20 12V18C20 19.1046 19.1046 20 18 20H6C4.89543 20 4 19.1046 4 18V12C4 10.8954 4.89543 10 6 10H7V8C7 5.23858 9.23858 3 12 3C13.4281 3 14.7163 3.59871 15.6275 4.55882Z" fill="currentColor"/>
</g>
</svg>
