<svg width="24" height="24" viewBox="0 0 24 24" fill="none" xmlns="http://www.w3.org/2000/svg">
<g clip-path="url(#clip0_1692_34745)">
<path d="M11.2423 19.2426C10.8517 18.8521 10.8517 18.2189 11.2423 17.8284L18.3133 10.7573C18.7039 10.3668 19.337 10.3668 19.7275 10.7573C20.1181 11.1479 20.1181 11.781 19.7275 12.1716L12.6565 19.2426C12.266 19.6332 11.6328 19.6332 11.2423 19.2426Z" fill="currentColor"/>
<path opacity="0.4" d="M14.0709 17.8285C13.6804 18.2191 13.0472 18.2191 12.6567 17.8285L9.12113 14.293C8.7306 13.9025 8.7306 13.2693 9.12113 12.8788C9.51165 12.4883 10.1448 12.4883 10.5353 12.8788L14.0709 16.4143C14.4614 16.8048 14.4614 17.438 14.0709 17.8285Z" fill="currentColor"/>
<path d="M23.5352 22.5356C23.1447 22.9261 22.5115 22.9261 22.121 22.5356L19.9997 20.4142L21.4139 19L23.5352 21.1214C23.9258 21.5119 23.9258 22.145 23.5352 22.5356Z" fill="currentColor"/>
<path d="M3.32861 4.74261L1.20729 2.62129C0.816769 2.23077 0.816768 1.59761 1.20729 1.20708C1.59782 0.816557 2.23098 0.816557 2.62151 1.20708L4.74283 3.3284L3.32861 4.74261Z" fill="currentColor"/>
<path opacity="0.4" d="M18.3136 13.5857C17.923 13.9763 17.2899 13.9763 16.8993 13.5857L13.3638 10.0502C12.9733 9.65968 12.9733 9.02652 13.3638 8.63599C13.7543 8.24547 14.3875 8.24547 14.778 8.63599L18.3136 12.1715C18.7041 12.5621 18.7041 13.1952 18.3136 13.5857Z" fill="currentColor"/>
<path opacity="0.4" d="M12.6567 19.2426L19.7278 12.1715L21.142 13.5858C22.7041 15.1479 22.7041 17.6805 21.142 19.2426L19.7278 20.6568C18.1657 22.2189 15.633 22.2189 14.071 20.6568L12.6567 19.2426Z" fill="currentColor"/>
<path d="M13.435 4.46434C13.8255 4.85487 13.8255 5.48803 13.435 5.87855L6.36391 12.9496C5.97339 13.3401 5.34023 13.3401 4.9497 12.9496C4.55918 12.5591 4.55918 11.9259 4.9497 11.5354L12.0208 4.46434C12.4113 4.07382 13.0445 4.07382 13.435 4.46434Z" fill="currentColor"/>
<path opacity="0.4" d="M12.021 4.46436L4.94993 11.5354L3.53571 10.1212C1.97362 8.55911 1.97362 6.02645 3.53571 4.46435L4.94993 3.05014C6.51203 1.48804 9.04469 1.48804 10.6068 3.05014L12.021 4.46436Z" fill="currentColor"/>
</g>
<defs>
<clipPath id="clip0_1692_34745">
<rect width="24" height="24" fill="currentColor"/>
</clipPath>
</defs>
</svg>
