<svg width="24" height="24" viewBox="0 0 24 24" fill="none" xmlns="http://www.w3.org/2000/svg">
<path opacity="0.3" d="M13 11C13 10.4477 12.5523 10 12 10C11.4477 10 11 10.4477 11 11V19C11 19.5523 11.4477 20 12 20C12.5523 20 13 19.5523 13 19V11Z" fill="currentColor"/>
<path d="M6.70711 12.7071C6.31658 13.0976 5.68342 13.0976 5.29289 12.7071C4.90237 12.3166 4.90237 11.6834 5.29289 11.2929L11.2929 5.29289C11.6715 4.91432 12.2811 4.90107 12.6757 5.26285L18.6757 10.7628C19.0828 11.136 19.1103 11.7686 18.7372 12.1757C18.364 12.5828 17.7314 12.6103 17.3243 12.2372L12.0301 7.38414L6.70711 12.7071Z" fill="currentColor"/>
</svg>
