<svg width="24" height="24" viewBox="0 0 24 24" fill="none" xmlns="http://www.w3.org/2000/svg">
<path opacity="0.3" d="M8.8181 7.90373C8.42757 7.51321 7.79441 7.51321 7.40388 7.90373C7.01336 8.29426 7.01336 8.92742 7.40388 9.31795L15.8892 17.8032C16.2797 18.1938 16.9129 18.1938 17.3034 17.8032C17.6939 17.4127 17.6939 16.7795 17.3034 16.389L8.8181 7.90373Z" fill="currentColor"/>
<path d="M8.40381 16.3891C8.40381 16.9414 7.95609 17.3891 7.40381 17.3891C6.85152 17.3891 6.40381 16.9414 6.40381 16.3891V7.90386C6.40381 7.36847 6.82549 6.92806 7.36037 6.90481L15.4921 6.55125C16.0439 6.52726 16.5106 6.95511 16.5346 7.50687C16.5586 8.05864 16.1307 8.52538 15.579 8.54937L8.40381 8.86133V16.3891Z" fill="currentColor"/>
</svg>
