<svg width="24" height="24" viewBox="0 0 24 24" fill="none" xmlns="http://www.w3.org/2000/svg">
<path opacity="0.3" d="M16.5963 9.3181C16.9868 8.92757 16.9868 8.29441 16.5963 7.90388C16.2057 7.51336 15.5726 7.51336 15.1821 7.90388L6.69677 16.3892C6.30625 16.7797 6.30625 17.4129 6.69677 17.8034C7.0873 18.1939 7.72046 18.1939 8.11099 17.8034L16.5963 9.3181Z" fill="currentColor"/>
<path d="M8.11084 8.90381C7.55855 8.90381 7.11084 8.45609 7.11084 7.90381C7.11084 7.35152 7.55855 6.90381 8.11084 6.90381H16.5961C17.1315 6.90381 17.5719 7.32549 17.5952 7.86037L17.9487 15.9921C17.9727 16.5439 17.5449 17.0106 16.9931 17.0346C16.4413 17.0586 15.9746 16.6307 15.9506 16.079L15.6387 8.90381H8.11084Z" fill="currentColor"/>
</svg>
