<svg width="24" height="24" viewBox="0 0 24 24" fill="none" xmlns="http://www.w3.org/2000/svg">
<path opacity="0.3" d="M5.85714 2H13.7364C14.0911 2 14.4343 2.12568 14.7051 2.35474L19.4687 6.38394C19.8057 6.66895 20 7.08788 20 7.5292V20.0833C20 21.8739 19.9796 22 18.1429 22H5.85714C4.02045 22 4 21.8739 4 20.0833V3.91667C4 2.12612 4.02045 2 5.85714 2Z" fill="currentColor"/>
<path fill-rule="evenodd" clip-rule="evenodd" d="M8.95118 13.8154H10.9077V15.823C10.9077 16.0992 11.1315 16.323 11.4077 16.323H12.431C12.7071 16.323 12.931 16.0992 12.931 15.823V13.8154H14.8874C15.1636 13.8154 15.3874 13.5915 15.3874 13.3154C15.3874 13.1971 15.3455 13.0826 15.269 12.9923L12.3009 9.48662C12.1225 9.27587 11.807 9.24967 11.5962 9.42811C11.5751 9.44596 11.5556 9.46553 11.5377 9.48662L8.56959 12.9923C8.39115 13.203 8.41735 13.5185 8.6281 13.697C8.71839 13.7734 8.83287 13.8154 8.95118 13.8154Z" fill="currentColor"/>
</svg>
