<svg width="24" height="24" viewBox="0 0 24 24" fill="none" xmlns="http://www.w3.org/2000/svg">
<path opacity="0.3" fill-rule="evenodd" clip-rule="evenodd" d="M12.7037 14L15.6667 10H13.4444V6L9 12H11.2222V14H6C5.44772 14 5 13.5523 5 13V3C5 2.44772 5.44772 2 6 2H18C18.5523 2 19 2.44772 19 3V13C19 13.5523 18.5523 14 18 14H12.7037Z" fill="currentColor"/>
<path fill-rule="evenodd" clip-rule="evenodd" d="M9.80429 10.9142L9 11.9999H11.2222V15.9999L15.6667 9.99994H15.4615L20.2073 6.57248C20.4311 6.4108 20.7437 6.46121 20.9053 6.68507C20.9669 6.77028 21 6.87271 21 6.97782V16.9999C21 18.1045 20.1046 18.9999 19 18.9999H5C3.89543 18.9999 3 18.1045 3 16.9999V6.97782C3 6.70168 3.22386 6.47782 3.5 6.47782C3.60511 6.47782 3.70754 6.51094 3.79275 6.57248L9.80429 10.9142Z" fill="currentColor"/>
</svg>
