<svg width="24" height="24" viewBox="0 0 24 24" fill="none" xmlns="http://www.w3.org/2000/svg">
<path d="M18 9H6C4.89543 9 4 9.89543 4 11V16C4 17.1046 4.89543 18 6 18H18C19.1046 18 20 17.1046 20 16V11C20 9.89543 19.1046 9 18 9Z" fill="currentColor"/>
<path opacity="0.3" fill-rule="evenodd" clip-rule="evenodd" d="M7 3H17V9H7V3ZM9 5V7H11V5H9ZM13 5V7H15V5H13Z" fill="currentColor"/>
<path opacity="0.3" fill-rule="evenodd" clip-rule="evenodd" d="M10 18H14V20C14 20.5523 13.5523 21 13 21H11C10.4477 21 10 20.5523 10 20V18Z" fill="currentColor"/>
</svg>
