<svg width="24" height="24" viewBox="0 0 24 24" fill="none" xmlns="http://www.w3.org/2000/svg">
<path fill-rule="evenodd" clip-rule="evenodd" d="M12 3C12.5523 3 13 3.44772 13 4V5C13 5.55228 12.5523 6 12 6C11.4477 6 11 5.55228 11 5V4C11 3.44772 11.4477 3 12 3ZM12 8C12.5523 8 13 8.44772 13 9V10C13 10.5523 12.5523 11 12 11C11.4477 11 11 10.5523 11 10V9C11 8.44772 11.4477 8 12 8ZM12 13C12.5523 13 13 13.4477 13 14V15C13 15.5523 12.5523 16 12 16C11.4477 16 11 15.5523 11 15V14C11 13.4477 11.4477 13 12 13ZM12 18C12.5523 18 13 18.4477 13 19V20C13 20.5523 12.5523 21 12 21C11.4477 21 11 20.5523 11 20V19C11 18.4477 11.4477 18 12 18Z" fill="currentColor"/>
<path opacity="0.3" fill-rule="evenodd" clip-rule="evenodd" d="M21 9.0403V14.9597C21 15.2358 20.7761 15.4597 20.5 15.4597C20.3865 15.4597 20.2763 15.421 20.1877 15.3501L16.488 12.3904C16.2724 12.2179 16.2375 11.9033 16.41 11.6876C16.433 11.6588 16.4592 11.6326 16.488 11.6096L20.1877 8.64987C20.4033 8.47736 20.7179 8.51232 20.8904 8.72795C20.9614 8.81661 21 8.92677 21 9.0403ZM3 14.9597V9.0403C3 8.76416 3.22386 8.5403 3.5 8.5403C3.61354 8.5403 3.72369 8.57894 3.81235 8.64987L7.51196 11.6096C7.72759 11.7821 7.76255 12.0967 7.59004 12.3123C7.56698 12.3412 7.54079 12.3674 7.51196 12.3904L3.81235 15.3501C3.59672 15.5226 3.28207 15.4877 3.10957 15.272C3.03864 15.1834 3 15.0732 3 14.9597Z" fill="currentColor"/>
</svg>
