<svg width="24" height="24" viewBox="0 0 24 24" fill="none" xmlns="http://www.w3.org/2000/svg">
<path opacity="0.3" d="M16.3154 16.1481C15.9539 16.3503 15.4969 16.2211 15.2948 15.8596C15.0926 15.4981 15.2218 15.0411 15.5833 14.8389C16.6044 14.2679 17.2499 13.1909 17.2499 11.9999C17.2499 10.8178 16.614 9.74749 15.6047 9.17302C15.2448 8.96811 15.1191 8.51018 15.324 8.1502C15.5289 7.79022 15.9868 7.66451 16.3468 7.86942C17.82 8.70798 18.7499 10.2731 18.7499 11.9999C18.7499 13.7396 17.806 15.3145 16.3154 16.1481ZM16.7886 19.8892C16.4154 20.0687 15.9672 19.9117 15.7877 19.5384C15.6081 19.1651 15.7651 18.717 16.1384 18.5374C18.6311 17.3383 20.2499 14.8152 20.2499 11.9999C20.2499 9.21164 18.6621 6.70854 16.206 5.49536C15.8346 5.31192 15.6822 4.86215 15.8657 4.49077C16.0491 4.11939 16.4989 3.96704 16.8703 4.15048C19.8334 5.61409 21.7499 8.63538 21.7499 11.9999C21.7499 15.397 19.796 18.4425 16.7886 19.8892Z" fill="currentColor"/>
<path fill-rule="evenodd" clip-rule="evenodd" d="M7 16.0001L3.60777 15.3216C2.67292 15.1347 2 14.3138 2 13.3605V10.6397C2 9.68634 2.67292 8.86551 3.60777 8.67854L7 8.00009L10.2929 4.7072C10.6834 4.31668 11.3166 4.31668 11.7071 4.7072C11.8946 4.89474 12 5.14909 12 5.41431V18.5859C12 19.1382 11.5523 19.5859 11 19.5859C10.7348 19.5859 10.4804 19.4805 10.2929 19.293L7 16.0001Z" fill="currentColor"/>
</svg>
