<svg width="24" height="24" viewBox="0 0 24 24" fill="none" xmlns="http://www.w3.org/2000/svg">
<path opacity="0.3" d="M22 11H17C16.4477 11 16 11.4477 16 12C16 12.5523 16.4477 13 17 13H22C22.5523 13 23 12.5523 23 12C23 11.4477 22.5523 11 22 11Z" fill="currentColor"/>
<path fill-rule="evenodd" clip-rule="evenodd" d="M7 16.0001L3.60777 15.3216C2.67292 15.1347 2 14.3138 2 13.3605V10.6397C2 9.68634 2.67292 8.86551 3.60777 8.67854L7 8.00009L10.2929 4.7072C10.6834 4.31668 11.3166 4.31668 11.7071 4.7072C11.8946 4.89474 12 5.14909 12 5.41431V18.5859C12 19.1382 11.5523 19.5859 11 19.5859C10.7348 19.5859 10.4804 19.4805 10.2929 19.293L7 16.0001Z" fill="currentColor"/>
</svg>
