<svg width="24" height="24" viewBox="0 0 24 24" fill="none" xmlns="http://www.w3.org/2000/svg">
<path opacity="0.3" d="M16.3154 16.1483C15.9539 16.3504 15.4969 16.2213 15.2948 15.8597C15.0926 15.4982 15.2218 15.0412 15.5833 14.8391C16.6044 14.2681 17.2499 13.191 17.2499 12.0001C17.2499 10.8179 16.614 9.74764 15.6047 9.17317C15.2448 8.96826 15.1191 8.51033 15.324 8.15035C15.5289 7.79037 15.9868 7.66466 16.3468 7.86957C17.82 8.70813 18.7499 10.2732 18.7499 12.0001C18.7499 13.7398 17.806 15.3147 16.3154 16.1483Z" fill="currentColor"/>
<path fill-rule="evenodd" clip-rule="evenodd" d="M7 16.0001L3.60777 15.3216C2.67292 15.1347 2 14.3138 2 13.3605V10.6397C2 9.68634 2.67292 8.86551 3.60777 8.67854L7 8.00009L10.2929 4.7072C10.6834 4.31668 11.3166 4.31668 11.7071 4.7072C11.8946 4.89474 12 5.14909 12 5.41431V18.5859C12 19.1382 11.5523 19.5859 11 19.5859C10.7348 19.5859 10.4804 19.4805 10.2929 19.293L7 16.0001Z" fill="currentColor"/>
</svg>
