<svg width="24" height="24" viewBox="0 0 24 24" fill="none" xmlns="http://www.w3.org/2000/svg">
<path opacity="0.3" d="M10 2H4C2.89543 2 2 2.89543 2 4V12C2 13.1046 2.89543 14 4 14H10C11.1046 14 12 13.1046 12 12V4C12 2.89543 11.1046 2 10 2Z" fill="currentColor"/>
<path fill-rule="evenodd" clip-rule="evenodd" d="M4 6H20C21.1046 6 22 6.89543 22 8V20C22 21.1046 21.1046 22 20 22H4C2.89543 22 2 21.1046 2 20V8C2 6.89543 2.89543 6 4 6ZM18 16C19.1046 16 20 15.1046 20 14C20 12.8954 19.1046 12 18 12C16.8954 12 16 12.8954 16 14C16 15.1046 16.8954 16 18 16Z" fill="currentColor"/>
</svg>
