<svg width="24" height="24" viewBox="0 0 24 24" fill="none" xmlns="http://www.w3.org/2000/svg">
<path opacity="0.3" d="M20.5 14C21.3284 14 22 13.3284 22 12.5C22 11.6716 21.3284 11 20.5 11C19.6716 11 19 11.6716 19 12.5C19 13.3284 19.6716 14 20.5 14Z" fill="currentColor"/>
<path opacity="0.3" d="M18.8216 1.04881L3.3668 5.18991C2.83334 5.33285 2.51676 5.88119 2.6597 6.41466L3.95379 11.2443C4.09673 11.7778 4.64507 12.0943 5.17854 11.9514L20.6334 7.81029C21.1668 7.66735 21.4834 7.11901 21.3405 6.58554L20.0464 1.75591C19.9034 1.22245 19.3551 0.905865 18.8216 1.04881Z" fill="currentColor"/>
<path fill-rule="evenodd" clip-rule="evenodd" d="M22 9.33682C21.5454 9.12085 21.0368 9 20.5 9C18.567 9 17 10.567 17 12.5C17 14.433 18.567 16 20.5 16C21.0368 16 21.5454 15.8792 22 15.6632V18C22 19.1046 21.1046 20 20 20H4C2.89543 20 2 19.1046 2 18V6C2 4.89543 2.89543 4 4 4H20C21.1046 4 22 4.89543 22 6V9.33682Z" fill="currentColor"/>
</svg>
