<svg width="24" height="24" viewBox="0 0 24 24" fill="none" xmlns="http://www.w3.org/2000/svg">
<path opacity="0.3" fill-rule="evenodd" clip-rule="evenodd" d="M11.1669 4.49942L2.82524 19.5144C2.55703 19.9971 2.73097 20.6059 3.21376 20.8742C3.36232 20.9567 3.52946 21 3.6994 21H21.2168C21.7691 21 22.2168 20.5523 22.2168 20C22.2168 19.816 22.1661 19.6356 22.0701 19.4786L12.8943 4.46362C12.6063 3.99236 11.9908 3.8438 11.5196 4.13179C11.3722 4.22183 11.2507 4.34848 11.1669 4.49942Z" fill="currentColor"/>
<path d="M13 10C13 9.44772 12.5523 9 12 9C11.4477 9 11 9.44772 11 10V15C11 15.5523 11.4477 16 12 16C12.5523 16 13 15.5523 13 15V10Z" fill="currentColor"/>
<path d="M13 18C13 17.4477 12.5523 17 12 17C11.4477 17 11 17.4477 11 18C11 18.5523 11.4477 19 12 19C12.5523 19 13 18.5523 13 18Z" fill="currentColor"/>
</svg>
