<svg width="24" height="24" viewBox="0 0 24 24" fill="none" xmlns="http://www.w3.org/2000/svg">
<path fill-rule="evenodd" clip-rule="evenodd" d="M8.34233 9H15.6577C17.0343 9 18.2342 9.93689 18.5681 11.2724L21 21H3L5.4319 11.2724C5.76578 9.93689 6.96573 9 8.34233 9ZM11.264 18H12.608V12.336H11.376L9.512 13.704L10.208 14.656L11.264 13.84V18Z" fill="currentColor"/>
<path opacity="0.3" d="M12 8C13.3807 8 14.5 6.88071 14.5 5.5C14.5 4.11929 13.3807 3 12 3C10.6193 3 9.5 4.11929 9.5 5.5C9.5 6.88071 10.6193 8 12 8Z" fill="currentColor"/>
</svg>
