<svg width="24" height="24" viewBox="0 0 24 24" fill="none" xmlns="http://www.w3.org/2000/svg">
<path opacity="0.3" d="M14.4008 9.92795C14.7016 9.46476 14.5699 8.84543 14.1067 8.54464C13.6436 8.24384 13.0242 8.37549 12.7234 8.83867L9.64595 13.5776C9.34516 14.0408 9.4768 14.6601 9.93998 14.9609C10.4032 15.2617 11.0225 15.13 11.3233 14.6668L14.4008 9.92795Z" fill="currentColor"/>
<path fill-rule="evenodd" clip-rule="evenodd" d="M7.5 3H16.5C18.9853 3 21 5.01472 21 7.5V15.5C21 17.9853 18.9853 20 16.5 20H7.5C5.01472 20 3 17.9853 3 15.5V7.5C3 5.01472 5.01472 3 7.5 3ZM6 7.88235L8.57143 12H15.4286L18 7.88235C17 5.96078 15 5 12 5C9 5 7 5.96078 6 7.88235Z" fill="currentColor"/>
</svg>
