<svg width="24" height="24" viewBox="0 0 24 24" fill="none" xmlns="http://www.w3.org/2000/svg">
<path opacity="0.3" d="M19.3662 13.9306L17.262 15.6657C15.9734 14.103 14.0627 13.1818 11.9985 13.1818C9.94108 13.1818 8.03605 14.0969 6.7473 15.6508L4.64802 13.9098C6.44953 11.7376 9.12069 10.4545 11.9985 10.4545C14.8858 10.4545 17.5648 11.7461 19.3662 13.9306ZM23.546 10.4258L21.4474 12.1675C19.1285 9.37359 15.6994 7.72727 11.9985 7.72727C8.30272 7.72727 4.8779 9.369 2.55897 12.1563L0.462402 10.4121C3.29411 7.00839 7.48383 5 11.9985 5C16.5195 5 20.7144 7.01399 23.546 10.4258Z" fill="currentColor"/>
<path fill-rule="evenodd" clip-rule="evenodd" d="M15.1187 17.3545L13.039 19.1188L11.9617 20L10.933 19.1485L8.80469 17.4431C9.57532 16.4814 10.7412 15.9091 11.9983 15.9091C13.2149 15.9091 14.3472 16.4451 15.1187 17.3545Z" fill="currentColor"/>
</svg>
