<svg width="24" height="24" viewBox="0 0 24 24" fill="none" xmlns="http://www.w3.org/2000/svg">
<path d="M3 13V11H17.5C18.3284 11 19 10.3284 19 9.5V9C19 8.44772 18.5523 8 18 8C17.4477 8 17 8.44772 17 9V10H15V9C15 7.34315 16.3431 6 18 6C19.6569 6 21 7.34315 21 9V9.5C21 11.433 19.433 13 17.5 13H3Z" fill="currentColor"/>
<path opacity="0.3" d="M3 9V7H9.5C10.3284 7 11 6.32843 11 5.5V5C11 4.44772 10.5523 4 10 4C9.44772 4 9 4.44772 9 5V6H7V5C7 3.34315 8.34315 2 10 2C11.6569 2 13 3.34315 13 5V5.5C13 7.433 11.433 9 9.5 9H3ZM3 15H9.5C11.433 15 13 16.567 13 18.5V19C13 20.6569 11.6569 22 10 22C8.34315 22 7 20.6569 7 19V18H9V19C9 19.5523 9.44772 20 10 20C10.5523 20 11 19.5523 11 19V18.5C11 17.6716 10.3284 17 9.5 17H3V15Z" fill="currentColor"/>
</svg>
