<svg width="24" height="24" viewBox="0 0 24 24" fill="none" xmlns="http://www.w3.org/2000/svg">
<path opacity="0.3" fill-rule="evenodd" clip-rule="evenodd" d="M13 21.0077C14.2768 21.0909 15.4225 21.845 16 23H8C8.57749 21.845 9.72316 21.0909 11 21.0077C11 21.0051 11 21.0026 11 21V15.5H13V21C13 21.0026 13 21.0051 13 21.0077Z" fill="currentColor"/>
<path d="M8.00013 4L7.50013 8C13.5001 8 16.5001 8 16.5001 8C16.4377 7.20615 16.271 5.87282 16.0001 4H8.00013ZM8.28607 2H15.7141C16.9471 2 17.9723 2.9284 18.0668 4.1307L18.5416 10.1671C18.8165 13.6617 16.1426 16.7125 12.5694 16.9813C12.4038 16.9938 12.2378 17 12.0717 17H11.9285C8.34471 17 5.43945 14.1587 5.43945 10.6538C5.43945 10.4914 5.44583 10.3291 5.45857 10.1671L5.93336 4.1307C6.02793 2.9284 7.05306 2 8.28607 2Z" fill="currentColor"/>
</svg>
