<svg width="24" height="24" viewBox="0 0 24 24" fill="none" xmlns="http://www.w3.org/2000/svg">
<path opacity="0.3" fill-rule="evenodd" clip-rule="evenodd" d="M9 0L1 17H17L9 0Z" fill="currentColor"/>
<path d="M10 10C10 9.44772 9.55228 9 9 9C8.44772 9 8 9.44772 8 10V19C8 19.5523 8.44772 20 9 20C9.55228 20 10 19.5523 10 19V10Z" fill="currentColor"/>
<path fill-rule="evenodd" clip-rule="evenodd" d="M16 24L20 19L24 24H16Z" fill="currentColor"/>
<path opacity="0.6" fill-rule="evenodd" clip-rule="evenodd" d="M8 24L13.5 17L19 24H8Z" fill="currentColor"/>
<path opacity="0.3" d="M21.5 5C22.8807 5 24 3.88071 24 2.5C24 1.11929 22.8807 0 21.5 0C20.1193 0 19 1.11929 19 2.5C19 3.88071 20.1193 5 21.5 5Z" fill="currentColor"/>
</svg>
