<svg width="24" height="24" viewBox="0 0 24 24" fill="none" xmlns="http://www.w3.org/2000/svg">
<path fill-rule="evenodd" clip-rule="evenodd" d="M6.98138 21.5001H7.61834C7.84382 21.5001 8.0414 21.3492 8.10072 21.1317L9.37754 16.4499C9.44641 16.1973 9.69841 16.0406 9.95537 16.0906C11.3599 16.3636 12.3749 16.5001 13.0002 16.5001C13.6467 16.5001 15.0013 16.3542 17.064 16.0624L17.064 16.0625C17.3134 16.0272 17.5501 16.183 17.6164 16.426L18.8998 21.1317C18.9591 21.3492 19.1567 21.5001 19.3821 21.5001H20.0386C20.2993 21.5001 20.5163 21.2998 20.537 21.04L21.1547 13.3191C21.3309 11.117 19.6885 9.189 17.4864 9.01284C17.3803 9.00435 17.2739 9.0001 17.1675 9.0001H13.0002C12.0259 6.96802 11.1925 5.63468 10.5002 5.0001C10.183 4.70927 8.36109 3.94227 5.03459 2.69909L5.03462 2.699C4.87937 2.64098 4.70648 2.7198 4.64847 2.87505C4.6272 2.93195 4.6237 2.99396 4.63844 3.05289L4.92963 4.21795C4.97317 4.3921 4.92 4.57621 4.79033 4.70034C4.1366 5.32612 3.70657 5.75937 3.50024 6.0001C3.28531 6.25084 2.97621 7.00756 2.57294 8.27023L2.57302 8.27026C2.52676 8.41511 2.54893 8.57314 2.63328 8.69966L3.23578 9.60341C3.38383 9.82548 3.68019 9.89212 3.90906 9.75481L4.75024 9.2501C5.15883 9.00494 5.6888 9.13743 5.93395 9.54602C6.00862 9.67047 6.05069 9.81174 6.05626 9.95676L6.48175 21.0193C6.49207 21.2878 6.71271 21.5001 6.98138 21.5001Z" fill="currentColor"/>
</svg>
