<svg width="24" height="24" viewBox="0 0 24 24" fill="none" xmlns="http://www.w3.org/2000/svg">
<path d="M21.7481 7.09859L12.8988 16.3142C12.6235 16.6009 12.2456 16.7666 11.8483 16.7749L8.12501 16.853L8.20344 13.1145C8.21159 12.7262 8.37006 12.3562 8.64549 12.0823L17.696 3.08347C18.2823 2.50054 19.2297 2.5019 19.8143 3.0865L21.7268 4.99898C22.3042 5.57639 22.3137 6.5096 21.7481 7.09859Z" fill="currentColor"/>
<path opacity="0.3" d="M12.9 2C13.4523 2 13.9 2.44772 13.9 3C13.9 3.55228 13.4523 4 12.9 4H6C4.89543 4 4 4.89543 4 6V18C4 19.1046 4.89543 20 6 20H18C19.1046 20 20 19.1046 20 18V13C20 12.4477 20.4477 12 21 12C21.5523 12 22 12.4477 22 13V18C22 20.2091 20.2091 22 18 22H6C3.79086 22 2 20.2091 2 18V6C2 3.79086 3.79086 2 6 2H12.9Z" fill="currentColor"/>
</svg>
