<svg width="24" height="24" viewBox="0 0 24 24" fill="none" xmlns="http://www.w3.org/2000/svg">
<path opacity="0.3" fill-rule="evenodd" clip-rule="evenodd" d="M4.22267 4L19.8368 4.00001C21.3873 4.00001 22.6824 5.1816 22.8242 6.72565C22.9414 8.002 23 9.40114 23 10.9231C23 12.705 22.9197 14.4871 22.759 16.2694H22.759C22.6196 17.8156 21.3236 19 19.7711 19L4.22267 19C2.67435 19 1.38037 17.8217 1.23578 16.2802C1.07859 14.6043 1 13.0109 1 11.5C1 9.98905 1.07859 8.39567 1.23578 6.71984L1.23578 6.71984C1.38037 5.17829 2.67435 4 4.22267 4Z" fill="currentColor"/>
<path fill-rule="evenodd" clip-rule="evenodd" d="M11.1821 14.8053L15.5855 11.7953C15.8135 11.6395 15.872 11.3284 15.7161 11.1004C15.6814 11.0495 15.6375 11.0055 15.5867 10.9706L11.1833 7.94161C10.9558 7.78511 10.6445 7.84268 10.488 8.07019C10.4306 8.15356 10.3999 8.25237 10.3999 8.35356V14.3926C10.3999 14.6687 10.6238 14.8926 10.8999 14.8926C11.0006 14.8926 11.0989 14.8622 11.1821 14.8053Z" fill="currentColor"/>
</svg>
