<svg width="24" height="24" viewBox="0 0 24 24" fill="none" xmlns="http://www.w3.org/2000/svg">
<path opacity="0.3" d="M14.2929 16.7071C13.9024 16.3166 13.9024 15.6834 14.2929 15.2929C14.6834 14.9024 15.3166 14.9024 15.7071 15.2929L19.7071 19.2929C20.0976 19.6834 20.0976 20.3166 19.7071 20.7071C19.3166 21.0976 18.6834 21.0976 18.2929 20.7071L14.2929 16.7071Z" fill="currentColor"/>
<path d="M11 16C13.7614 16 16 13.7614 16 11C16 8.23858 13.7614 6 11 6C8.23858 6 6 8.23858 6 11C6 13.7614 8.23858 16 11 16ZM11 18C7.13401 18 4 14.866 4 11C4 7.13401 7.13401 4 11 4C14.866 4 18 7.13401 18 11C18 14.866 14.866 18 11 18Z" fill="currentColor"/>
<path opacity="0.3" fill-rule="evenodd" clip-rule="evenodd" d="M10.5 10.5V9.5C10.5 9.22386 10.7239 9 11 9C11.2761 9 11.5 9.22386 11.5 9.5V10.5H12.5C12.7761 10.5 13 10.7239 13 11C13 11.2761 12.7761 11.5 12.5 11.5H11.5V12.5C11.5 12.7761 11.2761 13 11 13C10.7239 13 10.5 12.7761 10.5 12.5V11.5H9.5C9.22386 11.5 9 11.2761 9 11C9 10.7239 9.22386 10.5 9.5 10.5H10.5Z" fill="currentColor"/>
</svg>
