<svg width="20" height="20" viewBox="0 0 20 20" fill="none" xmlns="http://www.w3.org/2000/svg">
<path d="M7.02995 2.49927C6.20359 2.49927 5.53369 3.16916 5.53369 3.99552V4.86446L11.8486 8.02192C12.1119 8.15356 12.4218 8.15356 12.6851 8.02192L19 4.86446V3.99552C19 3.16916 18.3301 2.49927 17.5037 2.49927H7.02995Z" fill="currentColor"/>
<path d="M19 6.11911L13.1869 9.02564C12.6077 9.31525 11.926 9.31524 11.3468 9.02564L5.53369 6.1191V9.98055C5.53369 10.8069 6.20359 11.4768 7.02995 11.4768H17.5037C18.3301 11.4768 19 10.8069 19 9.98055V6.11911Z" fill="currentColor"/>
<path d="M8.38483 5.5C8.91518 5.50006 9.42387 5.71092 9.79889 6.08594L11.92 8.20703C12.295 8.58205 12.5059 9.09074 12.5059 9.62109V16.5C12.5059 17.6046 11.6105 18.5 10.5059 18.5H3.50592C2.40135 18.5 1.50592 17.6046 1.50592 16.5V7.5C1.50592 6.39543 2.40135 5.5 3.50592 5.5H8.38483ZM4.75592 14C4.61785 14 4.50592 14.1119 4.50592 14.25C4.50592 14.3881 4.61785 14.5 4.75592 14.5H9.25592C9.39399 14.5 9.50592 14.3881 9.50592 14.25C9.50592 14.1119 9.39399 14 9.25592 14H4.75592ZM4.75592 11C4.61785 11 4.50592 11.1119 4.50592 11.25C4.50592 11.3881 4.61785 11.5 4.75592 11.5H9.25592C9.39399 11.5 9.50592 11.3881 9.50592 11.25C9.50592 11.1119 9.39399 11 9.25592 11H4.75592Z" fill="currentColor" stroke="currentColor"/>
</svg>
