<svg width="20" height="20" viewBox="0 0 20 20" fill="none" xmlns="http://www.w3.org/2000/svg">
<path d="M3 13.5C3 12.6716 3.67157 12 4.5 12C5.32843 12 6 12.6716 6 13.5C6 14.3284 5.32843 15 4.5 15C3.67157 15 3 14.3284 3 13.5Z" fill="currentColor"/>
<path d="M8.5 13.5C8.5 12.6716 9.17157 12 10 12C10.8284 12 11.5 12.6716 11.5 13.5C11.5 14.3284 10.8284 15 10 15C9.17157 15 8.5 14.3284 8.5 13.5Z" fill="currentColor"/>
<path d="M15.5 12C14.6716 12 14 12.6716 14 13.5C14 14.3284 14.6716 15 15.5 15C16.3284 15 17 14.3284 17 13.5C17 12.6716 16.3284 12 15.5 12Z" fill="currentColor"/>
<path d="M3 7.5C3 6.67157 3.67157 6 4.5 6C5.32843 6 6 6.67157 6 7.5C6 8.32843 5.32843 9 4.5 9C3.67157 9 3 8.32843 3 7.5Z" fill="currentColor"/>
<path d="M8.5 7.5C8.5 6.67157 9.17157 6 10 6C10.8284 6 11.5 6.67157 11.5 7.5C11.5 8.32843 10.8284 9 10 9C9.17157 9 8.5 8.32843 8.5 7.5Z" fill="currentColor"/>
<path d="M15.5 6C14.6716 6 14 6.67157 14 7.5C14 8.32843 14.6716 9 15.5 9C16.3284 9 17 8.32843 17 7.5C17 6.67157 16.3284 6 15.5 6Z" fill="currentColor"/>
</svg>
