<svg width="20" height="20" viewBox="0 0 20 20" fill="none" xmlns="http://www.w3.org/2000/svg">
<path fill-rule="evenodd" clip-rule="evenodd" d="M0 6C0 4.89543 0.895431 4 2 4H16C17.1046 4 18 4.89543 18 6V7.16147L9.55902 11.382C9.20711 11.5579 8.79289 11.5579 8.44098 11.382L0 7.16147V6ZM10.5055 12.5858L10.2298 12.7236C9.45564 13.1107 8.54436 13.1107 7.77016 12.7236L0 8.83853V14C0 15.1046 0.89543 16 2 16H10.083C10.0284 15.6748 10 15.3407 10 15C10 14.1412 10.1804 13.3245 10.5055 12.5858Z" fill="currentColor"/>
<path d="M13 13.8571L15.25 16L19 11" stroke="currentColor" stroke-width="1.5" stroke-linecap="round" stroke-linejoin="round"/>
</svg>
