<svg width="20" height="20" viewBox="0 0 20 20" fill="none" xmlns="http://www.w3.org/2000/svg">
<path d="M10 18C14.4183 18 18 14.4183 18 10C18 5.58172 14.4183 2 10 2V18Z" fill="currentColor"/>
<path fill-rule="evenodd" clip-rule="evenodd" d="M8.74904 2.09734C9.15706 2.03322 9.57491 2 10 2C10.4251 2 10.8429 2.03322 11.251 2.09734C11.6602 2.16165 11.9397 2.5455 11.8754 2.95469C11.8111 3.36388 11.4273 3.64346 11.0181 3.57916C10.6868 3.5271 10.3468 3.5 10 3.5C9.65317 3.5 9.31318 3.5271 8.98191 3.57916C8.57272 3.64346 8.18887 3.36388 8.12457 2.95469C8.06026 2.5455 8.33985 2.16165 8.74904 2.09734ZM6.34472 3.69284C6.58846 4.02775 6.51455 4.49684 6.17965 4.74058C5.62809 5.14199 5.14199 5.62809 4.74058 6.17965C4.49684 6.51455 4.02775 6.58846 3.69284 6.34472C3.35793 6.10098 3.28402 5.63189 3.52776 5.29699C4.02132 4.61882 4.61882 4.02132 5.29699 3.52776C5.63189 3.28402 6.10098 3.35793 6.34472 3.69284ZM13.6553 3.69284C13.899 3.35793 14.3681 3.28402 14.703 3.52776C15.3812 4.02132 15.9787 4.61882 16.4722 5.29699C16.716 5.63189 16.6421 6.10098 16.3072 6.34472C15.9723 6.58846 15.5032 6.51455 15.2594 6.17965C14.858 5.62809 14.3719 5.14199 13.8204 4.74058C13.4854 4.49684 13.4115 4.02775 13.6553 3.69284ZM2.95469 8.12457C3.36388 8.18887 3.64346 8.57272 3.57916 8.98191C3.5271 9.31318 3.5 9.65317 3.5 10C3.5 10.3468 3.5271 10.6868 3.57916 11.0181C3.64346 11.4273 3.36388 11.8111 2.95469 11.8754C2.5455 11.9397 2.16165 11.6602 2.09734 11.251C2.03322 10.8429 2 10.4251 2 10C2 9.57491 2.03322 9.15706 2.09734 8.74904C2.16165 8.33984 2.5455 8.06026 2.95469 8.12457ZM17.0453 8.12457C17.4545 8.06026 17.8383 8.33985 17.9027 8.74904C17.9668 9.15706 18 9.57491 18 10C18 10.4251 17.9668 10.8429 17.9027 11.251C17.8383 11.6602 17.4545 11.9397 17.0453 11.8754C16.6361 11.8111 16.3565 11.4273 16.4208 11.0181C16.4729 10.6868 16.5 10.3468 16.5 10C16.5 9.65317 16.4729 9.31318 16.4208 8.98191C16.3565 8.57272 16.6361 8.18887 17.0453 8.12457ZM3.69284 13.6553C4.02775 13.4115 4.49684 13.4854 4.74058 13.8204C5.14199 14.3719 5.62809 14.858 6.17965 15.2594C6.51455 15.5032 6.58846 15.9723 6.34472 16.3072C6.10098 16.6421 5.63189 16.716 5.29699 16.4722C4.61882 15.9787 4.02132 15.3812 3.52776 14.703C3.28402 14.3681 3.35793 13.899 3.69284 13.6553ZM16.3072 13.6553C16.6421 13.899 16.716 14.3681 16.4722 14.703C15.9787 15.3812 15.3812 15.9787 14.703 16.4722C14.3681 16.716 13.899 16.6421 13.6553 16.3072C13.4115 15.9723 13.4854 15.5032 13.8204 15.2594C14.3719 14.858 14.858 14.3719 15.2594 13.8204C15.5032 13.4854 15.9723 13.4115 16.3072 13.6553ZM8.12457 17.0453C8.18887 16.6361 8.57272 16.3565 8.98191 16.4208C9.31318 16.4729 9.65317 16.5 10 16.5C10.3468 16.5 10.6868 16.4729 11.0181 16.4208C11.4273 16.3565 11.8111 16.6361 11.8754 17.0453C11.9397 17.4545 11.6602 17.8383 11.251 17.9027C10.8429 17.9668 10.4251 18 10 18C9.57491 18 9.15706 17.9668 8.74904 17.9027C8.33984 17.8383 8.06026 17.4545 8.12457 17.0453Z" fill="currentColor"/>
</svg>
