<svg width="20" height="20" viewBox="0 0 20 20" fill="none" xmlns="http://www.w3.org/2000/svg">
<path fill-rule="evenodd" clip-rule="evenodd" d="M10.3389 2.23657C10.1429 2.07381 9.85709 2.07381 9.66109 2.23657C7.72231 3.84643 5.2685 4.85748 2.58337 4.98601C2.34202 4.99756 2.13593 5.17189 2.10424 5.41144C2.03548 5.93125 2 6.46156 2 7.00016C2 12.1627 5.26004 16.5638 9.83378 18.2572C9.94102 18.2969 10.0593 18.2969 10.1665 18.2572C14.7401 16.5637 18 12.1627 18 7.00028C18 6.46164 17.9645 5.93129 17.8957 5.41143C17.8641 5.17189 17.658 4.99756 17.4166 4.98601C14.7315 4.85747 12.2777 3.84642 10.3389 2.23657ZM10 5.99994C10.4142 5.99994 10.75 6.33573 10.75 6.74994V10.2499C10.75 10.6642 10.4142 10.9999 10 10.9999C9.58579 10.9999 9.25 10.6642 9.25 10.2499L9.25 6.74994C9.25 6.33573 9.58579 5.99994 10 5.99994ZM10 14.9999C10.5523 14.9999 11 14.5522 11 13.9999C11 13.4477 10.5523 12.9999 10 12.9999C9.44772 12.9999 9 13.4477 9 13.9999C9 14.5522 9.44772 14.9999 10 14.9999Z" fill="currentColor"/>
</svg>
