<svg width="20" height="20" viewBox="0 0 20 20" fill="none" xmlns="http://www.w3.org/2000/svg">
<path fill-rule="evenodd" clip-rule="evenodd" d="M5.76965 3.50376C5.37828 3.47362 4.78107 3.62233 3.93524 4.2113C3.59532 4.448 3.12788 4.36431 2.89118 4.02439C2.65449 3.68447 2.73817 3.21702 3.07809 2.98033C4.06711 2.29166 5.00945 1.94077 5.88485 2.00819C6.79737 2.07848 7.48366 2.58969 7.95275 3.29047C8.40913 3.97225 8.68081 4.8559 8.82261 5.79651C8.86157 6.05491 8.89128 6.32135 8.91213 6.59392C9.93355 6.22012 10.9778 6.05768 11.9384 6.27051C12.3184 6.35471 12.6641 6.5491 12.8867 6.89424C13.0974 7.22076 13.132 7.58173 13.1141 7.87489C13.0801 8.43247 12.8297 9.06068 12.6311 9.54261C12.5979 9.62319 12.5657 9.70058 12.5349 9.77493C12.3938 10.1145 12.2792 10.3904 12.2108 10.6148C12.7053 10.545 13.0996 10.1286 13.6001 9.40869C13.6481 9.33968 13.6983 9.26596 13.7503 9.18945C13.9757 8.85834 14.2365 8.4752 14.5075 8.19768C14.8649 7.83174 15.4377 7.44757 16.1847 7.68257C16.9222 7.91459 17.1671 8.54597 17.2602 8.98622C17.307 9.20754 17.3282 9.4346 17.3443 9.61479C17.3455 9.62899 17.3468 9.64289 17.348 9.65652C17.3637 9.83289 17.3752 9.96236 17.3955 10.0757C17.3957 10.0768 17.3959 10.0779 17.3961 10.079C17.4287 10.0709 17.4679 10.0596 17.5144 10.044C17.7123 9.97772 17.9912 9.85028 18.3749 9.6287C18.7336 9.42154 19.1923 9.54438 19.3994 9.90307C19.6066 10.2618 19.4838 10.7205 19.1251 10.9276C18.6949 11.1761 18.3198 11.3561 17.9909 11.4663C17.6696 11.574 17.3329 11.6355 17.0065 11.5779C16.643 11.5138 16.3645 11.3147 16.1824 11.0444C16.0211 10.8051 15.9546 10.5391 15.9189 10.3398C15.8862 10.1569 15.8689 9.95983 15.8548 9.79974C15.8532 9.78211 15.8517 9.76494 15.8502 9.74827C15.8336 9.56247 15.8185 9.41888 15.7926 9.29647C15.7707 9.19289 15.7479 9.14039 15.7351 9.11743C15.7102 9.13098 15.6592 9.16534 15.5806 9.24578C15.411 9.41946 15.2495 9.65566 15.0334 9.97166C14.9712 10.0627 14.9045 10.1603 14.8317 10.265C14.2757 11.0647 13.3317 12.3357 11.6695 12.097C11.286 12.0419 10.9195 11.8308 10.7452 11.4145C10.6045 11.0783 10.6464 10.7287 10.6943 10.4948C10.7779 10.0869 10.9847 9.5926 11.1602 9.17289C11.1893 9.10331 11.2176 9.03579 11.2442 8.97105C11.4618 8.44311 11.6007 8.04842 11.6169 7.7835C11.618 7.7648 11.6184 7.74906 11.6182 7.73598C11.6168 7.73565 11.6154 7.73533 11.6139 7.735C10.8956 7.57586 9.97047 7.74177 8.93775 8.20139C8.92891 8.42515 8.91521 8.65039 8.89682 8.87622C8.72328 11.0073 8.12379 13.2851 7.15537 14.9546C6.20923 16.5857 4.70649 17.9266 2.74056 17.3783C2.03579 17.1818 1.48952 16.7811 1.20548 16.1662C0.934412 15.5793 0.960583 14.9213 1.11653 14.3084C1.42587 13.0926 2.32876 11.719 3.44982 10.4878C4.57561 9.25135 5.99236 8.08044 7.44526 7.27321C7.43357 6.83247 7.39839 6.4116 7.33937 6.02012C7.21542 5.19788 6.99361 4.55415 6.70625 4.12487C6.4316 3.71458 6.1239 3.53105 5.76965 3.50376ZM7.37248 9.07297C6.35812 9.74548 5.37713 10.5991 4.55895 11.4977C3.5044 12.6559 2.7908 13.8113 2.57021 14.6783C2.46119 15.1068 2.49404 15.3787 2.56722 15.5371C2.62743 15.6675 2.76298 15.8273 3.14353 15.9335C4.07449 16.1931 5.0082 15.6667 5.85787 14.2019C6.64085 12.8522 7.18052 10.9471 7.37248 9.07297Z" fill="currentColor"/>
</svg>
