<svg width="20" height="20" viewBox="0 0 20 20" fill="none" xmlns="http://www.w3.org/2000/svg">
<path d="M10 5C10 6.65685 8.65685 8 7 8C5.34315 8 4 6.65685 4 5C4 3.34315 5.34315 2 7 2C8.65685 2 10 3.34315 10 5Z" fill="currentColor"/>
<path d="M1.61528 16.428C1.21798 16.1736 0.987847 15.721 1.04605 15.2529C1.41416 12.292 3.93944 10 6.9999 10C10.0604 10 12.5856 12.2914 12.9537 15.2522C13.012 15.7203 12.7818 16.1729 12.3845 16.4273C10.8302 17.4225 8.98243 18 6.9999 18C5.01737 18 3.16959 17.4231 1.61528 16.428Z" fill="currentColor"/>
<path fill-rule="evenodd" clip-rule="evenodd" d="M14.3935 6.27387C14.0467 5.97043 13.4565 5.97043 13.1097 6.27387C12.8698 6.48378 12.5052 6.45947 12.2953 6.21957C12.0854 5.97968 12.1097 5.61504 12.3496 5.40513C13.1316 4.72087 14.3716 4.72087 15.1536 5.40513C15.9808 6.12894 15.9808 7.33846 15.1536 8.06226C15.0148 8.18373 14.8623 8.28288 14.7021 8.36041C14.5726 8.42306 14.467 8.50079 14.4008 8.57653C14.3374 8.64895 14.3288 8.69568 14.3288 8.7209V9.08221C14.3288 9.40097 14.0704 9.65938 13.7516 9.65938C13.4328 9.65938 13.1744 9.40097 13.1744 9.08221V8.7209C13.1744 7.97504 13.7866 7.52105 14.1992 7.32134C14.2706 7.2868 14.3358 7.24396 14.3935 7.19352C14.6951 6.92962 14.6951 6.53777 14.3935 6.27387ZM13.1743 10.5274C13.1743 10.2087 13.4327 9.95027 13.7515 9.95027H13.7551C14.0739 9.95027 14.3323 10.2087 14.3323 10.5274V10.5311C14.3323 10.8498 14.0739 11.1082 13.7551 11.1082H13.7515C13.4327 11.1082 13.1743 10.8498 13.1743 10.5311V10.5274Z" fill="currentColor"/>
</svg>
