<svg width="20" height="20" viewBox="0 0 20 20" fill="none" xmlns="http://www.w3.org/2000/svg">
<path d="M10 5C10 6.65685 8.65685 8 7 8C5.34315 8 4 6.65685 4 5C4 3.34315 5.34315 2 7 2C8.65685 2 10 3.34315 10 5Z" fill="currentColor"/>
<path d="M1.61528 16.428C1.21798 16.1736 0.987847 15.721 1.04605 15.2529C1.41416 12.292 3.93944 10 6.9999 10C10.0604 10 12.5856 12.2914 12.9537 15.2522C13.012 15.7203 12.7818 16.1729 12.3845 16.4273C10.8302 17.4225 8.98243 18 6.9999 18C5.01737 18 3.16959 17.4231 1.61528 16.428Z" fill="currentColor"/>
<path fill-rule="evenodd" clip-rule="evenodd" d="M18.1859 4.38976C18.523 4.63051 18.6011 5.09893 18.3603 5.43599L14.6103 10.686C14.4822 10.8654 14.2816 10.9793 14.0619 10.9975C13.8421 11.0157 13.6256 10.9363 13.4697 10.7804L11.2197 8.53039C10.9268 8.23749 10.9268 7.76262 11.2197 7.46973C11.5126 7.17684 11.9874 7.17684 12.2803 7.46973L13.9043 9.09369L17.1397 4.56413C17.3805 4.22707 17.8489 4.149 18.1859 4.38976Z" fill="currentColor"/>
</svg>
