<svg width="24" height="24" viewBox="0 0 24 24" fill="none" xmlns="http://www.w3.org/2000/svg">
<path d="M6.5 14.75C6.5 15.1642 6.16421 15.5 5.75 15.5C5.33579 15.5 5 15.1642 5 14.75C5 14.3358 5.33579 14 5.75 14C6.16421 14 6.5 14.3358 6.5 14.75Z" stroke="currentColor" stroke-width="1.5" stroke-linecap="round" stroke-linejoin="round"/>
<path d="M12.5 14.75C12.5 15.1642 12.1642 15.5 11.75 15.5C11.3358 15.5 11 15.1642 11 14.75C11 14.3358 11.3358 14 11.75 14C12.1642 14 12.5 14.3358 12.5 14.75Z" stroke="currentColor" stroke-width="1.5" stroke-linecap="round" stroke-linejoin="round"/>
<path d="M18.5 14.75C18.5 15.1642 18.1642 15.5 17.75 15.5C17.3358 15.5 17 15.1642 17 14.75C17 14.3358 17.3358 14 17.75 14C18.1642 14 18.5 14.3358 18.5 14.75Z" stroke="currentColor" stroke-width="1.5" stroke-linecap="round" stroke-linejoin="round"/>
<path d="M6.5 8.75C6.5 9.16421 6.16421 9.5 5.75 9.5C5.33579 9.5 5 9.16421 5 8.75C5 8.33579 5.33579 8 5.75 8C6.16421 8 6.5 8.33579 6.5 8.75Z" stroke="currentColor" stroke-width="1.5" stroke-linecap="round" stroke-linejoin="round"/>
<path d="M12.5 8.75C12.5 9.16421 12.1642 9.5 11.75 9.5C11.3358 9.5 11 9.16421 11 8.75C11 8.33579 11.3358 8 11.75 8C12.1642 8 12.5 8.33579 12.5 8.75Z" stroke="currentColor" stroke-width="1.5" stroke-linecap="round" stroke-linejoin="round"/>
<path d="M18.5 8.75C18.5 9.16421 18.1642 9.5 17.75 9.5C17.3358 9.5 17 9.16421 17 8.75C17 8.33579 17.3358 8 17.75 8C18.1642 8 18.5 8.33579 18.5 8.75Z" stroke="currentColor" stroke-width="1.5" stroke-linecap="round" stroke-linejoin="round"/>
</svg>
