<svg width="24" height="24" viewBox="0 0 24 24" fill="none" xmlns="http://www.w3.org/2000/svg">
<path d="M21.75 4.69259V13.5928C21.75 14.6461 20.8961 15.5 19.8428 15.5H16.6641H15.0748H14.2802M21.75 4.69259C21.75 3.63928 20.8961 2.7854 19.8428 2.7854H7.1282C6.07489 2.7854 5.22101 3.63928 5.22101 4.69259V4.89832C5.22101 5.56061 5.5646 6.17549 6.12865 6.5226M21.75 4.69259V4.89832C21.75 5.56061 21.4064 6.17549 20.8424 6.5226L14.4851 10.4348C14.1781 10.6237 13.831 10.718 13.484 10.7177" stroke="currentColor" stroke-width="1.5" stroke-linecap="round" stroke-linejoin="round"/>
<path d="M14.0112 15.9944V13.9799C14.0112 12.5495 12.8516 11.3899 11.4212 11.3899H10.2701C9.79327 11.3899 9.40674 11.0034 9.40674 10.5266V9.37543C9.40674 7.945 8.24714 6.7854 6.81671 6.7854H5.37781M5.37781 16.5699H11.1334M5.37781 18.8722H8.25562M7.10449 6.7854H3.36334C2.88653 6.7854 2.5 7.17193 2.5 7.64874V20.8867C2.5 21.3635 2.88653 21.75 3.36334 21.75H13.1479C13.6247 21.75 14.0112 21.3635 14.0112 20.8867V13.6921C14.0112 9.87765 10.919 6.7854 7.10449 6.7854Z" stroke="currentColor" stroke-width="1.5" stroke-linecap="round" stroke-linejoin="round"/>
</svg>
