<svg width="24" height="24" viewBox="0 0 24 24" fill="none" xmlns="http://www.w3.org/2000/svg">
<path d="M21.75 10.0001V10.9062C21.75 11.7339 21.2955 12.4948 20.5667 12.8872L19.757 13.3232L18.9474 13.7592L17.328 14.6312L14.0893 16.3751M2.25 10.0001V10.9062C2.25 11.7339 2.70448 12.4948 3.43328 12.8872L4.24296 13.3232L5.05264 13.7592L6.67201 14.6312L9.91074 16.3751M18.75 18.8847L14.0893 16.3751M14.0893 16.3751L13.0667 15.8245C12.4008 15.4659 11.5992 15.4659 10.9333 15.8245L9.91074 16.3751M9.91074 16.3751L5.25 18.8847M19.1605 7.10571L19.6292 7.35812L20.5667 7.86292C21.2955 8.25535 21.75 9.01625 21.75 9.84398V20.5001C21.75 21.7427 20.7426 22.7501 19.5 22.7501H4.5C3.25736 22.7501 2.25 21.7427 2.25 20.5001L2.25 9.84398C2.25 9.01625 2.70448 8.25535 3.43327 7.86292L3.99423 7.56087L4.27471 7.40984" stroke="currentColor" stroke-width="1.5" stroke-linecap="round" stroke-linejoin="round"/>
<path d="M19.5 10.25C19.5 5.27944 15.4706 1.25 10.5 1.25H5.625C5.00368 1.25 4.5 1.75368 4.5 2.375V11V13.1562M19.5 13.25V10.625C19.5 8.76104 17.989 7.25 16.125 7.25H14.625C14.0037 7.25 13.5 6.74632 13.5 6.125V4.625C13.5 2.76104 11.989 1.25 10.125 1.25H8.25M8.25 10H15.75M8.25 13H12" stroke="currentColor" stroke-width="1.5" stroke-linecap="round" stroke-linejoin="round"/>
</svg>
