<svg width="24" height="24" viewBox="0 0 24 24" fill="none" xmlns="http://www.w3.org/2000/svg">
<path d="M16.6609 6.96152C17.3943 6.31979 18.5834 6.31979 19.3168 6.96152C20.0502 7.60324 20.0502 8.64368 19.3168 9.2854C19.1891 9.3971 19.0477 9.48935 18.8972 9.56216C18.4304 9.78807 17.9888 10.1871 17.9888 10.7057V11.1752M17.9887 13.0532H17.9934V13.0579H17.9887V13.0532Z" stroke="currentColor" stroke-width="1.5" stroke-linecap="round" stroke-linejoin="round"/>
<path d="M12.75 6.375C12.75 8.23896 11.239 9.75 9.375 9.75C7.51104 9.75 6 8.23896 6 6.375C6 4.51104 7.51104 3 9.375 3C11.239 3 12.75 4.51104 12.75 6.375Z" stroke="currentColor" stroke-width="1.5" stroke-linecap="round" stroke-linejoin="round"/>
<path d="M3.00092 19.2343C3.00031 19.198 3 19.1615 3 19.125C3 15.6042 5.85418 12.75 9.375 12.75C12.8958 12.75 15.75 15.6042 15.75 19.125V19.1276C15.75 19.1632 15.7497 19.1988 15.7491 19.2343C13.8874 20.3552 11.7065 21 9.375 21C7.04353 21 4.86264 20.3552 3.00092 19.2343Z" stroke="currentColor" stroke-width="1.5" stroke-linecap="round" stroke-linejoin="round"/>
</svg>
