<svg width="24" height="24" viewBox="0 0 24 24" fill="none" xmlns="http://www.w3.org/2000/svg">
<path d="M15 1.78394L14.2045 2.57944C13.7652 3.01878 13.7652 3.73109 14.2045 4.17043C14.6438 4.60977 15.3562 4.60977 15.7955 4.17043C16.2348 3.73109 16.2348 3.01878 15.7955 2.57944L15 1.78394Z" fill="currentColor"/>
<path d="M12 1.78394L11.2045 2.57944C10.7652 3.01878 10.7652 3.73109 11.2045 4.17043C11.6438 4.60977 12.3562 4.60977 12.7955 4.17043C13.2348 3.73109 13.2348 3.01878 12.7955 2.57944L12 1.78394Z" fill="currentColor"/>
<path d="M8.99999 1.78394L8.2045 2.57944C7.76516 3.01878 7.76516 3.73109 8.2045 4.17043C8.64384 4.60977 9.35616 4.60977 9.7955 4.17043C10.2348 3.73109 10.2348 3.01878 9.7955 2.57944L8.99999 1.78394Z" fill="currentColor"/>
<path d="M9.75 7.54663C10.2483 7.52591 10.7483 7.51204 11.25 7.50511V6.74994C11.25 6.33573 11.5858 5.99994 12 5.99994C12.4142 5.99994 12.75 6.33573 12.75 6.74994V7.50511C13.2517 7.51204 13.7517 7.52591 14.25 7.54663V6.74994C14.25 6.33573 14.5858 5.99994 15 5.99994C15.4142 5.99994 15.75 6.33573 15.75 6.74994V7.62996C15.8524 7.63709 15.9547 7.6445 16.0569 7.6522C17.6071 7.769 18.75 9.07926 18.75 10.5976V11.6161C16.5333 11.3741 14.2811 11.2499 12 11.2499C9.71886 11.2499 7.46673 11.3741 5.25 11.6161V10.5976C5.25 9.07926 6.39295 7.769 7.94314 7.6522C8.04534 7.6445 8.14763 7.63709 8.25 7.62996V6.74994C8.25 6.33573 8.58579 5.99994 9 5.99994C9.41421 5.99994 9.75 6.33573 9.75 6.74994V7.54663Z" fill="currentColor"/>
<path d="M12 12.7499C9.52847 12.7499 7.09944 12.9339 4.72596 13.2891C3.27191 13.5066 2.25 14.7716 2.25 16.2056V16.5899C3.11853 16.4285 4.02704 16.5499 4.83541 16.9541C5.56854 17.3207 6.43146 17.3207 7.16459 16.9541C8.32001 16.3764 9.67999 16.3764 10.8354 16.9541C11.5685 17.3207 12.4315 17.3207 13.1646 16.9541C14.32 16.3764 15.68 16.3764 16.8354 16.9541C17.5685 17.3207 18.4315 17.3207 19.1646 16.9541C19.973 16.5499 20.8815 16.4285 21.75 16.5899V16.2056C21.75 14.7716 20.7281 13.5066 19.274 13.2891C16.9006 12.9339 14.4715 12.7499 12 12.7499Z" fill="currentColor"/>
<path d="M21.75 18.1311C21.1195 17.9415 20.4342 17.9964 19.8354 18.2958C18.68 18.8735 17.32 18.8735 16.1646 18.2958C15.4315 17.9292 14.5685 17.9292 13.8354 18.2958C12.68 18.8735 11.32 18.8735 10.1646 18.2958C9.43146 17.9292 8.56854 17.9292 7.83541 18.2958C6.67999 18.8735 5.32001 18.8735 4.16459 18.2958C3.56583 17.9964 2.88049 17.9415 2.25 18.1311V20.6249C2.25 21.6605 3.08947 22.4999 4.125 22.4999H19.875C20.9105 22.4999 21.75 21.6605 21.75 20.6249V18.1311Z" fill="currentColor"/>
</svg>
