<svg width="24" height="24" viewBox="0 0 24 24" fill="none" xmlns="http://www.w3.org/2000/svg">
<path d="M5.21997 6.66207V13.4165C5.21997 14.7206 6.27722 15.7779 7.5814 15.7779H19.3885C20.6927 15.7779 21.75 14.7206 21.75 13.4165V6.66207L14.7226 10.9866C13.9636 11.4537 13.0063 11.4537 12.2474 10.9866L5.21997 6.66207Z" fill="currentColor"/>
<path d="M21.75 5.2757V5.15147C21.75 3.84729 20.6927 2.79004 19.3885 2.79004H7.5814C6.27722 2.79004 5.21997 3.84729 5.21997 5.15147V5.2757L12.8662 9.98105C13.2457 10.2146 13.7243 10.2146 14.1038 9.98105L21.75 5.2757Z" fill="currentColor"/>
<path d="M7.15918 5.36279L7.33789 5.36768C9.17174 5.46064 10.6298 6.97657 10.6299 8.8335V10.3188C10.6299 10.863 11.0712 11.304 11.6152 11.3042H13.1016C15.0183 11.3044 16.5723 12.8591 16.5723 14.7759V21.0142C16.5723 22.1106 15.6833 22.9993 14.5869 22.9995H4.48535C3.38886 22.9995 2.5 22.1107 2.5 21.0142V7.34814L2.50977 7.14502C2.61152 6.14396 3.45746 5.36285 4.48535 5.36279H7.15918ZM6.56543 18.8403C6.51341 18.8403 6.4707 18.883 6.4707 18.9351C6.47083 18.987 6.51349 19.0288 6.56543 19.0288H9.53613C9.58801 19.0287 9.62975 18.9869 9.62988 18.9351C9.62988 18.8831 9.58809 18.8404 9.53613 18.8403H6.56543ZM6.56543 16.4644C6.51341 16.4644 6.4707 16.5061 6.4707 16.5581C6.47071 16.6101 6.51342 16.6519 6.56543 16.6519H12.5068C12.5588 16.6519 12.6016 16.6101 12.6016 16.5581C12.6016 16.5061 12.5589 16.4644 12.5068 16.4644H6.56543ZM9.88086 5.84912C9.99653 5.66315 10.2197 5.5741 10.4316 5.62939C13.2994 6.37852 15.5565 8.63563 16.3057 11.5034C16.3608 11.7152 16.2718 11.9386 16.0859 12.0542C15.8999 12.1699 15.6598 12.1507 15.4941 12.0073C14.8524 11.452 14.0168 11.1168 13.1016 11.1167H11.6152C11.1752 11.1165 10.8184 10.7589 10.8184 10.3188V8.8335C10.8183 7.918 10.4833 7.0818 9.92773 6.43994C9.78442 6.27434 9.76524 6.03511 9.88086 5.84912Z" fill="currentColor" stroke="currentColor" stroke-linejoin="round"/>
</svg>
