<svg width="24" height="24" viewBox="0 0 24 24" fill="none" xmlns="http://www.w3.org/2000/svg">
<path fill-rule="evenodd" clip-rule="evenodd" d="M4.5 3.75C2.84315 3.75 1.5 5.09315 1.5 6.75V7.5H22.5V6.75C22.5 5.09315 21.1569 3.75 19.5 3.75H4.5ZM22.5 9.75H1.5V17.25C1.5 18.9069 2.84315 20.25 4.5 20.25H12.1113C12.0382 19.8444 12 19.4267 12 19C12 15.134 15.134 12 19 12C20.275 12 21.4704 12.3409 22.5 12.9365V9.75ZM4.5 13.5C4.5 13.0858 4.83579 12.75 5.25 12.75H11.25C11.6642 12.75 12 13.0858 12 13.5C12 13.9142 11.6642 14.25 11.25 14.25H5.25C4.83579 14.25 4.5 13.9142 4.5 13.5ZM5.25 15.75C4.83579 15.75 4.5 16.0858 4.5 16.5C4.5 16.9142 4.83579 17.25 5.25 17.25H8.25C8.66421 17.25 9 16.9142 9 16.5C9 16.0858 8.66421 15.75 8.25 15.75H5.25ZM19 15C19.4767 15 19.8871 15.3365 19.9806 15.8039L20.2191 16.9964C20.2983 17.3923 20.6077 17.7017 21.0036 17.7809L22.1961 18.0194C22.6635 18.1129 23 18.5233 23 19C23 19.4767 22.6635 19.8871 22.1961 19.9806L21.0036 20.2191C20.6077 20.2983 20.2983 20.6077 20.2191 21.0036L19.9806 22.1961C19.8871 22.6635 19.4767 23 19 23C18.5233 23 18.1129 22.6635 18.0194 22.1961L17.7809 21.0036C17.7017 20.6077 17.3923 20.2983 16.9964 20.2191L15.8039 19.9806C15.3365 19.8871 15 19.4767 15 19C15 18.5233 15.3365 18.1129 15.8039 18.0194L16.9964 17.7809C17.3923 17.7017 17.7017 17.3923 17.7809 16.9964L18.0194 15.8039C18.1129 15.3365 18.5233 15 19 15Z" fill="currentColor"/>
</svg>
