<svg width="24" height="24" viewBox="0 0 24 24" fill="none" xmlns="http://www.w3.org/2000/svg">
<path fill-rule="evenodd" clip-rule="evenodd" d="M4.5 9.5C4.5 8.67157 5.17157 8 6 8C6.82843 8 7.5 8.67157 7.5 9.5C7.5 10.3284 6.82843 11 6 11C5.17157 11 4.5 10.3284 4.5 9.5ZM10.5 9.5C10.5 8.67157 11.1716 8 12 8C12.8284 8 13.5 8.67157 13.5 9.5C13.5 10.3284 12.8284 11 12 11C11.1716 11 10.5 10.3284 10.5 9.5ZM16.5 9.5C16.5 8.67157 17.1716 8 18 8C18.8284 8 19.5 8.67157 19.5 9.5C19.5 10.3284 18.8284 11 18 11C17.1716 11 16.5 10.3284 16.5 9.5Z" fill="currentColor"/>
<path fill-rule="evenodd" clip-rule="evenodd" d="M4.5 15.5C4.5 14.6716 5.17157 14 6 14C6.82843 14 7.5 14.6716 7.5 15.5C7.5 16.3284 6.82843 17 6 17C5.17157 17 4.5 16.3284 4.5 15.5ZM10.5 15.5C10.5 14.6716 11.1716 14 12 14C12.8284 14 13.5 14.6716 13.5 15.5C13.5 16.3284 12.8284 17 12 17C11.1716 17 10.5 16.3284 10.5 15.5ZM16.5 15.5C16.5 14.6716 17.1716 14 18 14C18.8284 14 19.5 14.6716 19.5 15.5C19.5 16.3284 18.8284 17 18 17C17.1716 17 16.5 16.3284 16.5 15.5Z" fill="currentColor"/>
</svg>
