<svg width="24" height="24" viewBox="0 0 24 24" fill="none" xmlns="http://www.w3.org/2000/svg">
<path fill-rule="evenodd" clip-rule="evenodd" d="M21.5 6.90783V6.75C21.5 5.09315 20.1569 3.75 18.5 3.75H3.5C1.84315 3.75 0.5 5.09315 0.5 6.75V6.90783L10.2139 12.8856C10.696 13.1823 11.304 13.1823 11.7861 12.8856L21.5 6.90783ZM0.5 8.6691V17.25C0.5 18.9069 1.84315 20.25 3.5 20.25H13.1304C13.045 19.8468 13 19.4287 13 19C13 15.6863 15.6863 13 19 13C19.8922 13 20.7389 13.1947 21.5 13.544V8.6691L12.5723 14.1631C11.6081 14.7564 10.3919 14.7564 9.42771 14.1631L0.5 8.6691ZM22.6103 16.186C22.8511 15.8489 22.773 15.3805 22.4359 15.1398C22.0989 14.899 21.6305 14.9771 21.3897 15.3141L18.1543 19.8437L16.5303 18.2197C16.2374 17.9268 15.7626 17.9268 15.4697 18.2197C15.1768 18.5126 15.1768 18.9875 15.4697 19.2804L17.7197 21.5304C17.8756 21.6863 18.0921 21.7657 18.3119 21.7475C18.5316 21.7293 18.7322 21.6154 18.8603 21.436L22.6103 16.186Z" fill="currentColor"/>
</svg>
