<svg width="24" height="24" viewBox="0 0 24 24" fill="none" xmlns="http://www.w3.org/2000/svg">
<path d="M19.5 23.5C21.1569 23.5 22.5 22.1568 22.5 20.5V12.3262L15.6212 16.3481L19.1056 18.2243C19.4703 18.4206 19.6067 18.8755 19.4104 19.2402C19.214 19.6049 18.7591 19.7413 18.3944 19.545L12.7112 16.4847C12.2672 16.2457 11.7328 16.2457 11.2889 16.4847L5.60558 19.545C5.24087 19.7413 4.78603 19.6049 4.58965 19.2402C4.39327 18.8755 4.52972 18.4206 4.89442 18.2243L8.37878 16.3481L1.5 12.3262V20.5C1.5 22.1568 2.84315 23.5 4.5 23.5L19.5 23.5Z" fill="currentColor"/>
<path d="M1.5 10.5886V9.84388C1.5 8.74023 2.10597 7.72571 3.0777 7.20247L10.5777 3.16401C11.4656 2.68589 12.5344 2.68589 13.4223 3.16401L20.9223 7.20247C21.894 7.72571 22.5 8.74024 22.5 9.84388V10.5886L14.0742 15.515L13.4223 15.164C12.5344 14.6859 11.4656 14.6859 10.5777 15.164L9.92585 15.515L1.5 10.5886Z" fill="currentColor"/>
<mask id="path-2-outside-1_12312_143" maskUnits="userSpaceOnUse" x="3.10693" y="0.227051" width="18" height="17" fill="currentColor">
<rect fill="currentColor" x="3.10693" y="0.227051" width="18" height="17"/>
<path fill-rule="evenodd" clip-rule="evenodd" d="M18.893 12.6976L14.0742 15.515L13.4223 15.164C12.5344 14.6859 11.4656 14.6859 10.5777 15.164L9.92585 15.515L5.10693 12.6975V3.79365C5.10693 2.92844 5.80832 2.22705 6.67353 2.22705H9.49341C11.2238 2.22705 12.6266 3.62983 12.6266 5.36025V6.92685C12.6266 7.79205 13.328 8.49344 14.1932 8.49344H15.7598C17.4902 8.49344 18.893 9.89622 18.893 11.6266V12.6976ZM8.86677 10.3734C8.52069 10.3734 8.24013 10.6539 8.24013 11C8.24013 11.3461 8.52069 11.6266 8.86677 11.6266H15.1332C15.4792 11.6266 15.7598 11.3461 15.7598 11C15.7598 10.6539 15.4792 10.3734 15.1332 10.3734H8.86677ZM8.24013 13.5066C8.24013 13.1605 8.52069 12.8799 8.86677 12.8799H12C12.346 12.8799 12.6266 13.1605 12.6266 13.5066C12.6266 13.8526 12.346 14.1332 12 14.1332H8.86677C8.52069 14.1332 8.24013 13.8526 8.24013 13.5066ZM13.8799 5.36025C13.8799 4.26317 13.4771 3.26015 12.8114 2.491C15.6513 3.23283 17.8872 5.46876 18.6291 8.30863C17.8599 7.64292 16.8569 7.24016 15.7598 7.24016H14.1932C14.0202 7.24016 13.8799 7.09989 13.8799 6.92685V5.36025Z"/>
</mask>
<path fill-rule="evenodd" clip-rule="evenodd" d="M18.893 12.6976L14.0742 15.515L13.4223 15.164C12.5344 14.6859 11.4656 14.6859 10.5777 15.164L9.92585 15.515L5.10693 12.6975V3.79365C5.10693 2.92844 5.80832 2.22705 6.67353 2.22705H9.49341C11.2238 2.22705 12.6266 3.62983 12.6266 5.36025V6.92685C12.6266 7.79205 13.328 8.49344 14.1932 8.49344H15.7598C17.4902 8.49344 18.893 9.89622 18.893 11.6266V12.6976ZM8.86677 10.3734C8.52069 10.3734 8.24013 10.6539 8.24013 11C8.24013 11.3461 8.52069 11.6266 8.86677 11.6266H15.1332C15.4792 11.6266 15.7598 11.3461 15.7598 11C15.7598 10.6539 15.4792 10.3734 15.1332 10.3734H8.86677ZM8.24013 13.5066C8.24013 13.1605 8.52069 12.8799 8.86677 12.8799H12C12.346 12.8799 12.6266 13.1605 12.6266 13.5066C12.6266 13.8526 12.346 14.1332 12 14.1332H8.86677C8.52069 14.1332 8.24013 13.8526 8.24013 13.5066ZM13.8799 5.36025C13.8799 4.26317 13.4771 3.26015 12.8114 2.491C15.6513 3.23283 17.8872 5.46876 18.6291 8.30863C17.8599 7.64292 16.8569 7.24016 15.7598 7.24016H14.1932C14.0202 7.24016 13.8799 7.09989 13.8799 6.92685V5.36025Z" fill="currentColor"/>
<path d="M18.893 12.6976L19.6501 13.9925C20.1102 13.7235 20.393 13.2305 20.393 12.6976H18.893ZM14.0742 15.515L13.363 16.8357C13.8235 17.0837 14.3798 17.0739 14.8313 16.8099L14.0742 15.515ZM13.4223 15.164L14.1335 13.8433L14.1335 13.8433L13.4223 15.164ZM10.5777 15.164L11.2889 16.4847L11.2889 16.4847L10.5777 15.164ZM9.92585 15.515L9.16874 16.8099C9.6202 17.0739 10.1765 17.0837 10.637 16.8357L9.92585 15.515ZM5.10693 12.6975H3.60693C3.60693 13.2305 3.88973 13.7234 4.34983 13.9924L5.10693 12.6975ZM12.8114 2.491L13.1905 1.03969C12.5547 0.873603 11.8848 1.14072 11.5377 1.69875C11.1906 2.25677 11.2472 2.97575 11.6772 3.47264L12.8114 2.491ZM18.6291 8.30863L17.6474 9.44281C18.1443 9.87288 18.8633 9.92943 19.4213 9.58235C19.9793 9.23526 20.2464 8.56535 20.0804 7.92952L18.6291 8.30863ZM18.1359 11.4026L13.317 14.2201L14.8313 16.8099L19.6501 13.9925L18.1359 11.4026ZM14.7853 14.1943L14.1335 13.8433L12.7112 16.4847L13.363 16.8357L14.7853 14.1943ZM14.1335 13.8433C12.8016 13.1262 11.1984 13.1262 9.86655 13.8433L11.2889 16.4847C11.7328 16.2457 12.2672 16.2457 12.7112 16.4847L14.1335 13.8433ZM9.86655 13.8433L9.2147 14.1943L10.637 16.8357L11.2889 16.4847L9.86655 13.8433ZM10.683 14.2201L5.86404 11.4026L4.34983 13.9924L9.16874 16.8099L10.683 14.2201ZM3.60693 3.79365V12.6975H6.60693V3.79365H3.60693ZM6.67353 0.727051C4.9799 0.727051 3.60693 2.10001 3.60693 3.79365H6.60693C6.60693 3.75687 6.63675 3.72705 6.67353 3.72705V0.727051ZM9.49341 0.727051H6.67353V3.72705H9.49341V0.727051ZM14.1266 5.36025C14.1266 2.8014 12.0523 0.727051 9.49341 0.727051V3.72705C10.3954 3.72705 11.1266 4.45826 11.1266 5.36025H14.1266ZM14.1266 6.92685V5.36025H11.1266V6.92685H14.1266ZM14.1932 6.99344C14.1564 6.99344 14.1266 6.96363 14.1266 6.92685H11.1266C11.1266 8.62048 12.4996 9.99344 14.1932 9.99344V6.99344ZM15.7598 6.99344H14.1932V9.99344H15.7598V6.99344ZM20.393 11.6266C20.393 9.06779 18.3186 6.99344 15.7598 6.99344V9.99344C16.6618 9.99344 17.393 10.7247 17.393 11.6266H20.393ZM20.393 12.6976V11.6266H17.393V12.6976H20.393ZM9.74013 11C9.74013 11.4823 9.34911 11.8734 8.86677 11.8734V8.87336C7.69226 8.87336 6.74013 9.82549 6.74013 11H9.74013ZM8.86677 10.1266C9.34911 10.1266 9.74013 10.5177 9.74013 11H6.74013C6.74013 12.1745 7.69226 13.1266 8.86677 13.1266V10.1266ZM15.1332 10.1266H8.86677V13.1266H15.1332V10.1266ZM14.2598 11C14.2598 10.5177 14.6508 10.1266 15.1332 10.1266V13.1266C16.3077 13.1266 17.2598 12.1745 17.2598 11H14.2598ZM15.1332 11.8734C14.6508 11.8734 14.2598 11.4823 14.2598 11H17.2598C17.2598 9.82549 16.3077 8.87336 15.1332 8.87336V11.8734ZM8.86677 11.8734H15.1332V8.87336H8.86677V11.8734ZM8.86677 11.3799C7.69226 11.3799 6.74013 12.332 6.74013 13.5066H9.74013C9.74013 13.9889 9.34911 14.3799 8.86677 14.3799V11.3799ZM12 11.3799H8.86677V14.3799H12V11.3799ZM14.1266 13.5066C14.1266 12.332 13.1745 11.3799 12 11.3799V14.3799C11.5176 14.3799 11.1266 13.9889 11.1266 13.5066H14.1266ZM12 15.6332C13.1745 15.6332 14.1266 14.6811 14.1266 13.5066H11.1266C11.1266 13.0242 11.5176 12.6332 12 12.6332V15.6332ZM8.86677 15.6332H12V12.6332H8.86677V15.6332ZM6.74013 13.5066C6.74013 14.6811 7.69226 15.6332 8.86677 15.6332V12.6332C9.34911 12.6332 9.74013 13.0242 9.74013 13.5066H6.74013ZM11.6772 3.47264C12.116 3.97956 12.3799 4.63721 12.3799 5.36025H15.3799C15.3799 3.88912 14.8383 2.54074 13.9456 1.50935L11.6772 3.47264ZM20.0804 7.92952C19.2014 4.56463 16.5554 1.91867 13.1905 1.03969L12.4323 3.9423C14.7472 4.54698 16.5731 6.3729 17.1777 8.68774L20.0804 7.92952ZM15.7598 8.74016C16.4828 8.74016 17.1405 9.00407 17.6474 9.44281L19.6107 7.17445C18.5793 6.28177 17.2309 5.74016 15.7598 5.74016V8.74016ZM14.1932 8.74016H15.7598V5.74016H14.1932V8.74016ZM12.3799 6.92685C12.3799 7.92831 13.1917 8.74016 14.1932 8.74016V5.74016C14.8486 5.74016 15.3799 6.27146 15.3799 6.92685H12.3799ZM12.3799 5.36025V6.92685H15.3799V5.36025H12.3799Z" fill="currentColor" mask="url(#path-2-outside-1_12312_143)"/>
</svg>
