<svg width="24" height="24" viewBox="0 0 24 24" fill="none" xmlns="http://www.w3.org/2000/svg">
<path fill-rule="evenodd" clip-rule="evenodd" d="M9.40123 3.00327C10.5557 1.00216 13.4439 1.00216 14.5983 3.00327L21.9527 15.7508C23.1065 17.7508 21.6631 20.2499 19.3541 20.2499H4.64546C2.33649 20.2499 0.893061 17.7508 2.04691 15.7508L9.40123 3.00327ZM12 8.24988C12.4142 8.24988 12.75 8.58566 12.75 8.99988V12.7499C12.75 13.1641 12.4142 13.4999 12 13.4999C11.5858 13.4999 11.25 13.1641 11.25 12.7499V8.99988C11.25 8.58566 11.5858 8.24988 12 8.24988ZM12 16.4999C12.4142 16.4999 12.75 16.1641 12.75 15.7499C12.75 15.3357 12.4142 14.9999 12 14.9999C11.5858 14.9999 11.25 15.3357 11.25 15.7499C11.25 16.1641 11.5858 16.4999 12 16.4999Z" fill="currentColor"/>
</svg>
