<svg width="24" height="24" viewBox="0 0 24 24" fill="none" xmlns="http://www.w3.org/2000/svg">
<path d="M12.0034 21.75C17.3882 21.75 21.7534 17.3848 21.7534 12C21.7534 6.61522 17.3882 2.25 12.0034 2.25V21.75Z" fill="currentColor"/>
<path fill-rule="evenodd" clip-rule="evenodd" d="M10.3069 2.3966C10.8573 2.30019 11.4231 2.25 12 2.25C12.5769 2.25 13.1427 2.30019 13.6931 2.3966C14.1011 2.46807 14.3739 2.85676 14.3024 3.26477C14.2309 3.67277 13.8422 3.94558 13.4342 3.8741C12.9689 3.79259 12.4898 3.75 12 3.75C11.5102 3.75 11.0311 3.79259 10.5658 3.8741C10.1578 3.94558 9.76907 3.67277 9.6976 3.26477C9.62613 2.85676 9.89894 2.46807 10.3069 2.3966ZM16.5486 4.19624C16.7864 3.85714 17.2542 3.77508 17.5933 4.01296C18.5235 4.66554 19.3345 5.47645 19.987 6.40673C20.2249 6.74583 20.1429 7.21356 19.8038 7.45144C19.4647 7.68931 18.9969 7.60725 18.7591 7.26815C18.2065 6.48041 17.5196 5.79354 16.7318 5.24095C16.3927 5.00307 16.3107 4.53534 16.5486 4.19624ZM7.45144 4.19624C7.68931 4.53534 7.60725 5.00307 7.26815 5.24095C6.48041 5.79354 5.79354 6.48041 5.24095 7.26815C5.00307 7.60725 4.53534 7.68931 4.19624 7.45144C3.85714 7.21356 3.77508 6.74583 4.01296 6.40673C4.66554 5.47645 5.47645 4.66554 6.40673 4.01296C6.74583 3.77508 7.21356 3.85714 7.45144 4.19624ZM20.7352 9.6976C21.1432 9.62613 21.5319 9.89894 21.6034 10.3069C21.6998 10.8573 21.75 11.4231 21.75 12C21.75 12.5769 21.6998 13.1427 21.6034 13.6931C21.5319 14.1011 21.1432 14.3739 20.7352 14.3024C20.3272 14.2309 20.0544 13.8422 20.1259 13.4342C20.2074 12.9689 20.25 12.4898 20.25 12C20.25 11.5102 20.2074 11.0311 20.1259 10.5658C20.0544 10.1578 20.3272 9.76907 20.7352 9.6976ZM3.26476 9.6976C3.67277 9.76907 3.94557 10.1578 3.8741 10.5658C3.79259 11.0311 3.75 11.5102 3.75 12C3.75 12.4898 3.79259 12.9689 3.8741 13.4342C3.94557 13.8422 3.67277 14.2309 3.26476 14.3024C2.85676 14.3739 2.46807 14.1011 2.3966 13.6931C2.30019 13.1427 2.25 12.5769 2.25 12C2.25 11.4231 2.30019 10.8573 2.3966 10.3069C2.46807 9.89894 2.85676 9.62613 3.26476 9.6976ZM4.19624 16.5486C4.53534 16.3107 5.00307 16.3927 5.24095 16.7318C5.79354 17.5196 6.48041 18.2065 7.26815 18.7591C7.60725 18.9969 7.68931 19.4647 7.45144 19.8038C7.21356 20.1429 6.74583 20.2249 6.40673 19.987C5.47645 19.3345 4.66554 18.5235 4.01296 17.5933C3.77508 17.2542 3.85714 16.7864 4.19624 16.5486ZM19.8038 16.5486C20.1429 16.7864 20.2249 17.2542 19.987 17.5933C19.3345 18.5235 18.5235 19.3345 17.5933 19.987C17.2542 20.2249 16.7864 20.1429 16.5486 19.8038C16.3107 19.4647 16.3927 18.9969 16.7318 18.7591C17.5196 18.2065 18.2065 17.5196 18.7591 16.7318C18.9969 16.3927 19.4647 16.3107 19.8038 16.5486ZM9.6976 20.7352C9.76907 20.3272 10.1578 20.0544 10.5658 20.1259C11.0311 20.2074 11.5102 20.25 12 20.25C12.4898 20.25 12.9689 20.2074 13.4342 20.1259C13.8422 20.0544 14.2309 20.3272 14.3024 20.7352C14.3739 21.1432 14.1011 21.5319 13.6931 21.6034C13.1427 21.6998 12.5769 21.75 12 21.75C11.4231 21.75 10.8573 21.6998 10.3069 21.6034C9.89894 21.5319 9.62613 21.1432 9.6976 20.7352Z" fill="currentColor"/>
</svg>
