<svg width="24" height="24" viewBox="0 0 24 24" fill="none" xmlns="http://www.w3.org/2000/svg">
<path d="M19.0061 3.70487C19.3954 3.56331 19.5962 3.13299 19.4547 2.74371C19.3131 2.35444 18.8828 2.15362 18.4935 2.29518L6 6.83828V3.00002C6 2.58581 5.66421 2.25002 5.25 2.25002H3.75C3.33579 2.25002 3 2.58581 3 3.00002V7.92919L1.99353 8.29518C1.60426 8.43673 1.40344 8.86705 1.54499 9.25633C1.68655 9.6456 2.11687 9.84642 2.50615 9.70487L19.0061 3.70487Z" fill="currentColor"/>
<path fill-rule="evenodd" clip-rule="evenodd" d="M3.01896 11.1145L18 5.6669V9.0884L22.0061 10.5452C22.3954 10.6867 22.5962 11.1171 22.4547 11.5063C22.3131 11.8956 21.8828 12.0964 21.4935 11.9549L20.9998 11.7753V20.25H21.75C22.1642 20.25 22.5 20.5858 22.5 21C22.5 21.4142 22.1642 21.75 21.75 21.75H2.25C1.83579 21.75 1.5 21.4142 1.5 21C1.5 20.5858 1.83579 20.25 2.25 20.25H3V11.1213L3.01896 11.1145ZM18 20.25V10.6845L19.4998 11.2299V20.25H18ZM9 14.25C8.58579 14.25 8.25 14.5858 8.25 15V19.5C8.25 19.9142 8.58579 20.25 9 20.25H12C12.4142 20.25 12.75 19.9142 12.75 19.5V15C12.75 14.5858 12.4142 14.25 12 14.25H9Z" fill="currentColor"/>
</svg>
