<svg width="24" height="24" viewBox="0 0 24 24" fill="none" xmlns="http://www.w3.org/2000/svg">
<path fill-rule="evenodd" clip-rule="evenodd" d="M6.80022 3.98184C6.16924 3.596 5.39459 3.41201 4.42898 3.54063C3.67767 3.6407 3.15272 4.05492 2.83654 4.69728C2.50787 5.365 2.39718 6.30841 2.60621 7.39847C2.95104 9.19671 4.14764 11.2704 6.35224 12.8222C7.09829 12.2461 7.89451 11.7298 8.70863 11.3106C8.97594 11.173 9.24769 11.0445 9.52244 10.9274C9.47398 9.0032 9.10914 7.19748 8.41707 5.84883C7.9848 5.00646 7.44169 4.3741 6.80022 3.98184ZM11.0042 10.4217C10.9076 8.5019 10.5118 6.6453 9.75161 5.164C9.22925 4.14607 8.51827 3.27422 7.58276 2.70214C6.63674 2.12365 5.51152 1.88319 4.23093 2.05376C2.9481 2.22463 2.01175 2.97634 1.49074 4.03484C0.982205 5.06798 0.879806 6.36035 1.13305 7.68097C1.53663 9.78558 2.86089 12.0783 5.1737 13.8192C4.81899 14.1474 4.48269 14.4863 4.16935 14.8305C2.94038 16.1805 1.9859 17.6996 1.73788 19.0586C1.61131 19.752 1.65821 20.4691 2.02528 21.0906C2.39746 21.7207 3.02975 22.1363 3.83921 22.3539C4.93366 22.6481 5.95473 22.4855 6.8482 21.9778C7.72231 21.481 8.44142 20.6744 9.0165 19.7207C10.1641 17.8176 10.8395 15.1623 10.9938 12.5326C11.0047 12.3469 11.013 12.1606 11.0187 11.9741C11.9473 11.6917 12.8197 11.6126 13.5763 11.7741C13.6756 11.7953 13.7358 11.8181 13.7698 11.8341C13.7644 11.8859 13.7458 11.9722 13.6976 12.1021C13.6388 12.2604 13.554 12.4376 13.4502 12.6412C13.4234 12.6936 13.3946 12.7494 13.3647 12.8071C13.2873 12.9568 13.2034 13.1191 13.1328 13.2686C13.0354 13.4748 12.9294 13.7247 12.8793 13.9782C12.83 14.2271 12.8095 14.6093 13.0524 14.9564C13.2966 15.3053 13.6771 15.4344 14.0003 15.4791C15.9248 15.7455 17.0341 14.3349 17.7365 13.3612C17.8236 13.2405 17.9044 13.1266 17.9804 13.0193C18.2504 12.6386 18.4608 12.3418 18.6818 12.1237C18.9315 11.8773 19.0189 11.9042 19.0689 11.9196C19.0701 11.92 19.0714 11.9204 19.0726 11.9207C19.0739 11.9211 19.0752 11.9215 19.0765 11.9219C19.1252 11.9365 19.1958 11.9576 19.2604 12.252C19.2942 12.4063 19.3135 12.5845 19.334 12.8061C19.3359 12.8261 19.3378 12.8466 19.3397 12.8675C19.3572 13.0596 19.3783 13.2896 19.4178 13.5025C19.461 13.7357 19.5397 14.0323 19.723 14.2944C19.9273 14.5867 20.232 14.7931 20.6241 14.8598C20.9808 14.9205 21.3606 14.8574 21.7439 14.7336C22.1344 14.6075 22.587 14.3989 23.1147 14.1051C23.4767 13.9037 23.6067 13.447 23.4053 13.0851C23.2038 12.7231 22.7471 12.5931 22.3852 12.7945C21.9038 13.0625 21.5456 13.2213 21.2829 13.3062C21.1025 13.3644 20.991 13.3799 20.9304 13.3826C20.9181 13.3464 20.9051 13.2965 20.8926 13.2289C20.8664 13.0879 20.8517 12.928 20.8324 12.7195C20.8309 12.7025 20.8293 12.6853 20.8276 12.6676C20.8076 12.4518 20.7818 12.1871 20.7256 11.9306C20.6117 11.4114 20.324 10.7327 19.5079 10.4853C18.6923 10.238 18.0569 10.633 17.6283 11.056C17.3033 11.3767 16.9905 11.8194 16.7111 12.2149C16.6455 12.3078 16.5817 12.3981 16.52 12.4837C15.8442 13.4205 15.2681 14.0176 14.4426 14.011C14.4564 13.9797 14.4718 13.9458 14.4891 13.9091C14.5476 13.7854 14.6115 13.6618 14.6832 13.5232C14.7159 13.4599 14.7503 13.3935 14.7865 13.3225C14.8945 13.1107 15.013 12.8688 15.1038 12.6241C15.1927 12.3847 15.2746 12.0924 15.2715 11.7854C15.2681 11.457 15.1656 11.1039 14.885 10.8123C14.6206 10.5374 14.2652 10.3874 13.8896 10.3072C12.9616 10.109 11.98 10.1757 11.0042 10.4217ZM14.148 13.9816C14.148 13.9815 14.1493 13.9819 14.1517 13.9828C14.1491 13.9821 14.1479 13.9816 14.148 13.9816ZM14.3477 14.2874C14.3476 14.2902 14.3474 14.2917 14.3473 14.2917C14.3473 14.2918 14.3473 14.2904 14.3477 14.2874ZM9.48677 12.5976C9.4563 12.613 9.42582 12.6285 9.39531 12.6442C8.83416 12.9331 8.27868 13.2761 7.74371 13.6572C7.7779 13.6746 7.81227 13.6918 7.84681 13.7089C8.21793 13.8929 8.36963 14.3429 8.18566 14.714C8.00168 15.0851 7.55169 15.2368 7.18058 15.0528C6.93528 14.9312 6.69752 14.804 6.46728 14.6718C6.04339 15.046 5.64396 15.4389 5.27858 15.8403C4.12359 17.109 3.38736 18.3753 3.2135 19.3279C3.12912 19.7902 3.18849 20.1105 3.31684 20.3278C3.44008 20.5364 3.69236 20.7612 4.22859 20.9053C4.93004 21.0939 5.54593 20.9925 6.10705 20.6737C6.68753 20.3438 7.24063 19.7609 7.73197 18.9461C8.6969 17.3459 9.32515 15.0129 9.48677 12.5976Z" fill="currentColor"/>
</svg>
