<svg width="24" height="24" viewBox="0 0 24 24" fill="none" xmlns="http://www.w3.org/2000/svg">
<path d="M5.25 6.375C5.25 4.09683 7.09683 2.25 9.375 2.25C11.6532 2.25 13.5 4.09683 13.5 6.375C13.5 8.65317 11.6532 10.5 9.375 10.5C7.09683 10.5 5.25 8.65317 5.25 6.375Z" fill="currentColor"/>
<path d="M2.25 19.125C2.25 15.19 5.43997 12 9.375 12C13.31 12 16.5 15.19 16.5 19.125V19.1276C16.5 19.1674 16.4996 19.2074 16.499 19.2469C16.4946 19.5054 16.3574 19.7435 16.1359 19.8768C14.1607 21.0661 11.8466 21.75 9.375 21.75C6.90343 21.75 4.5893 21.0661 2.61406 19.8768C2.39256 19.7435 2.25537 19.5054 2.25103 19.2469C2.25034 19.2064 2.25 19.1657 2.25 19.125Z" fill="currentColor"/>
<path fill-rule="evenodd" clip-rule="evenodd" d="M22.1859 7.38976C22.523 7.63052 22.6011 8.09893 22.3603 8.43599L18.6103 13.686C18.4822 13.8654 18.2816 13.9793 18.0619 13.9975C17.8421 14.0157 17.6256 13.9363 17.4697 13.7804L15.2197 11.5304C14.9268 11.2375 14.9268 10.7626 15.2197 10.4697C15.5126 10.1768 15.9874 10.1768 16.2803 10.4697L17.9043 12.0937L21.1397 7.56413C21.3805 7.22707 21.8489 7.149 22.1859 7.38976Z" fill="currentColor"/>
</svg>
