<svg width="24" height="24" viewBox="0 0 24 24" fill="none" xmlns="http://www.w3.org/2000/svg">
<path d="M5.25 6.375C5.25 4.09683 7.09683 2.25 9.375 2.25C11.6532 2.25 13.5 4.09683 13.5 6.375C13.5 8.65317 11.6532 10.5 9.375 10.5C7.09683 10.5 5.25 8.65317 5.25 6.375Z" fill="currentColor"/>
<path d="M2.25 19.125C2.25 15.19 5.43997 12 9.375 12C13.31 12 16.5 15.19 16.5 19.125V19.1276C16.5 19.1674 16.4996 19.2074 16.499 19.2469C16.4946 19.5054 16.3574 19.7435 16.1359 19.8768C14.1607 21.0661 11.8466 21.75 9.375 21.75C6.90343 21.75 4.5893 21.0661 2.61406 19.8768C2.39256 19.7435 2.25537 19.5054 2.25103 19.2469C2.25034 19.2064 2.25 19.1657 2.25 19.125Z" fill="currentColor"/>
<path fill-rule="evenodd" clip-rule="evenodd" d="M18.8229 7.52595C18.3723 7.13165 17.6054 7.13165 17.1548 7.52595C16.8431 7.79871 16.3692 7.76712 16.0965 7.4554C15.8237 7.14367 15.8553 6.66985 16.167 6.39708C17.1832 5.50794 18.7945 5.50794 19.8106 6.39708C20.8855 7.33762 20.8855 8.9093 19.8106 9.84984C19.6303 10.0077 19.4321 10.1365 19.2239 10.2373C19.0557 10.3187 18.9185 10.4197 18.8324 10.5181C18.75 10.6122 18.7388 10.6729 18.7388 10.7057V11.1752C18.7388 11.5894 18.403 11.9252 17.9888 11.9252C17.5746 11.9252 17.2388 11.5894 17.2388 11.1752V10.7057C17.2388 9.73649 18.0343 9.14657 18.5705 8.88706C18.6633 8.84217 18.748 8.78651 18.8229 8.72097C19.2148 8.37806 19.2148 7.86886 18.8229 7.52595ZM17.2387 13.0532C17.2387 12.639 17.5745 12.3032 17.9887 12.3032H17.9934C18.4076 12.3032 18.7434 12.639 18.7434 13.0532V13.0579C18.7434 13.4721 18.4076 13.8079 17.9934 13.8079H17.9887C17.5745 13.8079 17.2387 13.4721 17.2387 13.0579V13.0532Z" fill="currentColor"/>
</svg>
