<svg width="24" height="24" viewBox="0 0 24 24" fill="none" xmlns="http://www.w3.org/2000/svg">
<path d="M9.53033 13.4697C9.23744 13.1768 8.76256 13.1768 8.46967 13.4697C8.17678 13.7626 8.17678 14.2374 8.46967 14.5303L9.53033 13.4697ZM11 16L10.4697 16.5303C10.7626 16.8232 11.2374 16.8232 11.5303 16.5303L11 16ZM15.5303 12.5303C15.8232 12.2374 15.8232 11.7626 15.5303 11.4697C15.2374 11.1768 14.7626 11.1768 14.4697 11.4697L15.5303 12.5303ZM18.25 7V19H19.75V7H18.25ZM17 20.25H7V21.75H17V20.25ZM5.75 19V7H4.25V19H5.75ZM7 5.75H8V4.25H7V5.75ZM16 5.75H17V4.25H16V5.75ZM7 20.25C6.30964 20.25 5.75 19.6904 5.75 19H4.25C4.25 20.5188 5.48122 21.75 7 21.75V20.25ZM18.25 19C18.25 19.6904 17.6904 20.25 17 20.25V21.75C18.5188 21.75 19.75 20.5188 19.75 19H18.25ZM19.75 7C19.75 5.48122 18.5188 4.25 17 4.25V5.75C17.6904 5.75 18.25 6.30964 18.25 7H19.75ZM5.75 7C5.75 6.30964 6.30964 5.75 7 5.75V4.25C5.48122 4.25 4.25 5.48122 4.25 7H5.75ZM8.46967 14.5303L10.4697 16.5303L11.5303 15.4697L9.53033 13.4697L8.46967 14.5303ZM11.5303 16.5303L15.5303 12.5303L14.4697 11.4697L10.4697 15.4697L11.5303 16.5303ZM10 3.75H14V2.25H10V3.75ZM14 6.25H10V7.75H14V6.25ZM10 6.25C9.30964 6.25 8.75 5.69036 8.75 5H7.25C7.25 6.51878 8.48122 7.75 10 7.75V6.25ZM15.25 5C15.25 5.69036 14.6904 6.25 14 6.25V7.75C15.5188 7.75 16.75 6.51878 16.75 5H15.25ZM14 3.75C14.6904 3.75 15.25 4.30964 15.25 5H16.75C16.75 3.48122 15.5188 2.25 14 2.25V3.75ZM10 2.25C8.48122 2.25 7.25 3.48122 7.25 5H8.75C8.75 4.30964 9.30964 3.75 10 3.75V2.25Z" fill="currentColor"/>
</svg>
