<svg width="24" height="24" viewBox="0 0 24 24" fill="none" xmlns="http://www.w3.org/2000/svg">
<path d="M20.3542 15.3542L21.0501 15.6339C21.1621 15.3551 21.097 15.0364 20.8845 14.8239C20.6721 14.6115 20.3533 14.5463 20.0745 14.6583L20.3542 15.3542ZM8.64581 3.64587L9.34172 3.92554C9.45376 3.64675 9.3886 3.328 9.17614 3.11554C8.96369 2.90308 8.64494 2.83793 8.36615 2.94996L8.64581 3.64587ZM20.0745 14.6583C19.1254 15.0398 18.0882 15.2501 17 15.2501V16.7501C18.283 16.7501 19.5099 16.5019 20.6339 16.0502L20.0745 14.6583ZM17 15.2501C12.4437 15.2501 8.75 11.5564 8.75 7.00006H7.25C7.25 12.3848 11.6152 16.7501 17 16.7501V15.2501ZM8.75 7.00006C8.75 5.91191 8.96028 4.8747 9.34172 3.92554L7.9499 3.36621C7.4982 4.4902 7.25 5.71707 7.25 7.00006H8.75ZM3.75 12.0001C3.75 8.53167 5.89056 5.56142 8.92548 4.34178L8.36615 2.94996C4.7824 4.39017 2.25 7.89847 2.25 12.0001H3.75ZM12 20.2501C7.44365 20.2501 3.75 16.5564 3.75 12.0001H2.25C2.25 17.3848 6.61522 21.7501 12 21.7501V20.2501ZM19.6583 15.0746C18.4386 18.1095 15.4684 20.2501 12 20.2501V21.7501C16.1016 21.7501 19.6099 19.2177 21.0501 15.6339L19.6583 15.0746Z" fill="currentColor"/>
</svg>
