<svg width="20" height="20" viewBox="0 0 20 20" fill="none" xmlns="http://www.w3.org/2000/svg">
<path fill-rule="evenodd" clip-rule="evenodd" d="M12.3163 3.05131C12.8402 3.22596 13.1234 3.79228 12.9487 4.31622L8.94871 16.3162C8.77406 16.8402 8.20774 17.1233 7.68379 16.9487C7.15985 16.774 6.87669 16.2077 7.05133 15.6838L11.0513 3.68377C11.226 3.15983 11.7923 2.87667 12.3163 3.05131ZM5.70712 6.29289C6.09765 6.68341 6.09765 7.31658 5.70712 7.7071L3.41422 10L5.70712 12.2929C6.09765 12.6834 6.09765 13.3166 5.70712 13.7071C5.3166 14.0976 4.68343 14.0976 4.2929 13.7071L1.29289 10.7071C0.902369 10.3166 0.902369 9.68341 1.29289 9.29289L4.2929 6.29289C4.68343 5.90237 5.3166 5.90237 5.70712 6.29289ZM14.2929 6.29289C14.6835 5.90237 15.3166 5.90237 15.7072 6.29289L18.7072 9.29289C19.0977 9.68341 19.0977 10.3166 18.7072 10.7071L15.7072 13.7071C15.3166 14.0976 14.6835 14.0976 14.2929 13.7071C13.9024 13.3166 13.9024 12.6834 14.2929 12.2929L16.5858 10L14.2929 7.7071C13.9024 7.31658 13.9024 6.68341 14.2929 6.29289Z" fill="currentColor"/>
</svg>
