<svg width="20" height="20" viewBox="0 0 20 20" fill="none" xmlns="http://www.w3.org/2000/svg">
<path fill-rule="evenodd" clip-rule="evenodd" d="M8.27598 3.0253C9.0322 1.65823 10.9678 1.65823 11.724 3.0253L17.2431 13.0025C17.9848 14.3433 17.0319 16 15.5191 16H4.48093C2.96807 16 2.01521 14.3433 2.75691 13.0025L8.27598 3.0253ZM10.9889 12.983C10.9889 13.5384 10.5461 13.9887 9.99992 13.9887C9.45369 13.9887 9.01089 13.5384 9.01089 12.983C9.01089 12.4276 9.45369 11.9773 9.99992 11.9773C10.5461 11.9773 10.9889 12.4276 10.9889 12.983ZM9.99991 4.93733C9.45369 4.93733 9.01089 5.3876 9.01089 5.94303V8.96016C9.01089 9.51559 9.45369 9.96587 9.99991 9.96587C10.5461 9.96587 10.9889 9.51559 10.9889 8.96016V5.94303C10.9889 5.3876 10.5461 4.93733 9.99991 4.93733Z" fill="currentColor"/>
</svg>
