<svg width="20" height="20" viewBox="0 0 20 20" fill="none" xmlns="http://www.w3.org/2000/svg">
<path fill-rule="evenodd" clip-rule="evenodd" d="M6 2C4.89543 2 4 2.89543 4 4V16C4 17.1046 4.89543 18 6 18H14C15.1046 18 16 17.1046 16 16V7.41421C16 6.88378 15.7893 6.37507 15.4142 6L12 2.58579C11.6249 2.21071 11.1162 2 10.5858 2H6ZM14 11C14 11.5523 13.5523 12 13 12H9.41421L10.7071 13.2929C11.0976 13.6834 11.0976 14.3166 10.7071 14.7071C10.3166 15.0976 9.68342 15.0976 9.29289 14.7071L6.29289 11.7071C5.90237 11.3166 5.90237 10.6834 6.29289 10.2929L9.29289 7.29289C9.68342 6.90237 10.3166 6.90237 10.7071 7.29289C11.0976 7.68342 11.0976 8.31658 10.7071 8.70711L9.41421 10H13C13.5523 10 14 10.4477 14 11Z" fill="currentColor"/>
</svg>
